<?xml version="1.0" encoding="UTF-8"?><svg id="Ebene_1" xmlns="http://www.w3.org/2000/svg" width="85" height="70" viewBox="0 0 85 70"><defs><style>.cls-1{fill:#fff;stroke-width:0px;}</style></defs><g id="Gruppe_54"><g id="Gruppe_53"><path id="Pfad_151" class="cls-1" d="M42.7,16.01c.55,0,1-.45,1-1V4.96c0-.55-.45-1-1-1s-1,.45-1,1v10.05c0,.55.45,1,1,1"/><path id="Pfad_152" class="cls-1" d="M42.7,56.27c-.55,0-1,.45-1,1v10.05c0,.55.45,1,1,1s1-.45,1-1v-10.05c0-.55-.45-1-1-1"/><path id="Pfad_153" class="cls-1" d="M31.85,54.94c-.48-.28-1.09-.11-1.37.37l-4.64,8.04c-.28.48-.11,1.09.37,1.37.48.28,1.09.11,1.37-.37l4.64-8.04c.28-.48.11-1.09-.37-1.37"/><path id="Pfad_154" class="cls-1" d="M53.56,17.34c.48.28,1.09.11,1.37-.37l4.65-8.04c.28-.48.11-1.09-.37-1.37s-1.09-.11-1.37.37h0l-4.64,8.04c-.28.48-.11,1.09.37,1.37"/><path id="Pfad_155" class="cls-1" d="M67.14,23.04c.18,0,.35-.05.5-.13l6.87-3.97c.48-.27.65-.88.38-1.36s-.88-.65-1.36-.38c0,0,0,0-.01,0l-6.88,3.97c-.48.28-.64.89-.37,1.37.18.31.51.5.87.5"/><path id="Pfad_156" class="cls-1" d="M17.77,49.38l-6.88,3.97c-.48.27-.65.88-.38,1.36.27.48.88.65,1.36.38,0,0,0,0,.01,0l6.88-3.97c.48-.27.65-.88.38-1.36-.27-.48-.88-.65-1.36-.38,0,0,0,0-.01,0"/><path id="Pfad_157" class="cls-1" d="M54.92,55.31c-.27-.48-.88-.65-1.36-.38-.48.27-.65.88-.38,1.36,0,0,0,0,0,.01l4.64,8.04c.28.48.89.64,1.37.37s.64-.89.37-1.37l-4.65-8.04Z"/><path id="Pfad_158" class="cls-1" d="M30.48,16.98c.28.48.89.64,1.37.36.47-.28.63-.88.36-1.36l-4.64-8.04c-.28-.48-.89-.64-1.37-.37-.48.28-.64.89-.37,1.37l4.64,8.04Z"/><path id="Pfad_159" class="cls-1" d="M74.51,53.35l-6.88-3.97c-.48-.28-1.09-.11-1.37.37s-.11,1.09.37,1.37l6.88,3.97c.48.28,1.09.12,1.37-.36.28-.48.12-1.09-.36-1.37,0,0,0,0-.01,0"/><path id="Pfad_160" class="cls-1" d="M10.9,18.93l6.88,3.97c.15.09.32.13.5.13.55,0,1-.45,1-1,0-.36-.19-.69-.5-.87l-6.88-3.97c-.48-.27-1.09-.11-1.36.38-.27.48-.11,1.08.36,1.36"/><path id="Pfad_161" class="cls-1" d="M42.7,20.53c-11.66,0-22.75,5.03-30.44,13.79-.91,1.04-.91,2.6,0,3.64,14.75,16.81,40.34,18.48,57.15,3.73,1.32-1.16,2.57-2.41,3.73-3.73.92-1.04.92-2.6,0-3.64-7.69-8.76-18.79-13.78-30.44-13.78M13.76,36.64c-.24-.29-.24-.71,0-1,5.15-5.86,11.97-10.02,19.53-11.93-6.86,5.16-8.24,14.91-3.08,21.78.88,1.17,1.91,2.2,3.08,3.08-7.57-1.91-14.38-6.07-19.53-11.93M42.7,22.53c7.52,0,13.61,6.09,13.61,13.61,0,7.52-6.09,13.61-13.61,13.61-7.52,0-13.61-6.09-13.61-13.61h0c0-7.51,6.1-13.6,13.61-13.61M71.64,36.64c-5.16,5.86-11.97,10.02-19.53,11.93,6.86-5.16,8.24-14.91,3.08-21.77-.88-1.17-1.91-2.2-3.08-3.08,7.57,1.91,14.38,6.07,19.53,11.93.24.29.24.71,0,1"/><path id="Pfad_162" class="cls-1" d="M42.7,43.64c4.14,0,7.49-3.36,7.49-7.49,0-4.14-3.36-7.49-7.49-7.49-4.14,0-7.49,3.36-7.49,7.49,0,4.14,3.36,7.49,7.49,7.49M42.7,30.65c3.03,0,5.49,2.46,5.49,5.49,0,3.03-2.46,5.49-5.49,5.49-3.03,0-5.49-2.46-5.49-5.49,0-3.03,2.46-5.49,5.49-5.49"/></g></g></svg>