<?xml version="1.0" encoding="UTF-8"?><svg id="Ebene_1" xmlns="http://www.w3.org/2000/svg" width="85" height="70" viewBox="0 0 85 70"><defs><style>.cls-1{fill:#fff;stroke-width:0px;}</style></defs><g id="Gruppe_48"><g id="Gruppe_47"><g id="Gruppe_46"><path id="Pfad_123" class="cls-1" d="M22.35,19.26c-2.86,0-5.19-2.32-5.19-5.18,0-2.86,2.32-5.19,5.18-5.19,2.86,0,5.19,2.32,5.19,5.18h0c0,2.86-2.32,5.18-5.18,5.19M22.35,10.66c-1.89,0-3.42,1.53-3.42,3.41,0,1.89,1.53,3.42,3.41,3.42s3.42-1.53,3.42-3.41h0c0-1.89-1.53-3.41-3.41-3.42"/><path id="Pfad_124" class="cls-1" d="M43.35,50.58c-2.8,0-5.06-2.27-5.07-5.06,0-2.8,2.27-5.06,5.06-5.07,2.8,0,5.06,2.27,5.07,5.06h0c0,2.79-2.27,5.06-5.06,5.06M43.35,42.22c-1.82,0-3.29,1.47-3.29,3.29,0,1.82,1.47,3.29,3.29,3.29,1.82,0,3.29-1.47,3.29-3.29h0c0-1.82-1.48-3.29-3.29-3.29"/><path id="Pfad_126" class="cls-1" d="M63.95,50.58c-2.8,0-5.06-2.27-5.07-5.06,0-2.8,2.27-5.06,5.06-5.07,2.8,0,5.06,2.27,5.07,5.06h0c0,2.79-2.27,5.06-5.06,5.06M63.95,42.22c-1.82,0-3.29,1.47-3.29,3.29,0,1.82,1.47,3.29,3.29,3.29,1.82,0,3.29-1.47,3.29-3.29h0c0-1.82-1.47-3.29-3.29-3.29"/><path id="Pfad_127" class="cls-1" d="M75.12,63.82h-1.77v-6.27c0-1.9-1.54-3.43-3.43-3.43h-11.96c-1.9,0-3.43,1.54-3.43,3.43v6.27h-1.77v-6.27c0-2.87,2.33-5.2,5.2-5.21h11.96c2.87,0,5.2,2.33,5.2,5.21v6.27Z"/><path id="Pfad_128" class="cls-1" d="M55.56,31.01c-.49,0-.89-.4-.89-.88h0v-4.81c-.02-.49.37-.9.86-.92s.9.37.92.86c0,.02,0,.04,0,.06v4.81c0,.49-.4.89-.88.89h0"/><path id="Pfad_129" class="cls-1" d="M61.03,31.01c-.49,0-.89-.4-.89-.88h0v-9.06c-.02-.49.37-.9.86-.92s.9.37.92.86c0,.02,0,.04,0,.06v9.06c0,.49-.4.89-.88.89h0"/><path id="Pfad_130" class="cls-1" d="M66.51,31.01c-.49,0-.89-.4-.89-.88h0v-13.3c.02-.49.43-.87.92-.86.47.02.84.39.86.86v13.3c0,.49-.4.89-.88.89h0"/><path class="cls-1" d="M37.35,52.35c-2.87,0-5.2,2.33-5.2,5.21v4.49h-4.29l2.44-34.41h13.48c1.83,0,3.3-1.48,3.3-3.3s-1.48-3.31-3.3-3.31H15.15c-3.09.2-5.48,2.8-5.41,5.9,0,.06,0,.16,0,.33l.97,13.67c.24,2.29,2.25,3.93,4.91,4.12l1.2,16.99h-6.2c-.47.02-.84.39-.86.86-.02.49.37.9.86.92h7.15s.04,0,.06,0c.49-.03.86-.46.82-.95l-1.32-18.69s0-.02,0-.02l-1.09-15.42s0-.02,0-.02c-.04-.48-.46-.84-.94-.8,0,0,0,0,0,0-.49.03-.85.46-.82.94l1.01,14.39c-1.5-.19-2.87-1.01-3.02-2.47l-.97-13.62v-.2c-.09-2.14,1.53-3.97,3.66-4.16h28.61c.85,0,1.53.69,1.53,1.53,0,.85-.69,1.53-1.53,1.53h-14.31c-.46,0-.85.36-.88.82l-2.57,36.18s0,0,0,0c0,.01,0,.02,0,.03,0,.01,0,.02,0,.03h0s.02.09.03.13c0,.06.02.13.04.19.02.04.05.08.07.12.03.06.07.12.11.17.03.03.06.05.1.08.06.05.11.09.18.12.04.02.08.02.12.03.06.02.12.05.18.05h.06,0s6.13,0,6.13,0v-.04s.07,0,.1,0h.01c.35-.04.64-.29.74-.64.02-.07.03-.14.03-.2h0v-5.38c0-1.9,1.54-3.43,3.43-3.43h13.62v-1.77h-13.63Z"/><path id="Pfad_135" class="cls-1" d="M73.35,8.89H29.9c-.49-.02-.9.37-.92.86-.02.49.37.9.86.92.02,0,.04,0,.06,0h42.56c.49,0,.89.4.89.89h0v21.82c0,.49-.4.89-.89.89h-39.02c-.49.02-.87.43-.86.92.02.47.39.84.86.86h39.91c.98,0,1.77-.79,1.77-1.77h0V10.66c0-.98-.79-1.77-1.77-1.77h0"/></g></g></g></svg>