<?xml version="1.0" encoding="UTF-8"?><svg id="Ebene_1" xmlns="http://www.w3.org/2000/svg" width="85" height="70" viewBox="0 0 85 70"><defs><style>.cls-1{fill:#fff;stroke-width:0px;}</style></defs><g id="Gruppe_52"><g id="Gruppe_51"><path class="cls-1" d="M62,28.06H13.04c-1.3,0-2.35,1.05-2.35,2.35v29.96c0,1.3,1.05,2.35,2.35,2.35h48.96c1.3,0,2.35-1.05,2.35-2.35v-29.96c0-1.3-1.05-2.35-2.35-2.35ZM62.35,30.41v9.62c-5.47-.08-9.89-4.5-9.97-9.97h9.62c.19,0,.35.16.35.35ZM12.69,30.41c0-.19.16-.35.35-.35h9.62c-.08,5.47-4.5,9.89-9.97,9.97v-9.62ZM13.04,60.72c-.19,0-.35-.16-.35-.35v-9.62c5.47.08,9.89,4.5,9.97,9.97h-9.62ZM62.35,60.37c0,.19-.16.35-.35.35h-9.7c.04-.11.07-.23.07-.35,0-5.54,4.46-10.02,9.97-10.1v10.1ZM50.38,60.37c0,.12.03.24.07.35h-25.79c-.08-6.58-5.39-11.89-11.97-11.97v-6.72c6.58-.08,11.89-5.39,11.97-11.97h25.72c.08,6.58,5.39,11.89,11.97,11.97v6.23c-6.62.08-11.97,5.46-11.97,12.1Z"/><path id="Pfad_149" class="cls-1" d="M76.15,18.31l-12.01-16c-.33-.44-.96-.53-1.4-.2-.08.06-.14.12-.2.2l-12.01,16c-.33.44-.24,1.07.2,1.4.17.13.38.2.6.2h5.18v5.27h2v-6.27c0-.55-.45-1-1-1h-4.18l10.01-13.33,10.01,13.33h-4.18c-.55,0-1,.45-1,1v47.55s-.03.08-.08.08c0,0,0,0,0,0H11.69c-.55,0-1,.45-1,1s.45,1,1,1h56.4c1.15,0,2.08-.93,2.08-2.08V29.06h0v-9.15h5.18c.55,0,1-.45,1-1,0-.22-.07-.43-.2-.6"/><path id="Pfad_150" class="cls-1" d="M41.54,43.98c-.5,0-.75-.37-.77-1.1-.06-2.09-1.22-3.36-3.13-3.36s-3.26,1.31-3.61,4h4.38c.42,0,.62.21.62.64,0,.39-.23.6-.66.6h-4.44c-.02.14-.02.28-.02.42v.69c0,.17,0,.35.02.52h4.46c.31-.04.6.18.64.49,0,.05,0,.1,0,.15,0,.39-.25.6-.68.6h-4.34c.31,2.74,1.56,4.13,3.77,4.13,1.7.09,3.16-1.21,3.25-2.92,0-.02,0-.03,0-.05.08-.93.29-1.18.81-1.18.58,0,.85.31.85,1,0,2.55-2.01,4.54-5.14,4.54s-4.98-2.01-5.39-5.52h-1.04c-.43,0-.66-.21-.66-.6,0-.44.21-.64.62-.64h1c-.02-.17-.02-.33-.02-.5v-.62c0-.17,0-.33.02-.5h-.95c-.43,0-.66-.21-.66-.6,0-.44.21-.64.62-.64h1.14c.56-3.54,2.43-5.41,5.41-5.41,1.33-.03,2.59.58,3.4,1.64-.02-.35-.08-.62-.08-.87,0-.5.23-.73.66-.73.48,0,.7.27.7.91,0,.73-.17,1.45-.17,2.2,0,.48.12,1.58.12,1.78,0,.64-.25.93-.75.93"/></g></g></svg>