<?xml version="1.0" encoding="UTF-8"?><svg id="Ebene_1" xmlns="http://www.w3.org/2000/svg" width="85" height="70" viewBox="0 0 85 70"><defs><style>.cls-1{fill:#fff;stroke-width:0px;}</style></defs><g id="Gruppe_50"><g id="Gruppe_49"><path id="Pfad_136" class="cls-1" d="M33.33,11.2c-2.33,0-4.22-1.89-4.22-4.22s1.89-4.22,4.22-4.22,4.22,1.89,4.22,4.22c0,2.33-1.89,4.22-4.22,4.22M33.33,4.54c-1.34,0-2.44,1.09-2.44,2.43,0,1.34,1.09,2.44,2.43,2.44,1.34,0,2.44-1.09,2.44-2.43h0c0-1.35-1.09-2.43-2.43-2.44"/><path id="Pfad_137" class="cls-1" d="M52.62,11.2c-2.33,0-4.22-1.89-4.22-4.22s1.89-4.22,4.22-4.22,4.22,1.89,4.22,4.22h0c0,2.33-1.89,4.22-4.22,4.22M52.62,4.54c-1.34,0-2.44,1.09-2.44,2.43,0,1.34,1.09,2.44,2.43,2.44s2.44-1.09,2.44-2.43h0c0-1.35-1.09-2.43-2.43-2.44"/><path id="Pfad_138" class="cls-1" d="M42.77,18.09c-2.33,0-4.22-1.89-4.22-4.22s1.89-4.22,4.22-4.22,4.22,1.89,4.22,4.22c0,2.33-1.89,4.22-4.22,4.22M42.77,11.44c-1.34,0-2.44,1.09-2.44,2.43s1.09,2.44,2.43,2.44c1.34,0,2.44-1.09,2.44-2.43h0c0-1.35-1.09-2.43-2.43-2.44"/><path id="Pfad_139" class="cls-1" d="M38.81,59.45h-1.96c.51-5.28-.33-8.51-2.86-11.04-1.65-1.88-3.89-3.15-6.35-3.58l-3.48-3.47c-.85-.87-2.03-1.34-3.24-1.29-.18-1.27-.73-5.25-1.14-8.11-.43-3.05-2.06-4.81-4.83-5.24-.58-.09-1.16.09-1.6.48-.45.4-.7.97-.68,1.57l.52,17.13c.02.74.32,1.44.84,1.96l11.6,11.6h-3.26c-.49,0-.89.4-.89.89v4.89c0,.49.4.89.89.89s.89-.4.89-.89v-4h14.64v4c0,.49.4.89.89.89s.89-.4.89-.89v-4.9c0-.49-.4-.89-.89-.89h0M27.04,58.33l-11.74-11.74c-.2-.2-.32-.47-.32-.75l-.52-17.14c0-.07.03-.13.08-.18.04-.04.09-.05.15-.05,1.98.3,3.01,1.45,3.34,3.72.43,3.04,1.03,7.35,1.17,8.32-.32.16-.63.34-.92.55-.45.33-.74.83-.78,1.39-.05.57.16,1.13.56,1.54l6.92,6.92c.37.32.93.29,1.26-.08.29-.34.29-.84,0-1.17l-6.92-6.92s-.05-.08-.05-.13c0-.03.02-.07.05-.09,1.03-.95,2.62-.91,3.6.09l3.67,3.66c.12.13.28.21.46.24,2.22.33,4.24,1.45,5.7,3.15,2.16,2.16,2.82,4.92,2.33,9.78h-7.93c.24-.35.2-.82-.1-1.12"/><path id="Pfad_140" class="cls-1" d="M71.69,27.19c-.44-.39-1.02-.56-1.6-.48-2.77.42-4.4,2.18-4.83,5.24-.41,2.86-.96,6.84-1.14,8.11-1.21-.05-2.39.42-3.24,1.29l-3.47,3.47c-2.46.43-4.7,1.7-6.35,3.58-2.52,2.52-3.36,5.75-2.86,11.04h-1.95c-.49,0-.89.4-.89.89h0v4.89c0,.49.4.89.89.89s.89-.4.89-.89v-4h14.64v4c0,.49.4.89.89.89s.89-.4.89-.89v-4.89c0-.49-.4-.89-.89-.89h-3.25l11.6-11.6c.52-.52.82-1.22.84-1.96l.51-17.13c.02-.6-.23-1.17-.68-1.57M70.07,45.84c0,.28-.12.55-.32.75l-11.74,11.74c-.3.3-.34.77-.1,1.12h-7.92c-.49-4.85.17-7.62,2.33-9.78,1.46-1.7,3.48-2.82,5.7-3.15.17-.03.33-.12.46-.24l3.67-3.67c.98-1,2.57-1.04,3.6-.09.03.02.04.05.04.09,0,.05-.01.09-.04.13l-6.92,6.92c-.34.36-.32.92.03,1.26.34.33.88.33,1.23,0l6.92-6.92c.4-.4.61-.97.56-1.54-.04-.56-.33-1.07-.78-1.39-.29-.21-.6-.39-.92-.55.13-.96.73-5.28,1.17-8.32.32-2.27,1.35-3.42,3.33-3.72.05,0,.1.01.15.05.05.04.08.11.08.18l-.51,17.14Z"/><path id="Pfad_141" class="cls-1" d="M46.32,48.92l.92-12.49c1.59-.36,3.16-1.29,3.28-2.95l.68-9.12c0-.07,0-.13,0-.2-.13-2.34-2.02-4.19-4.37-4.26h-8.44c-2.3.1-4.1,2.02-4.06,4.32l.68,9.25c.11,1.67,1.69,2.6,3.3,2.96l.93,12.51c.03.47.42.83.89.83h.07c.49-.04.86-.46.82-.96l-.98-13.21c-.03-.44-.38-.78-.81-.82h-.1c-1.09-.17-2.28-.69-2.33-1.43l-.68-9.19c-.02-1.31,1-2.39,2.3-2.47h8.4c1.37.05,2.49,1.11,2.6,2.47v.09l-.68,9.1c-.06.75-1.24,1.26-2.31,1.42h-.11c-.44.05-.78.4-.81.83l-.96,12.99c-.03.09-.05.19-.04.28,0,.49.4.89.89.89h0c.48-.01.87-.38.92-.85"/><path id="Pfad_142" class="cls-1" d="M28.12,29.36c.34.11.58.42.6.78l.75,10.1c.03.47.42.83.89.83h.07c.49-.04.86-.46.82-.96l-.84-11.42c-.03-.44-.38-.79-.81-.82h-.1c-1.09-.17-2.29-.69-2.34-1.43l-.68-9.19c-.02-1.31,1-2.39,2.3-2.47h7.41c.49,0,.89-.4.89-.89s-.4-.89-.89-.89h-7.44c-2.3.1-4.1,2.02-4.06,4.32l.68,9.25c.1,1.47,1.34,2.37,2.75,2.81"/><path id="Pfad_143" class="cls-1" d="M48.97,14.77h7.5c1.37.05,2.49,1.11,2.6,2.47v.09l-.68,9.1c-.06.75-1.24,1.26-2.31,1.42h-.11c-.44.05-.78.4-.81.84l-.85,11.43c-.04.49.33.92.82.96h.07c.47,0,.85-.36.89-.83l.8-10.73c1.59-.36,3.16-1.29,3.28-2.95l.68-9.12c0-.11,0-.18,0-.2-.13-2.34-2.03-4.19-4.37-4.26h-7.51c-.49,0-.89.4-.89.89s.4.89.89.89"/></g></g></svg>