<?xml version="1.0" encoding="UTF-8"?><svg id="Ebene_1" xmlns="http://www.w3.org/2000/svg" width="85" height="70" viewBox="0 0 85 70"><defs><style>.cls-1{fill:#fff;stroke-width:0px;}</style></defs><g id="Gruppe_45"><g id="Gruppe_44"><path id="Pfad_118" class="cls-1" d="M30.71,48.57c0,.55.45,1,1,1h21.5c.55,0,1-.45,1-1,0-6.72-4.82-10.29-9.88-13.52,5.06-3.23,9.88-6.8,9.88-13.52,0-.55-.45-1-1-1h-21.5c-.55,0-1,.45-1,1,0,6.72,4.82,10.29,9.88,13.52-5.06,3.23-9.88,6.8-9.88,13.52M32.76,22.53h19.4c-.49,5.35-4.91,8.32-9.7,11.34-4.79-3.02-9.21-5.98-9.7-11.34M42.46,36.23c4.79,3.02,9.21,5.98,9.7,11.34h-19.4c.49-5.35,4.91-8.32,9.7-11.34"/><path id="Pfad_119" class="cls-1" d="M31.71,54.11h21.5c.55,0,1-.45,1-1s-.45-1-1-1h-21.5c-.55,0-1,.45-1,1s.45,1,1,1"/><path id="Pfad_120" class="cls-1" d="M31.71,17.99h21.5c.55,0,1-.45,1-1s-.45-1-1-1h-21.5c-.55,0-1,.45-1,1s.45,1,1,1"/><path id="Pfad_121" class="cls-1" d="M79.72,34.55c-.18-.31-.51-.5-.87-.5h-4.27c-.54-17.75-15.37-31.71-33.12-31.17-8.38.26-16.32,3.77-22.15,9.8-.4.38-.42,1.01-.04,1.41s1.01.42,1.41.04c.02-.02.04-.04.06-.07,11.58-11.98,30.68-12.3,42.66-.72,5.88,5.69,9.21,13.52,9.2,21.71,0,.55.45,1,1,1h3.51l-6.71,11.63-6.71-11.63h3.51c.55,0,1-.45,1-1s-.45-1-1-1h-5.24c-.55,0-1,.45-1,1,0,.18.05.35.13.5l8.44,14.63c.28.48.89.64,1.37.37.15-.09.28-.21.37-.37l8.44-14.63c.18-.31.18-.69,0-1"/><path id="Pfad_122" class="cls-1" d="M64.17,56.03c-11.58,11.98-30.68,12.3-42.66.72-5.88-5.69-9.2-13.52-9.2-21.7,0-.55-.45-1-1-1h-3.51l6.71-11.63,6.71,11.63h-3.51c-.55,0-1,.45-1,1s.45,1,1,1h5.25c.55,0,1-.45,1-1,0-.18-.05-.35-.13-.5l-8.44-14.63c-.32-.48-.96-.61-1.44-.29-.12.08-.22.18-.29.29l-8.45,14.63c-.28.48-.11,1.09.37,1.37.15.09.33.13.5.13h4.27c.54,17.75,15.37,31.71,33.13,31.17,8.38-.26,16.32-3.77,22.14-9.8.38-.4.37-1.03-.03-1.41-.4-.38-1.02-.37-1.41.02"/></g></g></svg>