<?xml version="1.0" encoding="UTF-8"?><svg id="Ebene_1" xmlns="http://www.w3.org/2000/svg" width="85" height="70" viewBox="0 0 85 70"><defs><style>.cls-1{fill:#fff;stroke-width:0px;}</style></defs><g id="Gruppe_56"><g id="Gruppe_55"><path id="Pfad_163" class="cls-1" d="M71.9,6.83c.02-.49-.35-.91-.85-.94-.03,0-.06,0-.09,0-.85.04-20.87,1.18-34.15,14.47-.43.43-.85.89-1.26,1.35-5.45-1.36-13.35,2.78-22.33,11.76-.35.35-.35.91,0,1.26.08.08.16.14.26.18l12.25,5.56,11.53,11.53,5.56,12.25c.12.27.36.46.65.51.05,0,.11.01.16.01.24,0,.46-.09.63-.26,8.93-8.93,13.08-16.79,11.79-22.24.47-.43.94-.85,1.39-1.3,13.28-13.28,14.42-33.3,14.46-34.15M34.2,23.28c-3.67,4.56-6.51,9.73-8.39,15.27l-10.41-4.72c7.51-7.29,14.21-11.03,18.8-10.55M43.91,62.33l-4.69-10.34c5.53-1.88,10.69-4.71,15.25-8.36.42,4.58-3.33,11.24-10.56,18.7M54.5,41.3s-.02.02-.03.03c-4.75,4.08-10.27,7.19-16.22,9.14l-10.18-10.18-.73-.74c2.17-6.72,5.85-12.85,10.75-17.93,11.12-11.13,27.71-13.44,31.96-13.86-.45,4.2-1.31,8.35-2.58,12.38l-7.69-7.69c-.35-.35-.91-.35-1.26,0s-.35.91,0,1.26h0l8.32,8.32c-2.19,6.61-5.83,12.66-10.65,17.69-.54.54-1.1,1.06-1.68,1.57"/><path id="Pfad_164" class="cls-1" d="M23.75,42.71c-.34-.35-.91-.36-1.26-.01s-.36.91-.01,1.26c0,0,0,0,.01.01l11.37,11.37c.35.34.92.34,1.26-.01.34-.35.34-.9,0-1.25l-11.37-11.37Z"/><path id="Pfad_165" class="cls-1" d="M45.77,23.92c-2.24,2.24-2.24,5.87,0,8.11s5.87,2.24,8.11,0c2.24-2.24,2.24-5.87,0-8.11,0,0,0,0,0,0-2.24-2.24-5.87-2.24-8.11,0M52.62,30.77c-1.54,1.54-4.04,1.54-5.58,0s-1.54-4.04,0-5.58c1.54-1.54,4.04-1.54,5.58,0,1.54,1.54,1.54,4.04,0,5.59"/><path id="Pfad_166" class="cls-1" d="M22.07,47.77c-.35-.35-.91-.35-1.26,0,0,0,0,0,0,0l-7.99,7.99c-.35.34-.36.91-.01,1.26.34.35.91.36,1.26.01,0,0,0,0,.01-.01l7.99-7.99c.35-.35.35-.91,0-1.26,0,0,0,0,0,0"/><path id="Pfad_167" class="cls-1" d="M28.8,55.76l-7.99,7.99c-.35.34-.36.91-.01,1.26.34.35.91.36,1.26.01,0,0,0,0,.01-.01l7.99-7.99c.34-.35.34-.92-.01-1.26-.35-.34-.9-.34-1.25,0"/><path id="Pfad_168" class="cls-1" d="M21.21,57.86l4.85-4.85c.35-.35.35-.91,0-1.26s-.91-.35-1.26,0h0l-4.84,4.84c-.35.34-.36.91-.01,1.26.34.35.91.36,1.26.01,0,0,0,0,.01-.01"/></g></g></svg>