<?xml version="1.0" encoding="UTF-8" standalone="no"?>
<svg
   width="1350"
   height="920"
   overflow="hidden"
   version="1.1"
   id="svg90"
   sodipodi:docname="AssetManagement.svg"
   inkscape:version="1.4.2 (f4327f4, 2025-05-13)"
   xmlns:inkscape="http://www.inkscape.org/namespaces/inkscape"
   xmlns:sodipodi="http://sodipodi.sourceforge.net/DTD/sodipodi-0.dtd"
   xmlns="http://www.w3.org/2000/svg"
   xmlns:svg="http://www.w3.org/2000/svg">
  <defs
     id="defs90" />
  <sodipodi:namedview
     id="namedview90"
     pagecolor="#ffffff"
     bordercolor="#000000"
     borderopacity="0.25"
     inkscape:showpageshadow="2"
     inkscape:pageopacity="0.0"
     inkscape:pagecheckerboard="0"
     inkscape:deskcolor="#d1d1d1"
     inkscape:zoom="0.77531953"
     inkscape:cx="550.09578"
     inkscape:cy="452.07168"
     inkscape:window-width="1920"
     inkscape:window-height="1009"
     inkscape:window-x="-8"
     inkscape:window-y="-8"
     inkscape:window-maximized="1"
     inkscape:current-layer="g90" />
  <g
     transform="matrix(0.61794347,0,0,0.61784785,-575.60292,-337.02372)"
     id="g90"
     style="stroke-width:1.6184">
    <path
       d="m 941.5,983.334 c 0,-31.941 25.893,-57.834 57.835,-57.834 h 286.335 c 31.94,0 57.83,25.893 57.83,57.834 v 231.336 c 0,31.94 -25.89,57.83 -57.83,57.83 H 999.335 c -31.942,0 -57.835,-25.89 -57.835,-57.83 z"
       stroke="#017ac0"
       stroke-width="1.85441"
       stroke-miterlimit="8"
       fill="none"
       fill-rule="evenodd"
       id="path1" />
    <path
       d="m 2266.5,984.334 c 0,-31.941 25.89,-57.834 57.83,-57.834 h 287.34 c 31.94,0 57.83,25.893 57.83,57.834 v 231.336 c 0,31.94 -25.89,57.83 -57.83,57.83 h -287.34 c -31.94,0 -57.83,-25.89 -57.83,-57.83 z"
       stroke="#017ac0"
       stroke-width="1.85441"
       stroke-miterlimit="8"
       fill="none"
       fill-rule="evenodd"
       id="path2" />
    <path
       d="m 1383.5,984.168 c 0,-31.849 25.82,-57.668 57.67,-57.668 h 287.66 c 31.85,0 57.67,25.819 57.67,57.668 v 230.662 c 0,31.85 -25.82,57.67 -57.67,57.67 h -287.66 c -31.85,0 -57.67,-25.82 -57.67,-57.67 z"
       stroke="#017ac0"
       stroke-width="1.85441"
       stroke-miterlimit="8"
       fill="none"
       fill-rule="evenodd"
       id="path3" />
    <path
       d="m 1383.5,1737.17 c 0,-31.85 25.82,-57.67 57.67,-57.67 h 286.66 c 31.85,0 57.67,25.82 57.67,57.67 v 230.66 c 0,31.85 -25.82,57.67 -57.67,57.67 h -286.66 c -31.85,0 -57.67,-25.82 -57.67,-57.67 z"
       stroke="#017ac0"
       stroke-width="1.85441"
       stroke-miterlimit="8"
       fill="none"
       fill-rule="evenodd"
       id="path4" />
    <path
       d="m 2705.5,1736.33 c 0,-31.94 25.89,-57.83 57.83,-57.83 h 287.34 c 31.94,0 57.83,25.89 57.83,57.83 v 231.34 c 0,31.94 -25.89,57.83 -57.83,57.83 h -287.34 c -31.94,0 -57.83,-25.89 -57.83,-57.83 z"
       stroke="#017ac0"
       stroke-width="1.85441"
       stroke-miterlimit="8"
       fill="none"
       fill-rule="evenodd"
       id="path5" />
    <path
       d="m 1825.5,1360.33 c 0,-31.94 25.89,-57.83 57.83,-57.83 h 286.34 c 31.94,0 57.83,25.89 57.83,57.83 v 231.34 c 0,31.94 -25.89,57.83 -57.83,57.83 h -286.34 c -31.94,0 -57.83,-25.89 -57.83,-57.83 z"
       stroke="#017ac0"
       stroke-width="1.85441"
       stroke-miterlimit="8"
       fill="none"
       fill-rule="evenodd"
       id="path6" />
    <path
       d="m 940.5,1737.17 c 0,-31.85 25.819,-57.67 57.668,-57.67 h 287.662 c 31.85,0 57.67,25.82 57.67,57.67 v 230.66 c 0,31.85 -25.82,57.67 -57.67,57.67 H 998.168 c -31.849,0 -57.668,-25.82 -57.668,-57.67 z"
       stroke="#017ac0"
       stroke-width="1.85441"
       stroke-miterlimit="8"
       fill="none"
       fill-rule="evenodd"
       id="path7" />
    <path
       d="m 2705.5,612.168 c 0,-31.849 25.82,-57.668 57.67,-57.668 h 287.66 c 31.85,0 57.67,25.819 57.67,57.668 v 230.664 c 0,31.849 -25.82,57.668 -57.67,57.668 h -287.66 c -31.85,0 -57.67,-25.819 -57.67,-57.668 z"
       stroke="#017ac0"
       stroke-width="1.85441"
       stroke-miterlimit="8"
       fill="none"
       fill-rule="evenodd"
       id="path8" />
    <path
       d="m 2267.5,612.335 c 0,-31.942 25.89,-57.835 57.83,-57.835 h 286.34 c 31.94,0 57.83,25.893 57.83,57.835 v 231.331 c 0,31.941 -25.89,57.835 -57.83,57.835 h -286.34 c -31.94,0 -57.83,-25.894 -57.83,-57.835 z"
       stroke="#017ac0"
       stroke-width="1.85441"
       stroke-miterlimit="8"
       fill="none"
       fill-rule="evenodd"
       id="path9" />
    <path
       d="m 940.5,612.334 c 0,-31.941 25.893,-57.834 57.834,-57.834 h 287.336 c 31.94,0 57.83,25.893 57.83,57.834 v 231.332 c 0,31.941 -25.89,57.834 -57.83,57.834 H 998.334 c -31.941,0 -57.834,-25.893 -57.834,-57.834 z"
       stroke="#017ac0"
       stroke-width="1.85441"
       stroke-miterlimit="8"
       fill="none"
       fill-rule="evenodd"
       id="path10" />
    <path
       d="m 2705.5,984.168 c 0,-31.849 25.82,-57.668 57.67,-57.668 h 287.66 c 31.85,0 57.67,25.819 57.67,57.668 v 230.662 c 0,31.85 -25.82,57.67 -57.67,57.67 h -287.66 c -31.85,0 -57.67,-25.82 -57.67,-57.67 z"
       stroke="#017ac0"
       stroke-width="1.85441"
       stroke-miterlimit="8"
       fill="none"
       fill-rule="evenodd"
       id="path11" />
    <path
       d="m 1383.5,612.168 c 0,-31.849 25.82,-57.668 57.67,-57.668 h 287.66 c 31.85,0 57.67,25.819 57.67,57.668 v 230.664 c 0,31.849 -25.82,57.668 -57.67,57.668 h -287.66 c -31.85,0 -57.67,-25.819 -57.67,-57.668 z"
       stroke="#017ac0"
       stroke-width="1.85441"
       stroke-miterlimit="8"
       fill="none"
       fill-rule="evenodd"
       id="path12" />
    <path
       d="m 1825.5,984.168 c 0,-31.849 25.82,-57.668 57.67,-57.668 h 287.66 c 31.85,0 57.67,25.819 57.67,57.668 v 230.662 c 0,31.85 -25.82,57.67 -57.67,57.67 h -287.66 c -31.85,0 -57.67,-25.82 -57.67,-57.67 z"
       stroke="#017ac0"
       stroke-width="1.85441"
       stroke-miterlimit="8"
       fill="none"
       fill-rule="evenodd"
       id="path13" />
    <path
       d="m 940.5,1360.33 c 0,-31.94 25.893,-57.83 57.834,-57.83 h 287.336 c 31.94,0 57.83,25.89 57.83,57.83 v 231.34 c 0,31.94 -25.89,57.83 -57.83,57.83 H 998.334 c -31.941,0 -57.834,-25.89 -57.834,-57.83 z"
       stroke="#017ac0"
       stroke-width="1.85441"
       stroke-miterlimit="8"
       fill="none"
       fill-rule="evenodd"
       id="path14" />
    <path
       d="m 1383.5,1360.33 c 0,-31.94 25.89,-57.83 57.83,-57.83 h 287.34 c 31.94,0 57.83,25.89 57.83,57.83 v 231.34 c 0,31.94 -25.89,57.83 -57.83,57.83 h -287.34 c -31.94,0 -57.83,-25.89 -57.83,-57.83 z"
       stroke="#017ac0"
       stroke-width="1.85441"
       stroke-miterlimit="8"
       fill="none"
       fill-rule="evenodd"
       id="path15" />
    <path
       d="m 2266.5,1360.33 c 0,-31.94 25.89,-57.83 57.83,-57.83 h 287.34 c 31.94,0 57.83,25.89 57.83,57.83 v 231.34 c 0,31.94 -25.89,57.83 -57.83,57.83 h -287.34 c -31.94,0 -57.83,-25.89 -57.83,-57.83 z"
       stroke="#017ac0"
       stroke-width="1.85441"
       stroke-miterlimit="8"
       fill="none"
       fill-rule="evenodd"
       id="path16" />
    <path
       d="m 2267.5,1737.17 c 0,-31.85 25.82,-57.67 57.67,-57.67 h 286.66 c 31.85,0 57.67,25.82 57.67,57.67 v 230.66 c 0,31.85 -25.82,57.67 -57.67,57.67 h -286.66 c -31.85,0 -57.67,-25.82 -57.67,-57.67 z"
       stroke="#017ac0"
       stroke-width="1.85441"
       stroke-miterlimit="8"
       fill="none"
       fill-rule="evenodd"
       id="path17" />
    <path
       d="m 1825.5,612.334 c 0,-31.941 25.89,-57.834 57.83,-57.834 h 286.34 c 31.94,0 57.83,25.893 57.83,57.834 v 231.332 c 0,31.941 -25.89,57.834 -57.83,57.834 h -286.34 c -31.94,0 -57.83,-25.893 -57.83,-57.834 z"
       stroke="#017ac0"
       stroke-width="1.85441"
       stroke-miterlimit="8"
       fill="none"
       fill-rule="evenodd"
       id="path18" />
    <path
       d="m 2705.5,1360.33 c 0,-31.94 25.89,-57.83 57.83,-57.83 h 287.34 c 31.94,0 57.83,25.89 57.83,57.83 v 231.34 c 0,31.94 -25.89,57.83 -57.83,57.83 h -287.34 c -31.94,0 -57.83,-25.89 -57.83,-57.83 z"
       stroke="#017ac0"
       stroke-width="1.85441"
       stroke-miterlimit="8"
       fill="none"
       fill-rule="evenodd"
       id="path19" />
    <path
       d="m 1825.5,1737.17 c 0,-31.85 25.82,-57.67 57.67,-57.67 h 286.66 c 31.85,0 57.67,25.82 57.67,57.67 v 230.66 c 0,31.85 -25.82,57.67 -57.67,57.67 h -286.66 c -31.85,0 -57.67,-25.82 -57.67,-57.67 z"
       stroke="#017ac0"
       stroke-width="1.85441"
       stroke-miterlimit="8"
       fill="none"
       fill-rule="evenodd"
       id="path20" />
    <path
       d="M 0,0 40.0829,0.574541"
       stroke="#4472c4"
       stroke-width="1.85441"
       stroke-miterlimit="8"
       fill="none"
       fill-rule="evenodd"
       transform="matrix(1,0,0,-1,1343.5,728.074)"
       id="path21" />
    <path
       d="m 1786.5,727.5 38.52,0.574"
       stroke="#4472c4"
       stroke-width="1.85441"
       stroke-miterlimit="8"
       fill="none"
       fill-rule="evenodd"
       id="path22" />
    <path
       d="m 2227.5,728.5 h 39.08"
       stroke="#4472c4"
       stroke-width="1.85441"
       stroke-miterlimit="8"
       fill="none"
       fill-rule="evenodd"
       id="path23" />
    <path
       d="M 0,0 35.7554,0.574541"
       stroke="#4472c4"
       stroke-width="1.85441"
       stroke-miterlimit="8"
       fill="none"
       fill-rule="evenodd"
       transform="matrix(1,0,0,-1,2669.5,728.074)"
       id="path24" />
    <path
       d="M 1142.52,926.03 1142.5,901.5"
       stroke="#4472c4"
       stroke-width="1.85441"
       stroke-miterlimit="8"
       fill="none"
       fill-rule="evenodd"
       id="path25" />
    <path
       d="M 0,0 0.122343,25.291"
       stroke="#4472c4"
       stroke-width="1.85441"
       stroke-miterlimit="8"
       fill="none"
       fill-rule="evenodd"
       transform="matrix(1,0,0,-1,1585.5,925.791)"
       id="path26" />
    <path
       d="M 2026.59,926.214 2026.5,901.5"
       stroke="#4472c4"
       stroke-width="1.85441"
       stroke-miterlimit="8"
       fill="none"
       fill-rule="evenodd"
       id="path27" />
    <path
       d="M 0,0 0.237467,25.5418"
       stroke="#4472c4"
       stroke-width="1.85441"
       stroke-miterlimit="8"
       fill="none"
       fill-rule="evenodd"
       transform="matrix(1,0,0,-1,2468.5,927.042)"
       id="path28" />
    <path
       d="M 0,0 3.60892e-4,25.291"
       stroke="#4472c4"
       stroke-width="1.85441"
       stroke-miterlimit="8"
       fill="none"
       fill-rule="evenodd"
       transform="matrix(1,0,0,-1,2907.5,925.791)"
       id="path29" />
    <path
       d="M 0,0 0.202461,29.687"
       stroke="#4472c4"
       stroke-width="1.85441"
       stroke-miterlimit="8"
       fill="none"
       fill-rule="evenodd"
       transform="matrix(1,0,0,-1,1142.5,1302.19)"
       id="path30" />
    <path
       d="m 1142.68,1679.19 -0.18,-29.69"
       stroke="#4472c4"
       stroke-width="1.85441"
       stroke-miterlimit="8"
       fill="none"
       fill-rule="evenodd"
       id="path31" />
    <path
       d="M 0,0 0.475656,29.9959"
       stroke="#4472c4"
       stroke-width="1.85441"
       stroke-miterlimit="8"
       fill="none"
       fill-rule="evenodd"
       transform="matrix(1,0,0,-1,1584.5,1679.5)"
       id="path32" />
    <path
       d="M 0,0 3.60892e-4,29.9959"
       stroke="#4472c4"
       stroke-width="1.85441"
       stroke-miterlimit="8"
       fill="none"
       fill-rule="evenodd"
       transform="matrix(1,0,0,-1,2026.5,1679.5)"
       id="path33" />
    <path
       d="m 2468.74,1678.76 -0.24,-29.26"
       stroke="#4472c4"
       stroke-width="1.85441"
       stroke-miterlimit="8"
       fill="none"
       fill-rule="evenodd"
       id="path34" />
    <path
       d="M 0,0 0.112238,29.0717"
       stroke="#4472c4"
       stroke-width="1.85441"
       stroke-miterlimit="8"
       fill="none"
       fill-rule="evenodd"
       transform="matrix(1,0,0,-1,2906.5,1678.57)"
       id="path35" />
    <path
       d="M 0,0 3.60892e-4,30.1078"
       stroke="#4472c4"
       stroke-width="1.85441"
       stroke-miterlimit="8"
       fill="none"
       fill-rule="evenodd"
       transform="matrix(1,0,0,-1,2907.5,1302.61)"
       id="path36" />
    <path
       d="M 0,0 3.60892e-4,29.2824"
       stroke="#4472c4"
       stroke-width="1.85441"
       stroke-miterlimit="8"
       fill="none"
       fill-rule="evenodd"
       transform="matrix(1,0,0,-1,2468.5,1302.78)"
       id="path37" />
    <path
       d="M 0,0 0.087336,29.3781"
       stroke="#4472c4"
       stroke-width="1.85441"
       stroke-miterlimit="8"
       fill="none"
       fill-rule="evenodd"
       transform="matrix(1,0,0,-1,2026.5,1301.88)"
       id="path38" />
    <path
       d="M 0,0 0.253346,29.3759"
       stroke="#4472c4"
       stroke-width="1.85441"
       stroke-miterlimit="8"
       fill="none"
       fill-rule="evenodd"
       transform="matrix(1,0,0,-1,1584.5,1301.88)"
       id="path39" />
    <path
       d="m 1786.5,1475.5 h 38.9"
       stroke="#4472c4"
       stroke-width="1.85441"
       stroke-miterlimit="8"
       fill="none"
       fill-rule="evenodd"
       id="path40" />
    <path
       d="m 2227.5,1475.5 38.84,0.73"
       stroke="#4472c4"
       stroke-width="1.85441"
       stroke-miterlimit="8"
       fill="none"
       fill-rule="evenodd"
       id="path41" />
    <path
       d="M 0,0 35.9929,0.0920276"
       stroke="#4472c4"
       stroke-width="1.85441"
       stroke-miterlimit="8"
       fill="none"
       fill-rule="evenodd"
       transform="matrix(1,0,0,-1,2669.5,1476.59)"
       id="path42" />
    <path
       d="M 0,0 39.8873,0.308924"
       stroke="#4472c4"
       stroke-width="1.85441"
       stroke-miterlimit="8"
       fill="none"
       fill-rule="evenodd"
       transform="matrix(1,0,0,-1,1343.5,1475.81)"
       id="path43" />
    <path
       d="M 0,0 38.7313,0.00216535"
       stroke="#4472c4"
       stroke-width="1.85441"
       stroke-miterlimit="8"
       fill="none"
       fill-rule="evenodd"
       transform="matrix(1,0,0,-1,1786.5,1099.5)"
       id="path44" />
    <path
       d="m 2228.5,1099.5 38.76,0.83"
       stroke="#4472c4"
       stroke-width="1.85441"
       stroke-miterlimit="8"
       fill="none"
       fill-rule="evenodd"
       id="path45" />
    <path
       d="M 0,0 35.9929,0.825361"
       stroke="#4472c4"
       stroke-width="1.85441"
       stroke-miterlimit="8"
       fill="none"
       fill-rule="evenodd"
       transform="matrix(1,0,0,-1,2669.5,1100.33)"
       id="path46" />
    <path
       d="m 1343.5,1099.5 39.96,0.09"
       stroke="#4472c4"
       stroke-width="1.85441"
       stroke-miterlimit="8"
       fill="none"
       fill-rule="evenodd"
       id="path47" />
    <path
       d="m 1343.5,1852.5 h 39.23"
       stroke="#4472c4"
       stroke-width="1.85441"
       stroke-miterlimit="8"
       fill="none"
       fill-rule="evenodd"
       id="path48" />
    <path
       d="m 1785.5,1852.5 h 39.37"
       stroke="#4472c4"
       stroke-width="1.85441"
       stroke-miterlimit="8"
       fill="none"
       fill-rule="evenodd"
       id="path49" />
    <path
       d="m 2227.5,1852.5 h 39.08"
       stroke="#4472c4"
       stroke-width="1.85441"
       stroke-miterlimit="8"
       fill="none"
       fill-rule="evenodd"
       id="path50" />
    <path
       d="M 0,0 35.6432,0.376411"
       stroke="#4472c4"
       stroke-width="1.85441"
       stroke-miterlimit="8"
       fill="none"
       fill-rule="evenodd"
       transform="matrix(1,0,0,-1,2669.5,1852.88)"
       id="path51" />
    <text
       style="font-size:44px;font-family:Arial, sans-serif;text-align:center;text-anchor:middle;white-space:pre;fill:#333333;stroke-width:1.6184"
       id="text55"
       x="1147.7924"
       y="687.98358"><tspan
         sodipodi:role="line"
         id="tspan3"
         x="1147.7924"
         y="687.98358">Идентификация/ </tspan><tspan
         sodipodi:role="line"
         id="tspan4"
         x="1147.7924"
         y="742.98358">управление на </tspan><tspan
         sodipodi:role="line"
         x="1153.9047"
         y="797.98358"
         id="tspan6">due diligence </tspan></text>
    <text
       style="font-size:44px;font-family:Arial, sans-serif;text-anchor:middle;white-space:pre;fill:#333333;stroke-width:1.6184"
       id="text58"
       x="1593.7566"
       y="687.79291"><tspan
         sodipodi:role="line"
         id="tspan7"
         x="1593.7566"
         y="687.79291">Остойностяване </tspan><tspan
         sodipodi:role="line"
         id="tspan8"
         x="1593.7566"
         y="742.79291">на недвижими </tspan><tspan
         sodipodi:role="line"
         x="1599.8689"
         y="797.79291"
         id="tspan9">имоти </tspan></text>
    <text
       style="font-size:44px;font-family:Arial, sans-serif;text-anchor:middle;white-space:pre;fill:#333333;stroke-width:1.6184"
       x="2031.6615"
       y="658.82935"
       id="text60"><tspan
         sodipodi:role="line"
         id="tspan10"
         x="2031.6615"
         y="658.82935">Контролинг на </tspan><tspan
         sodipodi:role="line"
         x="2031.6615"
         y="713.82935"
         id="tspan13">недвижими имоти </tspan><tspan
         sodipodi:role="line"
         x="2031.6615"
         y="768.82935"
         id="tspan14">и управление </tspan><tspan
         sodipodi:role="line"
         x="2037.7738"
         y="823.82935"
         id="tspan15">на риска </tspan></text>
    <text
       style="font-size:44px;font-family:Arial, sans-serif;text-anchor:middle;white-space:pre;fill:#333333;stroke-width:1.6184"
       x="2474.2974"
       y="715.88519"
       id="text61"><tspan
         sodipodi:role="line"
         id="tspan16"
         x="2474.2974"
         y="715.88519">Управление </tspan><tspan
         sodipodi:role="line"
         id="tspan17"
         x="2480.4097"
         y="770.88519">на сделки </tspan></text>
    <text
       style="font-size:44px;font-family:Arial, sans-serif;text-anchor:middle;white-space:pre;fill:#333333;stroke-width:1.6184"
       x="2912.8582"
       y="637.55194"
       id="text64"><tspan
         sodipodi:role="line"
         id="tspan18"
         x="2912.8582"
         y="637.55194">Проектиране, </tspan><tspan
         sodipodi:role="line"
         id="tspan19"
         x="2912.8582"
         y="692.55194">управление и </tspan><tspan
         sodipodi:role="line"
         x="2912.8582"
         y="747.55194"
         id="tspan21">контрол, </tspan><tspan
         sodipodi:role="line"
         x="2912.8582"
         y="802.55194"
         id="tspan22">ориентирани към </tspan><tspan
         sodipodi:role="line"
         x="2912.8582"
         y="857.55194"
         id="tspan23">стойностите</tspan></text>
    <text
       style="font-size:44px;font-family:Arial, sans-serif;text-anchor:middle;white-space:pre;fill:#333333;stroke-width:1.6184"
       x="1145.7666"
       y="1058.4758"
       id="text65"><tspan
         sodipodi:role="line"
         id="tspan24"
         x="1145.7666"
         y="1058.4758">Представителство </tspan><tspan
         sodipodi:role="line"
         id="tspan25"
         x="1145.7666"
         y="1113.4758">на доверен </tspan><tspan
         sodipodi:role="line"
         x="1151.8789"
         y="1168.4758"
         id="tspan26">собственик </tspan></text>
    <text
       style="font-size:44px;font-family:Arial, sans-serif;text-anchor:middle;white-space:pre;fill:#333333;stroke-width:1.6184"
       x="1587.8436"
       y="1002.3672"
       id="text67"><tspan
         sodipodi:role="line"
         id="tspan27"
         x="1587.8436"
         y="1002.3672">Създаване на </tspan><tspan
         sodipodi:role="line"
         id="tspan28"
         x="1587.8436"
         y="1057.3673">бизнес планове, </tspan><tspan
         sodipodi:role="line"
         x="1587.8436"
         y="1112.3673"
         id="tspan29">специфични за </tspan><tspan
         sodipodi:role="line"
         x="1587.8436"
         y="1167.3673"
         id="tspan30">недвижимите </tspan><tspan
         sodipodi:role="line"
         x="1593.9559"
         y="1222.3673"
         id="tspan31">имоти </tspan></text>
    <text
       style="font-size:44px;font-family:Arial, sans-serif;text-anchor:middle;white-space:pre;fill:#333333;stroke-width:1.6184"
       x="2032.6605"
       y="1085.7067"
       id="text68"><tspan
         sodipodi:role="line"
         id="tspan32"
         x="2032.6605"
         y="1085.7067">Управление </tspan><tspan
         sodipodi:role="line"
         id="tspan33"
         x="2032.6605"
         y="1140.7067">на проекти</tspan></text>
    <text
       style="font-size:44px;font-family:Arial, sans-serif;text-anchor:middle;white-space:pre;fill:#333333;stroke-width:1.6184"
       x="2467.5386"
       y="1060.78"
       id="text69"><tspan
         sodipodi:role="line"
         id="tspan35"
         x="2467.5386"
         y="1060.78">Анализ на </tspan><tspan
         sodipodi:role="line"
         id="tspan36"
         x="2467.5386"
         y="1115.78">пазара и </tspan><tspan
         sodipodi:role="line"
         x="2473.6509"
         y="1170.78"
         id="tspan37">местоположението </tspan></text>
    <text
       style="font-size:44px;font-family:Arial, sans-serif;text-anchor:middle;white-space:pre;fill:#333333;stroke-width:1.6184"
       x="2914.4473"
       y="1027.6608"
       id="text72"><tspan
         sodipodi:role="line"
         id="tspan38"
         x="2914.4473"
         y="1027.6608">Идентификация/ </tspan><tspan
         sodipodi:role="line"
         id="tspan39"
         x="2914.4473"
         y="1082.6608">управление и </tspan><tspan
         sodipodi:role="line"
         x="2914.4473"
         y="1137.6608"
         id="tspan40">провеждане на </tspan><tspan
         sodipodi:role="line"
         x="2920.5596"
         y="1192.6608"
         id="tspan41">due diligence </tspan></text>
    <text
       style="font-size:44px;font-family:Arial, sans-serif;text-anchor:middle;white-space:pre;fill:#333333;stroke-width:1.6184"
       x="1140.5045"
       y="1379.4264"
       id="text75"><tspan
         sodipodi:role="line"
         id="tspan69"
         x="1140.5045"
         y="1379.4264">Стратегически </tspan><tspan
         sodipodi:role="line"
         id="tspan70"
         x="1140.5045"
         y="1434.4264">насоки и контрол </tspan><tspan
         sodipodi:role="line"
         x="1140.5045"
         y="1489.4264"
         id="tspan71">на управлението </tspan><tspan
         sodipodi:role="line"
         x="1140.5045"
         y="1544.4264"
         id="tspan72">на сгради/ </tspan><tspan
         sodipodi:role="line"
         x="1146.6168"
         y="1599.4264"
         id="tspan73">недвижими имоти </tspan></text>
    <text
       style="font-size:44px;line-height:1;font-family:Arial, sans-serif;text-anchor:middle;white-space:pre;fill:#333333;stroke-width:1.6184"
       x="1582.0245"
       y="1421.8253"
       id="text78"><tspan
         sodipodi:role="line"
         x="1582.0245"
         y="1421.8253"
         id="tspan5">Избор, </tspan><tspan
         sodipodi:role="line"
         x="1582.0245"
         y="1465.8253"
         id="tspan66">управление и </tspan><tspan
         sodipodi:role="line"
         x="1582.0245"
         y="1509.8253"
         id="tspan67">контрол на </tspan><tspan
         sodipodi:role="line"
         x="1588.1368"
         y="1553.8253"
         id="tspan68">недвижими имоти </tspan></text>
    <text
       style="font-size:44px;font-family:Arial, sans-serif;text-anchor:middle;white-space:pre;fill:#333333;stroke-width:1.6184"
       x="2031.0724"
       y="1432.0111"
       id="text80"><tspan
         sodipodi:role="line"
         id="tspan52"
         x="2031.0724"
         y="1432.0111">Идентифициране </tspan><tspan
         sodipodi:role="line"
         id="tspan53"
         x="2031.0724"
         y="1487.0111">и използване на </tspan><tspan
         sodipodi:role="line"
         x="2037.1847"
         y="1542.0111"
         id="tspan54">потенциали </tspan></text>
    <text
       style="font-size:44px;font-family:Arial, sans-serif;text-anchor:middle;white-space:pre;fill:#333333;stroke-width:1.6184"
       x="2472.2192"
       y="1459.4944"
       id="text81"><tspan
         sodipodi:role="line"
         id="tspan48"
         x="2472.2192"
         y="1459.4944">Маркетинг на </tspan><tspan
         sodipodi:role="line"
         id="tspan49"
         x="2478.3315"
         y="1514.4944">недвижими имоти </tspan></text>
    <text
       style="font-size:44px;font-family:Arial, sans-serif;text-anchor:middle;white-space:pre;fill:#333333;stroke-width:1.6184"
       x="2909.2395"
       y="1462.2323"
       id="text82"><tspan
         sodipodi:role="line"
         id="tspan42"
         x="2909.2395"
         y="1462.2323">Проучване на </tspan><tspan
         sodipodi:role="line"
         id="tspan43"
         x="2915.3518"
         y="1517.2323">ниво обект </tspan></text>
    <text
       style="font-size:44px;font-family:Arial, sans-serif;text-anchor:middle;white-space:pre;fill:#333333;stroke-width:1.6184"
       x="1150.8148"
       y="1840.402"
       id="text83"><tspan
         sodipodi:role="line"
         id="tspan64"
         x="1150.8148"
         y="1840.402">Управление на </tspan><tspan
         sodipodi:role="line"
         id="tspan65"
         x="1150.8148"
         y="1895.402">изпълнението</tspan></text>
    <text
       style="font-size:44px;font-family:Arial, sans-serif;text-anchor:middle;white-space:pre;fill:#333333;stroke-width:1.6184"
       x="1591.7451"
       y="1787.6522"
       id="text85"><tspan
         sodipodi:role="line"
         id="tspan59"
         x="1591.7451"
         y="1787.6522">Управление и </tspan><tspan
         sodipodi:role="line"
         id="tspan60"
         x="1591.7451"
         y="1842.6522">развитие на </tspan><tspan
         sodipodi:role="line"
         x="1591.7451"
         y="1897.6522"
         id="tspan62">стойността/</tspan><tspan
         sodipodi:role="line"
         x="1597.8574"
         y="1952.6522"
         id="tspan63">ползата </tspan></text>
    <text
       style="font-size:44px;font-family:Arial, sans-serif;text-anchor:middle;white-space:pre;fill:#333333;stroke-width:1.6184"
       x="2027.3405"
       y="1782.9855"
       id="text87"><tspan
         sodipodi:role="line"
         id="tspan55"
         x="2027.3405"
         y="1782.9855">Дейности за </tspan><tspan
         sodipodi:role="line"
         id="tspan56"
         x="2027.3405"
         y="1837.9855">отчетността на </tspan><tspan
         sodipodi:role="line"
         x="2027.3405"
         y="1892.9855"
         id="tspan57">ниво обект и/ </tspan><tspan
         sodipodi:role="line"
         x="2033.4528"
         y="1947.9855"
         id="tspan58">или портфолио </tspan></text>
    <text
       style="font-size:44px;font-family:Arial, sans-serif;text-anchor:middle;white-space:pre;fill:#333333;stroke-width:1.6184"
       x="2468.5596"
       y="1838.1573"
       id="text88"><tspan
         sodipodi:role="line"
         id="tspan50"
         x="2468.5596"
         y="1838.1573">Контрол на </tspan><tspan
         sodipodi:role="line"
         id="tspan51"
         x="2474.6719"
         y="1893.1573">недвижими имоти </tspan></text>
    <text
       style="font-size:44px;font-family:Arial, sans-serif;text-anchor:middle;white-space:pre;fill:#333333;stroke-width:1.6184"
       x="2911.8521"
       y="1808.0948"
       id="text90"><tspan
         sodipodi:role="line"
         id="tspan44"
         x="2911.8521"
         y="1808.0948">Инвестиции в </tspan><tspan
         sodipodi:role="line"
         id="tspan45"
         x="2911.8521"
         y="1863.0948">недвижими имоти </tspan><tspan
         sodipodi:role="line"
         x="2911.8521"
         y="1918.0948"
         id="tspan46">и финансиране</tspan></text>
  </g>
</svg>
