<?xml version="1.0" encoding="UTF-8" standalone="no"?>
<svg
   width="1510"
   height="920"
   overflow="hidden"
   version="1.1"
   id="svg62"
   sodipodi:docname="DigitalSolutions.svg"
   inkscape:version="1.4.2 (f4327f4, 2025-05-13)"
   xmlns:inkscape="http://www.inkscape.org/namespaces/inkscape"
   xmlns:sodipodi="http://sodipodi.sourceforge.net/DTD/sodipodi-0.dtd"
   xmlns="http://www.w3.org/2000/svg"
   xmlns:svg="http://www.w3.org/2000/svg">
  <defs
     id="defs62" />
  <sodipodi:namedview
     id="namedview62"
     pagecolor="#ffffff"
     bordercolor="#000000"
     borderopacity="0.25"
     inkscape:showpageshadow="2"
     inkscape:pageopacity="0.0"
     inkscape:pagecheckerboard="0"
     inkscape:deskcolor="#d1d1d1"
     inkscape:zoom="0.84947368"
     inkscape:cx="783.42627"
     inkscape:cy="558.58117"
     inkscape:window-width="1920"
     inkscape:window-height="1009"
     inkscape:window-x="-8"
     inkscape:window-y="-8"
     inkscape:window-maximized="1"
     inkscape:current-layer="g56" />
  <g
     transform="matrix(0.51437533,0,0,0.51437533,-365.8206,-271.61767)"
     id="g56"
     style="stroke-width:1.94411">
    <path
       d="m 1794.3758,1411.5 c 0,-179.49 145.51,-325 325,-325 179.49,0 325,145.51 325,325 0,179.49 -145.51,325 -325,325 -179.49,0 -325,-145.51 -325,-325 z"
       stroke="#a7a6a6"
       stroke-width="2.22761"
       stroke-miterlimit="8"
       fill="none"
       fill-rule="evenodd"
       id="path1" />
    <text
       style="font-size:44px;font-family:Arial;text-anchor:middle;white-space:pre;fill:#017ac0;stroke-width:1.94411"
       id="text3"
       x="2130.0913"
       y="1381.0165"><tspan
         sodipodi:role="line"
         id="tspan81"
         x="2130.0913"
         y="1381.0165">Дигитални </tspan><tspan
         sodipodi:role="line"
         id="tspan82"
         x="2130.0913"
         y="1436.0165">решения</tspan></text>
    <path
       d="m 1494.3758,964.5 c 0,-93.889 75.89,-170 169.5,-170 93.61,0 169.5,76.111 169.5,170 0,93.89 -75.89,170 -169.5,170 -93.61,0 -169.5,-76.11 -169.5,-170 z"
       stroke="#44546a"
       stroke-width="2.22761"
       stroke-miterlimit="8"
       fill="none"
       fill-rule="evenodd"
       id="path3" />
    <path
       d="m 1326.3458,1374.5 c 0,-93.61 76.11,-169.5 170,-169.5 93.89,0 170,75.89 170,169.5 0,93.61 -76.11,169.5 -170,169.5 -93.89,0 -170,-75.89 -170,-169.5 z"
       stroke="#33ccff"
       stroke-width="2.22761"
       stroke-miterlimit="8"
       fill="none"
       fill-rule="evenodd"
       id="path4" />
    <path
       d="m 2389.3758,1849.5 c 0,-93.89 76.11,-170 170,-170 93.89,0 170,76.11 170,170 0,93.89 -76.11,170 -170,170 -93.89,0 -170,-76.11 -170,-170 z"
       stroke="#4472c4"
       stroke-width="2.22761"
       stroke-miterlimit="8"
       fill="none"
       fill-rule="evenodd"
       id="path5" />
    <path
       d="m 2548.3758,1393 c 0,-93.61 75.89,-169.5 169.5,-169.5 93.61,0 169.5,75.89 169.5,169.5 0,93.61 -75.89,169.5 -169.5,169.5 -93.61,0 -169.5,-75.89 -169.5,-169.5 z"
       stroke="#bf9000"
       stroke-width="2.22761"
       stroke-miterlimit="8"
       fill="none"
       fill-rule="evenodd"
       id="path6" />
    <path
       d="m 2353.3758,938.5 c 0,-93.888 75.89,-170 169.5,-170 93.61,0 169.5,76.112 169.5,170 0,93.89 -75.89,170 -169.5,170 -93.61,0 -169.5,-76.11 -169.5,-170 z"
       stroke="#f4b183"
       stroke-width="2.22761"
       stroke-miterlimit="8"
       fill="none"
       fill-rule="evenodd"
       id="path7" />
    <path
       d="m 2312.3758,1153.68 90.4797,-95.1774"
       stroke="#017ac0"
       stroke-width="2.22761"
       stroke-miterlimit="8"
       fill="none"
       fill-rule="evenodd"
       id="path8" />
    <path
       d="m 2444.3758,1396.324 104.021,-2.819"
       stroke="#017ac0"
       stroke-width="2.22761"
       stroke-miterlimit="8"
       fill="none"
       fill-rule="evenodd"
       id="path9" />
    <path
       d="m 1783.3758,1084.5 105.88,97.45"
       stroke="#017ac0"
       stroke-width="2.22761"
       stroke-miterlimit="8"
       fill="none"
       fill-rule="evenodd"
       id="path10" />
    <path
       d="m 1666.7348,1366.903 132.631,-0.453"
       stroke="#017ac0"
       stroke-width="2.22761"
       stroke-miterlimit="8"
       fill="none"
       fill-rule="evenodd"
       id="path11" />
    <path
       d="m 2439.7158,1729.91 -90.34,-88.41"
       stroke="#017ac0"
       stroke-width="2.22761"
       stroke-miterlimit="8"
       fill="none"
       fill-rule="evenodd"
       id="path12" />
    <path
       d="m 1929.3758,1996 c 0,-103 83.72,-186.5 187,-186.5 103.28,0 187,83.5 187,186.5 0,103 -83.72,186.5 -187,186.5 -103.28,0 -187,-83.5 -187,-186.5 z"
       stroke="#7030a0"
       stroke-width="2.22761"
       stroke-miterlimit="8"
       fill="none"
       fill-rule="evenodd"
       id="path13" />
    <path
       d="m 2116.3758,1809.29 3.0232,-72.7913"
       stroke="#017ac0"
       stroke-width="2.22761"
       stroke-miterlimit="8"
       fill="none"
       fill-rule="evenodd"
       id="path14" />
    <path
       d="m 1421.6532,1777.8881 c 0,-100.7389 81.9061,-182.4084 182.9462,-182.4084 101.0402,0 182.9463,81.6695 182.9463,182.4084 0,100.739 -81.9061,182.4085 -182.9463,182.4085 -101.0401,0 -182.9462,-81.6695 -182.9462,-182.4085 z"
       stroke="#c00000"
       stroke-width="2.22761"
       stroke-miterlimit="8"
       fill="none"
       fill-rule="evenodd"
       id="path15" />
    <path
       d="m 1737.3758,1653.65 103.823,-78.1538"
       stroke="#017ac0"
       stroke-width="2.22761"
       stroke-miterlimit="8"
       fill="none"
       fill-rule="evenodd"
       id="path16" />
    <path
       d="m 2083.3458,1086.75 -9.97,-95.25"
       stroke="#017ac0"
       stroke-width="2.22761"
       stroke-miterlimit="8"
       fill="none"
       fill-rule="evenodd"
       id="path17" />
    <path
       d="m 1903.3758,821.5 c 0,-93.889 76.11,-170 170,-170 93.89,0 170,76.111 170,170 0,93.888 -76.11,170 -170,170 -93.89,0 -170,-76.112 -170,-170 z"
       stroke="#70ad47"
       stroke-width="2.22761"
       stroke-miterlimit="8"
       fill="none"
       fill-rule="evenodd"
       id="path18" />
    <text
       style="font-size:44px;font-family:Arial;text-anchor:middle;white-space:pre;stroke-width:1.94411"
       id="text20"
       x="2082.2344"
       y="805.94305"><tspan
         sodipodi:role="line"
         id="tspan38"
         x="2082.2344"
         y="805.94305">Изкуствен </tspan><tspan
         sodipodi:role="line"
         id="tspan39"
         x="2082.2344"
         y="860.94305">интелект</tspan></text>
    <text
       style="font-size:44px;font-family:Arial;text-anchor:middle;white-space:pre;stroke-width:1.94411"
       id="text23"
       x="2534.6416"
       y="920.32672"><tspan
         sodipodi:role="line"
         id="tspan36"
         x="2534.6416"
         y="920.32672">Системи за </tspan><tspan
         sodipodi:role="line"
         id="tspan37"
         x="2534.6416"
         y="975.32672">мониторинг</tspan></text>
    <text
       style="font-size:44px;font-family:Arial;text-anchor:middle;white-space:pre;stroke-width:1.94411"
       id="text28"
       x="2730.8394"
       y="1357.8605"><tspan
         sodipodi:role="line"
         id="tspan33"
         x="2730.8394"
         y="1357.8605">Дигитални </tspan><tspan
         sodipodi:role="line"
         id="tspan34"
         x="2730.8394"
         y="1412.8605">сгради-</tspan><tspan
         sodipodi:role="line"
         x="2730.8394"
         y="1467.8605"
         id="tspan35">близнаци</tspan></text>
    <text
       style="font-size:44px;font-family:Arial;text-anchor:middle;white-space:pre;stroke-width:1.94411"
       id="text31"
       x="2564.9302"
       y="1842.749"><tspan
         sodipodi:role="line"
         id="tspan31"
         x="2564.9302"
         y="1842.749">Приложения </tspan><tspan
         sodipodi:role="line"
         id="tspan32"
         x="2564.9302"
         y="1897.749">за сгради</tspan></text>
    <text
       style="font-size:44px;font-family:Arial;text-anchor:middle;white-space:pre;stroke-width:1.94411"
       id="text34"
       x="2117.1987"
       y="1985.1768"><tspan
         sodipodi:role="line"
         id="tspan13"
         x="2117.1987"
         y="1985.1768">Уеб </tspan><tspan
         sodipodi:role="line"
         id="tspan14"
         x="2117.1987"
         y="2040.1768">разработка</tspan></text>
    <text
       style="font-size:44px;font-family:Arial;text-anchor:middle;white-space:pre;stroke-width:1.94411"
       id="text37"
       x="1612.6763"
       y="1779.7543"><tspan
         sodipodi:role="line"
         id="tspan11"
         x="1612.6763"
         y="1779.7543">Персонализиран </tspan><tspan
         sodipodi:role="line"
         id="tspan12"
         x="1612.6763"
         y="1834.7543">софтуер</tspan></text>
    <text
       style="font-size:44px;font-family:Arial;text-anchor:middle;white-space:pre;stroke-width:1.94411"
       id="text40"
       x="1497.1201"
       y="1365.3561"><tspan
         sodipodi:role="line"
         id="tspan9"
         x="1497.1201"
         y="1365.3561">Софтуер за</tspan><tspan
         sodipodi:role="line"
         x="1497.1201"
         y="1420.3561"
         id="tspan10">оператори</tspan></text>
    <text
       style="font-size:44px;font-family:Arial;text-anchor:middle;white-space:pre;stroke-width:1.94411"
       id="text43"
       x="1668.9987"
       y="951.41431"><tspan
         sodipodi:role="line"
         id="tspan6"
         x="1668.9987"
         y="951.41431">Софтуер за </tspan><tspan
         sodipodi:role="line"
         id="tspan7"
         x="1668.9987"
         y="1006.4143">оператори</tspan></text>
    <text
       style="font-size:44px;font-family:Arial;white-space:pre;stroke-width:1.94411"
       x="1657.5385"
       y="570.02203"
       id="text44"><tspan
         sodipodi:role="line"
         id="tspan64"
         x="1657.5385"
         y="570.02203">Разработване на персонализиран и </tspan><tspan
         sodipodi:role="line"
         id="tspan65"
         x="1657.5385"
         y="625.02203">индивидуален изкуствен интелект за сгради</tspan></text>
    <text
       style="font-size:44px;font-family:Arial;white-space:pre;stroke-width:1.94411"
       x="2722.0396"
       y="896.69208"
       id="text46"><tspan
         sodipodi:role="line"
         id="tspan66"
         x="2722.0396"
         y="896.69208">Разработване на системи за </tspan><tspan
         sodipodi:role="line"
         id="tspan67"
         x="2722.0396"
         y="951.69208">мониторинг, контрол и анализ в сградите</tspan></text>
    <text
       style="font-size:44px;font-family:Arial;white-space:pre;stroke-width:1.94411"
       x="2907.905"
       y="1283.2471"
       id="text50"><tspan
         sodipodi:role="line"
         x="2907.905"
         y="1283.2471"
         id="tspan76">Създаване на цялостни, </tspan><tspan
         sodipodi:role="line"
         x="2907.905"
         y="1338.2471"
         id="tspan69">дигитализирани модели, </tspan><tspan
         sodipodi:role="line"
         x="2907.905"
         y="1393.2471"
         id="tspan70">които предоставят информация в </tspan><tspan
         sodipodi:role="line"
         x="2907.905"
         y="1448.2471"
         id="tspan71">реално време за състоянието, </tspan><tspan
         sodipodi:role="line"
         x="2907.905"
         y="1503.2471"
         id="tspan72">производителността и други важни </tspan><tspan
         sodipodi:role="line"
         x="2907.905"
         y="1558.2471"
         id="tspan73">данни на сградата или нейни части</tspan></text>
    <text
       style="font-size:44px;font-family:Arial;white-space:pre;stroke-width:1.94411"
       x="2749.4817"
       y="1752.9915"
       id="text55"><tspan
         sodipodi:role="line"
         x="2749.4817"
         y="1752.9915"
         id="tspan68">Програмиране на приложения за </tspan><tspan
         sodipodi:role="line"
         x="2749.4817"
         y="1807.9915"
         id="tspan74">различни случаи на употреба вътре и </tspan><tspan
         sodipodi:role="line"
         x="2749.4817"
         y="1862.9915"
         id="tspan75">извън сградата, например приложения за </tspan><tspan
         sodipodi:role="line"
         x="2749.4817"
         y="1917.9915"
         id="tspan77">енергиен мониторинг, приложения за </tspan><tspan
         sodipodi:role="line"
         x="2749.4817"
         y="1972.9915"
         id="tspan78">управление на сгради, приложения за </tspan><tspan
         sodipodi:role="line"
         x="2749.4817"
         y="2027.9915"
         id="tspan79">сигурност и контрол на достъпа или </tspan><tspan
         sodipodi:role="line"
         x="2749.4817"
         y="2082.9915"
         id="tspan80">приложения за резервация на стаи.</tspan></text>
    <text
       style="font-size:44px;font-family:Arial;white-space:pre;stroke-width:1.94411"
       x="1666.0778"
       y="2234.1921"
       id="text56"><tspan
         sodipodi:role="line"
         id="tspan62"
         x="1666.0778"
         y="2234.1921">Разработване на уебсайтове и </tspan><tspan
         sodipodi:role="line"
         id="tspan63"
         x="1666.0778"
         y="2289.1921">съдържание за социални медии за сгради</tspan></text>
    <text
       style="font-size:44px;font-family:Arial;white-space:pre;stroke-width:1.94411"
       x="937.6391"
       y="1803.6516"
       id="text57"><tspan
         sodipodi:role="line"
         id="tspan60"
         x="937.6391"
         y="1803.6516">Програмиране на </tspan><tspan
         sodipodi:role="line"
         id="tspan61"
         x="937.6391"
         y="1858.6516">индивидуален софтуер</tspan></text>
    <text
       style="font-size:44px;font-family:Arial;white-space:pre;stroke-width:1.94411"
       x="720.20544"
       y="1296.7329"
       id="text60"><tspan
         sodipodi:role="line"
         id="tspan55"
         x="720.20544"
         y="1296.7329">Моделиране и програмно </tspan><tspan
         sodipodi:role="line"
         id="tspan56"
         x="720.20544"
         y="1351.7329">интегриране на дигитални </tspan><tspan
         sodipodi:role="line"
         x="720.20544"
         y="1406.7329"
         id="tspan57">услуги за подобряване на </tspan><tspan
         sodipodi:role="line"
         x="720.20544"
         y="1461.7329"
         id="tspan58">потребителското изживяване </tspan><tspan
         sodipodi:role="line"
         x="720.20544"
         y="1516.7329"
         id="tspan59">в сградите</tspan></text>
    <text
       style="font-size:44px;font-family:Arial;white-space:pre;stroke-width:1.94411"
       x="931.1488"
       y="892.01251"
       id="text62"><tspan
         sodipodi:role="line"
         id="tspan51"
         x="931.1488"
         y="892.01251">Програмиране на софтуер </tspan><tspan
         sodipodi:role="line"
         id="tspan52"
         x="931.1488"
         y="947.01251">за оператори, съобразен с </tspan><tspan
         sodipodi:role="line"
         x="931.1488"
         y="1002.0125"
         id="tspan53">нуждите на оператора на </tspan><tspan
         sodipodi:role="line"
         x="931.1488"
         y="1057.0125"
         id="tspan54">сградата</tspan></text>
  </g>
</svg>
