<?xml version="1.0" encoding="UTF-8" standalone="no"?>
<svg
   width="1800"
   height="920"
   overflow="hidden"
   version="1.1"
   id="svg91"
   sodipodi:docname="PropManag.svg"
   inkscape:version="1.4.2 (f4327f4, 2025-05-13)"
   xmlns:inkscape="http://www.inkscape.org/namespaces/inkscape"
   xmlns:sodipodi="http://sodipodi.sourceforge.net/DTD/sodipodi-0.dtd"
   xmlns="http://www.w3.org/2000/svg"
   xmlns:svg="http://www.w3.org/2000/svg">
  <defs
     id="defs91" />
  <sodipodi:namedview
     id="namedview91"
     pagecolor="#ffffff"
     bordercolor="#000000"
     borderopacity="0.25"
     inkscape:showpageshadow="2"
     inkscape:pageopacity="0.0"
     inkscape:pagecheckerboard="0"
     inkscape:deskcolor="#d1d1d1"
     inkscape:zoom="0.64149444"
     inkscape:cx="909.5948"
     inkscape:cy="471.55514"
     inkscape:window-width="1920"
     inkscape:window-height="1009"
     inkscape:window-x="-8"
     inkscape:window-y="-8"
     inkscape:window-maximized="1"
     inkscape:current-layer="g91" />
  <g
     transform="matrix(1.5607808,0,0,1.5607808,-76.358577,-170.89137)"
     id="g91"
     style="stroke-width:0.640705">
    <path
       d="m 387.5,342.5 h 189 l 62,62 -62,62 h -189 z"
       stroke="#ed7d31"
       stroke-width="0.427137"
       stroke-miterlimit="8"
       fill="none"
       fill-rule="evenodd"
       id="path1" />
    <text
       font-family="Arial, Arial_MSFontService, sans-serif"
       font-weight="400"
       font-size="16px"
       style="text-align:center;text-anchor:middle;white-space:pre;stroke-width:0.640705;font-size:13.66837248px"
       id="text1"
       x="502.52652"
       y="400.12241"><tspan
         sodipodi:role="line"
         id="tspan1"
         x="502.52652"
         y="400.12241"
         style="text-align:center;text-anchor:middle;font-size:13.66837248px">ТЪРГОВСКО УПРАВЛЕНИЕ </tspan><tspan
         sodipodi:role="line"
         id="tspan2"
         x="502.52652"
         y="420.12241"
         style="text-align:center;text-anchor:middle;font-size:13.66837248px">НА НЕДВИЖИМИ ИМОТИ</tspan></text>
    <path
       d="m 591.50652,342.5 h 256.35133 c -0.18355,20.885 -0.36607,41.771 -0.54962,62.656 0.18355,20.448 0.36607,40.896 0.54962,61.344 H 591.50652 l 66.6708,-62 z"
       stroke="#70ad47"
       stroke-width="0.427137"
       stroke-miterlimit="8"
       fill="none"
       fill-rule="evenodd"
       id="path2"
       sodipodi:nodetypes="ccccccc" />
    <text
       font-family="Arial, Arial_MSFontService, sans-serif"
       font-weight="400"
       font-size="16px"
       style="text-align:center;text-anchor:middle;white-space:pre;stroke-width:0.640705;font-size:13.66837248px"
       id="text3"
       x="752.07233"
       y="399.366"><tspan
         sodipodi:role="line"
         id="tspan25"
         x="752.07233"
         y="399.366">ТЕХНИЧЕСКО УПРАВЛЕНИЕ </tspan><tspan
         sodipodi:role="line"
         id="tspan26"
         x="752.07233"
         y="419.366">НА НЕДВИЖИМИ ИМОТИ</tspan></text>
    <path
       d="M 0,0 19.365,1.04987e-4"
       stroke="#017ac0"
       stroke-width="0.427137"
       stroke-linecap="square"
       stroke-miterlimit="8"
       stroke-dasharray="2, 0.666667"
       fill="none"
       fill-rule="evenodd"
       transform="matrix(-1,0,0,1,657.865,404.5)"
       id="path4" />
    <path
       d="m 176.5,180.834 c 0,-12.335 9.999,-22.334 22.334,-22.334 h 140.332 c 12.335,0 22.334,9.999 22.334,22.334 v 89.332 c 0,12.335 -9.999,22.334 -22.334,22.334 H 198.834 c -12.335,0 -22.334,-9.999 -22.334,-22.334 z"
       stroke="#ed7d31"
       stroke-width="0.427137"
       stroke-linecap="square"
       stroke-miterlimit="8"
       stroke-dasharray="2, 0.666667"
       fill="none"
       fill-rule="evenodd"
       id="path5" />
    <path
       d="m 189.5,180 c 0,-4.694 3.806,-8.5 8.5,-8.5 h 134 c 4.694,0 8.5,3.806 8.5,8.5 v 34 c 0,4.694 -3.806,8.5 -8.5,8.5 H 198 c -4.694,0 -8.5,-3.806 -8.5,-8.5 z"
       stroke="#a6a6a6"
       stroke-width="0.213568"
       stroke-miterlimit="8"
       fill="none"
       fill-rule="evenodd"
       id="path6" />
    <text
       font-family="Arial, Arial_MSFontService, sans-serif"
       font-weight="400"
       font-size="11px"
       style="text-align:center;text-anchor:middle;white-space:pre;stroke-width:0.640705"
       id="text6"
       x="267.53928"
       y="185.58752"><tspan
         sodipodi:role="line"
         id="tspan3"
         x="267.53928"
         y="185.58752">Подготовка, договаряне и </tspan><tspan
         sodipodi:role="line"
         id="tspan4"
         x="267.53928"
         y="199.33752">администриране на </tspan><tspan
         sodipodi:role="line"
         x="267.53928"
         y="213.08752"
         id="tspan5">договори за наем</tspan></text>
    <path
       d="m 189.5,234.5 c 0,-4.97 4.03,-9 9,-9 h 133 c 4.971,0 9,4.03 9,9 v 36 c 0,4.97 -4.029,9 -9,9 h -133 c -4.97,0 -9,-4.03 -9,-9 z"
       stroke="#a6a6a6"
       stroke-width="0.213568"
       stroke-miterlimit="8"
       fill="none"
       fill-rule="evenodd"
       id="path8" />
    <text
       font-family="Arial, Arial_MSFontService, sans-serif"
       font-weight="400"
       font-size="11px"
       style="text-align:center;text-anchor:middle;white-space:pre;stroke-width:0.640705"
       id="text9"
       x="268.095"
       y="239.1187"><tspan
         sodipodi:role="line"
         id="tspan6"
         x="268.095"
         y="239.1187">Контрол на плащанията на </tspan><tspan
         sodipodi:role="line"
         id="tspan7"
         x="268.095"
         y="252.8687">наемите и прилагане на </tspan><tspan
         sodipodi:role="line"
         x="268.095"
         y="266.61871"
         id="tspan8">увеличения на наемите</tspan></text>
    <path
       d="m 148.5,341 c 0,-4.694 3.806,-8.5 8.5,-8.5 h 134 c 4.694,0 8.5,3.806 8.5,8.5 v 34 c 0,4.694 -3.806,8.5 -8.5,8.5 H 157 c -4.694,0 -8.5,-3.806 -8.5,-8.5 z"
       stroke="#a6a6a6"
       stroke-width="0.213568"
       stroke-miterlimit="8"
       fill="none"
       fill-rule="evenodd"
       id="path12" />
    <text
       font-family="Arial, Arial_MSFontService, sans-serif"
       font-weight="400"
       font-size="11px"
       style="text-align:center;text-anchor:middle;white-space:pre;stroke-width:0.640705"
       id="text13"
       x="224.3571"
       y="355"><tspan
         sodipodi:role="line"
         id="tspan18"
         x="224.3571"
         y="355">Бюджетиране и контрол </tspan><tspan
         sodipodi:role="line"
         id="tspan19"
         x="224.3571"
         y="368.75">на оперативните разходи</tspan></text>
    <path
       d="m 148.5,395.834 c 0,-4.603 3.731,-8.334 8.334,-8.334 h 134.332 c 4.603,0 8.334,3.731 8.334,8.334 v 33.332 c 0,4.603 -3.731,8.334 -8.334,8.334 H 156.834 c -4.603,0 -8.334,-3.731 -8.334,-8.334 z"
       stroke="#a6a6a6"
       stroke-width="0.213568"
       stroke-miterlimit="8"
       fill="none"
       fill-rule="evenodd"
       id="path14" />
    <text
       font-family="Arial, Arial_MSFontService, sans-serif"
       font-weight="400"
       font-size="11px"
       style="text-align:center;text-anchor:middle;white-space:pre;stroke-width:0.640705"
       id="text15"
       x="227.62393"
       y="400.88129"><tspan
         sodipodi:role="line"
         id="tspan20"
         x="227.62393"
         y="400.88129">Контрол на входящите </tspan><tspan
         sodipodi:role="line"
         id="tspan21"
         x="227.62393"
         y="414.63129">плащания и обработка </tspan><tspan
         sodipodi:role="line"
         x="227.62393"
         y="428.38129"
         id="tspan22">на фактури</tspan></text>
    <path
       d="m 149.5,449.834 c 0,-4.603 3.731,-8.334 8.334,-8.334 h 134.332 c 4.603,0 8.334,3.731 8.334,8.334 v 33.332 c 0,4.603 -3.731,8.334 -8.334,8.334 H 157.834 c -4.603,0 -8.334,-3.731 -8.334,-8.334 z"
       stroke="#a6a6a6"
       stroke-width="0.213568"
       stroke-miterlimit="8"
       fill="none"
       fill-rule="evenodd"
       id="path17" />
    <text
       font-family="Arial, Arial_MSFontService, sans-serif"
       font-weight="400"
       font-size="11px"
       style="text-align:center;text-anchor:middle;white-space:pre;stroke-width:0.640705"
       id="text18"
       x="227.45665"
       y="462.29376"><tspan
         sodipodi:role="line"
         id="tspan23"
         x="227.45665"
         y="462.29376">Изготвяне на финансови </tspan><tspan
         sodipodi:role="line"
         id="tspan24"
         x="227.45665"
         y="476.04376">отчети за собствениците</tspan></text>
    <path
       d="m 182.5,552.834 c 0,-4.603 3.731,-8.334 8.334,-8.334 h 134.332 c 4.603,0 8.334,3.731 8.334,8.334 v 33.333 c 0,4.602 -3.731,8.333 -8.334,8.333 H 190.834 c -4.603,0 -8.334,-3.731 -8.334,-8.333 z"
       stroke="#a6a6a6"
       stroke-width="0.213568"
       stroke-miterlimit="8"
       fill="none"
       fill-rule="evenodd"
       id="path19" />
    <text
       font-family="Arial, Arial_MSFontService, sans-serif"
       font-weight="400"
       font-size="11px"
       style="text-align:center;text-anchor:middle;white-space:pre;stroke-width:0.640705"
       id="text20"
       x="260.49084"
       y="567.41248"><tspan
         sodipodi:role="line"
         id="tspan27"
         x="260.49084"
         y="567.41248">Контакт за въпроси </tspan><tspan
         sodipodi:role="line"
         id="tspan28"
         x="260.49084"
         y="581.16248">на наемателите</tspan></text>
    <path
       d="m 182.5,608.333 c 0,-4.878 3.955,-8.833 8.833,-8.833 h 133.334 c 4.878,0 8.833,3.955 8.833,8.833 v 35.334 c 0,4.878 -3.955,8.833 -8.833,8.833 H 191.333 c -4.878,0 -8.833,-3.955 -8.833,-8.833 z"
       stroke="#a6a6a6"
       stroke-width="0.213568"
       stroke-miterlimit="8"
       fill="none"
       fill-rule="evenodd"
       id="path21" />
    <text
       font-family="Arial, Arial_MSFontService, sans-serif"
       font-weight="400"
       font-size="11px"
       style="text-align:center;text-anchor:middle;white-space:pre;stroke-width:0.640705"
       id="text22"
       x="258.0842"
       y="614.94366"><tspan
         sodipodi:role="line"
         id="tspan29"
         x="258.0842"
         y="614.94366">Организиране на срещи с </tspan><tspan
         sodipodi:role="line"
         id="tspan30"
         x="258.0842"
         y="628.69366">наемателите и съобщаване </tspan><tspan
         sodipodi:role="line"
         x="258.0842"
         y="642.44366"
         id="tspan31">на информация</tspan></text>
    <path
       d="m 435.5,560 c 0,-4.694 3.806,-8.5 8.5,-8.5 h 134 c 4.694,0 8.5,3.806 8.5,8.5 v 34 c 0,4.694 -3.806,8.5 -8.5,8.5 H 444 c -4.694,0 -8.5,-3.806 -8.5,-8.5 z"
       stroke="#a6a6a6"
       stroke-width="0.213568"
       stroke-miterlimit="8"
       fill="none"
       fill-rule="evenodd"
       id="path25" />
    <text
       font-family="Arial, Arial_MSFontService, sans-serif"
       font-weight="400"
       font-size="11px"
       style="text-align:center;text-anchor:middle;white-space:pre;stroke-width:0.640705"
       id="text26"
       x="514.61353"
       y="565.58752"><tspan
         sodipodi:role="line"
         id="tspan32"
         x="514.61353"
         y="565.58752">Сключване и контрол на </tspan><tspan
         sodipodi:role="line"
         id="tspan33"
         x="514.61353"
         y="579.33752">договори за обслужване </tspan><tspan
         sodipodi:role="line"
         x="514.61353"
         y="593.08752"
         id="tspan34">и поддръжка</tspan></text>
    <path
       d="m 435.5,615 c 0,-4.694 3.806,-8.5 8.5,-8.5 h 134 c 4.694,0 8.5,3.806 8.5,8.5 v 34 c 0,4.694 -3.806,8.5 -8.5,8.5 H 444 c -4.694,0 -8.5,-3.806 -8.5,-8.5 z"
       stroke="#a6a6a6"
       stroke-width="0.213568"
       stroke-miterlimit="8"
       fill="none"
       fill-rule="evenodd"
       id="path28" />
    <text
       font-family="Arial, Arial_MSFontService, sans-serif"
       font-weight="400"
       font-size="11px"
       style="text-align:center;text-anchor:middle;white-space:pre;stroke-width:0.640705"
       id="text29"
       x="514.7005"
       y="621.23138"><tspan
         sodipodi:role="line"
         id="tspan35"
         x="514.7005"
         y="621.23138">Координация на </tspan><tspan
         sodipodi:role="line"
         id="tspan36"
         x="514.7005"
         y="634.98138">доставчици на </tspan><tspan
         sodipodi:role="line"
         x="514.7005"
         y="648.73138"
         id="tspan37">услуги и доставчици</tspan></text>
    <path
       d="m 423.5,150 c 0,-4.694 3.806,-8.5 8.5,-8.5 h 134 c 4.694,0 8.5,3.806 8.5,8.5 v 34 c 0,4.694 -3.806,8.5 -8.5,8.5 H 432 c -4.694,0 -8.5,-3.806 -8.5,-8.5 z"
       stroke="#a6a6a6"
       stroke-width="0.213568"
       stroke-miterlimit="8"
       fill="none"
       fill-rule="evenodd"
       id="path30" />
    <text
       font-family="Arial, Arial_MSFontService, sans-serif"
       font-weight="400"
       font-size="11px"
       style="text-align:center;text-anchor:middle;white-space:pre;stroke-width:0.640705"
       id="text31"
       x="500.7063"
       y="149.93762"><tspan
         sodipodi:role="line"
         x="500.7063"
         y="149.93762"
         id="tspan94"
         style="text-align:center;text-anchor:middle">Мониторинг на местните </tspan><tspan
         sodipodi:role="line"
         x="500.7063"
         y="163.68762"
         style="text-align:center;text-anchor:middle"
         id="tspan9">пазари на недвижими </tspan><tspan
         sodipodi:role="line"
         x="500.7063"
         y="177.43762"
         style="text-align:center;text-anchor:middle"
         id="tspan10">имоти и анализ на </tspan><tspan
         sodipodi:role="line"
         x="500.7063"
         y="191.18762"
         style="text-align:center;text-anchor:middle"
         id="tspan11">конкуренцията</tspan></text>
    <path
       d="m 423.5,210 c 0,-4.694 3.806,-8.5 8.5,-8.5 h 134 c 4.694,0 8.5,3.806 8.5,8.5 v 34 c 0,4.694 -3.806,8.5 -8.5,8.5 H 432 c -4.694,0 -8.5,-3.806 -8.5,-8.5 z"
       stroke="#a6a6a6"
       stroke-width="0.213568"
       stroke-miterlimit="8"
       fill="none"
       fill-rule="evenodd"
       id="path33" />
    <text
       font-family="Arial, Arial_MSFontService, sans-serif"
       font-weight="400"
       font-size="11px"
       style="text-align:center;text-anchor:middle;white-space:pre;stroke-width:0.640705"
       id="text34"
       x="502.52313"
       y="209.2314"><tspan
         sodipodi:role="line"
         id="tspan12"
         x="502.52313"
         y="209.2314">Препоръки за </tspan><tspan
         sodipodi:role="line"
         id="tspan13"
         x="502.52313"
         y="222.9814">ценообразуване на </tspan><tspan
         sodipodi:role="line"
         x="502.52313"
         y="236.7314"
         id="tspan14">наемите и маркетингови </tspan><tspan
         sodipodi:role="line"
         x="502.52313"
         y="250.4814"
         id="tspan15">стратегии</tspan></text>
    <path
       d="m 407.5,151.834 c 0,-12.335 9.999,-22.334 22.334,-22.334 h 142.332 c 12.335,0 22.334,9.999 22.334,22.334 v 89.332 c 0,12.335 -9.999,22.334 -22.334,22.334 H 429.834 c -12.335,0 -22.334,-9.999 -22.334,-22.334 z"
       stroke="#ed7d31"
       stroke-width="0.427137"
       stroke-linecap="square"
       stroke-miterlimit="8"
       stroke-dasharray="2, 0.666667"
       fill="none"
       fill-rule="evenodd"
       id="path36" />
    <path
       d="m 138.5,350.334 c 0,-17.029 13.805,-30.834 30.834,-30.834 h 123.332 c 17.029,0 30.834,13.805 30.834,30.834 v 124.332 c 0,17.029 -13.805,30.834 -30.834,30.834 H 169.334 c -17.029,0 -30.834,-13.805 -30.834,-30.834 z"
       stroke="#ed7d31"
       stroke-width="0.427137"
       stroke-linecap="square"
       stroke-miterlimit="8"
       stroke-dasharray="2, 0.666667"
       fill="none"
       fill-rule="evenodd"
       id="path37" />
    <path
       d="m 168.5,551.834 c 0,-12.335 9.999,-22.334 22.334,-22.334 h 144.332 c 12.335,0 22.334,9.999 22.334,22.334 v 89.332 c 0,12.335 -9.999,22.334 -22.334,22.334 H 190.834 c -12.335,0 -22.334,-9.999 -22.334,-22.334 z"
       stroke="#ed7d31"
       stroke-width="0.427137"
       stroke-linecap="square"
       stroke-miterlimit="8"
       stroke-dasharray="2, 0.666667"
       fill="none"
       fill-rule="evenodd"
       id="path38" />
    <path
       d="m 421.5,557.834 c 0,-12.335 9.999,-22.334 22.334,-22.334 h 144.332 c 12.335,0 22.334,9.999 22.334,22.334 v 89.332 c 0,12.335 -9.999,22.334 -22.334,22.334 H 443.834 c -12.335,0 -22.334,-9.999 -22.334,-22.334 z"
       stroke="#ed7d31"
       stroke-width="0.427137"
       stroke-linecap="square"
       stroke-miterlimit="8"
       stroke-dasharray="2, 0.666667"
       fill="none"
       fill-rule="evenodd"
       id="path39" />
    <path
       d="m 654.5,151 c 0,-4.694 3.806,-8.5 8.5,-8.5 h 135 c 4.694,0 8.5,3.806 8.5,8.5 v 34 c 0,4.694 -3.806,8.5 -8.5,8.5 H 663 c -4.694,0 -8.5,-3.806 -8.5,-8.5 z"
       stroke="#a6a6a6"
       stroke-width="0.213568"
       stroke-miterlimit="8"
       fill="none"
       fill-rule="evenodd"
       id="path40" />
    <text
       font-family="Arial, Arial_MSFontService, sans-serif"
       font-weight="400"
       font-size="11px"
       style="text-align:center;text-anchor:middle;white-space:pre;stroke-width:0.640705"
       id="text40"
       x="732.07562"
       y="162.94366"><tspan
         sodipodi:role="line"
         id="tspan38"
         x="732.07562"
         y="162.94366">Разработване и прилагане </tspan><tspan
         sodipodi:role="line"
         id="tspan39"
         x="732.07562"
         y="176.69366">на планове за поддръжка</tspan></text>
    <path
       d="m 656.5,206 c 0,-4.694 3.806,-8.5 8.5,-8.5 h 134 c 4.694,0 8.5,3.806 8.5,8.5 v 34 c 0,4.694 -3.806,8.5 -8.5,8.5 H 665 c -4.694,0 -8.5,-3.806 -8.5,-8.5 z"
       stroke="#a6a6a6"
       stroke-width="0.213568"
       stroke-miterlimit="8"
       fill="none"
       fill-rule="evenodd"
       id="path42" />
    <text
       font-family="Arial, Arial_MSFontService, sans-serif"
       font-weight="400"
       font-size="11px"
       style="text-align:center;text-anchor:middle;white-space:pre;stroke-width:0.640705"
       id="text43"
       x="735.30664"
       y="216.82495"><tspan
         sodipodi:role="line"
         id="tspan40"
         x="735.30664"
         y="216.82495">Координация на дейности </tspan><tspan
         sodipodi:role="line"
         id="tspan41"
         x="735.30664"
         y="230.57495">по поддръжка и ремонт</tspan></text>
    <path
       d="m 906.5,183 c 0,-4.694 3.806,-8.5 8.5,-8.5 h 145 c 4.69,0 8.5,3.806 8.5,8.5 v 34 c 0,4.694 -3.81,8.5 -8.5,8.5 H 915 c -4.694,0 -8.5,-3.806 -8.5,-8.5 z"
       stroke="#a6a6a6"
       stroke-width="0.213568"
       stroke-miterlimit="8"
       fill="none"
       fill-rule="evenodd"
       id="path45" />
    <text
       font-family="Arial, Arial_MSFontService, sans-serif"
       font-weight="400"
       font-size="11px"
       style="text-align:center;text-anchor:middle;white-space:pre;stroke-width:0.640705"
       id="text46"
       x="988.578"
       y="190"><tspan
         sodipodi:role="line"
         id="tspan42"
         x="988.578"
         y="190">Координация на редовни </tspan><tspan
         sodipodi:role="line"
         id="tspan43"
         x="988.578"
         y="203.75">проверки на сградните </tspan><tspan
         sodipodi:role="line"
         x="988.578"
         y="217.5"
         id="tspan44">системи</tspan></text>
    <path
       d="m 906.5,238 c 0,-4.694 3.806,-8.5 8.5,-8.5 h 145 c 4.69,0 8.5,3.806 8.5,8.5 v 34 c 0,4.694 -3.81,8.5 -8.5,8.5 H 915 c -4.694,0 -8.5,-3.806 -8.5,-8.5 z"
       stroke="#a6a6a6"
       stroke-width="0.213568"
       stroke-miterlimit="8"
       fill="none"
       fill-rule="evenodd"
       id="path48" />
    <text
       font-family="Arial, Arial_MSFontService, sans-serif"
       font-weight="400"
       font-size="11px"
       style="text-align:center;text-anchor:middle;white-space:pre;stroke-width:0.640705"
       id="text49"
       x="990.68408"
       y="245.64388"><tspan
         sodipodi:role="line"
         x="990.68408"
         y="245.64388"
         id="tspan49">Идентифициране на </tspan><tspan
         sodipodi:role="line"
         x="990.68408"
         y="259.39386"
         id="tspan50">технически проблеми и </tspan><tspan
         sodipodi:role="line"
         x="990.68408"
         y="273.14389"
         id="tspan51">дефекти</tspan></text>
    <path
       d="m 932.5,352 c 0,-4.694 3.806,-8.5 8.5,-8.5 h 146 c 4.69,0 8.5,3.806 8.5,8.5 v 34 c 0,4.694 -3.81,8.5 -8.5,8.5 H 941 c -4.694,0 -8.5,-3.806 -8.5,-8.5 z"
       stroke="#a6a6a6"
       stroke-width="0.213568"
       stroke-miterlimit="8"
       fill="none"
       fill-rule="evenodd"
       id="path50" />
    <text
       font-family="Arial, Arial_MSFontService, sans-serif"
       font-weight="400"
       font-size="11px"
       style="text-align:center;text-anchor:middle;white-space:pre;stroke-width:0.640705"
       id="text51"
       x="1017.7747"
       y="358.64987"><tspan
         sodipodi:role="line"
         id="tspan52"
         x="1017.7747"
         y="358.64987">Планиране и прилагане на </tspan><tspan
         sodipodi:role="line"
         id="tspan53"
         x="1017.7747"
         y="372.39987">мерки за модернизация и </tspan><tspan
         sodipodi:role="line"
         x="1017.7747"
         y="386.14987"
         id="tspan54">преобразуване</tspan></text>
    <path
       d="m 932.5,408 c 0,-4.694 3.806,-8.5 8.5,-8.5 h 146 c 4.69,0 8.5,3.806 8.5,8.5 v 34 c 0,4.694 -3.81,8.5 -8.5,8.5 H 941 c -4.694,0 -8.5,-3.806 -8.5,-8.5 z"
       stroke="#a6a6a6"
       stroke-width="0.213568"
       stroke-miterlimit="8"
       fill="none"
       fill-rule="evenodd"
       id="path54" />
    <text
       font-family="Arial, Arial_MSFontService, sans-serif"
       font-weight="400"
       font-size="11px"
       style="text-align:center;text-anchor:middle;white-space:pre;stroke-width:0.640705"
       id="text55"
       x="1017.2381"
       y="413.58752"><tspan
         sodipodi:role="line"
         id="tspan55"
         x="1017.2381"
         y="413.58752">Въвеждане на нови </tspan><tspan
         sodipodi:role="line"
         id="tspan56"
         x="1017.2381"
         y="427.33752">технологии за повишаване на </tspan><tspan
         sodipodi:role="line"
         x="1017.2381"
         y="441.08752"
         id="tspan57">ефективността</tspan></text>
    <path
       d="m 881.5,529.834 c 0,-4.603 3.731,-8.334 8.334,-8.334 h 145.336 c 4.6,0 8.33,3.731 8.33,8.334 v 33.333 c 0,4.602 -3.73,8.333 -8.33,8.333 H 889.834 c -4.603,0 -8.334,-3.731 -8.334,-8.333 z"
       stroke="#a6a6a6"
       stroke-width="0.213568"
       stroke-miterlimit="8"
       fill="none"
       fill-rule="evenodd"
       id="path57" />
    <text
       font-family="Arial, Arial_MSFontService, sans-serif"
       font-weight="400"
       font-size="11px"
       style="text-align:center;text-anchor:middle;white-space:pre;stroke-width:0.640705"
       id="text58"
       x="964.39783"
       y="536.29376"><tspan
         sodipodi:role="line"
         id="tspan66"
         x="964.39783"
         y="536.29376">Наблюдение и подобряване </tspan><tspan
         sodipodi:role="line"
         id="tspan67"
         x="964.39783"
         y="550.04376">на енергийната ефективност </tspan><tspan
         sodipodi:role="line"
         x="964.39783"
         y="563.79376"
         id="tspan68">на сградите</tspan></text>
    <path
       d="m 881.5,584 c 0,-4.694 3.806,-8.5 8.5,-8.5 h 145 c 4.69,0 8.5,3.806 8.5,8.5 v 34 c 0,4.694 -3.81,8.5 -8.5,8.5 H 890 c -4.694,0 -8.5,-3.806 -8.5,-8.5 z"
       stroke="#a6a6a6"
       stroke-width="0.213568"
       stroke-miterlimit="8"
       fill="none"
       fill-rule="evenodd"
       id="path60" />
    <text
       font-family="Arial, Arial_MSFontService, sans-serif"
       font-weight="400"
       font-size="11px"
       style="text-align:center;text-anchor:middle;white-space:pre;stroke-width:0.640705"
       id="text61"
       x="963.15692"
       y="589.17505"><tspan
         sodipodi:role="line"
         id="tspan69"
         x="963.15692"
         y="589.17505">Внедряване на устойчиви </tspan><tspan
         sodipodi:role="line"
         id="tspan70"
         x="963.15692"
         y="602.92505">практики за спестяване на </tspan><tspan
         sodipodi:role="line"
         x="963.15692"
         y="616.67505"
         id="tspan71">ресурси</tspan></text>
    <path
       d="m 647.49999,558 c 0,-4.694 3.90433,-8.5 8.71962,-8.5 h 149.77233 c 4.81528,0 8.71962,3.806 8.71962,8.5 v 34 c 0,4.694 -3.90434,8.5 -8.71962,8.5 H 656.21961 c -4.81529,0 -8.71962,-3.806 -8.71962,-8.5 z"
       stroke="#a6a6a6"
       stroke-width="0.213568"
       stroke-miterlimit="8"
       fill="none"
       fill-rule="evenodd"
       id="path63" />
    <text
       font-family="Arial, Arial_MSFontService, sans-serif"
       font-weight="400"
       font-size="11px"
       style="text-align:center;text-anchor:middle;white-space:pre;stroke-width:0.640705"
       id="text64"
       x="729.82349"
       y="564.93762"><tspan
         sodipodi:role="line"
         id="tspan60"
         x="729.82349"
         y="564.93762">Разработване на планове и </tspan><tspan
         sodipodi:role="line"
         id="tspan61"
         x="729.82349"
         y="578.68762">процедури за действие при </tspan><tspan
         sodipodi:role="line"
         x="729.82349"
         y="592.43762"
         id="tspan62">извънредни ситуации</tspan></text>
    <path
       d="m 648.52582,613 c 0,-4.694 3.90434,-8.5 8.71963,-8.5 h 149.77233 c 4.81528,0 8.71962,3.806 8.71962,8.5 v 34 c 0,4.694 -3.90434,8.5 -8.71962,8.5 H 657.24545 c -4.81529,0 -8.71963,-3.806 -8.71963,-8.5 z"
       stroke="#a6a6a6"
       stroke-width="0.213568"
       stroke-miterlimit="8"
       fill="none"
       fill-rule="evenodd"
       id="path65" />
    <text
       font-family="Arial, Arial_MSFontService, sans-serif"
       font-weight="400"
       font-size="11px"
       style="text-align:center;text-anchor:middle;white-space:pre;stroke-width:0.640705"
       id="text66"
       x="730.42517"
       y="621.41248"><tspan
         sodipodi:role="line"
         id="tspan63"
         x="730.42517"
         y="621.41248">Справяне с извънредни </tspan><tspan
         sodipodi:role="line"
         id="tspan64"
         x="730.42517"
         y="635.16248">ситуации, като технически </tspan><tspan
         sodipodi:role="line"
         x="730.42517"
         y="648.91248"
         id="tspan65">повреди или природни бедствия</tspan></text>
    <path
       d="m 638.5,151.834 c 0,-12.335 9.999,-22.334 22.334,-22.334 h 142.332 c 12.335,0 22.334,9.999 22.334,22.334 v 89.332 c 0,12.335 -9.999,22.334 -22.334,22.334 H 660.834 c -12.335,0 -22.334,-9.999 -22.334,-22.334 z"
       stroke="#70ad47"
       stroke-width="0.427137"
       stroke-linecap="square"
       stroke-miterlimit="8"
       stroke-dasharray="2, 0.666667"
       fill="none"
       fill-rule="evenodd"
       id="path68"
       sodipodi:nodetypes="sssssssss" />
    <path
       d="m 894.5,180.834 c 0,-12.335 9.999,-22.334 22.334,-22.334 h 141.336 c 12.33,0 22.33,9.999 22.33,22.334 v 89.332 c 0,12.335 -10,22.334 -22.33,22.334 H 916.834 c -12.335,0 -22.334,-9.999 -22.334,-22.334 z"
       stroke="#70ad47"
       stroke-width="0.427137"
       stroke-linecap="square"
       stroke-miterlimit="8"
       stroke-dasharray="2, 0.666667"
       fill="none"
       fill-rule="evenodd"
       id="path69" />
    <path
       d="m 920.5,353.167 c 0,-11.966 9.701,-21.667 21.667,-21.667 h 143.663 c 11.97,0 21.67,9.701 21.67,21.667 v 86.666 c 0,11.966 -9.7,21.667 -21.67,21.667 H 942.167 c -11.966,0 -21.667,-9.701 -21.667,-21.667 z"
       stroke="#70ad47"
       stroke-width="0.427137"
       stroke-linecap="square"
       stroke-miterlimit="8"
       stroke-dasharray="2, 0.666667"
       fill="none"
       fill-rule="evenodd"
       id="path70" />
    <path
       d="m 871.5,533.001 c 0,-11.875 9.626,-21.501 21.501,-21.501 H 1037 c 11.87,0 21.5,9.626 21.5,21.501 V 619 c 0,11.874 -9.63,21.5 -21.5,21.5 H 893.001 C 881.126,640.5 871.5,630.874 871.5,619 Z"
       stroke="#70ad47"
       stroke-width="0.427137"
       stroke-linecap="square"
       stroke-miterlimit="8"
       stroke-dasharray="2, 0.666667"
       fill="none"
       fill-rule="evenodd"
       id="path71" />
    <path
       d="m 638.5,557.834 c 0,-12.335 9.999,-22.334 22.334,-22.334 h 142.332 c 12.335,0 22.334,9.999 22.334,22.334 v 89.332 c 0,12.335 -9.999,22.334 -22.334,22.334 H 660.834 c -12.335,0 -22.334,-9.999 -22.334,-22.334 z"
       stroke="#70ad47"
       stroke-width="0.427137"
       stroke-linecap="square"
       stroke-miterlimit="8"
       stroke-dasharray="2, 0.666667"
       fill="none"
       fill-rule="evenodd"
       id="path72" />
    <path
       d="M 0,0 45.6934,28.6407"
       stroke="#ed7d31"
       stroke-width="1"
       stroke-miterlimit="8"
       stroke-dasharray="1.33333, 1"
       fill="none"
       fill-rule="evenodd"
       transform="matrix(1,0,0,-1,361.5,225.141)"
       id="path73" />
    <path
       d="M 0,0 44.0469,0.324829"
       stroke="#a7a6a6"
       stroke-width="1"
       stroke-miterlimit="8"
       stroke-dasharray="1.33333, 1"
       fill="none"
       fill-rule="evenodd"
       transform="matrix(1,0,0,-1,594.5,196.825)"
       id="path74" />
    <path
       d="m 825.5,196.5 68.821,28.966"
       stroke="#00b050"
       stroke-width="1"
       stroke-miterlimit="8"
       stroke-dasharray="1.33333, 1"
       fill="none"
       fill-rule="evenodd"
       id="path75" />
    <path
       d="M 1013.96,331.832 987.5,292.5"
       stroke="#00b050"
       stroke-width="1"
       stroke-miterlimit="8"
       stroke-dasharray="1.33333, 1"
       fill="none"
       fill-rule="evenodd"
       id="path76" />
    <path
       d="M 0,0 49.1393,49.6385"
       stroke="#00b050"
       stroke-width="1"
       stroke-miterlimit="8"
       stroke-dasharray="1.33333, 1"
       fill="none"
       fill-rule="evenodd"
       transform="matrix(1,0,0,-1,964.5,511.139)"
       id="path77" />
    <path
       d="M 0,0 46.1411,26.1374"
       stroke="#00b050"
       stroke-width="1"
       stroke-miterlimit="8"
       stroke-dasharray="1.33333, 1"
       fill="none"
       fill-rule="evenodd"
       transform="matrix(1,0,0,-1,825.5,602.637)"
       id="path78" />
    <path
       d="M 0,0 27.7705,0.0358005"
       stroke="#a7a6a6"
       stroke-width="1"
       stroke-miterlimit="8"
       stroke-dasharray="1.33333, 1"
       fill="none"
       fill-rule="evenodd"
       transform="matrix(1,0,0,-1,610.5,602.536)"
       id="path79" />
    <path
       d="m 357.5,596.5 63.627,5.953"
       stroke="#ed7d31"
       stroke-width="1"
       stroke-miterlimit="8"
       stroke-dasharray="1.33333, 1"
       fill="none"
       fill-rule="evenodd"
       id="path80" />
    <path
       d="M 0,0 38.3946,26.868"
       stroke="#ed7d31"
       stroke-width="1"
       stroke-miterlimit="8"
       stroke-dasharray="1.33333, 1"
       fill="none"
       fill-rule="evenodd"
       transform="matrix(1,0,0,-1,230.5,319.368)"
       id="path81" />
    <path
       d="M 262.784,529.409 230.5,505.5"
       stroke="#ed7d31"
       stroke-width="1"
       stroke-miterlimit="8"
       stroke-dasharray="1.33333, 1"
       fill="none"
       fill-rule="evenodd"
       id="path82" />
    <text
       font-family="Arial, Arial_MSFontService, sans-serif"
       font-weight="700"
       font-size="13px"
       style="text-align:center;text-anchor:middle;white-space:pre;stroke-width:0.640705"
       id="text82"
       x="271.0657"
       y="152">Управление на договори за наем</text>
    <text
       font-family="Arial, Arial_MSFontService, sans-serif"
       font-weight="700"
       font-size="13px"
       style="text-align:center;text-anchor:middle;white-space:pre;stroke-width:0.640705"
       id="text83"
       x="732.18298"
       y="122.70624">Планиране на поддръжката</text>
    <text
       font-family="Arial, Arial_MSFontService, sans-serif"
       font-weight="700"
       font-size="13px"
       style="text-align:center;text-anchor:middle;white-space:pre;stroke-width:0.640705"
       id="text84"
       x="501.08746"
       y="123">Пазарни анализи</text>
    <text
       font-family="Arial, Arial_MSFontService, sans-serif"
       font-weight="700"
       font-size="13"
       style="font-size:13px;text-align:center;text-anchor:middle;white-space:pre;stroke-width:0.640705"
       x="986.01019"
       y="150"
       id="text85">Технически проверки</text>
    <text
       font-family="Arial, Arial_MSFontService, sans-serif"
       font-weight="700"
       font-size="13px"
       style="text-align:center;text-anchor:middle;white-space:pre;stroke-width:0.640705"
       id="text86"
       x="1158.0388"
       y="390.46274"><tspan
         sodipodi:role="line"
         id="tspan58"
         x="1158.0388"
         y="390.46274">Проекти за </tspan><tspan
         sodipodi:role="line"
         id="tspan59"
         x="1158.0388"
         y="406.71274">модернизация</tspan></text>
    <text
       font-family="Arial, Arial_MSFontService, sans-serif"
       font-weight="700"
       font-size="13px"
       style="text-align:center;text-anchor:middle;white-space:pre;stroke-width:0.640705"
       id="text87"
       x="979.40912"
       y="657.29376">Управление на енергийната ефективност</text>
    <text
       font-family="Arial, Arial_MSFontService, sans-serif"
       font-weight="700"
       font-size="13"
       style="font-size:13px;text-align:center;text-anchor:middle;white-space:pre;stroke-width:0.640705"
       x="740.81909"
       y="684.24384"
       id="text88">Управление на извънредни ситуации</text>
    <text
       font-family="Arial, Arial_MSFontService, sans-serif"
       font-weight="700"
       font-size="13px"
       style="text-align:center;text-anchor:middle;white-space:pre;stroke-width:0.640705"
       id="text89"
       x="516.45428"
       y="686.64386">Управление на договори</text>
    <text
       font-family="Arial, Arial_MSFontService, sans-serif"
       font-weight="700"
       font-size="13px"
       style="text-align:center;text-anchor:middle;white-space:pre;stroke-width:0.640705"
       id="text90"
       x="262.66306"
       y="681.17505">Комуникация с наемателите</text>
    <text
       font-family="Arial, Arial_MSFontService, sans-serif"
       font-weight="700"
       font-size="13px"
       style="text-align:center;text-anchor:middle;white-space:pre;stroke-width:0.640705"
       id="text91"
       x="94.764122"
       y="404.33618"><tspan
         sodipodi:role="line"
         id="tspan16"
         x="94.764122"
         y="404.33618">Финансово </tspan><tspan
         sodipodi:role="line"
         id="tspan17"
         x="94.764122"
         y="420.58618">управление</tspan></text>
  </g>
</svg>
