<?xml version="1.0" encoding="UTF-8" standalone="no"?>
<svg
   width="1349"
   height="915"
   xml:space="preserve"
   overflow="hidden"
   version="1.1"
   id="svg109"
   sodipodi:docname="AssetManagement.svg"
   inkscape:version="1.4.2 (f4327f4, 2025-05-13)"
   xmlns:inkscape="http://www.inkscape.org/namespaces/inkscape"
   xmlns:sodipodi="http://sodipodi.sourceforge.net/DTD/sodipodi-0.dtd"
   xmlns="http://www.w3.org/2000/svg"
   xmlns:svg="http://www.w3.org/2000/svg"><defs
     id="defs109" /><sodipodi:namedview
     id="namedview109"
     pagecolor="#ffffff"
     bordercolor="#000000"
     borderopacity="0.25"
     inkscape:showpageshadow="2"
     inkscape:pageopacity="0.0"
     inkscape:pagecheckerboard="0"
     inkscape:deskcolor="#d1d1d1"
     inkscape:zoom="0.54817939"
     inkscape:cx="1084.499"
     inkscape:cy="736.07292"
     inkscape:window-width="1920"
     inkscape:window-height="1009"
     inkscape:window-x="-8"
     inkscape:window-y="-8"
     inkscape:window-maximized="1"
     inkscape:current-layer="svg109" /><g
     transform="matrix(0.62134166,0,0,0.62124689,-583.79891,-343.90848)"
     id="g109"
     style="stroke-width:1.60954"><path
       d="m 941.5,983.334 c 0,-31.941 25.893,-57.834 57.835,-57.834 h 286.335 c 31.94,0 57.83,25.893 57.83,57.834 v 231.336 c 0,31.94 -25.89,57.83 -57.83,57.83 H 999.335 c -31.942,0 -57.835,-25.89 -57.835,-57.83 z"
       stroke="#017ac0"
       stroke-width="1.84426"
       stroke-miterlimit="8"
       fill="none"
       fill-rule="evenodd"
       id="path1" /><text
       font-family="Arial, Arial_MSFontService, sans-serif"
       font-weight="400"
       font-size="37px"
       transform="translate(1003.55,1069)"
       id="text1"
       style="stroke-width:1.60954">Treuhänderische </text><text
       font-family="Arial, Arial_MSFontService, sans-serif"
       font-weight="400"
       font-size="37px"
       transform="translate(1041.66,1113)"
       id="text2"
       style="stroke-width:1.60954">Eigentümer</text><text
       font-family="Arial, Arial_MSFontService, sans-serif"
       font-weight="400"
       font-size="37px"
       transform="translate(1230.15,1113)"
       id="text3"
       style="stroke-width:1.60954">-</text><text
       font-family="Arial, Arial_MSFontService, sans-serif"
       font-weight="400"
       font-size="37px"
       transform="translate(1058.84,1157)"
       id="text4"
       style="stroke-width:1.60954">vertretung</text><path
       d="m 2266.5,984.334 c 0,-31.941 25.89,-57.834 57.83,-57.834 h 287.34 c 31.94,0 57.83,25.893 57.83,57.834 v 231.336 c 0,31.94 -25.89,57.83 -57.83,57.83 h -287.34 c -31.94,0 -57.83,-25.89 -57.83,-57.83 z"
       stroke="#017ac0"
       stroke-width="1.84426"
       stroke-miterlimit="8"
       fill="none"
       fill-rule="evenodd"
       id="path4" /><text
       font-family="Arial, Arial_MSFontService, sans-serif"
       font-weight="400"
       font-size="37px"
       transform="translate(2379.78,1092)"
       id="text5"
       style="stroke-width:1.60954">Markt</text><text
       font-family="Arial, Arial_MSFontService, sans-serif"
       font-weight="400"
       font-size="37px"
       transform="translate(2471.45,1092)"
       id="text6"
       style="stroke-width:1.60954">-</text><text
       font-family="Arial, Arial_MSFontService, sans-serif"
       font-weight="400"
       font-size="37px"
       transform="translate(2493.79,1092)"
       id="text7"
       style="stroke-width:1.60954">und </text><text
       font-family="Arial, Arial_MSFontService, sans-serif"
       font-weight="400"
       font-size="37px"
       transform="translate(2334.24,1136)"
       id="text8"
       style="stroke-width:1.60954">Standortanalyse</text><path
       d="m 1383.5,984.168 c 0,-31.849 25.82,-57.668 57.67,-57.668 h 287.66 c 31.85,0 57.67,25.819 57.67,57.668 v 230.662 c 0,31.85 -25.82,57.67 -57.67,57.67 h -287.66 c -31.85,0 -57.67,-25.82 -57.67,-57.67 z"
       stroke="#017ac0"
       stroke-width="1.84426"
       stroke-miterlimit="8"
       fill="none"
       fill-rule="evenodd"
       id="path8" /><text
       font-family="Arial, Arial_MSFontService, sans-serif"
       font-weight="400"
       font-size="37px"
       transform="translate(1502.73,1047)"
       id="text9"
       style="stroke-width:1.60954">Erstellung </text><text
       font-family="Arial, Arial_MSFontService, sans-serif"
       font-weight="400"
       font-size="37px"
       transform="translate(1490.97,1091)"
       id="text10"
       style="stroke-width:1.60954">immobilien</text><text
       font-family="Arial, Arial_MSFontService, sans-serif"
       font-weight="400"
       font-size="37px"
       transform="translate(1666.29,1091)"
       id="text11"
       style="stroke-width:1.60954">-</text><text
       font-family="Arial, Arial_MSFontService, sans-serif"
       font-weight="400"
       font-size="37px"
       transform="translate(1493.56,1135)"
       id="text12"
       style="stroke-width:1.60954">spezifische </text><text
       font-family="Arial, Arial_MSFontService, sans-serif"
       font-weight="400"
       font-size="37px"
       transform="translate(1446.29,1179)"
       id="text13"
       style="stroke-width:1.60954">Business</text><text
       font-family="Arial, Arial_MSFontService, sans-serif"
       font-weight="400"
       font-size="37px"
       transform="translate(1595.82,1179)"
       id="text14"
       style="stroke-width:1.60954">-</text><text
       font-family="Arial, Arial_MSFontService, sans-serif"
       font-weight="400"
       font-size="37px"
       transform="translate(1607.85,1179)"
       id="text15"
       style="stroke-width:1.60954">Plänen</text><path
       d="m 1383.5,1737.17 c 0,-31.85 25.82,-57.67 57.67,-57.67 h 286.66 c 31.85,0 57.67,25.82 57.67,57.67 v 230.66 c 0,31.85 -25.82,57.67 -57.67,57.67 h -286.66 c -31.85,0 -57.67,-25.82 -57.67,-57.67 z"
       stroke="#017ac0"
       stroke-width="1.84426"
       stroke-miterlimit="8"
       fill="none"
       fill-rule="evenodd"
       id="path15" /><text
       font-family="Arial, Arial_MSFontService, sans-serif"
       font-weight="400"
       font-size="37px"
       transform="translate(1437.54,1844)"
       id="text16"
       style="stroke-width:1.60954">Wertmanagement </text><text
       font-family="Arial, Arial_MSFontService, sans-serif"
       font-weight="400"
       font-size="37px"
       transform="translate(1445.56,1888)"
       id="text17"
       style="stroke-width:1.60954">und </text><text
       font-family="Arial, Arial_MSFontService, sans-serif"
       font-weight="400"
       font-size="37px"
       transform="translate(1517.74,1888)"
       id="text18"
       style="stroke-width:1.60954">-</text><text
       font-family="Arial, Arial_MSFontService, sans-serif"
       font-weight="400"
       font-size="37px"
       transform="translate(1529.77,1888)"
       id="text19"
       style="stroke-width:1.60954">entwicklung</text><path
       d="m 2705.5,1736.33 c 0,-31.94 25.89,-57.83 57.83,-57.83 h 287.34 c 31.94,0 57.83,25.89 57.83,57.83 v 231.34 c 0,31.94 -25.89,57.83 -57.83,57.83 h -287.34 c -31.94,0 -57.83,-25.89 -57.83,-57.83 z"
       stroke="#017ac0"
       stroke-width="1.84426"
       stroke-miterlimit="8"
       fill="none"
       fill-rule="evenodd"
       id="path19" /><text
       font-family="Arial, Arial_MSFontService, sans-serif"
       font-weight="400"
       font-size="37px"
       transform="translate(2811.6,1822)"
       id="text20"
       style="stroke-width:1.60954">Immobilien</text><text
       font-family="Arial, Arial_MSFontService, sans-serif"
       font-weight="400"
       font-size="37px"
       transform="translate(2989.2,1822)"
       id="text21"
       style="stroke-width:1.60954">-</text><text
       font-family="Arial, Arial_MSFontService, sans-serif"
       font-weight="400"
       font-size="37px"
       transform="translate(2777.22,1866)"
       id="text22"
       style="stroke-width:1.60954">investition und </text><text
       font-family="Arial, Arial_MSFontService, sans-serif"
       font-weight="400"
       font-size="37px"
       transform="translate(3023.58,1866)"
       id="text23"
       style="stroke-width:1.60954">-</text><text
       font-family="Arial, Arial_MSFontService, sans-serif"
       font-weight="400"
       font-size="37px"
       transform="translate(2799.86,1910)"
       id="text24"
       style="stroke-width:1.60954">Finanzierung</text><path
       d="m 1825.5,1360.33 c 0,-31.94 25.89,-57.83 57.83,-57.83 h 286.34 c 31.94,0 57.83,25.89 57.83,57.83 v 231.34 c 0,31.94 -25.89,57.83 -57.83,57.83 h -286.34 c -31.94,0 -57.83,-25.89 -57.83,-57.83 z"
       stroke="#017ac0"
       stroke-width="1.84426"
       stroke-miterlimit="8"
       fill="none"
       fill-rule="evenodd"
       id="path24" /><text
       font-family="Arial, Arial_MSFontService, sans-serif"
       font-weight="400"
       font-size="37px"
       transform="translate(1886.3,1445)"
       id="text25"
       style="stroke-width:1.60954">Identifikation und </text><text
       font-family="Arial, Arial_MSFontService, sans-serif"
       font-weight="400"
       font-size="37px"
       transform="translate(1922.39,1489)"
       id="text26"
       style="stroke-width:1.60954">Nutzung von </text><text
       font-family="Arial, Arial_MSFontService, sans-serif"
       font-weight="400"
       font-size="37px"
       transform="translate(1929.54,1533)"
       id="text27"
       style="stroke-width:1.60954">Potenzialen</text><path
       d="m 940.5,1737.17 c 0,-31.85 25.819,-57.67 57.668,-57.67 h 287.662 c 31.85,0 57.67,25.82 57.67,57.67 v 230.66 c 0,31.85 -25.82,57.67 -57.67,57.67 H 998.168 c -31.849,0 -57.668,-25.82 -57.668,-57.67 z"
       stroke="#017ac0"
       stroke-width="1.84426"
       stroke-miterlimit="8"
       fill="none"
       fill-rule="evenodd"
       id="path27" /><text
       font-family="Arial, Arial_MSFontService, sans-serif"
       font-weight="400"
       font-size="37px"
       transform="translate(1036.47,1844)"
       id="text28"
       style="stroke-width:1.60954">Performance </text><text
       font-family="Arial, Arial_MSFontService, sans-serif"
       font-weight="400"
       font-size="37px"
       transform="translate(1034.17,1888)"
       id="text29"
       style="stroke-width:1.60954">Management</text><path
       d="m 2705.5,612.168 c 0,-31.849 25.82,-57.668 57.67,-57.668 h 287.66 c 31.85,0 57.67,25.819 57.67,57.668 v 230.664 c 0,31.849 -25.82,57.668 -57.67,57.668 h -287.66 c -31.85,0 -57.67,-25.819 -57.67,-57.668 z"
       stroke="#017ac0"
       stroke-width="1.84426"
       stroke-miterlimit="8"
       fill="none"
       fill-rule="evenodd"
       id="path29" /><text
       font-family="Arial, Arial_MSFontService, sans-serif"
       font-weight="400"
       font-size="37px"
       transform="translate(2785.92,675)"
       id="text30"
       style="stroke-width:1.60954">Wertorientierte </text><text
       font-family="Arial, Arial_MSFontService, sans-serif"
       font-weight="400"
       font-size="37px"
       transform="translate(2833.47,719)"
       id="text31"
       style="stroke-width:1.60954">Planung, </text><text
       font-family="Arial, Arial_MSFontService, sans-serif"
       font-weight="400"
       font-size="37px"
       transform="translate(2785.07,763)"
       id="text32"
       style="stroke-width:1.60954">Steuerung und </text><text
       font-family="Arial, Arial_MSFontService, sans-serif"
       font-weight="400"
       font-size="37px"
       transform="translate(2833.77,807)"
       id="text33"
       style="stroke-width:1.60954">Kontrolle</text><path
       d="m 2267.5,612.335 c 0,-31.942 25.89,-57.835 57.83,-57.835 h 286.34 c 31.94,0 57.83,25.893 57.83,57.835 v 231.331 c 0,31.941 -25.89,57.835 -57.83,57.835 h -286.34 c -31.94,0 -57.83,-25.894 -57.83,-57.835 z"
       stroke="#017ac0"
       stroke-width="1.84426"
       stroke-miterlimit="8"
       fill="none"
       fill-rule="evenodd"
       id="path33" /><text
       font-family="Arial, Arial_MSFontService, sans-serif"
       font-weight="400"
       font-size="37px"
       transform="translate(2356.54,720)"
       id="text34"
       style="stroke-width:1.60954">Transaktions</text><text
       font-family="Arial, Arial_MSFontService, sans-serif"
       font-weight="400"
       font-size="37px"
       transform="translate(2567.37,720)"
       id="text35"
       style="stroke-width:1.60954">-</text><text
       font-family="Arial, Arial_MSFontService, sans-serif"
       font-weight="400"
       font-size="37px"
       transform="translate(2360.27,764)"
       id="text36"
       style="stroke-width:1.60954">management</text><path
       d="m 940.5,612.334 c 0,-31.941 25.893,-57.834 57.834,-57.834 h 287.336 c 31.94,0 57.83,25.893 57.83,57.834 v 231.332 c 0,31.941 -25.89,57.834 -57.83,57.834 H 998.334 c -31.941,0 -57.834,-25.893 -57.834,-57.834 z"
       stroke="#017ac0"
       stroke-width="1.84426"
       stroke-miterlimit="8"
       fill="none"
       fill-rule="evenodd"
       id="path36" /><text
       font-family="Arial, Arial_MSFontService, sans-serif"
       font-weight="400"
       font-size="37px"
       transform="translate(1016.7,698)"
       id="text37"
       style="stroke-width:1.60954">Identifizierung / </text><text
       font-family="Arial, Arial_MSFontService, sans-serif"
       font-weight="400"
       font-size="37px"
       transform="translate(1021.58,742)"
       id="text38"
       style="stroke-width:1.60954">Steuerung von </text><text
       font-family="Arial, Arial_MSFontService, sans-serif"
       font-weight="400"
       font-size="37px"
       transform="translate(1027.31,786)"
       id="text39"
       style="stroke-width:1.60954">Due Diligence </text><path
       d="m 2705.5,984.168 c 0,-31.849 25.82,-57.668 57.67,-57.668 h 287.66 c 31.85,0 57.67,25.819 57.67,57.668 v 230.662 c 0,31.85 -25.82,57.67 -57.67,57.67 h -287.66 c -31.85,0 -57.67,-25.82 -57.67,-57.67 z"
       stroke="#017ac0"
       stroke-width="1.84426"
       stroke-miterlimit="8"
       fill="none"
       fill-rule="evenodd"
       id="path39" /><text
       font-family="Arial, Arial_MSFontService, sans-serif"
       font-weight="400"
       font-size="37px"
       transform="translate(2781.33,1047)"
       id="text40"
       style="stroke-width:1.60954">Identifizierung / </text><text
       font-family="Arial, Arial_MSFontService, sans-serif"
       font-weight="400"
       font-size="37px"
       transform="translate(2785.07,1091)"
       id="text41"
       style="stroke-width:1.60954">Steuerung und </text><text
       font-family="Arial, Arial_MSFontService, sans-serif"
       font-weight="400"
       font-size="37px"
       transform="translate(2759.86,1135)"
       id="text42"
       style="stroke-width:1.60954">Durchführung von </text><text
       font-family="Arial, Arial_MSFontService, sans-serif"
       font-weight="400"
       font-size="37px"
       transform="translate(2791.94,1179)"
       id="text43"
       style="stroke-width:1.60954">Due Diligence </text><path
       d="m 1383.5,612.168 c 0,-31.849 25.82,-57.668 57.67,-57.668 h 287.66 c 31.85,0 57.67,25.819 57.67,57.668 v 230.664 c 0,31.849 -25.82,57.668 -57.67,57.668 h -287.66 c -31.85,0 -57.67,-25.819 -57.67,-57.668 z"
       stroke="#017ac0"
       stroke-width="1.84426"
       stroke-miterlimit="8"
       fill="none"
       fill-rule="evenodd"
       id="path43" /><text
       font-family="Arial, Arial_MSFontService, sans-serif"
       font-weight="400"
       font-size="37px"
       transform="translate(1465.3,719)"
       id="text44"
       style="stroke-width:1.60954">Wertermittlung </text><text
       font-family="Arial, Arial_MSFontService, sans-serif"
       font-weight="400"
       font-size="37px"
       transform="translate(1461.02,763)"
       id="text45"
       style="stroke-width:1.60954">von Immobilien</text><path
       d="m 1825.5,984.168 c 0,-31.849 25.82,-57.668 57.67,-57.668 h 287.66 c 31.85,0 57.67,25.819 57.67,57.668 v 230.662 c 0,31.85 -25.82,57.67 -57.67,57.67 h -287.66 c -31.85,0 -57.67,-25.82 -57.67,-57.67 z"
       stroke="#017ac0"
       stroke-width="1.84426"
       stroke-miterlimit="8"
       fill="none"
       fill-rule="evenodd"
       id="path45" /><text
       font-family="Arial, Arial_MSFontService, sans-serif"
       font-weight="400"
       font-size="37px"
       transform="translate(1962.86,1091)"
       id="text46"
       style="stroke-width:1.60954">Projekt</text><text
       font-family="Arial, Arial_MSFontService, sans-serif"
       font-weight="400"
       font-size="37px"
       transform="translate(2077.44,1091)"
       id="text47"
       style="stroke-width:1.60954">-</text><text
       font-family="Arial, Arial_MSFontService, sans-serif"
       font-weight="400"
       font-size="37px"
       transform="translate(1918.47,1135)"
       id="text48"
       style="stroke-width:1.60954">management</text><path
       d="m 940.5,1360.33 c 0,-31.94 25.893,-57.83 57.834,-57.83 h 287.336 c 31.94,0 57.83,25.89 57.83,57.83 v 231.34 c 0,31.94 -25.89,57.83 -57.83,57.83 H 998.334 c -31.941,0 -57.834,-25.89 -57.834,-57.83 z"
       stroke="#017ac0"
       stroke-width="1.84426"
       stroke-miterlimit="8"
       fill="none"
       fill-rule="evenodd"
       id="path48" /><text
       font-family="Arial, Arial_MSFontService, sans-serif"
       font-weight="400"
       font-size="37px"
       transform="translate(1039.15,1401)"
       id="text49"
       style="stroke-width:1.60954">Strategische </text><text
       font-family="Arial, Arial_MSFontService, sans-serif"
       font-weight="400"
       font-size="37px"
       transform="translate(1025.4,1445)"
       id="text50"
       style="stroke-width:1.60954">Vorgaben und </text><text
       font-family="Arial, Arial_MSFontService, sans-serif"
       font-weight="400"
       font-size="37px"
       transform="translate(1021.39,1489)"
       id="text51"
       style="stroke-width:1.60954">Steuerung des </text><text
       font-family="Arial, Arial_MSFontService, sans-serif"
       font-weight="400"
       font-size="37px"
       transform="translate(995.037,1533)"
       id="text52"
       style="stroke-width:1.60954">Gebäude</text><text
       font-family="Arial, Arial_MSFontService, sans-serif"
       font-weight="400"
       font-size="37px"
       transform="translate(1147.43,1533)"
       id="text53"
       style="stroke-width:1.60954">-</text><text
       font-family="Arial, Arial_MSFontService, sans-serif"
       font-weight="400"
       font-size="37px"
       transform="translate(1159.46,1533)"
       id="text54"
       style="stroke-width:1.60954">/Objekt</text><text
       font-family="Arial, Arial_MSFontService, sans-serif"
       font-weight="400"
       font-size="37px"
       transform="translate(1276.34,1533)"
       id="text55"
       style="stroke-width:1.60954">-</text><text
       font-family="Arial, Arial_MSFontService, sans-serif"
       font-weight="400"
       font-size="37px"
       transform="translate(1024.83,1577)"
       id="text56"
       style="stroke-width:1.60954">managements </text><path
       d="m 1383.5,1360.33 c 0,-31.94 25.89,-57.83 57.83,-57.83 h 287.34 c 31.94,0 57.83,25.89 57.83,57.83 v 231.34 c 0,31.94 -25.89,57.83 -57.83,57.83 h -287.34 c -31.94,0 -57.83,-25.89 -57.83,-57.83 z"
       stroke="#017ac0"
       stroke-width="1.84426"
       stroke-miterlimit="8"
       fill="none"
       fill-rule="evenodd"
       id="path56" /><text
       font-family="Arial, Arial_MSFontService, sans-serif"
       font-weight="400"
       font-size="37px"
       transform="translate(1509.61,1401)"
       id="text57"
       style="stroke-width:1.60954">Auswahl, </text><text
       font-family="Arial, Arial_MSFontService, sans-serif"
       font-weight="400"
       font-size="37px"
       transform="translate(1462.93,1445)"
       id="text58"
       style="stroke-width:1.60954">Steuerung und </text><text
       font-family="Arial, Arial_MSFontService, sans-serif"
       font-weight="400"
       font-size="37px"
       transform="translate(1476.68,1489)"
       id="text59"
       style="stroke-width:1.60954">Kontrolle des </text><text
       font-family="Arial, Arial_MSFontService, sans-serif"
       font-weight="400"
       font-size="37px"
       transform="translate(1514.77,1533)"
       id="text60"
       style="stroke-width:1.60954">Property </text><text
       font-family="Arial, Arial_MSFontService, sans-serif"
       font-weight="400"
       font-size="37px"
       transform="translate(1467.52,1577)"
       id="text61"
       style="stroke-width:1.60954">Managements</text><path
       d="m 2266.5,1360.33 c 0,-31.94 25.89,-57.83 57.83,-57.83 h 287.34 c 31.94,0 57.83,25.89 57.83,57.83 v 231.34 c 0,31.94 -25.89,57.83 -57.83,57.83 h -287.34 c -31.94,0 -57.83,-25.89 -57.83,-57.83 z"
       stroke="#017ac0"
       stroke-width="1.84426"
       stroke-miterlimit="8"
       fill="none"
       fill-rule="evenodd"
       id="path61" /><text
       font-family="Arial, Arial_MSFontService, sans-serif"
       font-weight="400"
       font-size="37px"
       transform="translate(2372.92,1468)"
       id="text62"
       style="stroke-width:1.60954">Immobilien</text><text
       font-family="Arial, Arial_MSFontService, sans-serif"
       font-weight="400"
       font-size="37px"
       transform="translate(2550.52,1468)"
       id="text63"
       style="stroke-width:1.60954">-</text><text
       font-family="Arial, Arial_MSFontService, sans-serif"
       font-weight="400"
       font-size="37px"
       transform="translate(2386.96,1512)"
       id="text64"
       style="stroke-width:1.60954">Marketing</text><path
       d="m 2267.5,1737.17 c 0,-31.85 25.82,-57.67 57.67,-57.67 h 286.66 c 31.85,0 57.67,25.82 57.67,57.67 v 230.66 c 0,31.85 -25.82,57.67 -57.67,57.67 h -286.66 c -31.85,0 -57.67,-25.82 -57.67,-57.67 z"
       stroke="#017ac0"
       stroke-width="1.84426"
       stroke-miterlimit="8"
       fill="none"
       fill-rule="evenodd"
       id="path64" /><text
       font-family="Arial, Arial_MSFontService, sans-serif"
       font-weight="400"
       font-size="37px"
       transform="translate(2373.15,1844)"
       id="text65"
       style="stroke-width:1.60954">Immobilien</text><text
       font-family="Arial, Arial_MSFontService, sans-serif"
       font-weight="400"
       font-size="37px"
       transform="translate(2550.76,1844)"
       id="text66"
       style="stroke-width:1.60954">-</text><text
       font-family="Arial, Arial_MSFontService, sans-serif"
       font-weight="400"
       font-size="37px"
       transform="translate(2380.03,1888)"
       id="text67"
       style="stroke-width:1.60954">Controlling</text><path
       d="m 1825.5,612.334 c 0,-31.941 25.89,-57.834 57.83,-57.834 h 286.34 c 31.94,0 57.83,25.893 57.83,57.834 v 231.332 c 0,31.941 -25.89,57.834 -57.83,57.834 h -286.34 c -31.94,0 -57.83,-25.893 -57.83,-57.834 z"
       stroke="#017ac0"
       stroke-width="1.84426"
       stroke-miterlimit="8"
       fill="none"
       fill-rule="evenodd"
       id="path67" /><text
       font-family="Arial, Arial_MSFontService, sans-serif"
       font-weight="400"
       font-size="37px"
       transform="translate(1931.27,676)"
       id="text68"
       style="stroke-width:1.60954">Immobilien</text><text
       font-family="Arial, Arial_MSFontService, sans-serif"
       font-weight="400"
       font-size="37px"
       transform="translate(2108.88,676)"
       id="text69"
       style="stroke-width:1.60954">-</text><text
       font-family="Arial, Arial_MSFontService, sans-serif"
       font-weight="400"
       font-size="37px"
       transform="translate(1906.06,720)"
       id="text70"
       style="stroke-width:1.60954">controlling und </text><text
       font-family="Arial, Arial_MSFontService, sans-serif"
       font-weight="400"
       font-size="37px"
       transform="translate(1970.23,764)"
       id="text71"
       style="stroke-width:1.60954">Risiko</text><text
       font-family="Arial, Arial_MSFontService, sans-serif"
       font-weight="400"
       font-size="37px"
       transform="translate(2069.92,764)"
       id="text72"
       style="stroke-width:1.60954">-</text><text
       font-family="Arial, Arial_MSFontService, sans-serif"
       font-weight="400"
       font-size="37px"
       transform="translate(1918.39,808)"
       id="text73"
       style="stroke-width:1.60954">management</text><path
       d="m 2705.5,1360.33 c 0,-31.94 25.89,-57.83 57.83,-57.83 h 287.34 c 31.94,0 57.83,25.89 57.83,57.83 v 231.34 c 0,31.94 -25.89,57.83 -57.83,57.83 h -287.34 c -31.94,0 -57.83,-25.89 -57.83,-57.83 z"
       stroke="#017ac0"
       stroke-width="1.84426"
       stroke-miterlimit="8"
       fill="none"
       fill-rule="evenodd"
       id="path73" /><text
       font-family="Arial, Arial_MSFontService, sans-serif"
       font-weight="400"
       font-size="37px"
       transform="translate(2796.81,1468)"
       id="text74"
       style="stroke-width:1.60954">Research auf </text><text
       font-family="Arial, Arial_MSFontService, sans-serif"
       font-weight="400"
       font-size="37px"
       transform="translate(2801.69,1512)"
       id="text75"
       style="stroke-width:1.60954">Objektebene</text><path
       d="m 1825.5,1737.17 c 0,-31.85 25.82,-57.67 57.67,-57.67 h 286.66 c 31.85,0 57.67,25.82 57.67,57.67 v 230.66 c 0,31.85 -25.82,57.67 -57.67,57.67 h -286.66 c -31.85,0 -57.67,-25.82 -57.67,-57.67 z"
       stroke="#017ac0"
       stroke-width="1.84426"
       stroke-miterlimit="8"
       fill="none"
       fill-rule="evenodd"
       id="path75" /><text
       font-family="Arial, Arial_MSFontService, sans-serif"
       font-weight="400"
       font-size="37px"
       transform="translate(1946.17,1800)"
       id="text76"
       style="stroke-width:1.60954">Reporting </text><text
       font-family="Arial, Arial_MSFontService, sans-serif"
       font-weight="400"
       font-size="37px"
       transform="translate(1904.92,1844)"
       id="text77"
       style="stroke-width:1.60954">Tätigkeiten auf </text><text
       font-family="Arial, Arial_MSFontService, sans-serif"
       font-weight="400"
       font-size="37px"
       transform="translate(1894.6,1888)"
       id="text78"
       style="stroke-width:1.60954">Objekt und/oder </text><text
       font-family="Arial, Arial_MSFontService, sans-serif"
       font-weight="400"
       font-size="37px"
       transform="translate(1906.93,1932)"
       id="text79"
       style="stroke-width:1.60954">Portfolioebene</text><path
       d="M 0,0 40.0829,0.574541"
       stroke="#4472c4"
       stroke-width="1.84426"
       stroke-miterlimit="8"
       fill="none"
       fill-rule="evenodd"
       transform="matrix(1,0,0,-1,1343.5,728.074)"
       id="path79" /><path
       d="m 1786.5,727.5 38.52,0.574"
       stroke="#4472c4"
       stroke-width="1.84426"
       stroke-miterlimit="8"
       fill="none"
       fill-rule="evenodd"
       id="path80" /><path
       d="m 2227.5,728.5 h 39.08"
       stroke="#4472c4"
       stroke-width="1.84426"
       stroke-miterlimit="8"
       fill="none"
       fill-rule="evenodd"
       id="path81" /><path
       d="M 0,0 35.7554,0.574541"
       stroke="#4472c4"
       stroke-width="1.84426"
       stroke-miterlimit="8"
       fill="none"
       fill-rule="evenodd"
       transform="matrix(1,0,0,-1,2669.5,728.074)"
       id="path82" /><path
       d="M 1142.52,926.03 1142.5,901.5"
       stroke="#4472c4"
       stroke-width="1.84426"
       stroke-miterlimit="8"
       fill="none"
       fill-rule="evenodd"
       id="path83" /><path
       d="M 0,0 0.122343,25.291"
       stroke="#4472c4"
       stroke-width="1.84426"
       stroke-miterlimit="8"
       fill="none"
       fill-rule="evenodd"
       transform="matrix(1,0,0,-1,1585.5,925.791)"
       id="path84" /><path
       d="M 2026.59,926.214 2026.5,901.5"
       stroke="#4472c4"
       stroke-width="1.84426"
       stroke-miterlimit="8"
       fill="none"
       fill-rule="evenodd"
       id="path85" /><path
       d="M 0,0 0.237467,25.5418"
       stroke="#4472c4"
       stroke-width="1.84426"
       stroke-miterlimit="8"
       fill="none"
       fill-rule="evenodd"
       transform="matrix(1,0,0,-1,2468.5,927.042)"
       id="path86" /><path
       d="M 0,0 3.60892e-4,25.291"
       stroke="#4472c4"
       stroke-width="1.84426"
       stroke-miterlimit="8"
       fill="none"
       fill-rule="evenodd"
       transform="matrix(1,0,0,-1,2907.5,925.791)"
       id="path87" /><path
       d="M 0,0 0.202461,29.687"
       stroke="#4472c4"
       stroke-width="1.84426"
       stroke-miterlimit="8"
       fill="none"
       fill-rule="evenodd"
       transform="matrix(1,0,0,-1,1142.5,1302.19)"
       id="path88" /><path
       d="m 1142.68,1679.19 -0.18,-29.69"
       stroke="#4472c4"
       stroke-width="1.84426"
       stroke-miterlimit="8"
       fill="none"
       fill-rule="evenodd"
       id="path89" /><path
       d="M 0,0 0.475656,29.9959"
       stroke="#4472c4"
       stroke-width="1.84426"
       stroke-miterlimit="8"
       fill="none"
       fill-rule="evenodd"
       transform="matrix(1,0,0,-1,1584.5,1679.5)"
       id="path90" /><path
       d="M 0,0 3.60892e-4,29.9959"
       stroke="#4472c4"
       stroke-width="1.84426"
       stroke-miterlimit="8"
       fill="none"
       fill-rule="evenodd"
       transform="matrix(1,0,0,-1,2026.5,1679.5)"
       id="path91" /><path
       d="m 2468.74,1678.76 -0.24,-29.26"
       stroke="#4472c4"
       stroke-width="1.84426"
       stroke-miterlimit="8"
       fill="none"
       fill-rule="evenodd"
       id="path92" /><path
       d="M 0,0 0.112238,29.0717"
       stroke="#4472c4"
       stroke-width="1.84426"
       stroke-miterlimit="8"
       fill="none"
       fill-rule="evenodd"
       transform="matrix(1,0,0,-1,2906.5,1678.57)"
       id="path93" /><path
       d="M 0,0 3.60892e-4,30.1078"
       stroke="#4472c4"
       stroke-width="1.84426"
       stroke-miterlimit="8"
       fill="none"
       fill-rule="evenodd"
       transform="matrix(1,0,0,-1,2907.5,1302.61)"
       id="path94" /><path
       d="M 0,0 3.60892e-4,29.2824"
       stroke="#4472c4"
       stroke-width="1.84426"
       stroke-miterlimit="8"
       fill="none"
       fill-rule="evenodd"
       transform="matrix(1,0,0,-1,2468.5,1302.78)"
       id="path95" /><path
       d="M 0,0 0.087336,29.3781"
       stroke="#4472c4"
       stroke-width="1.84426"
       stroke-miterlimit="8"
       fill="none"
       fill-rule="evenodd"
       transform="matrix(1,0,0,-1,2026.5,1301.88)"
       id="path96" /><path
       d="M 0,0 0.253346,29.3759"
       stroke="#4472c4"
       stroke-width="1.84426"
       stroke-miterlimit="8"
       fill="none"
       fill-rule="evenodd"
       transform="matrix(1,0,0,-1,1584.5,1301.88)"
       id="path97" /><path
       d="m 1786.5,1475.5 h 38.9"
       stroke="#4472c4"
       stroke-width="1.84426"
       stroke-miterlimit="8"
       fill="none"
       fill-rule="evenodd"
       id="path98" /><path
       d="m 2227.5,1475.5 38.84,0.73"
       stroke="#4472c4"
       stroke-width="1.84426"
       stroke-miterlimit="8"
       fill="none"
       fill-rule="evenodd"
       id="path99" /><path
       d="M 0,0 35.9929,0.0920276"
       stroke="#4472c4"
       stroke-width="1.84426"
       stroke-miterlimit="8"
       fill="none"
       fill-rule="evenodd"
       transform="matrix(1,0,0,-1,2669.5,1476.59)"
       id="path100" /><path
       d="M 0,0 39.8873,0.308924"
       stroke="#4472c4"
       stroke-width="1.84426"
       stroke-miterlimit="8"
       fill="none"
       fill-rule="evenodd"
       transform="matrix(1,0,0,-1,1343.5,1475.81)"
       id="path101" /><path
       d="M 0,0 38.7313,0.00216535"
       stroke="#4472c4"
       stroke-width="1.84426"
       stroke-miterlimit="8"
       fill="none"
       fill-rule="evenodd"
       transform="matrix(1,0,0,-1,1786.5,1099.5)"
       id="path102" /><path
       d="m 2228.5,1099.5 38.76,0.83"
       stroke="#4472c4"
       stroke-width="1.84426"
       stroke-miterlimit="8"
       fill="none"
       fill-rule="evenodd"
       id="path103" /><path
       d="M 0,0 35.9929,0.825361"
       stroke="#4472c4"
       stroke-width="1.84426"
       stroke-miterlimit="8"
       fill="none"
       fill-rule="evenodd"
       transform="matrix(1,0,0,-1,2669.5,1100.33)"
       id="path104" /><path
       d="m 1343.5,1099.5 39.96,0.09"
       stroke="#4472c4"
       stroke-width="1.84426"
       stroke-miterlimit="8"
       fill="none"
       fill-rule="evenodd"
       id="path105" /><path
       d="m 1343.5,1852.5 h 39.23"
       stroke="#4472c4"
       stroke-width="1.84426"
       stroke-miterlimit="8"
       fill="none"
       fill-rule="evenodd"
       id="path106" /><path
       d="m 1785.5,1852.5 h 39.37"
       stroke="#4472c4"
       stroke-width="1.84426"
       stroke-miterlimit="8"
       fill="none"
       fill-rule="evenodd"
       id="path107" /><path
       d="m 2227.5,1852.5 h 39.08"
       stroke="#4472c4"
       stroke-width="1.84426"
       stroke-miterlimit="8"
       fill="none"
       fill-rule="evenodd"
       id="path108" /><path
       d="M 0,0 35.6432,0.376411"
       stroke="#4472c4"
       stroke-width="1.84426"
       stroke-miterlimit="8"
       fill="none"
       fill-rule="evenodd"
       transform="matrix(1,0,0,-1,2669.5,1852.88)"
       id="path109" /></g></svg>
