<svg width="4344" height="1968" xmlns="http://www.w3.org/2000/svg" xmlns:xlink="http://www.w3.org/1999/xlink" xml:space="preserve" overflow="hidden"><g transform="translate(-42 -344)"><rect x="283" y="518" width="1196" height="59.0001" fill="#FFFFFF"/><text fill="#017AC0" font-family="Arial,Arial_MSFontService,sans-serif" font-weight="400" font-size="44" transform="matrix(1 0 0 1 875.51 567)">)</text><path d="M1978.81 466 250 466 250 1062.97 1978.81 1062.97 1978.81 466Z" fill="#F2F2F2" fill-rule="evenodd"/><text fill="#017AC0" font-family="Arial,Arial_MSFontService,sans-serif" font-weight="700" font-size="48" transform="matrix(6.12323e-17 -1 1 6.12323e-17 103.922 1007)">Projektvorbereitung</text><text fill="#017AC0" font-family="Arial,Arial_MSFontService,sans-serif" font-weight="700" font-size="44" transform="matrix(6.12323e-17 -1 1 6.12323e-17 170.929 946)">ca.</text><text fill="#017AC0" font-family="Arial,Arial_MSFontService,sans-serif" font-weight="700" font-size="44" transform="matrix(6.12323e-17 -1 1 6.12323e-17 170.929 875)">3</text><text fill="#017AC0" font-family="Arial,Arial_MSFontService,sans-serif" font-weight="700" font-size="44" transform="matrix(6.12323e-17 -1 1 6.12323e-17 170.929 839)">–</text><text fill="#017AC0" font-family="Arial,Arial_MSFontService,sans-serif" font-weight="700" font-size="44" transform="matrix(6.12323e-17 -1 1 6.12323e-17 170.929 803)">4 </text><text fill="#017AC0" font-family="Arial,Arial_MSFontService,sans-serif" font-weight="700" font-size="44" transform="matrix(6.12323e-17 -1 1 6.12323e-17 170.929 767)">Monate</text><rect x="289" y="773" width="1196" height="240" fill="#FFFFFF"/><text font-family="Arial,Arial_MSFontService,sans-serif" font-weight="400" font-size="44" transform="matrix(1 0 0 1 476.681 822)">Erfassung/Auswertung</text><text font-family="Arial,Arial_MSFontService,sans-serif" font-weight="400" font-size="44" transform="matrix(1 0 0 1 932.608 822)">Liegenschaftsdaten </text><text font-family="Arial,Arial_MSFontService,sans-serif" font-weight="400" font-size="44" transform="matrix(1 0 0 1 556.5 880)">Ermittlung</text><text font-family="Arial,Arial_MSFontService,sans-serif" font-weight="400" font-size="44" transform="matrix(1 0 0 1 772.146 880)">Energiekosten</text><text font-family="Arial,Arial_MSFontService,sans-serif" font-weight="400" font-size="44" transform="matrix(1 0 0 1 1043.48 880)">-</text><text font-family="Arial,Arial_MSFontService,sans-serif" font-weight="400" font-size="44" transform="matrix(1 0 0 1 1057.34 880)">Baseline </text><text font-family="Arial,Arial_MSFontService,sans-serif" font-weight="400" font-size="44" transform="matrix(1 0 0 1 554.552 939)">Festlegung</text><text font-family="Arial,Arial_MSFontService,sans-serif" font-weight="400" font-size="44" transform="matrix(1 0 0 1 783.604 939)">Zielvorgaben</text><text font-family="Arial,Arial_MSFontService,sans-serif" font-weight="400" font-size="44" transform="matrix(1 0 0 1 1048.75 939)">(Laufzeit,</text><text font-family="Arial,Arial_MSFontService,sans-serif" font-weight="400" font-size="44" transform="matrix(1 0 0 1 338.104 1000)">Wirtschaftlichkeitsvorstellungen,</text><text font-family="Arial,Arial_MSFontService,sans-serif" font-weight="400" font-size="44" transform="matrix(1 0 0 1 975.76 1000)">ggf.</text><text font-family="Arial,Arial_MSFontService,sans-serif" font-weight="400" font-size="44" transform="matrix(1 0 0 1 1068 1000)">Pflichtmaßnahmen)</text><rect x="283" y="491" width="1196" height="189" fill="#FFFFFF"/><text font-family="Arial,Arial_MSFontService,sans-serif" font-weight="400" font-size="44" transform="matrix(1 0 0 1 677.568 540)">Gebäudeauswahl </text><text font-family="Arial,Arial_MSFontService,sans-serif" font-weight="400" font-size="44" transform="matrix(1 0 0 1 1020.17 540)">Festlegung</text><text font-family="Arial,Arial_MSFontService,sans-serif" font-weight="400" font-size="44" transform="matrix(1 0 0 1 691.661 598)">Verantwortlichkeiten</text><text font-family="Arial,Arial_MSFontService,sans-serif" font-weight="400" font-size="44" transform="matrix(1 0 0 1 480.828 668)">ggf.</text><text font-family="Arial,Arial_MSFontService,sans-serif" font-weight="400" font-size="44" transform="matrix(1 0 0 1 568.714 668)">Beauftragung des Projektmanagement</text><path d="M4099.81 491 2372 491 2372 2132.8 4099.81 2132.8 4099.81 491Z" fill="#F2F2F2" fill-rule="evenodd"/><text fill="#017AC0" font-family="Arial,Arial_MSFontService,sans-serif" font-weight="700" font-size="48" transform="matrix(6.12323e-17 -1 1 6.12323e-17 2245.46 1630)">Ausschreibung</text><text fill="#017AC0" font-family="Arial,Arial_MSFontService,sans-serif" font-weight="700" font-size="48" transform="matrix(6.12323e-17 -1 1 6.12323e-17 2245.46 1287)">und </text><text fill="#017AC0" font-family="Arial,Arial_MSFontService,sans-serif" font-weight="700" font-size="48" transform="matrix(6.12323e-17 -1 1 6.12323e-17 2245.46 1186)">Vergabe</text><text fill="#017AC0" font-family="Arial,Arial_MSFontService,sans-serif" font-weight="700" font-size="44" transform="matrix(6.12323e-17 -1 1 6.12323e-17 2312.46 1479)">ca.</text><text fill="#017AC0" font-family="Arial,Arial_MSFontService,sans-serif" font-weight="700" font-size="44" transform="matrix(6.12323e-17 -1 1 6.12323e-17 2312.46 1407)">7</text><text fill="#017AC0" font-family="Arial,Arial_MSFontService,sans-serif" font-weight="700" font-size="44" transform="matrix(6.12323e-17 -1 1 6.12323e-17 2312.46 1371)">–</text><text fill="#017AC0" font-family="Arial,Arial_MSFontService,sans-serif" font-weight="700" font-size="44" transform="matrix(6.12323e-17 -1 1 6.12323e-17 2312.46 1335)">9 </text><text fill="#017AC0" font-family="Arial,Arial_MSFontService,sans-serif" font-weight="700" font-size="44" transform="matrix(6.12323e-17 -1 1 6.12323e-17 2312.46 1299)">Monate</text><rect x="2431" y="2004" width="1195" height="63.9999" fill="#FFFFFF"/><text font-family="Arial,Arial_MSFontService,sans-serif" font-weight="400" font-size="44" transform="matrix(1 0 0 1 2648.87 2057)">Abschluss</text><text font-family="Arial,Arial_MSFontService,sans-serif" font-weight="400" font-size="44" transform="matrix(1 0 0 1 2853.85 2057)">Energiespar</text><text font-family="Arial,Arial_MSFontService,sans-serif" font-weight="400" font-size="44" transform="matrix(1 0 0 1 3082.56 2057)">-</text><text font-family="Arial,Arial_MSFontService,sans-serif" font-weight="400" font-size="44" transform="matrix(1 0 0 1 3096.43 2057)">Garantievertrag</text><text fill="#017AC0" font-family="Arial,Arial_MSFontService,sans-serif" font-weight="400" font-size="44" transform="matrix(1 0 0 1 3810.47 1293)">kein </text><text fill="#017AC0" font-family="Arial,Arial_MSFontService,sans-serif" font-weight="400" font-size="44" transform="matrix(1 0 0 1 3705 1351)">wirtschaftliches </text><text fill="#017AC0" font-family="Arial,Arial_MSFontService,sans-serif" font-weight="400" font-size="44" transform="matrix(1 0 0 1 3769.4 1410)">Angebot</text><text fill="#017AC0" font-family="Arial,Arial_MSFontService,sans-serif" font-weight="400" font-size="44" transform="matrix(1 0 0 1 3787.12 1813)">Eigen</text><text fill="#017AC0" font-family="Arial,Arial_MSFontService,sans-serif" font-weight="400" font-size="44" transform="matrix(1 0 0 1 3895.98 1813)">-</text><text fill="#017AC0" font-family="Arial,Arial_MSFontService,sans-serif" font-weight="400" font-size="44" transform="matrix(1 0 0 1 3748.28 1871)">besorgung </text><text fill="#017AC0" font-family="Arial,Arial_MSFontService,sans-serif" font-weight="400" font-size="44" transform="matrix(1 0 0 1 3761.46 1930)">günstiger</text><text fill="#017AC0" font-family="Arial,Arial_MSFontService,sans-serif" font-weight="700" font-size="44" transform="matrix(1 0 0 1 4131.1 1963)">Verfahrens</text><text fill="#017AC0" font-family="Arial,Arial_MSFontService,sans-serif" font-weight="700" font-size="44" transform="matrix(1 0 0 1 4346.52 1963)">-</text><text fill="#017AC0" font-family="Arial,Arial_MSFontService,sans-serif" font-weight="700" font-size="44" transform="matrix(1 0 0 1 4165.48 2016)">abbruch</text><path d="M3197 1978 4090.78 1978" stroke="#004B9C" stroke-width="13.75" stroke-linejoin="round" stroke-miterlimit="10" fill="none" fill-rule="evenodd"/><path d="M4084 1957 4084 1997.89 4119.87 1977.44 4084 1957Z" fill="#004B9C" fill-rule="evenodd"/><text fill="#017AC0" font-family="Arial,Arial_MSFontService,sans-serif" font-weight="700" font-size="44" transform="matrix(1 0 0 1 4131.1 1443)">Verfahrens</text><text fill="#017AC0" font-family="Arial,Arial_MSFontService,sans-serif" font-weight="700" font-size="44" transform="matrix(1 0 0 1 4346.52 1443)">-</text><text fill="#017AC0" font-family="Arial,Arial_MSFontService,sans-serif" font-weight="700" font-size="44" transform="matrix(1 0 0 1 4165.48 1496)">abbruch</text><path d="M3197 1458 4090.78 1458" stroke="#004B9C" stroke-width="13.75" stroke-linejoin="round" stroke-miterlimit="10" fill="none" fill-rule="evenodd"/><path d="M4084 1438 4084 1478.89 4119.87 1458.44 4084 1438Z" fill="#004B9C" fill-rule="evenodd"/><rect x="2422" y="506" width="1198" height="118" fill="#FFFFFF"/><text font-family="Arial,Arial_MSFontService,sans-serif" font-weight="400" font-size="44" transform="matrix(1 0 0 1 2716.33 555)">Zusammenstellung der Ausschreibungs</text><text font-family="Arial,Arial_MSFontService,sans-serif" font-weight="400" font-size="44" transform="matrix(1 0 0 1 3461.7 555)">-</text><text font-family="Arial,Arial_MSFontService,sans-serif" font-weight="400" font-size="44" transform="matrix(1 0 0 1 2922.42 613)">unterlagen</text><rect x="2422" y="679" width="1195" height="260" fill="#FFFFFF"/><text font-family="Arial,Arial_MSFontService,sans-serif" font-weight="400" font-size="44" transform="matrix(1 0 0 1 2659.34 728)">Vergabebekanntmachung Auswertung </text><text font-family="Arial,Arial_MSFontService,sans-serif" font-weight="400" font-size="44" transform="matrix(1 0 0 1 2850 786)">Teilnahmeanträge</text><text font-family="Arial,Arial_MSFontService,sans-serif" font-weight="400" font-size="44" transform="matrix(1 0 0 1 2695.39 856)">Aufforderung zur Angebotsabgabe</text><rect x="2422" y="983" width="1195" height="268" fill="#FFFFFF"/><text font-family="Arial,Arial_MSFontService,sans-serif" font-weight="400" font-size="44" transform="matrix(1 0 0 1 2683.97 1029)">Angebotserstellung durch die Bieter</text><text font-family="Arial,Arial_MSFontService,sans-serif" font-weight="400" font-size="44" transform="matrix(1 0 0 1 2772.89 1082)">Begehung Liegenschaften</text><text font-family="Arial,Arial_MSFontService,sans-serif" font-weight="400" font-size="44" transform="matrix(1 0 0 1 2723.8 1134)">Validierung Liegenschaftsdaten</text><text font-family="Arial,Arial_MSFontService,sans-serif" font-weight="400" font-size="44" transform="matrix(1 0 0 1 2769.41 1186)">Energetische Grobanalyse</text><text font-family="Arial,Arial_MSFontService,sans-serif" font-weight="400" font-size="44" transform="matrix(1 0 0 1 2558.96 1238)">Ermittlung Energie</text><text font-family="Arial,Arial_MSFontService,sans-serif" font-weight="400" font-size="44" transform="matrix(1 0 0 1 2907.64 1238)">-</text><text font-family="Arial,Arial_MSFontService,sans-serif" font-weight="400" font-size="44" transform="matrix(1 0 0 1 2933.08 1238)">und Kosteneinsparpotenziale</text><rect x="2423" y="1301" width="1199" height="110" fill="#FFFFFF"/><text font-family="Arial,Arial_MSFontService,sans-serif" font-weight="400" font-size="44" transform="matrix(1 0 0 1 2823.06 1348)">Angebotsauswertung</text><text font-family="Arial,Arial_MSFontService,sans-serif" font-weight="400" font-size="44" transform="matrix(1 0 0 1 2816.35 1401)">Angebotspräsentation</text><rect x="2431" y="1490" width="1195" height="164" fill="#FFFFFF"/><text font-family="Arial,Arial_MSFontService,sans-serif" font-weight="400" font-size="44" transform="matrix(1 0 0 1 2808.01 1537)">Vergabeverhandlungen</text><text font-family="Arial,Arial_MSFontService,sans-serif" font-weight="400" font-size="44" transform="matrix(1 0 0 1 2666.5 1590)">(Stufenweise Wettbewerbsverdichtung</text><text font-family="Arial,Arial_MSFontService,sans-serif" font-weight="400" font-size="44" transform="matrix(1 0 0 1 2699.89 1642)">in maximal 2 Verhandlungsrunden)</text><rect x="2425" y="1702" width="1195" height="63.9999" fill="#FFFFFF"/><text font-family="Arial,Arial_MSFontService,sans-serif" font-weight="400" font-size="44" transform="matrix(1 0 0 1 2909.05 1755)">Bestbieter</text><rect x="2431" y="1830" width="1195" height="63.9999" fill="#FFFFFF"/><text font-family="Arial,Arial_MSFontService,sans-serif" font-weight="400" font-size="44" transform="matrix(1 0 0 1 2857.16 1883)">Energievergleich</text><path d="M1972.81 1715 245 1715 245 2311.97 1972.81 2311.97 1972.81 1715Z" fill="#F2F2F2" fill-rule="evenodd"/><text fill="#017AC0" font-family="Arial,Arial_MSFontService,sans-serif" font-weight="700" font-size="48" transform="matrix(6.12323e-17 -1 1 6.12323e-17 109.371 2220)">Projektumsetzung</text><text fill="#017AC0" font-family="Arial,Arial_MSFontService,sans-serif" font-weight="700" font-size="44" transform="matrix(6.12323e-17 -1 1 6.12323e-17 176.377 2174)">ca. 8</text><text fill="#017AC0" font-family="Arial,Arial_MSFontService,sans-serif" font-weight="700" font-size="44" transform="matrix(6.12323e-17 -1 1 6.12323e-17 176.377 2066)">–</text><text fill="#017AC0" font-family="Arial,Arial_MSFontService,sans-serif" font-weight="700" font-size="44" transform="matrix(6.12323e-17 -1 1 6.12323e-17 176.377 2029)">14</text><text fill="#017AC0" font-family="Arial,Arial_MSFontService,sans-serif" font-weight="700" font-size="44" transform="matrix(6.12323e-17 -1 1 6.12323e-17 176.377 1969)">Jahre</text><text fill="#017AC0" font-family="Arial,Arial_MSFontService,sans-serif" font-weight="400" font-size="44" transform="matrix(1 0 0 1 1534.45 1798)">keine </text><text fill="#017AC0" font-family="Arial,Arial_MSFontService,sans-serif" font-weight="400" font-size="44" transform="matrix(1 0 0 1 1650.18 1798)">Bestätigung </text><text fill="#017AC0" font-family="Arial,Arial_MSFontService,sans-serif" font-weight="400" font-size="44" transform="matrix(1 0 0 1 1578.68 1853)">Grobanalyse/</text><text fill="#017AC0" font-family="Arial,Arial_MSFontService,sans-serif" font-weight="400" font-size="44" transform="matrix(1 0 0 1 1549.35 1934)">Eigenbesorgung </text><text fill="#017AC0" font-family="Arial,Arial_MSFontService,sans-serif" font-weight="400" font-size="44" transform="matrix(1 0 0 1 1607.55 1989)">günstiger?</text><text fill="#017AC0" font-family="Arial,Arial_MSFontService,sans-serif" font-weight="700" font-size="44" transform="matrix(1 0 0 1 1995.02 1869)">Verfahrens</text><text fill="#017AC0" font-family="Arial,Arial_MSFontService,sans-serif" font-weight="700" font-size="44" transform="matrix(1 0 0 1 2210.43 1869)">-</text><text fill="#017AC0" font-family="Arial,Arial_MSFontService,sans-serif" font-weight="700" font-size="44" transform="matrix(1 0 0 1 2029.39 1922)">abbruch</text><path d="M1061 1884 1953.78 1884" stroke="#004B9C" stroke-width="13.75" stroke-linejoin="round" stroke-miterlimit="10" fill="none" fill-rule="evenodd"/><path d="M1948 1863 1948 1903.89 1983.87 1883.44 1948 1863Z" fill="#004B9C" fill-rule="evenodd"/><rect x="291" y="1751" width="1196" height="63.9999" fill="#FFFFFF"/><text font-family="Arial,Arial_MSFontService,sans-serif" font-weight="400" font-size="44" transform="matrix(1 0 0 1 786.439 1804)">Feinanalyse</text><rect x="295" y="1919" width="1198" height="110" fill="#FFFFFF"/><text font-family="Arial,Arial_MSFontService,sans-serif" font-weight="400" font-size="44" transform="matrix(1 0 0 1 730.417 1966)">Investitionsphase</text><text font-family="Arial,Arial_MSFontService,sans-serif" font-weight="400" font-size="44" transform="matrix(1 0 0 1 546.901 2019)">Umsetzung Energiesparmaßnahmen</text><rect x="309" y="2143" width="1199" height="110" fill="#FFFFFF"/><text font-family="Arial,Arial_MSFontService,sans-serif" font-weight="400" font-size="44" transform="matrix(1 0 0 1 710.486 2189)">Hauptleistungsphase</text><text font-family="Arial,Arial_MSFontService,sans-serif" font-weight="400" font-size="44" transform="matrix(1 0 0 1 532.997 2242)">Garantierte Energiekosteneinsparungen</text><path d="M888.146 1224.72 888.146 1307.22 887 1306.07 2066.52 1306.07 2065.38 1307.22 2065.38 422.353 3022.02 422.353 3022.02 483.084 3019.73 483.084 3019.73 423.499 3020.88 424.645 2066.52 424.645 2067.67 423.499 2067.67 1308.37 885.854 1308.37 885.854 1224.72ZM3034.63 478.5 3020.88 506 3007.13 478.5Z" fill="#017AC0"/><path d="M0 1.14583-82.4991 1.14583-81.3532 0-81.3532 798.765-82.4991 797.619 534.134 797.619 534.134 2140.66 473.406 2140.66 473.406 2138.37 532.988 2138.37 531.842 2139.51 531.842 798.765 532.988 799.911-83.6449 799.911-83.6449-1.14583 0-1.14583ZM477.989 2153.26 450.489 2139.51 477.989 2125.76Z" fill="#017AC0" transform="matrix(-6.12323e-17 -1 -1 6.12323e-17 3028.51 2201.49)"/><path d="M60.5 466C60.5 430.378 89.6015 401.5 125.5 401.5 161.398 401.5 190.5 430.378 190.5 466 190.5 501.622 161.398 530.5 125.5 530.5 89.6015 530.5 60.5 501.622 60.5 466Z" stroke="#33CCFF" stroke-width="4.58333" stroke-miterlimit="8" fill="#017AC0" fill-rule="evenodd"/><text fill="#FFFFFF" font-family="Arial,Arial_MSFontService,sans-serif" font-weight="400" font-size="83" transform="matrix(1 0 0 1 101.931 496)">1</text><path d="M3068.5 419.5C3068.5 383.601 3097.38 354.5 3133 354.5 3168.62 354.5 3197.5 383.601 3197.5 419.5 3197.5 455.398 3168.62 484.5 3133 484.5 3097.38 484.5 3068.5 455.398 3068.5 419.5Z" stroke="#33CCFF" stroke-width="4.58333" stroke-miterlimit="8" fill="#017AC0" fill-rule="evenodd"/><text fill="#FFFFFF" font-family="Arial,Arial_MSFontService,sans-serif" font-weight="400" font-size="83" transform="matrix(1 0 0 1 3109.59 449)">2</text><path d="M711.5 1636.5C711.5 1600.6 740.378 1571.5 776 1571.5 811.622 1571.5 840.5 1600.6 840.5 1636.5 840.5 1672.4 811.622 1701.5 776 1701.5 740.378 1701.5 711.5 1672.4 711.5 1636.5Z" stroke="#33CCFF" stroke-width="4.58333" stroke-miterlimit="8" fill="#017AC0" fill-rule="evenodd"/><text fill="#FFFFFF" font-family="Arial,Arial_MSFontService,sans-serif" font-weight="400" font-size="83" transform="matrix(1 0 0 1 752.555 1667)">3</text><path d="M0 0 0.000360892 112.461" stroke="#33CCFF" stroke-width="2.29167" stroke-miterlimit="8" fill="none" fill-rule="evenodd" transform="matrix(1 0 0 -1 887 1238.46)"/><path d="M0 37.9998 41.4999 0 82.9998 37.9998Z" fill="#017AC0" fill-rule="evenodd" transform="matrix(1 0 0 -1 850 747)"/><path d="M0 37.9998 42.0001 0 84.0002 37.9998Z" fill="#017AC0" fill-rule="evenodd" transform="matrix(1 0 0 -1 845 1128)"/><path d="M0 37.9998 42.0001 0 84.0002 37.9998Z" fill="#017AC0" fill-rule="evenodd" transform="matrix(1 0 0 -1 2976 679)"/><path d="M0 37.9998 42.0001 0 84.0002 37.9998Z" fill="#017AC0" fill-rule="evenodd" transform="matrix(1 0 0 -1 2976 986)"/><path d="M0 38.0002 41.9999 0 83.9999 38.0002Z" fill="#017AC0" fill-rule="evenodd" transform="matrix(1 0 0 -1 2973 1299)"/><path d="M0 37.9998 42.0001 0 84.0002 37.9998Z" fill="#017AC0" fill-rule="evenodd" transform="matrix(1 0 0 -1 2976 1469)"/><path d="M0 37.9998 41.9999 0 83.9999 37.9998Z" fill="#017AC0" fill-rule="evenodd" transform="matrix(1 0 0 -1 2973 1703)"/><path d="M0 38.0002 41.9999 0 83.9999 38.0002Z" fill="#017AC0" fill-rule="evenodd" transform="matrix(1 0 0 -1 2971 1827)"/><path d="M0 37.9998 41.9999 0 83.9999 37.9998Z" fill="#017AC0" fill-rule="evenodd" transform="matrix(1 0 0 -1 2971 1987)"/><path d="M0 37.9998 42.0001 0 84.0002 37.9998Z" fill="#017AC0" fill-rule="evenodd" transform="matrix(1 0 0 -1 2987 2186)"/><path d="M0 37.9998 42.0001 0 84.0002 37.9998Z" fill="#017AC0" fill-rule="evenodd" transform="matrix(1 0 0 -1 844 1901)"/><path d="M0 37.9998 42.0001 0 84.0002 37.9998Z" fill="#017AC0" fill-rule="evenodd" transform="matrix(1 0 0 -1 844 2131)"/></g></svg>