<svg width="2823" height="1959" xmlns="http://www.w3.org/2000/svg" xmlns:xlink="http://www.w3.org/1999/xlink" xml:space="preserve" overflow="hidden"><g transform="translate(-729 -405)"><path d="M1720.5 1411.5C1720.5 1232.01 1866.01 1086.5 2045.5 1086.5 2224.99 1086.5 2370.5 1232.01 2370.5 1411.5 2370.5 1590.99 2224.99 1736.5 2045.5 1736.5 1866.01 1736.5 1720.5 1590.99 1720.5 1411.5Z" stroke="#A7A6A6" stroke-width="1.14583" stroke-miterlimit="8" fill="none" fill-rule="evenodd"/><text fill="#017AC0" font-family="Arial,Arial_MSFontService,sans-serif" font-weight="400" font-size="73" transform="matrix(1 0 0 1 1943.51 1394)">Digital </text><text fill="#017AC0" font-family="Arial,Arial_MSFontService,sans-serif" font-weight="400" font-size="73" transform="matrix(1 0 0 1 1894.51 1482)">Solutions</text><path d="M1420.5 964.5C1420.5 870.611 1496.39 794.5 1590 794.5 1683.61 794.5 1759.5 870.611 1759.5 964.5 1759.5 1058.39 1683.61 1134.5 1590 1134.5 1496.39 1134.5 1420.5 1058.39 1420.5 964.5Z" stroke="#44546A" stroke-width="1.14583" stroke-miterlimit="8" fill="none" fill-rule="evenodd"/><text fill="#017AC0" font-family="Arial,Arial_MSFontService,sans-serif" font-weight="400" font-size="37" transform="matrix(1 0 0 1 1508.52 956)">Betreiber</text><text fill="#017AC0" font-family="Arial,Arial_MSFontService,sans-serif" font-weight="400" font-size="37" transform="matrix(1 0 0 1 1658.05 956)">-</text><text fill="#017AC0" font-family="Arial,Arial_MSFontService,sans-serif" font-weight="400" font-size="37" transform="matrix(1 0 0 1 1516.54 1000)">Software</text><path d="M1224.5 1346C1224.5 1252.39 1300.61 1176.5 1394.5 1176.5 1488.39 1176.5 1564.5 1252.39 1564.5 1346 1564.5 1439.61 1488.39 1515.5 1394.5 1515.5 1300.61 1515.5 1224.5 1439.61 1224.5 1346Z" stroke="#33CCFF" stroke-width="1.14583" stroke-miterlimit="8" fill="none" fill-rule="evenodd"/><text fill="#017AC0" font-family="Arial,Arial_MSFontService,sans-serif" font-weight="400" font-size="37" transform="matrix(1 0 0 1 1332.92 1337)">Digitale </text><text fill="#017AC0" font-family="Arial,Arial_MSFontService,sans-serif" font-weight="400" font-size="37" transform="matrix(1 0 0 1 1331.77 1381)">Dienste </text><path d="M2315.5 1849.5C2315.5 1755.61 2391.61 1679.5 2485.5 1679.5 2579.39 1679.5 2655.5 1755.61 2655.5 1849.5 2655.5 1943.39 2579.39 2019.5 2485.5 2019.5 2391.61 2019.5 2315.5 1943.39 2315.5 1849.5Z" stroke="#4472C4" stroke-width="1.14583" stroke-miterlimit="8" fill="none" fill-rule="evenodd"/><text fill="#017AC0" font-family="Arial,Arial_MSFontService,sans-serif" font-weight="400" font-size="37" transform="matrix(1 0 0 1 2402.75 1841)">Gebäude</text><text fill="#017AC0" font-family="Arial,Arial_MSFontService,sans-serif" font-weight="400" font-size="37" transform="matrix(1 0 0 1 2555.14 1841)">-</text><text fill="#017AC0" font-family="Arial,Arial_MSFontService,sans-serif" font-weight="400" font-size="37" transform="matrix(1 0 0 1 2435.68 1885)">APPS</text><path d="M2474.5 1393C2474.5 1299.39 2550.39 1223.5 2644 1223.5 2737.61 1223.5 2813.5 1299.39 2813.5 1393 2813.5 1486.61 2737.61 1562.5 2644 1562.5 2550.39 1562.5 2474.5 1486.61 2474.5 1393Z" stroke="#BF9000" stroke-width="1.14583" stroke-miterlimit="8" fill="none" fill-rule="evenodd"/><text fill="#017AC0" font-family="Arial,Arial_MSFontService,sans-serif" font-weight="400" font-size="37" transform="matrix(1 0 0 1 2582.2 1363)">Digitale </text><text fill="#017AC0" font-family="Arial,Arial_MSFontService,sans-serif" font-weight="400" font-size="37" transform="matrix(1 0 0 1 2567.31 1407)">Gebäude </text><text fill="#017AC0" font-family="Arial,Arial_MSFontService,sans-serif" font-weight="400" font-size="37" transform="matrix(1 0 0 1 2572.19 1451)">Zwillinge</text><path d="M2279.5 938.5C2279.5 844.612 2355.39 768.5 2449 768.5 2542.61 768.5 2618.5 844.612 2618.5 938.5 2618.5 1032.39 2542.61 1108.5 2449 1108.5 2355.39 1108.5 2279.5 1032.39 2279.5 938.5Z" stroke="#F4B183" stroke-width="1.14583" stroke-miterlimit="8" fill="none" fill-rule="evenodd"/><text fill="#017AC0" font-family="Arial,Arial_MSFontService,sans-serif" font-weight="400" font-size="37" transform="matrix(1 0 0 1 2362.66 930)">Monitoring</text><text fill="#017AC0" font-family="Arial,Arial_MSFontService,sans-serif" font-weight="400" font-size="37" transform="matrix(1 0 0 1 2376.98 974)">Systeme</text><path d="M0 0 90.4797 95.1774" stroke="#017AC0" stroke-width="1.14583" stroke-miterlimit="8" fill="none" fill-rule="evenodd" transform="matrix(1 0 0 -1 2238.5 1153.68)"/><path d="M0 0 104.021 18.3849" stroke="#017AC0" stroke-width="1.14583" stroke-miterlimit="8" fill="none" fill-rule="evenodd" transform="matrix(1 0 0 -1 2370.5 1411.89)"/><path d="M1709.5 1084.5 1815.38 1181.95" stroke="#017AC0" stroke-width="1.14583" stroke-miterlimit="8" fill="none" fill-rule="evenodd"/><path d="M1564.5 1345.5 1725.49 1366.45" stroke="#017AC0" stroke-width="1.14583" stroke-miterlimit="8" fill="none" fill-rule="evenodd"/><path d="M2365.84 1729.91 2275.5 1641.5" stroke="#017AC0" stroke-width="1.14583" stroke-miterlimit="8" fill="none" fill-rule="evenodd"/><path d="M1855.5 1996C1855.5 1893 1939.22 1809.5 2042.5 1809.5 2145.78 1809.5 2229.5 1893 2229.5 1996 2229.5 2099 2145.78 2182.5 2042.5 2182.5 1939.22 2182.5 1855.5 2099 1855.5 1996Z" stroke="#7030A0" stroke-width="1.14583" stroke-miterlimit="8" fill="none" fill-rule="evenodd"/><text fill="#017AC0" font-family="Arial,Arial_MSFontService,sans-serif" font-weight="400" font-size="37" transform="matrix(1 0 0 1 1998.05 1987)">Web</text><text fill="#017AC0" font-family="Arial,Arial_MSFontService,sans-serif" font-weight="400" font-size="37" transform="matrix(1 0 0 1 2073.67 1987)">-</text><text fill="#017AC0" font-family="Arial,Arial_MSFontService,sans-serif" font-weight="400" font-size="37" transform="matrix(1 0 0 1 1943.62 2031)">Entwicklung</text><path d="M0 0 3.0232 72.7913" stroke="#017AC0" stroke-width="1.14583" stroke-miterlimit="8" fill="none" fill-rule="evenodd" transform="matrix(1 0 0 -1 2042.5 1809.29)"/><path d="M1368.5 1774C1368.5 1680.39 1444.61 1604.5 1538.5 1604.5 1632.39 1604.5 1708.5 1680.39 1708.5 1774 1708.5 1867.61 1632.39 1943.5 1538.5 1943.5 1444.61 1943.5 1368.5 1867.61 1368.5 1774Z" stroke="#C00000" stroke-width="1.14583" stroke-miterlimit="8" fill="none" fill-rule="evenodd"/><text fill="#017AC0" font-family="Arial,Arial_MSFontService,sans-serif" font-weight="400" font-size="37" transform="matrix(1 0 0 1 1453.88 1766)">Individual</text><text fill="#017AC0" font-family="Arial,Arial_MSFontService,sans-serif" font-weight="400" font-size="37" transform="matrix(1 0 0 1 1609.72 1766)">-</text><text fill="#017AC0" font-family="Arial,Arial_MSFontService,sans-serif" font-weight="400" font-size="37" transform="matrix(1 0 0 1 1468.2 1810)">software</text><path d="M0 0 103.823 78.1538" stroke="#017AC0" stroke-width="1.14583" stroke-miterlimit="8" fill="none" fill-rule="evenodd" transform="matrix(1 0 0 -1 1663.5 1653.65)"/><path d="M2009.47 1086.75 1999.5 991.5" stroke="#017AC0" stroke-width="1.14583" stroke-miterlimit="8" fill="none" fill-rule="evenodd"/><path d="M1829.5 821.5C1829.5 727.611 1905.61 651.5 1999.5 651.5 2093.39 651.5 2169.5 727.611 2169.5 821.5 2169.5 915.388 2093.39 991.5 1999.5 991.5 1905.61 991.5 1829.5 915.388 1829.5 821.5Z" stroke="#70AD47" stroke-width="1.14583" stroke-miterlimit="8" fill="none" fill-rule="evenodd"/><text fill="#017AC0" font-family="Arial,Arial_MSFontService,sans-serif" font-weight="400" font-size="37" transform="matrix(1 0 0 1 1913.93 813)">Künstliche </text><text fill="#017AC0" font-family="Arial,Arial_MSFontService,sans-serif" font-weight="400" font-size="37" transform="matrix(1 0 0 1 1915.92 857)">Intelligenz</text><text font-family="Arial,Arial_MSFontService,sans-serif" font-weight="400" font-size="37" transform="matrix(1 0 0 1 2675.64 779)">Entwicklung von Systemen zur </text><text font-family="Arial,Arial_MSFontService,sans-serif" font-weight="400" font-size="37" transform="matrix(1 0 0 1 2675.64 845)">Überwachung, Steuerung und Analyse </text><text font-family="Arial,Arial_MSFontService,sans-serif" font-weight="400" font-size="37" transform="matrix(1 0 0 1 2675.64 911)">in Gebäuden. </text><text font-family="Arial,Arial_MSFontService,sans-serif" font-weight="400" font-size="37" transform="matrix(1 0 0 1 2870.54 1244)">Erstellung umfassende, digitalisierte </text><text font-family="Arial,Arial_MSFontService,sans-serif" font-weight="400" font-size="37" transform="matrix(1 0 0 1 2870.54 1310)">Modelle, die in Echtzeit Informationen </text><text font-family="Arial,Arial_MSFontService,sans-serif" font-weight="400" font-size="37" transform="matrix(1 0 0 1 2870.54 1376)">über den Zustand, die Leistung und </text><text font-family="Arial,Arial_MSFontService,sans-serif" font-weight="400" font-size="37" transform="matrix(1 0 0 1 2870.54 1442)">andere relevante Daten eines </text><text font-family="Arial,Arial_MSFontService,sans-serif" font-weight="400" font-size="37" transform="matrix(1 0 0 1 2870.54 1508)">Gebäudes oder seiner Teile abbilden</text><text font-family="Arial,Arial_MSFontService,sans-serif" font-weight="400" font-size="37" transform="matrix(1 0 0 1 2717.54 1761)">Programmierung von Apps für </text><text font-family="Arial,Arial_MSFontService,sans-serif" font-weight="400" font-size="37" transform="matrix(1 0 0 1 2717.54 1827)">verschiedene Anwendungsfälle im</text><text font-family="Arial,Arial_MSFontService,sans-serif" font-weight="400" font-size="37" transform="matrix(1 0 0 1 3277.28 1827)">-</text><text font-family="Arial,Arial_MSFontService,sans-serif" font-weight="400" font-size="37" transform="matrix(1 0 0 1 3299.62 1827)">und </text><text font-family="Arial,Arial_MSFontService,sans-serif" font-weight="400" font-size="37" transform="matrix(1 0 0 1 2717.54 1893)">außerhalb des Gebäudes, </text><text font-family="Arial,Arial_MSFontService,sans-serif" font-weight="400" font-size="37" transform="matrix(1 0 0 1 2717.54 1959)">beispielsweise Energieüberwachungs</text><text font-family="Arial,Arial_MSFontService,sans-serif" font-weight="400" font-size="37" transform="matrix(1 0 0 1 3332.28 1959)">-</text><text font-family="Arial,Arial_MSFontService,sans-serif" font-weight="400" font-size="37" transform="matrix(1 0 0 1 2717.54 2025)">Apps, Gebäudemanagement</text><text font-family="Arial,Arial_MSFontService,sans-serif" font-weight="400" font-size="37" transform="matrix(1 0 0 1 3190.2 2025)">-</text><text font-family="Arial,Arial_MSFontService,sans-serif" font-weight="400" font-size="37" transform="matrix(1 0 0 1 3202.23 2025)">Apps, </text><text font-family="Arial,Arial_MSFontService,sans-serif" font-weight="400" font-size="37" transform="matrix(1 0 0 1 2717.54 2091)">Sicherheits</text><text font-family="Arial,Arial_MSFontService,sans-serif" font-weight="400" font-size="37" transform="matrix(1 0 0 1 2899.73 2091)">-</text><text font-family="Arial,Arial_MSFontService,sans-serif" font-weight="400" font-size="37" transform="matrix(1 0 0 1 2922.07 2091)">und Zugangssteuerungs</text><text font-family="Arial,Arial_MSFontService,sans-serif" font-weight="400" font-size="37" transform="matrix(1 0 0 1 3320.82 2091)">-</text><text font-family="Arial,Arial_MSFontService,sans-serif" font-weight="400" font-size="37" transform="matrix(1 0 0 1 2717.54 2157)">Apps oder Raumreservierungs</text><text font-family="Arial,Arial_MSFontService,sans-serif" font-weight="400" font-size="37" transform="matrix(1 0 0 1 3217.12 2157)">-</text><text font-family="Arial,Arial_MSFontService,sans-serif" font-weight="400" font-size="37" transform="matrix(1 0 0 1 3229.16 2157)">Apps. </text><text font-family="Arial,Arial_MSFontService,sans-serif" font-weight="400" font-size="37" transform="matrix(1 0 0 1 1779.08 2267)">Entwicklungen von Webauftritten und </text><text font-family="Arial,Arial_MSFontService,sans-serif" font-weight="400" font-size="37" transform="matrix(1 0 0 1 1779.08 2333)">Social</text><text font-family="Arial,Arial_MSFontService,sans-serif" font-weight="400" font-size="37" transform="matrix(1 0 0 1 1879.34 2333)">-</text><text font-family="Arial,Arial_MSFontService,sans-serif" font-weight="400" font-size="37" transform="matrix(1 0 0 1 1891.38 2333)">Media Content für </text><text font-family="Arial,Arial_MSFontService,sans-serif" font-weight="400" font-size="37" transform="matrix(1 0 0 1 2195.02 2333)">Gebäude. </text><text font-family="Arial,Arial_MSFontService,sans-serif" font-weight="400" font-size="37" transform="matrix(1 0 0 1 1017.53 1776)">Programmierung </text><text font-family="Arial,Arial_MSFontService,sans-serif" font-weight="400" font-size="37" transform="matrix(1 0 0 1 1017.53 1842)">Individual</text><text font-family="Arial,Arial_MSFontService,sans-serif" font-weight="400" font-size="37" transform="matrix(1 0 0 1 1173.36 1842)">-</text><text font-family="Arial,Arial_MSFontService,sans-serif" font-weight="400" font-size="37" transform="matrix(1 0 0 1 1185.4 1842)">Software.</text><text font-family="Arial,Arial_MSFontService,sans-serif" font-weight="400" font-size="37" transform="matrix(1 0 0 1 762.044 1199)">Modellierung und </text><text font-family="Arial,Arial_MSFontService,sans-serif" font-weight="400" font-size="37" transform="matrix(1 0 0 1 762.044 1265)">programmiertechnische </text><text font-family="Arial,Arial_MSFontService,sans-serif" font-weight="400" font-size="37" transform="matrix(1 0 0 1 762.044 1331)">Umsetzung Digitaler </text><text font-family="Arial,Arial_MSFontService,sans-serif" font-weight="400" font-size="37" transform="matrix(1 0 0 1 762.044 1397)">Dienste für die Steigerung </text><text font-family="Arial,Arial_MSFontService,sans-serif" font-weight="400" font-size="37" transform="matrix(1 0 0 1 762.044 1463)">des Nutzererlebnisses im </text><text font-family="Arial,Arial_MSFontService,sans-serif" font-weight="400" font-size="37" transform="matrix(1 0 0 1 762.044 1529)">Gebäude. </text><text font-family="Arial,Arial_MSFontService,sans-serif" font-weight="400" font-size="37" transform="matrix(1 0 0 1 951.466 729)">Programmierung von Betreiber</text><text font-family="Arial,Arial_MSFontService,sans-serif" font-weight="400" font-size="37" transform="matrix(1 0 0 1 1455.06 729)">-</text><text font-family="Arial,Arial_MSFontService,sans-serif" font-weight="400" font-size="37" transform="matrix(1 0 0 1 951.466 795)">Software, abgestimmt auf die </text><text font-family="Arial,Arial_MSFontService,sans-serif" font-weight="400" font-size="37" transform="matrix(1 0 0 1 951.466 861)">Bedürfnisse des Betreibers </text><text font-family="Arial,Arial_MSFontService,sans-serif" font-weight="400" font-size="37" transform="matrix(1 0 0 1 951.466 927)">eines Gebäudes. </text><text font-family="Arial,Arial_MSFontService,sans-serif" font-weight="400" font-size="37" transform="matrix(1 0 0 1 1756.15 472)">Entwicklung maßgeschneiderte </text><text font-family="Arial,Arial_MSFontService,sans-serif" font-weight="400" font-size="37" transform="matrix(1 0 0 1 1756.15 538)">und individueller Künstliche </text><text font-family="Arial,Arial_MSFontService,sans-serif" font-weight="400" font-size="37" transform="matrix(1 0 0 1 1756.15 604)">Intelligenz für Gebäude.</text></g></svg>