<?xml version="1.0" encoding="UTF-8" standalone="no"?>
<svg
   width="1900"
   height="920"
   xml:space="preserve"
   overflow="hidden"
   version="1.1"
   id="svg79"
   sodipodi:docname="GenPlan.svg"
   inkscape:version="1.4.2 (f4327f4, 2025-05-13)"
   xmlns:inkscape="http://www.inkscape.org/namespaces/inkscape"
   xmlns:sodipodi="http://sodipodi.sourceforge.net/DTD/sodipodi-0.dtd"
   xmlns="http://www.w3.org/2000/svg"
   xmlns:svg="http://www.w3.org/2000/svg"><defs
     id="defs79" /><sodipodi:namedview
     id="namedview79"
     pagecolor="#ffffff"
     bordercolor="#000000"
     borderopacity="0.25"
     inkscape:showpageshadow="2"
     inkscape:pageopacity="0.0"
     inkscape:pagecheckerboard="0"
     inkscape:deskcolor="#d1d1d1"
     inkscape:zoom="0.39098837"
     inkscape:cx="1423.316"
     inkscape:cy="960.38662"
     inkscape:window-width="1920"
     inkscape:window-height="1009"
     inkscape:window-x="-8"
     inkscape:window-y="-8"
     inkscape:window-maximized="1"
     inkscape:current-layer="svg79" /><g
     transform="matrix(0.44070249,0,0,0.44054986,-3.0207296,-163.8186)"
     id="g79"
     style="stroke-width:2.2695"><path
       d="m 19.5001,448.335 c 0,-34.151 27.6845,-61.835 61.835,-61.835 H 893.665 c 34.151,0 61.835,27.684 61.835,61.835 v 247.33 c 0,34.151 -27.684,61.835 -61.835,61.835 H 81.3351 c -34.1505,0 -61.835,-27.684 -61.835,-61.835 z"
       stroke="#017ac0"
       stroke-width="2.60046"
       stroke-miterlimit="8"
       fill="none"
       fill-rule="evenodd"
       id="path1" /><text
       font-family="Arial, Arial_MSFontService, sans-serif"
       font-weight="400"
       font-size="50px"
       transform="translate(96.7715,500)"
       id="text1"
       style="stroke-width:2.2695">Planungsleistungen Objektplanung </text><text
       font-family="Arial, Arial_MSFontService, sans-serif"
       font-weight="400"
       font-size="50px"
       transform="translate(150.901,561)"
       id="text2"
       style="stroke-width:2.2695">für Gebäude, Freianlagen und </text><text
       font-family="Arial, Arial_MSFontService, sans-serif"
       font-weight="400"
       font-size="50px"
       transform="translate(76.4215,621)"
       id="text3"
       style="stroke-width:2.2695">raumbildende Ausbauten nach HOAI </text><text
       font-family="Arial, Arial_MSFontService, sans-serif"
       font-weight="400"
       font-size="50px"
       transform="translate(335.38,682)"
       id="text4"
       style="stroke-width:2.2695">(LPH1</text><text
       font-family="Arial, Arial_MSFontService, sans-serif"
       font-weight="400"
       font-size="50px"
       transform="translate(478.609,682)"
       id="text5"
       style="stroke-width:2.2695">-</text><text
       font-family="Arial, Arial_MSFontService, sans-serif"
       font-weight="400"
       font-size="50px"
       transform="translate(495.224,682)"
       id="text6"
       style="stroke-width:2.2695">LPH9)</text><path
       d="m 500.5,1054.17 c 0,-9.21 7.462,-16.67 16.667,-16.67 h 784.663 c 9.21,0 16.67,7.46 16.67,16.67 v 66.66 c 0,9.21 -7.46,16.67 -16.67,16.67 H 517.167 c -9.205,0 -16.667,-7.46 -16.667,-16.67 z"
       stroke="#017ac0"
       stroke-width="2.60046"
       stroke-miterlimit="8"
       fill="none"
       fill-rule="evenodd"
       id="path6" /><text
       font-family="Arial, Arial_MSFontService, sans-serif"
       font-weight="400"
       font-size="41px"
       transform="translate(611.04,1102)"
       id="text7"
       style="stroke-width:2.2695">Herbeiführung Baugenehmigung </text><path
       d="m 636.5,1182.17 c 0,-9.21 7.462,-16.67 16.667,-16.67 h 784.663 c 9.21,0 16.67,7.46 16.67,16.67 v 66.66 c 0,9.21 -7.46,16.67 -16.67,16.67 H 653.167 c -9.205,0 -16.667,-7.46 -16.667,-16.67 z"
       stroke="#017ac0"
       stroke-width="2.60046"
       stroke-miterlimit="8"
       fill="none"
       fill-rule="evenodd"
       id="path7" /><text
       font-family="Arial, Arial_MSFontService, sans-serif"
       font-weight="400"
       font-size="41px"
       transform="translate(713.992,1230)"
       id="text8"
       style="stroke-width:2.2695">Überführung in Ausführungsplanung</text><path
       d="m 227.5,812.333 c 0,-9.297 7.537,-16.833 16.833,-16.833 h 784.337 c 9.29,0 16.83,7.536 16.83,16.833 v 67.334 c 0,9.296 -7.54,16.833 -16.83,16.833 H 244.333 c -9.296,0 -16.833,-7.537 -16.833,-16.833 z"
       stroke="#017ac0"
       stroke-width="2.60046"
       stroke-miterlimit="8"
       fill="none"
       fill-rule="evenodd"
       id="path8" /><text
       font-family="Arial, Arial_MSFontService, sans-serif"
       font-weight="400"
       font-size="41px"
       transform="translate(452.758,861)"
       id="text9"
       style="stroke-width:2.2695">Konzeptentwicklung</text><path
       d="m 344.5,932.333 c 0,-9.297 7.536,-16.833 16.833,-16.833 h 784.337 c 9.29,0 16.83,7.536 16.83,16.833 v 67.334 c 0,9.293 -7.54,16.833 -16.83,16.833 H 361.333 c -9.297,0 -16.833,-7.54 -16.833,-16.833 z"
       stroke="#017ac0"
       stroke-width="2.60046"
       stroke-miterlimit="8"
       fill="none"
       fill-rule="evenodd"
       id="path9" /><text
       font-family="Arial, Arial_MSFontService, sans-serif"
       font-weight="400"
       font-size="41px"
       transform="translate(392.096,956)"
       id="text10"
       style="stroke-width:2.2695">Enge Abstimmung mit Statik</text><text
       font-family="Arial, Arial_MSFontService, sans-serif"
       font-weight="400"
       font-size="41px"
       transform="translate(910.013,956)"
       id="text11"
       style="stroke-width:2.2695">-</text><text
       font-family="Arial, Arial_MSFontService, sans-serif"
       font-weight="400"
       font-size="41px"
       transform="translate(935.221,956)"
       id="text12"
       style="stroke-width:2.2695">und TGA</text><text
       font-family="Arial, Arial_MSFontService, sans-serif"
       font-weight="400"
       font-size="41px"
       transform="translate(1100.22,956)"
       id="text13"
       style="stroke-width:2.2695">-</text><text
       font-family="Arial, Arial_MSFontService, sans-serif"
       font-weight="400"
       font-size="41px"
       transform="translate(622.409,1006)"
       id="text14"
       style="stroke-width:2.2695">Fachplanung .</text><path
       d="m 773.5,1310.17 c 0,-9.21 7.462,-16.67 16.667,-16.67 h 784.663 c 9.21,0 16.67,7.46 16.67,16.67 v 66.66 c 0,9.21 -7.46,16.67 -16.67,16.67 H 790.167 c -9.205,0 -16.667,-7.46 -16.667,-16.67 z"
       stroke="#017ac0"
       stroke-width="2.60046"
       stroke-miterlimit="8"
       fill="none"
       fill-rule="evenodd"
       id="path14" /><text
       font-family="Arial, Arial_MSFontService, sans-serif"
       font-weight="400"
       font-size="41px"
       transform="translate(998.488,1358)"
       id="text15"
       style="stroke-width:2.2695">Objektüberwachung </text><path
       d="m 1452.5,448.334 c 0,-34.15 27.68,-61.834 61.83,-61.834 h 811.34 c 34.15,0 61.83,27.684 61.83,61.834 v 247.332 c 0,34.15 -27.68,61.834 -61.83,61.834 h -811.34 c -34.15,0 -61.83,-27.684 -61.83,-61.834 z"
       stroke="#017ac0"
       stroke-width="2.60046"
       stroke-miterlimit="8"
       fill="none"
       fill-rule="evenodd"
       id="path15" /><text
       font-family="Arial, Arial_MSFontService, sans-serif"
       font-weight="400"
       font-size="50px"
       transform="translate(1698.98,530)"
       id="text16"
       style="stroke-width:2.2695">Planungsleistungen </text><text
       font-family="Arial, Arial_MSFontService, sans-serif"
       font-weight="400"
       font-size="50px"
       transform="translate(1581.8,591)"
       id="text17"
       style="stroke-width:2.2695">Tragwerksplanung nach HOAI </text><text
       font-family="Arial, Arial_MSFontService, sans-serif"
       font-weight="400"
       font-size="50px"
       transform="translate(1768,651)"
       id="text18"
       style="stroke-width:2.2695">(LPH1</text><text
       font-family="Arial, Arial_MSFontService, sans-serif"
       font-weight="400"
       font-size="50px"
       transform="translate(1911.23,651)"
       id="text19"
       style="stroke-width:2.2695">-</text><text
       font-family="Arial, Arial_MSFontService, sans-serif"
       font-weight="400"
       font-size="50px"
       transform="translate(1927.85,651)"
       id="text20"
       style="stroke-width:2.2695">LPH9)</text><path
       d="m 1933.5,1054.17 c 0,-9.21 7.46,-16.67 16.67,-16.67 h 784.66 c 9.21,0 16.67,7.46 16.67,16.67 v 66.66 c 0,9.21 -7.46,16.67 -16.67,16.67 h -784.66 c -9.21,0 -16.67,-7.46 -16.67,-16.67 z"
       stroke="#017ac0"
       stroke-width="2.60046"
       stroke-miterlimit="8"
       fill="none"
       fill-rule="evenodd"
       id="path20" /><text
       font-family="Arial, Arial_MSFontService, sans-serif"
       font-weight="400"
       font-size="41px"
       transform="translate(2152.52,1102)"
       id="text21"
       style="stroke-width:2.2695">Objektüberwachung.</text><path
       d="m 1660.5,812.333 c 0,-9.297 7.54,-16.833 16.83,-16.833 h 784.34 c 9.29,0 16.83,7.536 16.83,16.833 v 67.334 c 0,9.296 -7.54,16.833 -16.83,16.833 h -784.34 c -9.29,0 -16.83,-7.537 -16.83,-16.833 z"
       stroke="#017ac0"
       stroke-width="2.60046"
       stroke-miterlimit="8"
       fill="none"
       fill-rule="evenodd"
       id="path21" /><text
       font-family="Arial, Arial_MSFontService, sans-serif"
       font-weight="400"
       font-size="41px"
       transform="translate(1728.4,836)"
       id="text22"
       style="stroke-width:2.2695">Enge Abstimmung mit Objektplanung </text><text
       font-family="Arial, Arial_MSFontService, sans-serif"
       font-weight="400"
       font-size="41px"
       transform="translate(1860.17,886)"
       id="text23"
       style="stroke-width:2.2695">und TGA</text><text
       font-family="Arial, Arial_MSFontService, sans-serif"
       font-weight="400"
       font-size="41px"
       transform="translate(2025.17,886)"
       id="text24"
       style="stroke-width:2.2695">-</text><text
       font-family="Arial, Arial_MSFontService, sans-serif"
       font-weight="400"
       font-size="41px"
       transform="translate(2038.92,886)"
       id="text25"
       style="stroke-width:2.2695">Fachplanung </text><path
       d="m 1777.5,932.333 c 0,-9.297 7.54,-16.833 16.83,-16.833 h 784.34 c 9.29,0 16.83,7.536 16.83,16.833 v 67.334 c 0,9.293 -7.54,16.833 -16.83,16.833 h -784.34 c -9.29,0 -16.83,-7.54 -16.83,-16.833 z"
       stroke="#017ac0"
       stroke-width="2.60046"
       stroke-miterlimit="8"
       fill="none"
       fill-rule="evenodd"
       id="path25" /><text
       font-family="Arial, Arial_MSFontService, sans-serif"
       font-weight="400"
       font-size="41px"
       transform="translate(1860.24,956)"
       id="text26"
       style="stroke-width:2.2695">Herbeiführung der abnahmefähigen </text><text
       font-family="Arial, Arial_MSFontService, sans-serif"
       font-weight="400"
       font-size="41px"
       transform="translate(2099.72,1006)"
       id="text27"
       style="stroke-width:2.2695">Prüfstatik </text><path
       d="m 112.5,756.927 h 51.385 v 89.127 l -0.573,-0.573 h 41.645 v 1.146 H 162.739 V 757.5 l 0.573,0.573 H 112.5 Z m 87.874,75.377 27.5,13.75 -27.5,13.75 z"
       fill="#017ac0"
       id="path27"
       style="stroke-width:2.2695" /><path
       d="M 0,-0.572917 H 209.161 V 158.993 h -1.146 V 0 l 0.573,0.572917 H 0 Z M 222.338,154.41 l -13.75,27.5 -13.75,-27.5 z"
       fill="#017ac0"
       transform="matrix(0,1,1,0,162.5,757.5)"
       id="path28"
       style="stroke-width:2.2695" /><path
       d="m 162.5,758.073 h -0.665 l 0.573,-0.573 v 330.06 l -0.573,-0.58 h 315.581 v 1.15 H 161.262 V 756.927 h 1.238 z m 310.333,315.737 27.5,13.75 -27.5,13.75 z"
       fill="#017ac0"
       id="path29"
       style="stroke-width:2.2695" /><path
       d="m 162.5,758.073 h -0.754 l 0.573,-0.573 v 458.06 l -0.573,-0.57 h 451.852 v 1.15 H 161.173 V 756.927 h 1.327 z m 446.515,443.737 27.5,13.75 -27.5,13.75 z"
       fill="#017ac0"
       id="path30"
       style="stroke-width:2.2695" /><path
       d="m 2846.5,446.334 c 0,-34.15 27.68,-61.834 61.83,-61.834 h 811.34 c 34.15,0 61.83,27.684 61.83,61.834 v 247.332 c 0,34.15 -27.68,61.834 -61.83,61.834 h -811.34 c -34.15,0 -61.83,-27.684 -61.83,-61.834 z"
       stroke="#017ac0"
       stroke-width="2.60046"
       stroke-miterlimit="8"
       fill="none"
       fill-rule="evenodd"
       id="path31" /><text
       font-family="Arial, Arial_MSFontService, sans-serif"
       font-weight="400"
       font-size="50px"
       transform="translate(2956.92,528)"
       id="text31"
       style="stroke-width:2.2695">Planungsleistungen Technische </text><text
       font-family="Arial, Arial_MSFontService, sans-serif"
       font-weight="400"
       font-size="50px"
       transform="translate(2955.2,589)"
       id="text32"
       style="stroke-width:2.2695">Gebäudeausrüstung nach HOAI </text><text
       font-family="Arial, Arial_MSFontService, sans-serif"
       font-weight="400"
       font-size="50px"
       transform="translate(3162.02,649)"
       id="text33"
       style="stroke-width:2.2695">(LPH1</text><text
       font-family="Arial, Arial_MSFontService, sans-serif"
       font-weight="400"
       font-size="50px"
       transform="translate(3305.25,649)"
       id="text34"
       style="stroke-width:2.2695">-</text><text
       font-family="Arial, Arial_MSFontService, sans-serif"
       font-weight="400"
       font-size="50px"
       transform="translate(3321.87,649)"
       id="text35"
       style="stroke-width:2.2695">LPH9)</text><path
       d="m 3050.5,812.333 c 0,-9.297 7.54,-16.833 16.83,-16.833 h 785.34 c 9.29,0 16.83,7.536 16.83,16.833 v 67.334 c 0,9.296 -7.54,16.833 -16.83,16.833 h -785.34 c -9.29,0 -16.83,-7.537 -16.83,-16.833 z"
       stroke="#017ac0"
       stroke-width="2.60046"
       stroke-miterlimit="8"
       fill="none"
       fill-rule="evenodd"
       id="path35" /><text
       font-family="Arial, Arial_MSFontService, sans-serif"
       font-weight="400"
       font-size="41px"
       transform="translate(3250.99,861)"
       id="text36"
       style="stroke-width:2.2695">Planung aller Gewerke</text><path
       d="m 3167.5,932.333 c 0,-9.297 7.54,-16.833 16.83,-16.833 h 785.34 c 9.29,0 16.83,7.536 16.83,16.833 v 67.334 c 0,9.293 -7.54,16.833 -16.83,16.833 h -785.34 c -9.29,0 -16.83,-7.54 -16.83,-16.833 z"
       stroke="#017ac0"
       stroke-width="2.60046"
       stroke-miterlimit="8"
       fill="none"
       fill-rule="evenodd"
       id="path36" /><text
       font-family="Arial, Arial_MSFontService, sans-serif"
       font-weight="400"
       font-size="41px"
       transform="translate(3393.14,981)"
       id="text37"
       style="stroke-width:2.2695">Objektüberwachung</text><path
       d="m 1398.5,1539.5 c 0,-29.82 24.18,-54 54,-54 h 827 c 29.82,0 54,24.18 54,54 v 216 c 0,29.82 -24.18,54 -54,54 h -827 c -29.82,0 -54,-24.18 -54,-54 z"
       stroke="#017ac0"
       stroke-width="2.60046"
       stroke-miterlimit="8"
       fill="none"
       fill-rule="evenodd"
       id="path37" /><text
       font-family="Arial, Arial_MSFontService, sans-serif"
       font-weight="400"
       font-size="50px"
       transform="translate(1533.54,1636)"
       id="text38"
       style="stroke-width:2.2695">Unterstützung und Begleitung </text><text
       font-family="Arial, Arial_MSFontService, sans-serif"
       font-weight="400"
       font-size="50px"
       transform="translate(1604.88,1697)"
       id="text39"
       style="stroke-width:2.2695">Zertifizierungsprozesse</text><path
       d="m 2843.5,1541 c 0,-28.44 23.06,-51.5 51.5,-51.5 h 832 c 28.44,0 51.5,23.06 51.5,51.5 v 206 c 0,28.44 -23.06,51.5 -51.5,51.5 h -832 c -28.44,0 -51.5,-23.06 -51.5,-51.5 z"
       stroke="#017ac0"
       stroke-width="2.60046"
       stroke-miterlimit="8"
       fill="none"
       fill-rule="evenodd"
       id="path39" /><text
       font-family="Arial, Arial_MSFontService, sans-serif"
       font-weight="400"
       font-size="50px"
       transform="translate(3084.91,1632)"
       id="text40"
       style="stroke-width:2.2695">Projektmanagement </text><text
       font-family="Arial, Arial_MSFontService, sans-serif"
       font-weight="400"
       font-size="50px"
       transform="translate(3194.04,1693)"
       id="text41"
       style="stroke-width:2.2695">nach AHO</text><path
       d="m 160.5,756.927 h 1.193 V 1343.57 L 161.12,1343 h 589.578 v 1.14 H 160.547 V 757.5 l 0.573,0.573 h -0.62 z m 585.615,572.893 27.5,13.75 -27.5,13.75 z"
       fill="#017ac0"
       id="path41"
       style="stroke-width:2.2695" /><path
       d="m 1551.5,760.073 h -4.19 l 0.57,-0.573 v 88.554 l -0.57,-0.573 h 89.76 v 1.146 h -90.34 v -89.7 h 4.77 z m 80.99,74.231 27.5,13.75 -27.5,13.75 z"
       fill="#017ac0"
       id="path42"
       style="stroke-width:2.2695" /><path
       d="m 1551.5,760.073 h -4.16 l 0.57,-0.573 v 206.244 l -0.57,-0.573 h 206.67 v 1.146 h -207.24 v -207.39 h 4.73 z m 197.93,191.921 27.5,13.75 -27.5,13.75 z"
       fill="#017ac0"
       id="path43"
       style="stroke-width:2.2695" /><path
       d="m 1551.5,756.073 h -4.4 l 0.57,-0.573 v 332.21 l -0.57,-0.58 h 362.84 v 1.15 H 1546.53 V 754.927 h 4.97 z m 353.85,317.887 27.5,13.75 -27.5,13.75 z"
       fill="#017ac0"
       id="path44"
       style="stroke-width:2.2695" /><path
       d="m 2928.5,756.927 h 61.56 v 86.783 l -0.57,-0.572 h 38.08 v 1.145 h -38.65 V 757.5 l 0.57,0.573 h -60.99 z m 94.48,73.033 27.5,13.75 -27.5,13.75 z"
       fill="#017ac0"
       id="path45"
       style="stroke-width:2.2695" /><path
       d="M 0,-0.572917 H 205.765 V 155.017 h -1.146 V 0 l 0.573,0.572917 H 0 Z M 218.942,150.433 l -13.75,27.5 -13.75,-27.5 z"
       fill="#017ac0"
       transform="matrix(0,1,1,0,2989.5,760.5)"
       id="path46"
       style="stroke-width:2.2695" /><path
       d="m 205.5,1855.17 c 0,-9.21 7.462,-16.67 16.667,-16.67 h 784.663 c 9.21,0 16.67,7.46 16.67,16.67 v 66.66 c 0,9.21 -7.46,16.67 -16.67,16.67 H 222.167 c -9.205,0 -16.667,-7.46 -16.667,-16.67 z"
       stroke="#017ac0"
       stroke-width="2.60046"
       stroke-miterlimit="8"
       fill="none"
       fill-rule="evenodd"
       id="path47" /><text
       font-family="Arial, Arial_MSFontService, sans-serif"
       font-weight="400"
       font-size="41px"
       transform="translate(405.484,1903)"
       id="text47"
       style="stroke-width:2.2695">Planung aller Gewerke</text><path
       d="m 322.5,1975.17 c 0,-9.21 7.462,-16.67 16.667,-16.67 h 784.663 c 9.21,0 16.67,7.46 16.67,16.67 v 66.66 c 0,9.21 -7.46,16.67 -16.67,16.67 H 339.167 c -9.205,0 -16.667,-7.46 -16.667,-16.67 z"
       stroke="#017ac0"
       stroke-width="2.60046"
       stroke-miterlimit="8"
       fill="none"
       fill-rule="evenodd"
       id="path48" /><text
       font-family="Arial, Arial_MSFontService, sans-serif"
       font-weight="400"
       font-size="41px"
       transform="translate(460.551,1998)"
       id="text48"
       style="stroke-width:2.2695">Abstimmung mit notwendigen </text><text
       font-family="Arial, Arial_MSFontService, sans-serif"
       font-weight="400"
       font-size="41px"
       transform="translate(485.759,2048)"
       id="text49"
       style="stroke-width:2.2695">Fachdisziplinen (z.B. TGA) </text><path
       d="m 83.5,1798.93 h 61.564 v 86.78 l -0.573,-0.57 h 38.074 v 1.14 h -38.647 v -86.78 l 0.573,0.57 H 83.5 Z m 94.482,73.03 27.5,13.75 -27.5,13.75 z"
       fill="#017ac0"
       id="path49"
       style="stroke-width:2.2695" /><path
       d="M 0,-0.572917 H 205.765 V 155.017 h -1.146 V 0 l 0.573,0.572917 H 0 Z M 218.942,150.433 l -13.75,27.5 -13.75,-27.5 z"
       fill="#017ac0"
       transform="matrix(0,1,1,0,144.5,1803.5)"
       id="path50"
       style="stroke-width:2.2695" /><path
       d="m 1849.5,2107.33 c 0,-9.29 7.54,-16.83 16.83,-16.83 h 784.34 c 9.29,0 16.83,7.54 16.83,16.83 v 67.34 c 0,9.29 -7.54,16.83 -16.83,16.83 h -784.34 c -9.29,0 -16.83,-7.54 -16.83,-16.83 z"
       stroke="#017ac0"
       stroke-width="2.60046"
       stroke-miterlimit="8"
       fill="none"
       fill-rule="evenodd"
       id="path51" /><text
       font-family="Arial, Arial_MSFontService, sans-serif"
       font-weight="400"
       font-size="41px"
       transform="translate(2058.92,2156)"
       id="text51"
       style="stroke-width:2.2695">BREEM</text><text
       font-family="Arial, Arial_MSFontService, sans-serif"
       font-weight="400"
       font-size="41px"
       transform="translate(2205.59,2156)"
       id="text52"
       style="stroke-width:2.2695">-</text><text
       font-family="Arial, Arial_MSFontService, sans-serif"
       font-weight="400"
       font-size="41px"
       transform="translate(2219.34,2156)"
       id="text53"
       style="stroke-width:2.2695">Zertifizierung</text><path
       d="m 1985.5,2235.33 c 0,-9.29 7.54,-16.83 16.83,-16.83 h 785.34 c 9.29,0 16.83,7.54 16.83,16.83 v 67.34 c 0,9.29 -7.54,16.83 -16.83,16.83 h -785.34 c -9.29,0 -16.83,-7.54 -16.83,-16.83 z"
       stroke="#017ac0"
       stroke-width="2.60046"
       stroke-miterlimit="8"
       fill="none"
       fill-rule="evenodd"
       id="path53" /><text
       font-family="Arial, Arial_MSFontService, sans-serif"
       font-weight="400"
       font-size="41px"
       transform="translate(2149.27,2284)"
       id="text54"
       style="stroke-width:2.2695">WiredScored</text><text
       font-family="Arial, Arial_MSFontService, sans-serif"
       font-weight="400"
       font-size="41px"
       transform="translate(2387.61,2284)"
       id="text55"
       style="stroke-width:2.2695">-</text><text
       font-family="Arial, Arial_MSFontService, sans-serif"
       font-weight="400"
       font-size="41px"
       transform="translate(2401.36,2284)"
       id="text56"
       style="stroke-width:2.2695">Zertifizierung</text><path
       d="m 1576.5,1866.17 c 0,-9.21 7.46,-16.67 16.67,-16.67 h 784.66 c 9.21,0 16.67,7.46 16.67,16.67 v 66.66 c 0,9.21 -7.46,16.67 -16.67,16.67 h -784.66 c -9.21,0 -16.67,-7.46 -16.67,-16.67 z"
       stroke="#017ac0"
       stroke-width="2.60046"
       stroke-miterlimit="8"
       fill="none"
       fill-rule="evenodd"
       id="path56" /><text
       font-family="Arial, Arial_MSFontService, sans-serif"
       font-weight="400"
       font-size="41px"
       transform="translate(1799.81,1914)"
       id="text57"
       style="stroke-width:2.2695">DGNB</text><text
       font-family="Arial, Arial_MSFontService, sans-serif"
       font-weight="400"
       font-size="41px"
       transform="translate(1918.98,1914)"
       id="text58"
       style="stroke-width:2.2695">-</text><text
       font-family="Arial, Arial_MSFontService, sans-serif"
       font-weight="400"
       font-size="41px"
       transform="translate(1932.73,1914)"
       id="text59"
       style="stroke-width:2.2695">Zertifizierung</text><path
       d="m 1693.5,1986.17 c 0,-9.21 7.46,-16.67 16.67,-16.67 h 784.66 c 9.21,0 16.67,7.46 16.67,16.67 v 66.66 c 0,9.21 -7.46,16.67 -16.67,16.67 h -784.66 c -9.21,0 -16.67,-7.46 -16.67,-16.67 z"
       stroke="#017ac0"
       stroke-width="2.60046"
       stroke-miterlimit="8"
       fill="none"
       fill-rule="evenodd"
       id="path59" /><text
       font-family="Arial, Arial_MSFontService, sans-serif"
       font-weight="400"
       font-size="41px"
       transform="translate(1922.48,2034)"
       id="text60"
       style="stroke-width:2.2695">LEED</text><text
       font-family="Arial, Arial_MSFontService, sans-serif"
       font-weight="400"
       font-size="41px"
       transform="translate(2030.19,2034)"
       id="text61"
       style="stroke-width:2.2695">-</text><text
       font-family="Arial, Arial_MSFontService, sans-serif"
       font-weight="400"
       font-size="41px"
       transform="translate(2043.94,2034)"
       id="text62"
       style="stroke-width:2.2695">Zertifizierung</text><path
       d="m 2122.5,2363.33 c 0,-9.29 7.54,-16.83 16.83,-16.83 h 784.34 c 9.29,0 16.83,7.54 16.83,16.83 v 67.34 c 0,9.29 -7.54,16.83 -16.83,16.83 h -784.34 c -9.29,0 -16.83,-7.54 -16.83,-16.83 z"
       stroke="#017ac0"
       stroke-width="2.60046"
       stroke-miterlimit="8"
       fill="none"
       fill-rule="evenodd"
       id="path62" /><text
       font-family="Arial, Arial_MSFontService, sans-serif"
       font-weight="400"
       font-size="41px"
       transform="translate(2361.58,2412)"
       id="text63"
       style="stroke-width:2.2695">ESG</text><text
       font-family="Arial, Arial_MSFontService, sans-serif"
       font-weight="400"
       font-size="41px"
       transform="translate(2448.66,2412)"
       id="text64"
       style="stroke-width:2.2695">-</text><text
       font-family="Arial, Arial_MSFontService, sans-serif"
       font-weight="400"
       font-size="41px"
       transform="translate(2462.41,2412)"
       id="text65"
       style="stroke-width:2.2695">Zertifizierung </text><path
       d="m 1459.5,1809.93 h 51.38 v 89.12 l -0.57,-0.57 h 41.65 v 1.15 h -42.22 v -89.13 l 0.57,0.57 h -50.81 z m 87.87,75.37 27.5,13.75 -27.5,13.75 z"
       fill="#017ac0"
       id="path65"
       style="stroke-width:2.2695" /><path
       d="M 0,-0.572917 H 209.161 V 158.993 h -1.146 V 0 l 0.573,0.572917 H 0 Z M 222.338,154.41 l -13.75,27.5 -13.75,-27.5 z"
       fill="#017ac0"
       transform="matrix(0,1,1,0,1511.5,1810.5)"
       id="path66"
       style="stroke-width:2.2695" /><path
       d="m 1511.5,1811.07 h -0.67 l 0.58,-0.57 v 330.06 l -0.58,-0.58 h 315.59 v 1.15 h -316.16 v -331.2 h 1.24 z m 310.33,315.74 27.5,13.75 -27.5,13.75 z"
       fill="#017ac0"
       id="path67"
       style="stroke-width:2.2695" /><path
       d="m 1511.5,1811.07 h -0.75 l 0.57,-0.57 v 458.06 l -0.57,-0.57 h 451.85 v 1.15 h -452.43 v -459.21 h 1.33 z m 446.51,443.74 27.5,13.75 -27.5,13.75 z"
       fill="#017ac0"
       id="path68"
       style="stroke-width:2.2695" /><path
       d="m 1509.5,1809.93 h 1.19 v 586.64 l -0.57,-0.57 h 589.58 v 1.14 H 1509.55 V 1810.5 l 0.57,0.57 h -0.62 z m 585.61,572.89 27.5,13.75 -27.5,13.75 z"
       fill="#017ac0"
       id="path69"
       style="stroke-width:2.2695" /><path
       d="m 3037.5,1852.33 c 0,-9.29 7.54,-16.83 16.83,-16.83 h 784.34 c 9.29,0 16.83,7.54 16.83,16.83 v 67.34 c 0,9.29 -7.54,16.83 -16.83,16.83 h -784.34 c -9.29,0 -16.83,-7.54 -16.83,-16.83 z"
       stroke="#017ac0"
       stroke-width="2.60046"
       stroke-miterlimit="8"
       fill="none"
       fill-rule="evenodd"
       id="path70" /><text
       font-family="Arial, Arial_MSFontService, sans-serif"
       font-weight="400"
       font-size="41px"
       transform="translate(3171.73,1876)"
       id="text70"
       style="stroke-width:2.2695">Übergeordnete Steuerung der </text><text
       font-family="Arial, Arial_MSFontService, sans-serif"
       font-weight="400"
       font-size="41px"
       transform="translate(3086.94,1926)"
       id="text71"
       style="stroke-width:2.2695">Objektplanung sowie deren Fachplaner </text><path
       d="m 3153.5,1972.33 c 0,-9.29 7.54,-16.83 16.83,-16.83 h 785.34 c 9.29,0 16.83,7.54 16.83,16.83 v 67.34 c 0,9.29 -7.54,16.83 -16.83,16.83 h -785.34 c -9.29,0 -16.83,-7.54 -16.83,-16.83 z"
       stroke="#017ac0"
       stroke-width="2.60046"
       stroke-miterlimit="8"
       fill="none"
       fill-rule="evenodd"
       id="path71" /><text
       font-family="Arial, Arial_MSFontService, sans-serif"
       font-weight="400"
       font-size="41px"
       transform="translate(3197.01,1996)"
       id="text72"
       style="stroke-width:2.2695">Neutrales Steuerungsinstrument für den </text><text
       font-family="Arial, Arial_MSFontService, sans-serif"
       font-weight="400"
       font-size="41px"
       transform="translate(3466.28,2046)"
       id="text73"
       style="stroke-width:2.2695">Bauherren </text><path
       d="m 2915.5,1796.93 h 61.56 v 86.78 l -0.57,-0.57 h 38.08 v 1.14 h -38.65 v -86.78 l 0.57,0.57 h -60.99 z m 94.48,73.03 27.5,13.75 -27.5,13.75 z"
       fill="#017ac0"
       id="path73"
       style="stroke-width:2.2695" /><path
       d="M 0,-0.572917 H 205.765 V 155.017 h -1.146 V 0 l 0.573,0.572917 H 0 Z M 218.942,150.433 l -13.75,27.5 -13.75,-27.5 z"
       fill="#017ac0"
       transform="matrix(0,1,1,0,2976.5,1800.5)"
       id="path74"
       style="stroke-width:2.2695" /><path
       d="m 3258.5,2101.17 c 0,-9.21 7.46,-16.67 16.67,-16.67 h 784.66 c 9.21,0 16.67,7.46 16.67,16.67 v 66.66 c 0,9.21 -7.46,16.67 -16.67,16.67 h -784.66 c -9.21,0 -16.67,-7.46 -16.67,-16.67 z"
       stroke="#017ac0"
       stroke-width="2.60046"
       stroke-miterlimit="8"
       fill="none"
       fill-rule="evenodd"
       id="path75" /><text
       font-family="Arial, Arial_MSFontService, sans-serif"
       font-weight="400"
       font-size="41px"
       transform="translate(3376.67,2125)"
       id="text75"
       style="stroke-width:2.2695">Überwachung Termine, Kosten, </text><text
       font-family="Arial, Arial_MSFontService, sans-serif"
       font-weight="400"
       font-size="41px"
       transform="translate(3572.6,2175)"
       id="text76"
       style="stroke-width:2.2695">Qualitäten </text><path
       d="M 0,-0.572917 H 339.469 V 259.052 h -1.146 V 0 l 0.573,0.572917 H 0 Z M 352.646,254.468 l -13.75,27.5 -13.75,-27.5 z"
       fill="#017ac0"
       transform="matrix(0,1,1,0,2976.5,1795.5)"
       id="path76"
       style="stroke-width:2.2695" /><path
       d="m 20.5001,1539.5 c 0,-28.72 23.2817,-52 52.0011,-52 H 904.499 c 28.72,0 52.001,23.28 52.001,52 v 208 c 0,28.72 -23.281,52 -52.001,52 H 72.5012 c -28.7194,0 -52.0011,-23.28 -52.0011,-52 z"
       stroke="#017ac0"
       stroke-width="2.60046"
       stroke-miterlimit="8"
       fill="none"
       fill-rule="evenodd"
       id="path77" /><text
       font-family="Arial, Arial_MSFontService, sans-serif"
       font-weight="400"
       font-size="50px"
       transform="translate(194.765,1662)"
       id="text77"
       style="stroke-width:2.2695">Erstellung GEG</text><text
       font-family="Arial, Arial_MSFontService, sans-serif"
       font-weight="400"
       font-size="50px"
       transform="translate(544.818,1662)"
       id="text78"
       style="stroke-width:2.2695">-</text><text
       font-family="Arial, Arial_MSFontService, sans-serif"
       font-weight="400"
       font-size="50px"
       transform="translate(561.432,1662)"
       id="text79"
       style="stroke-width:2.2695">Nachweis </text></g></svg>
