<svg width="3976" height="1195" xmlns="http://www.w3.org/2000/svg" xmlns:xlink="http://www.w3.org/1999/xlink" xml:space="preserve" overflow="hidden"><g transform="translate(-109 -562)"><path d="M460.5 796.5 817 796.5 979.5 959 817 1121.5 460.5 1121.5Z" stroke="#017AC0" stroke-width="1.14583" stroke-miterlimit="8" fill="none" fill-rule="evenodd"/><text font-family="Arial,Arial_MSFontService,sans-serif" font-weight="400" font-size="46" transform="matrix(1 0 0 1 592.768 948)">Bedarfs</text><text font-family="Arial,Arial_MSFontService,sans-serif" font-weight="400" font-size="46" transform="matrix(1 0 0 1 749.747 948)">-</text><text font-family="Arial,Arial_MSFontService,sans-serif" font-weight="400" font-size="46" transform="matrix(1 0 0 1 600.514 1003)">analyse</text><path d="M1003.5 796.5 1360 796.5 1522.5 959 1360 1121.5 1003.5 1121.5Z" stroke="#017AC0" stroke-width="1.14583" stroke-miterlimit="8" fill="none" fill-rule="evenodd"/><text font-family="Arial,Arial_MSFontService,sans-serif" font-weight="400" font-size="46" transform="matrix(1 0 0 1 1095.34 976)">Objektsuche</text><path d="M1551.5 796.5 1909 796.5 2071.5 959 1909 1121.5 1551.5 1121.5Z" stroke="#017AC0" stroke-width="1.14583" stroke-miterlimit="8" fill="none" fill-rule="evenodd"/><text font-family="Arial,Arial_MSFontService,sans-serif" font-weight="400" font-size="46" transform="matrix(1 0 0 1 1667.87 949)">Analyse &amp; </text><text font-family="Arial,Arial_MSFontService,sans-serif" font-weight="400" font-size="46" transform="matrix(1 0 0 1 1661.57 1004)">Bewertung</text><path d="M2097.5 796.5 2455 796.5 2617.5 959 2455 1121.5 2097.5 1121.5Z" stroke="#017AC0" stroke-width="1.14583" stroke-miterlimit="8" fill="none" fill-rule="evenodd"/><text font-family="Arial,Arial_MSFontService,sans-serif" font-weight="400" font-size="46" transform="matrix(1 0 0 1 2194.41 948)">Investitions</text><text font-family="Arial,Arial_MSFontService,sans-serif" font-weight="400" font-size="46" transform="matrix(1 0 0 1 2422.43 948)">-</text><text font-family="Arial,Arial_MSFontService,sans-serif" font-weight="400" font-size="46" transform="matrix(1 0 0 1 2178.37 1003)">Entscheidung</text><path d="M2274.05 796 2274.05 658.5 2275.19 659.646 1181 659.646 1182.15 658.5 1182.15 773.616 1179.85 773.616 1179.85 657.354 2276.34 657.354 2276.34 796ZM1194.75 769.033 1181 796.533 1167.25 769.033Z" fill="#4472C4"/><path d="M2643.5 796.5 3000 796.5 3162.5 959 3000 1121.5 2643.5 1121.5Z" stroke="#017AC0" stroke-width="1.14583" stroke-miterlimit="8" fill="none" fill-rule="evenodd"/><text font-family="Arial,Arial_MSFontService,sans-serif" font-weight="400" font-size="46" transform="matrix(1 0 0 1 2716.36 976)">Betriebsphase</text><path d="M979 958 1002.28 958.533" stroke="#017AC0" stroke-width="2.29167" stroke-miterlimit="8" fill="none" fill-rule="evenodd"/><path d="M1522 959 1550.78 959" stroke="#017AC0" stroke-width="2.29167" stroke-miterlimit="8" fill="none" fill-rule="evenodd"/><path d="M0 0 26.0449 0.532677" stroke="#017AC0" stroke-width="2.29167" stroke-miterlimit="8" fill="none" fill-rule="evenodd" transform="matrix(1 0 0 -1 2071 958.533)"/><path d="M2617 958 2643.04 958" stroke="#017AC0" stroke-width="2.29167" stroke-miterlimit="8" fill="none" fill-rule="evenodd"/><path d="M3162 958 3201.04 958" stroke="#017AC0" stroke-width="2.29167" stroke-miterlimit="8" fill="none" fill-rule="evenodd"/><path d="M3201.5 796.5 3559 796.5 3721.5 959 3559 1121.5 3201.5 1121.5Z" stroke="#017AC0" stroke-width="1.14583" stroke-miterlimit="8" fill="none" fill-rule="evenodd"/><text font-family="Arial,Arial_MSFontService,sans-serif" font-weight="400" font-size="46" transform="matrix(1 0 0 1 3288.84 948)">Suchprozess </text><text font-family="Arial,Arial_MSFontService,sans-serif" font-weight="400" font-size="46" transform="matrix(1 0 0 1 3271.07 1003)">Mieter / Käufer</text><path d="M0-1.14583 143.229-1.14583 143.229 559.869 27.5 559.869 27.5 557.578 142.083 557.578 140.938 558.724 140.938 0 142.083 1.14583 0 1.14583ZM32.0833 572.474 4.58333 558.724 32.0833 544.974Z" fill="#4472C4" transform="matrix(-1.83697e-16 -1 -1 1.83697e-16 3382.72 797.583)"/><path d="M225.5 959C225.5 941.051 240.051 926.5 258 926.5 275.949 926.5 290.5 941.051 290.5 959 290.5 976.949 275.949 991.5 258 991.5 240.051 991.5 225.5 976.949 225.5 959Z" stroke="#017AC0" stroke-width="4.58333" stroke-miterlimit="8" fill="#017AC0" fill-rule="evenodd"/><path d="M290 958 459.443 958" stroke="#4472C4" stroke-width="2.29167" stroke-miterlimit="8" fill="none" fill-rule="evenodd"/><path d="M375 1302 907.501 1302 925 1562 375 1516.34 375 1302Z" fill="#DAE3F3" fill-rule="evenodd"/><text font-family="Arial,Arial_MSFontService,sans-serif" font-weight="400" font-size="37" transform="matrix(1 0 0 1 408.385 1369)">Erarbeitung eines konkreten </text><text font-family="Arial,Arial_MSFontService,sans-serif" font-weight="400" font-size="37" transform="matrix(1 0 0 1 408.385 1435)">Lastenhefts mit Zielrendite, </text><text font-family="Arial,Arial_MSFontService,sans-serif" font-weight="400" font-size="37" transform="matrix(1 0 0 1 408.385 1501)">Lage und Nutzungsstruktur</text><path d="M3909.5 959C3909.5 941.051 3924.05 926.5 3942 926.5 3959.95 926.5 3974.5 941.051 3974.5 959 3974.5 976.949 3959.95 991.5 3942 991.5 3924.05 991.5 3909.5 976.949 3909.5 959Z" stroke="#017AC0" stroke-width="4.58333" stroke-miterlimit="8" fill="none" fill-rule="evenodd"/><path d="M3721 958 3909.44 958" stroke="#4472C4" stroke-width="2.29167" stroke-miterlimit="8" fill="none" fill-rule="evenodd"/><text font-family="Arial,Arial_MSFontService,sans-serif" font-weight="400" font-size="37" transform="matrix(1 0 0 1 212.854 1057)">Start </text><text font-family="Arial,Arial_MSFontService,sans-serif" font-weight="400" font-size="37" transform="matrix(1 0 0 1 161.589 1123)">Investment </text><text font-family="Arial,Arial_MSFontService,sans-serif" font-weight="400" font-size="37" transform="matrix(1 0 0 1 185.354 1189)">Prozess</text><text font-family="Arial,Arial_MSFontService,sans-serif" font-weight="400" font-size="37" transform="matrix(1 0 0 1 3898.71 1054)">Ende </text><text font-family="Arial,Arial_MSFontService,sans-serif" font-weight="400" font-size="37" transform="matrix(1 0 0 1 3851.73 1120)">Investment </text><text font-family="Arial,Arial_MSFontService,sans-serif" font-weight="400" font-size="37" transform="matrix(1 0 0 1 3875.5 1186)">Prozess</text><path d="M953 1212 1485.5 1212 1503 1471 953 1425.52 953 1212Z" fill="#DAE3F3" fill-rule="evenodd"/><text font-family="Arial,Arial_MSFontService,sans-serif" font-weight="400" font-size="37" transform="matrix(1 0 0 1 986.477 1278)">Suche nach konkreten </text><text font-family="Arial,Arial_MSFontService,sans-serif" font-weight="400" font-size="37" transform="matrix(1 0 0 1 986.477 1344)">Objekten auf Grundlage des </text><text font-family="Arial,Arial_MSFontService,sans-serif" font-weight="400" font-size="37" transform="matrix(1 0 0 1 986.477 1410)">Lastenheftes</text><path d="M1427 1497 2010.81 1497 2030 1757 1427 1711.34 1427 1497Z" fill="#DAE3F3" fill-rule="evenodd"/><text font-family="Arial,Arial_MSFontService,sans-serif" font-weight="400" font-size="37" transform="matrix(1 0 0 1 1460.31 1564)">Durchführung von Due Diligence </text><text font-family="Arial,Arial_MSFontService,sans-serif" font-weight="400" font-size="37" transform="matrix(1 0 0 1 1460.31 1630)">für gefundene Objekte, die den </text><text font-family="Arial,Arial_MSFontService,sans-serif" font-weight="400" font-size="37" transform="matrix(1 0 0 1 1460.31 1696)">Investitionskriterien entsprechen</text><text font-family="Arial,Arial_MSFontService,sans-serif" font-weight="400" font-size="37" transform="matrix(1 0 0 1 1214.36 628)">Start neuer Suchprozess, falls Entscheidung gegen Investment</text><path d="M638 1121 638 1302.98" stroke="#4472C4" stroke-width="2.29167" stroke-miterlimit="8" fill="none" fill-rule="evenodd"/><path d="M0 0 0.000360892 90.4873" stroke="#4472C4" stroke-width="2.29167" stroke-miterlimit="8" fill="none" fill-rule="evenodd" transform="matrix(-1 0 0 1 1181 1121)"/><path d="M1730 1121 1730 1497.35" stroke="#4472C4" stroke-width="2.29167" stroke-miterlimit="8" fill="none" fill-rule="evenodd"/><path d="M2071 1264 2542.51 1264 2558 1458 2071 1423.93 2071 1264Z" fill="#DAE3F3" fill-rule="evenodd"/><text font-family="Arial,Arial_MSFontService,sans-serif" font-weight="400" font-size="37" transform="matrix(1 0 0 1 2103.87 1330)">Entscheidung Für/Gegen </text><text font-family="Arial,Arial_MSFontService,sans-serif" font-weight="400" font-size="37" transform="matrix(1 0 0 1 2103.87 1396)">Investment </text><path d="M2608 1402 3111.46 1402 3128 1727 2608 1669.93 2608 1402Z" fill="#DAE3F3" fill-rule="evenodd"/><text font-family="Arial,Arial_MSFontService,sans-serif" font-weight="400" font-size="37" transform="matrix(1 0 0 1 2641.3 1468)">Überführung Objekt in </text><text font-family="Arial,Arial_MSFontService,sans-serif" font-weight="400" font-size="37" transform="matrix(1 0 0 1 2641.3 1534)">Betriebsphase mit </text><text font-family="Arial,Arial_MSFontService,sans-serif" font-weight="400" font-size="37" transform="matrix(1 0 0 1 2641.3 1600)">Betriebskostenoptimierung </text><text font-family="Arial,Arial_MSFontService,sans-serif" font-weight="400" font-size="37" transform="matrix(1 0 0 1 2641.3 1666)">/ Finanzmanagement</text><text font-family="Arial,Arial_MSFontService,sans-serif" font-weight="400" font-size="37" transform="matrix(1 0 0 1 2856.57 630)">Eingliederung Mieter/Käufer </text><path d="M2292 1121 2292 1263.99" stroke="#4472C4" stroke-width="2.29167" stroke-miterlimit="8" fill="none" fill-rule="evenodd"/><path d="M3156 1238 3593.62 1238 3608 1432 3156 1397.93 3156 1238Z" fill="#DAE3F3" fill-rule="evenodd"/><text font-family="Arial,Arial_MSFontService,sans-serif" font-weight="400" font-size="37" transform="matrix(1 0 0 1 3189.29 1304)">Suche nach Mietern / </text><text font-family="Arial,Arial_MSFontService,sans-serif" font-weight="400" font-size="37" transform="matrix(1 0 0 1 3189.29 1370)">Käufern</text><path d="M2821 1121 2821 1401.56" stroke="#017AC0" stroke-width="2.29167" stroke-miterlimit="8" fill="none" fill-rule="evenodd"/><path d="M3380 1121 3380 1237.98" stroke="#017AC0" stroke-width="2.29167" stroke-miterlimit="8" fill="none" fill-rule="evenodd"/></g></svg>