<?xml version="1.0" encoding="UTF-8" standalone="no"?>
<svg
   width="1920"
   height="920"
   xml:space="preserve"
   overflow="hidden"
   version="1.1"
   id="svg104"
   sodipodi:docname="PropManag.svg"
   inkscape:version="1.4.2 (f4327f4, 2025-05-13)"
   xmlns:inkscape="http://www.inkscape.org/namespaces/inkscape"
   xmlns:sodipodi="http://sodipodi.sourceforge.net/DTD/sodipodi-0.dtd"
   xmlns="http://www.w3.org/2000/svg"
   xmlns:svg="http://www.w3.org/2000/svg"><defs
     id="defs104" /><sodipodi:namedview
     id="namedview104"
     pagecolor="#ffffff"
     bordercolor="#000000"
     borderopacity="0.25"
     inkscape:showpageshadow="2"
     inkscape:pageopacity="0.0"
     inkscape:pagecheckerboard="0"
     inkscape:deskcolor="#d1d1d1"
     inkscape:zoom="0.38835419"
     inkscape:cx="1082.7745"
     inkscape:cy="1000.3755"
     inkscape:window-width="1920"
     inkscape:window-height="1009"
     inkscape:window-x="-8"
     inkscape:window-y="-8"
     inkscape:window-maximized="1"
     inkscape:current-layer="svg104" /><g
     transform="matrix(0.43540409,0,0,0.43540409,-4.5581222,-163.09744)"
     id="g104"
     style="stroke-width:2.29672"><path
       d="m 1332,1174 h 645.5 L 2192,1388.5 1977.5,1603 H 1332 Z"
       stroke="#ed7d31"
       stroke-width="5.26331"
       stroke-miterlimit="8"
       fill="none"
       fill-rule="evenodd"
       id="path1" /><text
       font-family="Arial, Arial_MSFontService, sans-serif"
       font-weight="400"
       font-size="55px"
       transform="translate(1505.9,1376)"
       id="text1"
       style="stroke-width:2.29672">Kaufmännisches </text><text
       font-family="Arial, Arial_MSFontService, sans-serif"
       font-weight="400"
       font-size="55px"
       transform="translate(1437.15,1442)"
       id="text2"
       style="stroke-width:2.29672">Property Management</text><path
       d="m 2030,1174 h 861 c -0.62,72.26 -1.23,144.51 -1.85,216.77 0.62,70.74 1.23,141.49 1.85,212.23 h -861 l 228.96,-214.5 z"
       stroke="#70ad47"
       stroke-width="5.26331"
       stroke-miterlimit="8"
       fill="none"
       fill-rule="evenodd"
       id="path2" /><text
       font-family="Arial, Arial_MSFontService, sans-serif"
       font-weight="400"
       font-size="55px"
       transform="translate(2355.56,1376)"
       id="text3"
       style="stroke-width:2.29672">Technisches </text><text
       font-family="Arial, Arial_MSFontService, sans-serif"
       font-weight="400"
       font-size="55px"
       transform="translate(2281.97,1442)"
       id="text4"
       style="stroke-width:2.29672">Property Management</text><path
       d="M 0,0 66.5673,3.60892e-4"
       stroke="#017ac0"
       stroke-width="5.26331"
       stroke-linecap="square"
       stroke-miterlimit="8"
       stroke-dasharray="6.875, 2.29167"
       fill="none"
       fill-rule="evenodd"
       transform="matrix(-1,0,0,1,2258.57,1389)"
       id="path4" /><path
       d="M 605,619.002 C 605,576.475 639.475,542 682.002,542 H 1164 c 42.53,0 77,34.475 77,77.002 v 307.997 c 0,42.526 -34.47,77.001 -77,77.001 H 682.002 C 639.475,1004 605,969.525 605,926.999 Z"
       stroke="#ed7d31"
       stroke-width="5.26331"
       stroke-linecap="square"
       stroke-miterlimit="8"
       stroke-dasharray="6.875, 2.29167"
       fill="none"
       fill-rule="evenodd"
       id="path5" /><path
       d="m 649.5,617.5 c 0,-16.016 12.984,-29 29,-29 h 462 c 16.02,0 29,12.984 29,29 v 116 c 0,16.016 -12.98,29 -29,29 h -462 c -16.016,0 -29,-12.984 -29,-29 z"
       stroke="#a6a6a6"
       stroke-width="2.63165"
       stroke-miterlimit="8"
       fill="none"
       fill-rule="evenodd"
       id="path6" /><text
       font-family="Arial, Arial_MSFontService, sans-serif"
       font-weight="400"
       font-size="37px"
       transform="translate(711.694,645)"
       id="text6"
       style="stroke-width:2.29672">Erstellung, Verhandlung </text><text
       font-family="Arial, Arial_MSFontService, sans-serif"
       font-weight="400"
       font-size="37px"
       transform="translate(745.496,689)"
       id="text7"
       style="stroke-width:2.29672">und Verwaltung von </text><text
       font-family="Arial, Arial_MSFontService, sans-serif"
       font-weight="400"
       font-size="37px"
       transform="translate(791.031,733)"
       id="text8"
       style="stroke-width:2.29672">Mietverträgen.</text><path
       d="m 649.5,806.334 c 0,-17.029 13.805,-30.834 30.834,-30.834 h 458.336 c 17.03,0 30.83,13.805 30.83,30.834 v 123.332 c 0,17.029 -13.8,30.834 -30.83,30.834 H 680.334 c -17.029,0 -30.834,-13.805 -30.834,-30.834 z"
       stroke="#a6a6a6"
       stroke-width="2.63165"
       stroke-miterlimit="8"
       fill="none"
       fill-rule="evenodd"
       id="path8" /><text
       font-family="Arial, Arial_MSFontService, sans-serif"
       font-weight="400"
       font-size="37px"
       transform="translate(760.105,816)"
       id="text9"
       style="stroke-width:2.29672">Überwachung von </text><text
       font-family="Arial, Arial_MSFontService, sans-serif"
       font-weight="400"
       font-size="37px"
       transform="translate(752.657,860)"
       id="text10"
       style="stroke-width:2.29672">Mietzahlungen und </text><text
       font-family="Arial, Arial_MSFontService, sans-serif"
       font-weight="400"
       font-size="37px"
       transform="translate(762.122,904)"
       id="text11"
       style="stroke-width:2.29672">Durchführung von </text><text
       font-family="Arial, Arial_MSFontService, sans-serif"
       font-weight="400"
       font-size="37px"
       transform="translate(770.142,948)"
       id="text12"
       style="stroke-width:2.29672">Mieterhöhungen.</text><path
       d="m 508.5,1171.5 c 0,-16.02 12.984,-29 29.001,-29 h 460.998 c 16.021,0 29.001,12.98 29.001,29 v 116 c 0,16.02 -12.98,29 -29.001,29 H 537.501 c -16.017,0 -29.001,-12.98 -29.001,-29 z"
       stroke="#a6a6a6"
       stroke-width="2.63165"
       stroke-miterlimit="8"
       fill="none"
       fill-rule="evenodd"
       id="path12" /><text
       font-family="Arial, Arial_MSFontService, sans-serif"
       font-weight="400"
       font-size="37px"
       transform="translate(621.516,1199)"
       id="text13"
       style="stroke-width:2.29672">Budgetierung und </text><text
       font-family="Arial, Arial_MSFontService, sans-serif"
       font-weight="400"
       font-size="37px"
       transform="translate(659.902,1243)"
       id="text14"
       style="stroke-width:2.29672">Kontrolle von </text><text
       font-family="Arial, Arial_MSFontService, sans-serif"
       font-weight="400"
       font-size="37px"
       transform="translate(635.266,1287)"
       id="text15"
       style="stroke-width:2.29672">Betriebskosten..</text><path
       d="m 508.5,1358.5 c 0,-16.02 12.984,-29 29.001,-29 h 460.998 c 16.021,0 29.001,12.98 29.001,29 v 116 c 0,16.02 -12.98,29 -29.001,29 H 537.501 c -16.017,0 -29.001,-12.98 -29.001,-29 z"
       stroke="#a6a6a6"
       stroke-width="2.63165"
       stroke-miterlimit="8"
       fill="none"
       fill-rule="evenodd"
       id="path15" /><text
       font-family="Arial, Arial_MSFontService, sans-serif"
       font-weight="400"
       font-size="37px"
       transform="translate(618.938,1386)"
       id="text16"
       style="stroke-width:2.29672">Überwachung von </text><text
       font-family="Arial, Arial_MSFontService, sans-serif"
       font-weight="400"
       font-size="37px"
       transform="translate(569.094,1430)"
       id="text17"
       style="stroke-width:2.29672">Zahlungseingängen und </text><text
       font-family="Arial, Arial_MSFontService, sans-serif"
       font-weight="400"
       font-size="37px"
       transform="translate(571.386,1474)"
       id="text18"
       style="stroke-width:2.29672">Rechnungsbearbeitung.</text><path
       d="m 512.5,1543.5 c 0,-16.02 12.984,-29 29,-29 h 462 c 16.02,0 29,12.98 29,29 v 116 c 0,16.02 -12.98,29 -29,29 h -462 c -16.016,0 -29,-12.98 -29,-29 z"
       stroke="#a6a6a6"
       stroke-width="2.63165"
       stroke-miterlimit="8"
       fill="none"
       fill-rule="evenodd"
       id="path18" /><text
       font-family="Arial, Arial_MSFontService, sans-serif"
       font-weight="400"
       font-size="37px"
       transform="translate(654.86,1571)"
       id="text19"
       style="stroke-width:2.29672">Erstellung von </text><text
       font-family="Arial, Arial_MSFontService, sans-serif"
       font-weight="400"
       font-size="37px"
       transform="translate(613.885,1615)"
       id="text20"
       style="stroke-width:2.29672">Finanzberichten für </text><text
       font-family="Arial, Arial_MSFontService, sans-serif"
       font-weight="400"
       font-size="37px"
       transform="translate(672.322,1659)"
       id="text21"
       style="stroke-width:2.29672">Eigentümer.</text><path
       d="m 625.5,1898.5 c 0,-16.02 12.984,-29 29,-29 h 462 c 16.02,0 29,12.98 29,29 v 116 c 0,16.02 -12.98,29 -29,29 h -462 c -16.016,0 -29,-12.98 -29,-29 z"
       stroke="#a6a6a6"
       stroke-width="2.63165"
       stroke-miterlimit="8"
       fill="none"
       fill-rule="evenodd"
       id="path21" /><text
       font-family="Arial, Arial_MSFontService, sans-serif"
       font-weight="400"
       font-size="37px"
       transform="translate(721.845,1948)"
       id="text22"
       style="stroke-width:2.29672">Ansprechpartner für </text><text
       font-family="Arial, Arial_MSFontService, sans-serif"
       font-weight="400"
       font-size="37px"
       transform="translate(758.81,1992)"
       id="text23"
       style="stroke-width:2.29672">Mieteranliegen.</text><path
       d="m 625.5,2090 c 0,-16.84 13.656,-30.5 30.501,-30.5 H 1115 c 16.84,0 30.5,13.66 30.5,30.5 v 122 c 0,16.84 -13.66,30.5 -30.5,30.5 H 656.001 c -16.845,0 -30.501,-13.66 -30.501,-30.5 z"
       stroke="#a6a6a6"
       stroke-width="2.63165"
       stroke-miterlimit="8"
       fill="none"
       fill-rule="evenodd"
       id="path23" /><text
       font-family="Arial, Arial_MSFontService, sans-serif"
       font-weight="400"
       font-size="37px"
       transform="translate(745.159,2098)"
       id="text24"
       style="stroke-width:2.29672">Organisation von </text><text
       font-family="Arial, Arial_MSFontService, sans-serif"
       font-weight="400"
       font-size="37px"
       transform="translate(670.107,2142)"
       id="text25"
       style="stroke-width:2.29672">Mieterbesprechungen und </text><text
       font-family="Arial, Arial_MSFontService, sans-serif"
       font-weight="400"
       font-size="37px"
       transform="translate(722.815,2186)"
       id="text26"
       style="stroke-width:2.29672">Kommunikation von </text><text
       font-family="Arial, Arial_MSFontService, sans-serif"
       font-weight="400"
       font-size="37px"
       transform="translate(766.655,2230)"
       id="text27"
       style="stroke-width:2.29672">Informationen.</text><path
       d="m 1494.5,1923.5 c 0,-16.02 12.98,-29 29,-29 h 462 c 16.02,0 29,12.98 29,29 v 116 c 0,16.02 -12.98,29 -29,29 h -462 c -16.02,0 -29,-12.98 -29,-29 z"
       stroke="#a6a6a6"
       stroke-width="2.63165"
       stroke-miterlimit="8"
       fill="none"
       fill-rule="evenodd"
       id="path27" /><text
       font-family="Arial, Arial_MSFontService, sans-serif"
       font-weight="400"
       font-size="37px"
       transform="translate(1634.12,1929)"
       id="text28"
       style="stroke-width:2.29672">Abschluss und </text><text
       font-family="Arial, Arial_MSFontService, sans-serif"
       font-weight="400"
       font-size="37px"
       transform="translate(1605.48,1973)"
       id="text29"
       style="stroke-width:2.29672">Überwachung von </text><text
       font-family="Arial, Arial_MSFontService, sans-serif"
       font-weight="400"
       font-size="37px"
       transform="translate(1650.74,2017)"
       id="text30"
       style="stroke-width:2.29672">Service</text><text
       font-family="Arial, Arial_MSFontService, sans-serif"
       font-weight="400"
       font-size="37px"
       transform="translate(1773.34,2017)"
       id="text31"
       style="stroke-width:2.29672">-</text><text
       font-family="Arial, Arial_MSFontService, sans-serif"
       font-weight="400"
       font-size="37px"
       transform="translate(1795.68,2017)"
       id="text32"
       style="stroke-width:2.29672">und </text><text
       font-family="Arial, Arial_MSFontService, sans-serif"
       font-weight="400"
       font-size="37px"
       transform="translate(1592.3,2061)"
       id="text33"
       style="stroke-width:2.29672">Wartungsverträgen.</text><path
       d="m 1494.5,2113.5 c 0,-16.02 12.98,-29 29,-29 h 462 c 16.02,0 29,12.98 29,29 v 116 c 0,16.02 -12.98,29 -29,29 h -462 c -16.02,0 -29,-12.98 -29,-29 z"
       stroke="#a6a6a6"
       stroke-width="2.63165"
       stroke-miterlimit="8"
       fill="none"
       fill-rule="evenodd"
       id="path33" /><text
       font-family="Arial, Arial_MSFontService, sans-serif"
       font-weight="400"
       font-size="37px"
       transform="translate(1615.51,2141)"
       id="text34"
       style="stroke-width:2.29672">Koordination von </text><text
       font-family="Arial, Arial_MSFontService, sans-serif"
       font-weight="400"
       font-size="37px"
       transform="translate(1606.62,2185)"
       id="text35"
       style="stroke-width:2.29672">Dienstleistern und </text><text
       font-family="Arial, Arial_MSFontService, sans-serif"
       font-weight="400"
       font-size="37px"
       transform="translate(1656.47,2229)"
       id="text36"
       style="stroke-width:2.29672">Lieferanten.</text><path
       d="m 1454.5,514.5 c 0,-16.016 12.98,-29 29,-29 h 462 c 16.02,0 29,12.984 29,29 v 116 c 0,16.016 -12.98,29 -29,29 h -462 c -16.02,0 -29,-12.984 -29,-29 z"
       stroke="#a6a6a6"
       stroke-width="2.63165"
       stroke-miterlimit="8"
       fill="none"
       fill-rule="evenodd"
       id="path36" /><text
       font-family="Arial, Arial_MSFontService, sans-serif"
       font-weight="400"
       font-size="37px"
       transform="translate(1540.78,542)"
       id="text37"
       style="stroke-width:2.29672">Überwachung lokaler </text><text
       font-family="Arial, Arial_MSFontService, sans-serif"
       font-weight="400"
       font-size="37px"
       transform="translate(1532.76,586)"
       id="text38"
       style="stroke-width:2.29672">Immobilienmärkte und </text><text
       font-family="Arial, Arial_MSFontService, sans-serif"
       font-weight="400"
       font-size="37px"
       transform="translate(1540.48,630)"
       id="text39"
       style="stroke-width:2.29672">Konkurrenzanalysen.</text><path
       d="m 1454.5,720.5 c 0,-16.016 12.98,-29 29,-29 h 462 c 16.02,0 29,12.984 29,29 v 116 c 0,16.016 -12.98,29 -29,29 h -462 c -16.02,0 -29,-12.984 -29,-29 z"
       stroke="#a6a6a6"
       stroke-width="2.63165"
       stroke-miterlimit="8"
       fill="none"
       fill-rule="evenodd"
       id="path39" /><text
       font-family="Arial, Arial_MSFontService, sans-serif"
       font-weight="400"
       font-size="37px"
       transform="translate(1567.98,748)"
       id="text40"
       style="stroke-width:2.29672">Empfehlungen für </text><text
       font-family="Arial, Arial_MSFontService, sans-serif"
       font-weight="400"
       font-size="37px"
       transform="translate(1517.86,792)"
       id="text41"
       style="stroke-width:2.29672">Mietpreisgestaltung und </text><text
       font-family="Arial, Arial_MSFontService, sans-serif"
       font-weight="400"
       font-size="37px"
       transform="translate(1546.78,836)"
       id="text42"
       style="stroke-width:2.29672">Marketingstrategien.</text><path
       d="M 1398,520.169 C 1398,477.55 1432.55,443 1475.17,443 h 488.66 c 42.62,0 77.17,34.55 77.17,77.169 V 828.832 C 2041,871.451 2006.45,906 1963.83,906 H 1475.17 C 1432.55,906 1398,871.451 1398,828.832 Z"
       stroke="#ed7d31"
       stroke-width="5.26331"
       stroke-linecap="square"
       stroke-miterlimit="8"
       stroke-dasharray="6.875, 2.29167"
       fill="none"
       fill-rule="evenodd"
       id="path42" /><path
       d="m 473,1203 c 0,-58.54 47.459,-106 106.002,-106 H 1003 c 58.54,0 106,47.46 106,106 v 426 c 0,58.54 -47.46,106 -106,106 H 579.002 C 520.459,1735 473,1687.54 473,1629 Z"
       stroke="#ed7d31"
       stroke-width="5.26331"
       stroke-linecap="square"
       stroke-miterlimit="8"
       stroke-dasharray="6.875, 2.29167"
       fill="none"
       fill-rule="evenodd"
       id="path43" /><path
       d="m 577,1894 c 0,-42.53 34.475,-77 77.001,-77 H 1150 c 42.53,0 77,34.47 77,77 v 308 c 0,42.53 -34.47,77 -77,77 H 654.001 C 611.475,2279 577,2244.53 577,2202 Z"
       stroke="#ed7d31"
       stroke-width="5.26331"
       stroke-linecap="square"
       stroke-miterlimit="8"
       stroke-dasharray="6.875, 2.29167"
       fill="none"
       fill-rule="evenodd"
       id="path44" /><path
       d="m 1446,1915 c 0,-42.53 34.47,-77 77,-77 h 497 c 42.52,0 77,34.47 77,77 v 308 c 0,42.53 -34.48,77 -77,77 h -497 c -42.53,0 -77,-34.47 -77,-77 z"
       stroke="#ed7d31"
       stroke-width="5.26331"
       stroke-linecap="square"
       stroke-miterlimit="8"
       stroke-dasharray="6.875, 2.29167"
       fill="none"
       fill-rule="evenodd"
       id="path45" /><path
       d="m 2249.5,517.5 c 0,-16.016 12.98,-29 29,-29 h 462 c 16.02,0 29,12.984 29,29 v 116 c 0,16.016 -12.98,29 -29,29 h -462 c -16.02,0 -29,-12.984 -29,-29 z"
       stroke="#a6a6a6"
       stroke-width="2.63165"
       stroke-miterlimit="8"
       fill="none"
       fill-rule="evenodd"
       id="path46" /><text
       font-family="Arial, Arial_MSFontService, sans-serif"
       font-weight="400"
       font-size="37px"
       transform="translate(2297.28,545)"
       id="text46"
       style="stroke-width:2.29672">Entwickeln und Umsetzen </text><text
       font-family="Arial, Arial_MSFontService, sans-serif"
       font-weight="400"
       font-size="37px"
       transform="translate(2479.47,589)"
       id="text47"
       style="stroke-width:2.29672">von </text><text
       font-family="Arial, Arial_MSFontService, sans-serif"
       font-weight="400"
       font-size="37px"
       transform="translate(2323.07,633)"
       id="text48"
       style="stroke-width:2.29672">Instandhaltungsplänen</text><path
       d="m 2254.5,708.501 c 0,-16.017 12.98,-29.001 29,-29.001 h 461 c 16.02,0 29,12.984 29,29.001 v 115.998 c 0,16.017 -12.98,29.001 -29,29.001 h -461 c -16.02,0 -29,-12.984 -29,-29.001 z"
       stroke="#a6a6a6"
       stroke-width="2.63165"
       stroke-miterlimit="8"
       fill="none"
       fill-rule="evenodd"
       id="path48" /><text
       font-family="Arial, Arial_MSFontService, sans-serif"
       font-weight="400"
       font-size="37px"
       transform="translate(2374.98,736)"
       id="text49"
       style="stroke-width:2.29672">Koordination von </text><text
       font-family="Arial, Arial_MSFontService, sans-serif"
       font-weight="400"
       font-size="37px"
       transform="translate(2392.74,780)"
       id="text50"
       style="stroke-width:2.29672">Wartungs</text><text
       font-family="Arial, Arial_MSFontService, sans-serif"
       font-weight="400"
       font-size="37px"
       transform="translate(2550.29,780)"
       id="text51"
       style="stroke-width:2.29672">-</text><text
       font-family="Arial, Arial_MSFontService, sans-serif"
       font-weight="400"
       font-size="37px"
       transform="translate(2572.64,780)"
       id="text52"
       style="stroke-width:2.29672">und </text><text
       font-family="Arial, Arial_MSFontService, sans-serif"
       font-weight="400"
       font-size="37px"
       transform="translate(2364.94,824)"
       id="text53"
       style="stroke-width:2.29672">Reparaturarbeiten</text><path
       d="m 3113.5,628.5 c 0,-16.016 12.98,-29 29,-29 h 501 c 16.02,0 29,12.984 29,29 v 116 c 0,16.016 -12.98,29 -29,29 h -501 c -16.02,0 -29,-12.984 -29,-29 z"
       stroke="#a6a6a6"
       stroke-width="2.63165"
       stroke-miterlimit="8"
       fill="none"
       fill-rule="evenodd"
       id="path53" /><text
       font-family="Arial, Arial_MSFontService, sans-serif"
       font-weight="400"
       font-size="37px"
       transform="translate(3175.54,656)"
       id="text54"
       style="stroke-width:2.29672">Koordination regelmäßiger </text><text
       font-family="Arial, Arial_MSFontService, sans-serif"
       font-weight="400"
       font-size="37px"
       transform="translate(3252.88,700)"
       id="text55"
       style="stroke-width:2.29672">Inspektionen von </text><text
       font-family="Arial, Arial_MSFontService, sans-serif"
       font-weight="400"
       font-size="37px"
       transform="translate(3245.43,744)"
       id="text56"
       style="stroke-width:2.29672">Gebäudeanlagen.</text><path
       d="m 3113.5,818.5 c 0,-16.016 12.98,-29 29,-29 h 501 c 16.02,0 29,12.984 29,29 v 116 c 0,16.016 -12.98,29 -29,29 h -501 c -16.02,0 -29,-12.984 -29,-29 z"
       stroke="#a6a6a6"
       stroke-width="2.63165"
       stroke-miterlimit="8"
       fill="none"
       fill-rule="evenodd"
       id="path56" /><text
       font-family="Arial, Arial_MSFontService, sans-serif"
       font-weight="400"
       font-size="37px"
       transform="translate(3242.85,846)"
       id="text57"
       style="stroke-width:2.29672">Identifizierung von </text><text
       font-family="Arial, Arial_MSFontService, sans-serif"
       font-weight="400"
       font-size="37px"
       transform="translate(3163.79,890)"
       id="text58"
       style="stroke-width:2.29672">technischen Problemen und </text><text
       font-family="Arial, Arial_MSFontService, sans-serif"
       font-weight="400"
       font-size="37px"
       transform="translate(3316.76,934)"
       id="text59"
       style="stroke-width:2.29672">Mängeln.</text><path
       d="m 3204.5,1208.5 c 0,-16.02 12.98,-29 29,-29 h 501 c 16.02,0 29,12.98 29,29 v 116 c 0,16.02 -12.98,29 -29,29 h -501 c -16.02,0 -29,-12.98 -29,-29 z"
       stroke="#a6a6a6"
       stroke-width="2.63165"
       stroke-miterlimit="8"
       fill="none"
       fill-rule="evenodd"
       id="path59" /><text
       font-family="Arial, Arial_MSFontService, sans-serif"
       font-weight="400"
       font-size="37px"
       transform="translate(3246.44,1236)"
       id="text60"
       style="stroke-width:2.29672">Planung und Umsetzung von </text><text
       font-family="Arial, Arial_MSFontService, sans-serif"
       font-weight="400"
       font-size="37px"
       transform="translate(3305.45,1280)"
       id="text61"
       style="stroke-width:2.29672">Modernisierungs</text><text
       font-family="Arial, Arial_MSFontService, sans-serif"
       font-weight="400"
       font-size="37px"
       transform="translate(3577.58,1280)"
       id="text62"
       style="stroke-width:2.29672">-</text><text
       font-family="Arial, Arial_MSFontService, sans-serif"
       font-weight="400"
       font-size="37px"
       transform="translate(3599.93,1280)"
       id="text63"
       style="stroke-width:2.29672">und </text><text
       font-family="Arial, Arial_MSFontService, sans-serif"
       font-weight="400"
       font-size="37px"
       transform="translate(3315.76,1324)"
       id="text64"
       style="stroke-width:2.29672">Umbaumaßnahmen.</text><path
       d="m 3204.5,1402.5 c 0,-16.02 12.98,-29 29,-29 h 501 c 16.02,0 29,12.98 29,29 v 116 c 0,16.02 -12.98,29 -29,29 h -501 c -16.02,0 -29,-12.98 -29,-29 z"
       stroke="#a6a6a6"
       stroke-width="2.63165"
       stroke-miterlimit="8"
       fill="none"
       fill-rule="evenodd"
       id="path64" /><text
       font-family="Arial, Arial_MSFontService, sans-serif"
       font-weight="400"
       font-size="37px"
       transform="translate(3341.82,1430)"
       id="text65"
       style="stroke-width:2.29672">Einführung neuer </text><text
       font-family="Arial, Arial_MSFontService, sans-serif"
       font-weight="400"
       font-size="37px"
       transform="translate(3342.12,1474)"
       id="text66"
       style="stroke-width:2.29672">Technologien zur </text><text
       font-family="Arial, Arial_MSFontService, sans-serif"
       font-weight="400"
       font-size="37px"
       transform="translate(3322.64,1518)"
       id="text67"
       style="stroke-width:2.29672">Effizienzsteigerung.</text><path
       d="m 3028.5,1818.5 c 0,-16.02 12.98,-29 29,-29 h 501 c 16.02,0 29,12.98 29,29 v 116 c 0,16.02 -12.98,29 -29,29 h -501 c -16.02,0 -29,-12.98 -29,-29 z"
       stroke="#a6a6a6"
       stroke-width="2.63165"
       stroke-miterlimit="8"
       fill="none"
       fill-rule="evenodd"
       id="path67" /><text
       font-family="Arial, Arial_MSFontService, sans-serif"
       font-weight="400"
       font-size="37px"
       transform="translate(3157.71,1824)"
       id="text68"
       style="stroke-width:2.29672">Überwachung und </text><text
       font-family="Arial, Arial_MSFontService, sans-serif"
       font-weight="400"
       font-size="37px"
       transform="translate(3160.88,1868)"
       id="text69"
       style="stroke-width:2.29672">Verbesserung der </text><text
       font-family="Arial, Arial_MSFontService, sans-serif"
       font-weight="400"
       font-size="37px"
       transform="translate(3141.4,1912)"
       id="text70"
       style="stroke-width:2.29672">Energieeffizienz von </text><text
       font-family="Arial, Arial_MSFontService, sans-serif"
       font-weight="400"
       font-size="37px"
       transform="translate(3215.88,1956)"
       id="text71"
       style="stroke-width:2.29672">Gebäuden.</text><path
       d="m 3028.5,2007.5 c 0,-16.02 12.98,-29 29,-29 h 501 c 16.02,0 29,12.98 29,29 v 116 c 0,16.02 -12.98,29 -29,29 h -501 c -16.02,0 -29,-12.98 -29,-29 z"
       stroke="#a6a6a6"
       stroke-width="2.63165"
       stroke-miterlimit="8"
       fill="none"
       fill-rule="evenodd"
       id="path71" /><text
       font-family="Arial, Arial_MSFontService, sans-serif"
       font-weight="400"
       font-size="37px"
       transform="translate(3170.32,2035)"
       id="text72"
       style="stroke-width:2.29672">Implementierung </text><text
       font-family="Arial, Arial_MSFontService, sans-serif"
       font-weight="400"
       font-size="37px"
       transform="translate(3094.42,2079)"
       id="text73"
       style="stroke-width:2.29672">nachhaltiger Praktiken zur </text><text
       font-family="Arial, Arial_MSFontService, sans-serif"
       font-weight="400"
       font-size="37px"
       transform="translate(3123.91,2123)"
       id="text74"
       style="stroke-width:2.29672">Ressourcenschonung.</text><path
       d="m 2225.5,1916.5 c 0,-16.02 12.98,-29 29,-29 h 501 c 16.02,0 29,12.98 29,29 v 116 c 0,16.02 -12.98,29 -29,29 h -501 c -16.02,0 -29,-12.98 -29,-29 z"
       stroke="#a6a6a6"
       stroke-width="2.63165"
       stroke-miterlimit="8"
       fill="none"
       fill-rule="evenodd"
       id="path74" /><text
       font-family="Arial, Arial_MSFontService, sans-serif"
       font-weight="400"
       font-size="37px"
       transform="translate(2371.21,1944)"
       id="text75"
       style="stroke-width:2.29672">Entwicklung von </text><text
       font-family="Arial, Arial_MSFontService, sans-serif"
       font-weight="400"
       font-size="37px"
       transform="translate(2349.44,1988)"
       id="text76"
       style="stroke-width:2.29672">Notfallplänen und </text><text
       font-family="Arial, Arial_MSFontService, sans-serif"
       font-weight="400"
       font-size="37px"
       transform="translate(2647.36,1988)"
       id="text77"
       style="stroke-width:2.29672">-</text><text
       font-family="Arial, Arial_MSFontService, sans-serif"
       font-weight="400"
       font-size="37px"
       transform="translate(2405.89,2032)"
       id="text78"
       style="stroke-width:2.29672">prozeduren.</text><path
       d="m 2229.5,2106.5 c 0,-16.02 12.98,-29 29,-29 h 501 c 16.02,0 29,12.98 29,29 v 116 c 0,16.02 -12.98,29 -29,29 h -501 c -16.02,0 -29,-12.98 -29,-29 z"
       stroke="#a6a6a6"
       stroke-width="2.63165"
       stroke-miterlimit="8"
       fill="none"
       fill-rule="evenodd"
       id="path78" /><text
       font-family="Arial, Arial_MSFontService, sans-serif"
       font-weight="400"
       font-size="37px"
       transform="translate(2289.32,2134)"
       id="text79"
       style="stroke-width:2.29672">Handhabung von Notfällen </text><text
       font-family="Arial, Arial_MSFontService, sans-serif"
       font-weight="400"
       font-size="37px"
       transform="translate(2295.89,2178)"
       id="text80"
       style="stroke-width:2.29672">wie technischen Ausfällen </text><text
       font-family="Arial, Arial_MSFontService, sans-serif"
       font-weight="400"
       font-size="37px"
       transform="translate(2309.07,2222)"
       id="text81"
       style="stroke-width:2.29672">oder Naturkatastrophen.</text><path
       d="M 2192,519.169 C 2192,476.55 2226.55,442 2269.17,442 h 488.66 c 42.62,0 77.17,34.55 77.17,77.169 V 827.832 C 2835,870.451 2800.45,905 2757.83,905 H 2269.17 C 2226.55,905 2192,870.451 2192,827.832 Z"
       stroke="#70ad47"
       stroke-width="5.26331"
       stroke-linecap="square"
       stroke-miterlimit="8"
       stroke-dasharray="6.875, 2.29167"
       fill="none"
       fill-rule="evenodd"
       id="path81" /><path
       d="M 3071,619.002 C 3071,576.475 3105.47,542 3148,542 h 489 c 42.52,0 77,34.475 77,77.002 v 307.996 c 0,42.527 -34.48,77.002 -77,77.002 h -489 c -42.53,0 -77,-34.475 -77,-77.002 z"
       stroke="#70ad47"
       stroke-width="5.26331"
       stroke-linecap="square"
       stroke-miterlimit="8"
       stroke-dasharray="6.875, 2.29167"
       fill="none"
       fill-rule="evenodd"
       id="path82" /><path
       d="m 3162,1213.33 c 0,-41.05 33.28,-74.33 74.33,-74.33 h 494.34 c 41.05,0 74.33,33.28 74.33,74.33 v 297.34 c 0,41.05 -33.28,74.33 -74.33,74.33 h -494.34 c -41.05,0 -74.33,-33.28 -74.33,-74.33 z"
       stroke="#70ad47"
       stroke-width="5.26331"
       stroke-linecap="square"
       stroke-miterlimit="8"
       stroke-dasharray="6.875, 2.29167"
       fill="none"
       fill-rule="evenodd"
       id="path83" /><path
       d="m 2993,1830.33 c 0,-41.05 33.28,-74.33 74.33,-74.33 h 494.34 c 41.05,0 74.33,33.28 74.33,74.33 v 297.34 c 0,41.05 -33.28,74.33 -74.33,74.33 h -494.34 c -41.05,0 -74.33,-33.28 -74.33,-74.33 z"
       stroke="#70ad47"
       stroke-width="5.26331"
       stroke-linecap="square"
       stroke-miterlimit="8"
       stroke-dasharray="6.875, 2.29167"
       fill="none"
       fill-rule="evenodd"
       id="path84" /><path
       d="m 2192,1914.17 c 0,-42.62 34.55,-77.17 77.17,-77.17 h 488.66 c 42.62,0 77.17,34.55 77.17,77.17 v 308.66 c 0,42.62 -34.55,77.17 -77.17,77.17 h -488.66 c -42.62,0 -77.17,-34.55 -77.17,-77.17 z"
       stroke="#70ad47"
       stroke-width="5.26331"
       stroke-linecap="square"
       stroke-miterlimit="8"
       stroke-dasharray="6.875, 2.29167"
       fill="none"
       fill-rule="evenodd"
       id="path85" /><path
       d="M 0,0 157.071,98.4525"
       stroke="#ed7d31"
       stroke-width="2.63165"
       stroke-miterlimit="8"
       stroke-dasharray="4.58333, 3.4375"
       fill="none"
       fill-rule="evenodd"
       transform="matrix(1,0,0,-1,1241.5,773.953)"
       id="path86" /><path
       d="M 0,0 151.411,1.1166"
       stroke="#a7a6a6"
       stroke-width="2.63165"
       stroke-miterlimit="8"
       stroke-dasharray="4.58333, 3.4375"
       fill="none"
       fill-rule="evenodd"
       transform="matrix(1,0,0,-1,2041.5,674.617)"
       id="path87" /><path
       d="m 2835.5,673.5 236.57,99.569"
       stroke="#00b050"
       stroke-width="2.63165"
       stroke-miterlimit="8"
       stroke-dasharray="4.58333, 3.4375"
       fill="none"
       fill-rule="evenodd"
       id="path88" /><path
       d="M 3484.46,1139.7 3393.5,1004.5"
       stroke="#00b050"
       stroke-width="2.63165"
       stroke-miterlimit="8"
       stroke-dasharray="4.58333, 3.4375"
       fill="none"
       fill-rule="evenodd"
       id="path89" /><path
       d="M 0,0 168.916,170.632"
       stroke="#00b050"
       stroke-width="2.63165"
       stroke-miterlimit="8"
       stroke-dasharray="4.58333, 3.4375"
       fill="none"
       fill-rule="evenodd"
       transform="matrix(1,0,0,-1,3315.5,1756.13)"
       id="path90" /><path
       d="M 0,0 158.61,89.8474"
       stroke="#00b050"
       stroke-width="2.63165"
       stroke-miterlimit="8"
       stroke-dasharray="4.58333, 3.4375"
       fill="none"
       fill-rule="evenodd"
       transform="matrix(1,0,0,-1,2835.5,2069.35)"
       id="path91" /><path
       d="M 0,0 95.4611,0.123064"
       stroke="#a7a6a6"
       stroke-width="2.63165"
       stroke-miterlimit="8"
       stroke-dasharray="4.58333, 3.4375"
       fill="none"
       fill-rule="evenodd"
       transform="matrix(1,0,0,-1,2097.5,2069.62)"
       id="path92" /><path
       d="m 1227.5,2048.5 218.72,20.46"
       stroke="#ed7d31"
       stroke-width="2.63165"
       stroke-miterlimit="8"
       stroke-dasharray="4.58333, 3.4375"
       fill="none"
       fill-rule="evenodd"
       id="path93" /><path
       d="M 0,0 131.982,92.3589"
       stroke="#ed7d31"
       stroke-width="2.63165"
       stroke-miterlimit="8"
       stroke-dasharray="4.58333, 3.4375"
       fill="none"
       fill-rule="evenodd"
       transform="matrix(1,0,0,-1,791.5,1096.86)"
       id="path94" /><path
       d="M 902.477,1817.69 791.5,1735.5"
       stroke="#ed7d31"
       stroke-width="2.63165"
       stroke-miterlimit="8"
       stroke-dasharray="4.58333, 3.4375"
       fill="none"
       fill-rule="evenodd"
       id="path95" /><text
       font-family="Arial, Arial_MSFontService, sans-serif"
       font-weight="700"
       font-size="46px"
       transform="translate(635.651,523)"
       id="text95"
       style="stroke-width:2.29672">Mietvertragsmanagement</text><text
       font-family="Arial, Arial_MSFontService, sans-serif"
       font-weight="700"
       font-size="46px"
       transform="translate(2254.78,419)"
       id="text96"
       style="stroke-width:2.29672">Instandhaltungsplanung</text><text
       font-family="Arial, Arial_MSFontService, sans-serif"
       font-weight="700"
       font-size="46px"
       transform="translate(1545.2,424)"
       id="text97"
       style="stroke-width:2.29672">Marktanalysen</text><text
       font-family="Arial, Arial_MSFontService, sans-serif"
       font-weight="700"
       font-size="46px"
       transform="translate(3110.93,514)"
       id="text98"
       style="stroke-width:2.29672">Technische Inspektionen</text><text
       font-family="Arial, Arial_MSFontService, sans-serif"
       font-weight="700"
       font-size="46px"
       transform="translate(3837.87,1355)"
       id="text99"
       style="stroke-width:2.29672">Modernisierungsprojekte</text><text
       font-family="Arial, Arial_MSFontService, sans-serif"
       font-weight="700"
       font-size="46px"
       transform="translate(3039.46,2263)"
       id="text100"
       style="stroke-width:2.29672">Energieeffizienzmanagement</text><text
       font-family="Arial, Arial_MSFontService, sans-serif"
       font-weight="700"
       font-size="46px"
       transform="translate(2310.97,2379)"
       id="text101"
       style="stroke-width:2.29672">Notfallmanagement</text><text
       font-family="Arial, Arial_MSFontService, sans-serif"
       font-weight="700"
       font-size="46px"
       transform="translate(1545.2,2381)"
       id="text102"
       style="stroke-width:2.29672">Vertragsmanagement</text><text
       font-family="Arial, Arial_MSFontService, sans-serif"
       font-weight="700"
       font-size="46px"
       transform="translate(669.872,2350)"
       id="text103"
       style="stroke-width:2.29672">Mieterkommunikation</text><text
       font-family="Arial, Arial_MSFontService, sans-serif"
       font-weight="700"
       font-size="46px"
       transform="translate(18.5607,1432)"
       id="text104"
       style="stroke-width:2.29672">Finanzmanagement</text></g></svg>
