<svg width="4461" height="2078" xmlns="http://www.w3.org/2000/svg" xmlns:xlink="http://www.w3.org/1999/xlink" xml:space="preserve" overflow="hidden"><g transform="translate(14 -341)"><path d="M1332 1174 1977.5 1174 2192 1388.5 1977.5 1603 1332 1603Z" stroke="#ED7D31" stroke-width="2.29167" stroke-miterlimit="8" fill="none" fill-rule="evenodd"/><text font-family="Arial,Arial_MSFontService,sans-serif" font-weight="400" font-size="55" transform="matrix(1 0 0 1 1505.9 1376)">Kaufmännisches </text><text font-family="Arial,Arial_MSFontService,sans-serif" font-weight="400" font-size="55" transform="matrix(1 0 0 1 1437.15 1442)">Property Management</text><path d="M2030 1174 2891 1174C2890.38 1246.26 2889.77 1318.51 2889.15 1390.77 2889.77 1461.51 2890.38 1532.26 2891 1603L2030 1603 2258.96 1388.5 2030 1174Z" stroke="#70AD47" stroke-width="2.29167" stroke-miterlimit="8" fill="none" fill-rule="evenodd"/><text font-family="Arial,Arial_MSFontService,sans-serif" font-weight="400" font-size="55" transform="matrix(1 0 0 1 2355.56 1376)">Technisches </text><text font-family="Arial,Arial_MSFontService,sans-serif" font-weight="400" font-size="55" transform="matrix(1 0 0 1 2281.97 1442)">Property Management</text><path d="M0 0 66.5673 0.000360892" stroke="#017AC0" stroke-width="2.29167" stroke-linecap="square" stroke-miterlimit="8" stroke-dasharray="6.875 2.29167" fill="none" fill-rule="evenodd" transform="matrix(-1 0 0 1 2258.57 1389)"/><path d="M605 619.002C605 576.475 639.475 542 682.002 542L1164 542C1206.53 542 1241 576.475 1241 619.002L1241 926.999C1241 969.525 1206.53 1004 1164 1004L682.002 1004C639.475 1004 605 969.525 605 926.999Z" stroke="#ED7D31" stroke-width="2.29167" stroke-linecap="square" stroke-miterlimit="8" stroke-dasharray="6.875 2.29167" fill="none" fill-rule="evenodd"/><path d="M649.5 617.5C649.5 601.484 662.484 588.5 678.5 588.5L1140.5 588.5C1156.52 588.5 1169.5 601.484 1169.5 617.5L1169.5 733.5C1169.5 749.516 1156.52 762.5 1140.5 762.5L678.5 762.5C662.484 762.5 649.5 749.516 649.5 733.5Z" stroke="#A6A6A6" stroke-width="1.14583" stroke-miterlimit="8" fill="none" fill-rule="evenodd"/><text font-family="Arial,Arial_MSFontService,sans-serif" font-weight="400" font-size="37" transform="matrix(1 0 0 1 711.694 645)">Erstellung, Verhandlung </text><text font-family="Arial,Arial_MSFontService,sans-serif" font-weight="400" font-size="37" transform="matrix(1 0 0 1 745.496 689)">und Verwaltung von </text><text font-family="Arial,Arial_MSFontService,sans-serif" font-weight="400" font-size="37" transform="matrix(1 0 0 1 791.031 733)">Mietverträgen.</text><path d="M649.5 806.334C649.5 789.305 663.305 775.5 680.334 775.5L1138.67 775.5C1155.7 775.5 1169.5 789.305 1169.5 806.334L1169.5 929.666C1169.5 946.695 1155.7 960.5 1138.67 960.5L680.334 960.5C663.305 960.5 649.5 946.695 649.5 929.666Z" stroke="#A6A6A6" stroke-width="1.14583" stroke-miterlimit="8" fill="none" fill-rule="evenodd"/><text font-family="Arial,Arial_MSFontService,sans-serif" font-weight="400" font-size="37" transform="matrix(1 0 0 1 760.105 816)">Überwachung von </text><text font-family="Arial,Arial_MSFontService,sans-serif" font-weight="400" font-size="37" transform="matrix(1 0 0 1 752.657 860)">Mietzahlungen und </text><text font-family="Arial,Arial_MSFontService,sans-serif" font-weight="400" font-size="37" transform="matrix(1 0 0 1 762.122 904)">Durchführung von </text><text font-family="Arial,Arial_MSFontService,sans-serif" font-weight="400" font-size="37" transform="matrix(1 0 0 1 770.142 948)">Mieterhöhungen.</text><path d="M508.5 1171.5C508.5 1155.48 521.484 1142.5 537.501 1142.5L998.499 1142.5C1014.52 1142.5 1027.5 1155.48 1027.5 1171.5L1027.5 1287.5C1027.5 1303.52 1014.52 1316.5 998.499 1316.5L537.501 1316.5C521.484 1316.5 508.5 1303.52 508.5 1287.5Z" stroke="#A6A6A6" stroke-width="1.14583" stroke-miterlimit="8" fill="none" fill-rule="evenodd"/><text font-family="Arial,Arial_MSFontService,sans-serif" font-weight="400" font-size="37" transform="matrix(1 0 0 1 621.516 1199)">Budgetierung und </text><text font-family="Arial,Arial_MSFontService,sans-serif" font-weight="400" font-size="37" transform="matrix(1 0 0 1 659.902 1243)">Kontrolle von </text><text font-family="Arial,Arial_MSFontService,sans-serif" font-weight="400" font-size="37" transform="matrix(1 0 0 1 635.266 1287)">Betriebskosten..</text><path d="M508.5 1358.5C508.5 1342.48 521.484 1329.5 537.501 1329.5L998.499 1329.5C1014.52 1329.5 1027.5 1342.48 1027.5 1358.5L1027.5 1474.5C1027.5 1490.52 1014.52 1503.5 998.499 1503.5L537.501 1503.5C521.484 1503.5 508.5 1490.52 508.5 1474.5Z" stroke="#A6A6A6" stroke-width="1.14583" stroke-miterlimit="8" fill="none" fill-rule="evenodd"/><text font-family="Arial,Arial_MSFontService,sans-serif" font-weight="400" font-size="37" transform="matrix(1 0 0 1 618.938 1386)">Überwachung von </text><text font-family="Arial,Arial_MSFontService,sans-serif" font-weight="400" font-size="37" transform="matrix(1 0 0 1 569.094 1430)">Zahlungseingängen und </text><text font-family="Arial,Arial_MSFontService,sans-serif" font-weight="400" font-size="37" transform="matrix(1 0 0 1 571.386 1474)">Rechnungsbearbeitung.</text><path d="M512.5 1543.5C512.5 1527.48 525.484 1514.5 541.5 1514.5L1003.5 1514.5C1019.52 1514.5 1032.5 1527.48 1032.5 1543.5L1032.5 1659.5C1032.5 1675.52 1019.52 1688.5 1003.5 1688.5L541.5 1688.5C525.484 1688.5 512.5 1675.52 512.5 1659.5Z" stroke="#A6A6A6" stroke-width="1.14583" stroke-miterlimit="8" fill="none" fill-rule="evenodd"/><text font-family="Arial,Arial_MSFontService,sans-serif" font-weight="400" font-size="37" transform="matrix(1 0 0 1 654.86 1571)">Erstellung von </text><text font-family="Arial,Arial_MSFontService,sans-serif" font-weight="400" font-size="37" transform="matrix(1 0 0 1 613.885 1615)">Finanzberichten für </text><text font-family="Arial,Arial_MSFontService,sans-serif" font-weight="400" font-size="37" transform="matrix(1 0 0 1 672.322 1659)">Eigentümer.</text><path d="M625.5 1898.5C625.5 1882.48 638.484 1869.5 654.5 1869.5L1116.5 1869.5C1132.52 1869.5 1145.5 1882.48 1145.5 1898.5L1145.5 2014.5C1145.5 2030.52 1132.52 2043.5 1116.5 2043.5L654.5 2043.5C638.484 2043.5 625.5 2030.52 625.5 2014.5Z" stroke="#A6A6A6" stroke-width="1.14583" stroke-miterlimit="8" fill="none" fill-rule="evenodd"/><text font-family="Arial,Arial_MSFontService,sans-serif" font-weight="400" font-size="37" transform="matrix(1 0 0 1 721.845 1948)">Ansprechpartner für </text><text font-family="Arial,Arial_MSFontService,sans-serif" font-weight="400" font-size="37" transform="matrix(1 0 0 1 758.81 1992)">Mieteranliegen.</text><path d="M625.5 2090C625.5 2073.16 639.156 2059.5 656.001 2059.5L1115 2059.5C1131.84 2059.5 1145.5 2073.16 1145.5 2090L1145.5 2212C1145.5 2228.84 1131.84 2242.5 1115 2242.5L656.001 2242.5C639.156 2242.5 625.5 2228.84 625.5 2212Z" stroke="#A6A6A6" stroke-width="1.14583" stroke-miterlimit="8" fill="none" fill-rule="evenodd"/><text font-family="Arial,Arial_MSFontService,sans-serif" font-weight="400" font-size="37" transform="matrix(1 0 0 1 745.159 2098)">Organisation von </text><text font-family="Arial,Arial_MSFontService,sans-serif" font-weight="400" font-size="37" transform="matrix(1 0 0 1 670.107 2142)">Mieterbesprechungen und </text><text font-family="Arial,Arial_MSFontService,sans-serif" font-weight="400" font-size="37" transform="matrix(1 0 0 1 722.815 2186)">Kommunikation von </text><text font-family="Arial,Arial_MSFontService,sans-serif" font-weight="400" font-size="37" transform="matrix(1 0 0 1 766.655 2230)">Informationen.</text><path d="M1494.5 1923.5C1494.5 1907.48 1507.48 1894.5 1523.5 1894.5L1985.5 1894.5C2001.52 1894.5 2014.5 1907.48 2014.5 1923.5L2014.5 2039.5C2014.5 2055.52 2001.52 2068.5 1985.5 2068.5L1523.5 2068.5C1507.48 2068.5 1494.5 2055.52 1494.5 2039.5Z" stroke="#A6A6A6" stroke-width="1.14583" stroke-miterlimit="8" fill="none" fill-rule="evenodd"/><text font-family="Arial,Arial_MSFontService,sans-serif" font-weight="400" font-size="37" transform="matrix(1 0 0 1 1634.12 1929)">Abschluss und </text><text font-family="Arial,Arial_MSFontService,sans-serif" font-weight="400" font-size="37" transform="matrix(1 0 0 1 1605.48 1973)">Überwachung von </text><text font-family="Arial,Arial_MSFontService,sans-serif" font-weight="400" font-size="37" transform="matrix(1 0 0 1 1650.74 2017)">Service</text><text font-family="Arial,Arial_MSFontService,sans-serif" font-weight="400" font-size="37" transform="matrix(1 0 0 1 1773.34 2017)">-</text><text font-family="Arial,Arial_MSFontService,sans-serif" font-weight="400" font-size="37" transform="matrix(1 0 0 1 1795.68 2017)">und </text><text font-family="Arial,Arial_MSFontService,sans-serif" font-weight="400" font-size="37" transform="matrix(1 0 0 1 1592.3 2061)">Wartungsverträgen.</text><path d="M1494.5 2113.5C1494.5 2097.48 1507.48 2084.5 1523.5 2084.5L1985.5 2084.5C2001.52 2084.5 2014.5 2097.48 2014.5 2113.5L2014.5 2229.5C2014.5 2245.52 2001.52 2258.5 1985.5 2258.5L1523.5 2258.5C1507.48 2258.5 1494.5 2245.52 1494.5 2229.5Z" stroke="#A6A6A6" stroke-width="1.14583" stroke-miterlimit="8" fill="none" fill-rule="evenodd"/><text font-family="Arial,Arial_MSFontService,sans-serif" font-weight="400" font-size="37" transform="matrix(1 0 0 1 1615.51 2141)">Koordination von </text><text font-family="Arial,Arial_MSFontService,sans-serif" font-weight="400" font-size="37" transform="matrix(1 0 0 1 1606.62 2185)">Dienstleistern und </text><text font-family="Arial,Arial_MSFontService,sans-serif" font-weight="400" font-size="37" transform="matrix(1 0 0 1 1656.47 2229)">Lieferanten.</text><path d="M1454.5 514.5C1454.5 498.484 1467.48 485.5 1483.5 485.5L1945.5 485.5C1961.52 485.5 1974.5 498.484 1974.5 514.5L1974.5 630.5C1974.5 646.516 1961.52 659.5 1945.5 659.5L1483.5 659.5C1467.48 659.5 1454.5 646.516 1454.5 630.5Z" stroke="#A6A6A6" stroke-width="1.14583" stroke-miterlimit="8" fill="none" fill-rule="evenodd"/><text font-family="Arial,Arial_MSFontService,sans-serif" font-weight="400" font-size="37" transform="matrix(1 0 0 1 1540.78 542)">Überwachung lokaler </text><text font-family="Arial,Arial_MSFontService,sans-serif" font-weight="400" font-size="37" transform="matrix(1 0 0 1 1532.76 586)">Immobilienmärkte und </text><text font-family="Arial,Arial_MSFontService,sans-serif" font-weight="400" font-size="37" transform="matrix(1 0 0 1 1540.48 630)">Konkurrenzanalysen.</text><path d="M1454.5 720.5C1454.5 704.484 1467.48 691.5 1483.5 691.5L1945.5 691.5C1961.52 691.5 1974.5 704.484 1974.5 720.5L1974.5 836.5C1974.5 852.516 1961.52 865.5 1945.5 865.5L1483.5 865.5C1467.48 865.5 1454.5 852.516 1454.5 836.5Z" stroke="#A6A6A6" stroke-width="1.14583" stroke-miterlimit="8" fill="none" fill-rule="evenodd"/><text font-family="Arial,Arial_MSFontService,sans-serif" font-weight="400" font-size="37" transform="matrix(1 0 0 1 1567.98 748)">Empfehlungen für </text><text font-family="Arial,Arial_MSFontService,sans-serif" font-weight="400" font-size="37" transform="matrix(1 0 0 1 1517.86 792)">Mietpreisgestaltung und </text><text font-family="Arial,Arial_MSFontService,sans-serif" font-weight="400" font-size="37" transform="matrix(1 0 0 1 1546.78 836)">Marketingstrategien.</text><path d="M1398 520.169C1398 477.55 1432.55 443 1475.17 443L1963.83 443C2006.45 443 2041 477.55 2041 520.169L2041 828.832C2041 871.451 2006.45 906 1963.83 906L1475.17 906C1432.55 906 1398 871.451 1398 828.832Z" stroke="#ED7D31" stroke-width="2.29167" stroke-linecap="square" stroke-miterlimit="8" stroke-dasharray="6.875 2.29167" fill="none" fill-rule="evenodd"/><path d="M473 1203C473 1144.46 520.459 1097 579.002 1097L1003 1097C1061.54 1097 1109 1144.46 1109 1203L1109 1629C1109 1687.54 1061.54 1735 1003 1735L579.002 1735C520.459 1735 473 1687.54 473 1629Z" stroke="#ED7D31" stroke-width="2.29167" stroke-linecap="square" stroke-miterlimit="8" stroke-dasharray="6.875 2.29167" fill="none" fill-rule="evenodd"/><path d="M577 1894C577 1851.47 611.475 1817 654.001 1817L1150 1817C1192.53 1817 1227 1851.47 1227 1894L1227 2202C1227 2244.53 1192.53 2279 1150 2279L654.001 2279C611.475 2279 577 2244.53 577 2202Z" stroke="#ED7D31" stroke-width="2.29167" stroke-linecap="square" stroke-miterlimit="8" stroke-dasharray="6.875 2.29167" fill="none" fill-rule="evenodd"/><path d="M1446 1915C1446 1872.47 1480.47 1838 1523 1838L2020 1838C2062.52 1838 2097 1872.47 2097 1915L2097 2223C2097 2265.53 2062.52 2300 2020 2300L1523 2300C1480.47 2300 1446 2265.53 1446 2223Z" stroke="#ED7D31" stroke-width="2.29167" stroke-linecap="square" stroke-miterlimit="8" stroke-dasharray="6.875 2.29167" fill="none" fill-rule="evenodd"/><path d="M2249.5 517.5C2249.5 501.484 2262.48 488.5 2278.5 488.5L2740.5 488.5C2756.52 488.5 2769.5 501.484 2769.5 517.5L2769.5 633.5C2769.5 649.516 2756.52 662.5 2740.5 662.5L2278.5 662.5C2262.48 662.5 2249.5 649.516 2249.5 633.5Z" stroke="#A6A6A6" stroke-width="1.14583" stroke-miterlimit="8" fill="none" fill-rule="evenodd"/><text font-family="Arial,Arial_MSFontService,sans-serif" font-weight="400" font-size="37" transform="matrix(1 0 0 1 2297.28 545)">Entwickeln und Umsetzen </text><text font-family="Arial,Arial_MSFontService,sans-serif" font-weight="400" font-size="37" transform="matrix(1 0 0 1 2479.47 589)">von </text><text font-family="Arial,Arial_MSFontService,sans-serif" font-weight="400" font-size="37" transform="matrix(1 0 0 1 2323.07 633)">Instandhaltungsplänen</text><path d="M2254.5 708.501C2254.5 692.484 2267.48 679.5 2283.5 679.5L2744.5 679.5C2760.52 679.5 2773.5 692.484 2773.5 708.501L2773.5 824.499C2773.5 840.516 2760.52 853.5 2744.5 853.5L2283.5 853.5C2267.48 853.5 2254.5 840.516 2254.5 824.499Z" stroke="#A6A6A6" stroke-width="1.14583" stroke-miterlimit="8" fill="none" fill-rule="evenodd"/><text font-family="Arial,Arial_MSFontService,sans-serif" font-weight="400" font-size="37" transform="matrix(1 0 0 1 2374.98 736)">Koordination von </text><text font-family="Arial,Arial_MSFontService,sans-serif" font-weight="400" font-size="37" transform="matrix(1 0 0 1 2392.74 780)">Wartungs</text><text font-family="Arial,Arial_MSFontService,sans-serif" font-weight="400" font-size="37" transform="matrix(1 0 0 1 2550.29 780)">-</text><text font-family="Arial,Arial_MSFontService,sans-serif" font-weight="400" font-size="37" transform="matrix(1 0 0 1 2572.64 780)">und </text><text font-family="Arial,Arial_MSFontService,sans-serif" font-weight="400" font-size="37" transform="matrix(1 0 0 1 2364.94 824)">Reparaturarbeiten</text><path d="M3113.5 628.5C3113.5 612.484 3126.48 599.5 3142.5 599.5L3643.5 599.5C3659.52 599.5 3672.5 612.484 3672.5 628.5L3672.5 744.5C3672.5 760.516 3659.52 773.5 3643.5 773.5L3142.5 773.5C3126.48 773.5 3113.5 760.516 3113.5 744.5Z" stroke="#A6A6A6" stroke-width="1.14583" stroke-miterlimit="8" fill="none" fill-rule="evenodd"/><text font-family="Arial,Arial_MSFontService,sans-serif" font-weight="400" font-size="37" transform="matrix(1 0 0 1 3175.54 656)">Koordination regelmäßiger </text><text font-family="Arial,Arial_MSFontService,sans-serif" font-weight="400" font-size="37" transform="matrix(1 0 0 1 3252.88 700)">Inspektionen von </text><text font-family="Arial,Arial_MSFontService,sans-serif" font-weight="400" font-size="37" transform="matrix(1 0 0 1 3245.43 744)">Gebäudeanlagen.</text><path d="M3113.5 818.5C3113.5 802.484 3126.48 789.5 3142.5 789.5L3643.5 789.5C3659.52 789.5 3672.5 802.484 3672.5 818.5L3672.5 934.5C3672.5 950.516 3659.52 963.5 3643.5 963.5L3142.5 963.5C3126.48 963.5 3113.5 950.516 3113.5 934.5Z" stroke="#A6A6A6" stroke-width="1.14583" stroke-miterlimit="8" fill="none" fill-rule="evenodd"/><text font-family="Arial,Arial_MSFontService,sans-serif" font-weight="400" font-size="37" transform="matrix(1 0 0 1 3242.85 846)">Identifizierung von </text><text font-family="Arial,Arial_MSFontService,sans-serif" font-weight="400" font-size="37" transform="matrix(1 0 0 1 3163.79 890)">technischen Problemen und </text><text font-family="Arial,Arial_MSFontService,sans-serif" font-weight="400" font-size="37" transform="matrix(1 0 0 1 3316.76 934)">Mängeln.</text><path d="M3204.5 1208.5C3204.5 1192.48 3217.48 1179.5 3233.5 1179.5L3734.5 1179.5C3750.52 1179.5 3763.5 1192.48 3763.5 1208.5L3763.5 1324.5C3763.5 1340.52 3750.52 1353.5 3734.5 1353.5L3233.5 1353.5C3217.48 1353.5 3204.5 1340.52 3204.5 1324.5Z" stroke="#A6A6A6" stroke-width="1.14583" stroke-miterlimit="8" fill="none" fill-rule="evenodd"/><text font-family="Arial,Arial_MSFontService,sans-serif" font-weight="400" font-size="37" transform="matrix(1 0 0 1 3246.44 1236)">Planung und Umsetzung von </text><text font-family="Arial,Arial_MSFontService,sans-serif" font-weight="400" font-size="37" transform="matrix(1 0 0 1 3305.45 1280)">Modernisierungs</text><text font-family="Arial,Arial_MSFontService,sans-serif" font-weight="400" font-size="37" transform="matrix(1 0 0 1 3577.58 1280)">-</text><text font-family="Arial,Arial_MSFontService,sans-serif" font-weight="400" font-size="37" transform="matrix(1 0 0 1 3599.93 1280)">und </text><text font-family="Arial,Arial_MSFontService,sans-serif" font-weight="400" font-size="37" transform="matrix(1 0 0 1 3315.76 1324)">Umbaumaßnahmen.</text><path d="M3204.5 1402.5C3204.5 1386.48 3217.48 1373.5 3233.5 1373.5L3734.5 1373.5C3750.52 1373.5 3763.5 1386.48 3763.5 1402.5L3763.5 1518.5C3763.5 1534.52 3750.52 1547.5 3734.5 1547.5L3233.5 1547.5C3217.48 1547.5 3204.5 1534.52 3204.5 1518.5Z" stroke="#A6A6A6" stroke-width="1.14583" stroke-miterlimit="8" fill="none" fill-rule="evenodd"/><text font-family="Arial,Arial_MSFontService,sans-serif" font-weight="400" font-size="37" transform="matrix(1 0 0 1 3341.82 1430)">Einführung neuer </text><text font-family="Arial,Arial_MSFontService,sans-serif" font-weight="400" font-size="37" transform="matrix(1 0 0 1 3342.12 1474)">Technologien zur </text><text font-family="Arial,Arial_MSFontService,sans-serif" font-weight="400" font-size="37" transform="matrix(1 0 0 1 3322.64 1518)">Effizienzsteigerung.</text><path d="M3028.5 1818.5C3028.5 1802.48 3041.48 1789.5 3057.5 1789.5L3558.5 1789.5C3574.52 1789.5 3587.5 1802.48 3587.5 1818.5L3587.5 1934.5C3587.5 1950.52 3574.52 1963.5 3558.5 1963.5L3057.5 1963.5C3041.48 1963.5 3028.5 1950.52 3028.5 1934.5Z" stroke="#A6A6A6" stroke-width="1.14583" stroke-miterlimit="8" fill="none" fill-rule="evenodd"/><text font-family="Arial,Arial_MSFontService,sans-serif" font-weight="400" font-size="37" transform="matrix(1 0 0 1 3157.71 1824)">Überwachung und </text><text font-family="Arial,Arial_MSFontService,sans-serif" font-weight="400" font-size="37" transform="matrix(1 0 0 1 3160.88 1868)">Verbesserung der </text><text font-family="Arial,Arial_MSFontService,sans-serif" font-weight="400" font-size="37" transform="matrix(1 0 0 1 3141.4 1912)">Energieeffizienz von </text><text font-family="Arial,Arial_MSFontService,sans-serif" font-weight="400" font-size="37" transform="matrix(1 0 0 1 3215.88 1956)">Gebäuden.</text><path d="M3028.5 2007.5C3028.5 1991.48 3041.48 1978.5 3057.5 1978.5L3558.5 1978.5C3574.52 1978.5 3587.5 1991.48 3587.5 2007.5L3587.5 2123.5C3587.5 2139.52 3574.52 2152.5 3558.5 2152.5L3057.5 2152.5C3041.48 2152.5 3028.5 2139.52 3028.5 2123.5Z" stroke="#A6A6A6" stroke-width="1.14583" stroke-miterlimit="8" fill="none" fill-rule="evenodd"/><text font-family="Arial,Arial_MSFontService,sans-serif" font-weight="400" font-size="37" transform="matrix(1 0 0 1 3170.32 2035)">Implementierung </text><text font-family="Arial,Arial_MSFontService,sans-serif" font-weight="400" font-size="37" transform="matrix(1 0 0 1 3094.42 2079)">nachhaltiger Praktiken zur </text><text font-family="Arial,Arial_MSFontService,sans-serif" font-weight="400" font-size="37" transform="matrix(1 0 0 1 3123.91 2123)">Ressourcenschonung.</text><path d="M2225.5 1916.5C2225.5 1900.48 2238.48 1887.5 2254.5 1887.5L2755.5 1887.5C2771.52 1887.5 2784.5 1900.48 2784.5 1916.5L2784.5 2032.5C2784.5 2048.52 2771.52 2061.5 2755.5 2061.5L2254.5 2061.5C2238.48 2061.5 2225.5 2048.52 2225.5 2032.5Z" stroke="#A6A6A6" stroke-width="1.14583" stroke-miterlimit="8" fill="none" fill-rule="evenodd"/><text font-family="Arial,Arial_MSFontService,sans-serif" font-weight="400" font-size="37" transform="matrix(1 0 0 1 2371.21 1944)">Entwicklung von </text><text font-family="Arial,Arial_MSFontService,sans-serif" font-weight="400" font-size="37" transform="matrix(1 0 0 1 2349.44 1988)">Notfallplänen und </text><text font-family="Arial,Arial_MSFontService,sans-serif" font-weight="400" font-size="37" transform="matrix(1 0 0 1 2647.36 1988)">-</text><text font-family="Arial,Arial_MSFontService,sans-serif" font-weight="400" font-size="37" transform="matrix(1 0 0 1 2405.89 2032)">prozeduren.</text><path d="M2229.5 2106.5C2229.5 2090.48 2242.48 2077.5 2258.5 2077.5L2759.5 2077.5C2775.52 2077.5 2788.5 2090.48 2788.5 2106.5L2788.5 2222.5C2788.5 2238.52 2775.52 2251.5 2759.5 2251.5L2258.5 2251.5C2242.48 2251.5 2229.5 2238.52 2229.5 2222.5Z" stroke="#A6A6A6" stroke-width="1.14583" stroke-miterlimit="8" fill="none" fill-rule="evenodd"/><text font-family="Arial,Arial_MSFontService,sans-serif" font-weight="400" font-size="37" transform="matrix(1 0 0 1 2289.32 2134)">Handhabung von Notfällen </text><text font-family="Arial,Arial_MSFontService,sans-serif" font-weight="400" font-size="37" transform="matrix(1 0 0 1 2295.89 2178)">wie technischen Ausfällen </text><text font-family="Arial,Arial_MSFontService,sans-serif" font-weight="400" font-size="37" transform="matrix(1 0 0 1 2309.07 2222)">oder Naturkatastrophen.</text><path d="M2192 519.169C2192 476.55 2226.55 442 2269.17 442L2757.83 442C2800.45 442 2835 476.55 2835 519.169L2835 827.832C2835 870.451 2800.45 905 2757.83 905L2269.17 905C2226.55 905 2192 870.451 2192 827.832Z" stroke="#70AD47" stroke-width="2.29167" stroke-linecap="square" stroke-miterlimit="8" stroke-dasharray="6.875 2.29167" fill="none" fill-rule="evenodd"/><path d="M3071 619.002C3071 576.475 3105.47 542 3148 542L3637 542C3679.52 542 3714 576.475 3714 619.002L3714 926.998C3714 969.525 3679.52 1004 3637 1004L3148 1004C3105.47 1004 3071 969.525 3071 926.998Z" stroke="#70AD47" stroke-width="2.29167" stroke-linecap="square" stroke-miterlimit="8" stroke-dasharray="6.875 2.29167" fill="none" fill-rule="evenodd"/><path d="M3162 1213.33C3162 1172.28 3195.28 1139 3236.33 1139L3730.67 1139C3771.72 1139 3805 1172.28 3805 1213.33L3805 1510.67C3805 1551.72 3771.72 1585 3730.67 1585L3236.33 1585C3195.28 1585 3162 1551.72 3162 1510.67Z" stroke="#70AD47" stroke-width="2.29167" stroke-linecap="square" stroke-miterlimit="8" stroke-dasharray="6.875 2.29167" fill="none" fill-rule="evenodd"/><path d="M2993 1830.33C2993 1789.28 3026.28 1756 3067.33 1756L3561.67 1756C3602.72 1756 3636 1789.28 3636 1830.33L3636 2127.67C3636 2168.72 3602.72 2202 3561.67 2202L3067.33 2202C3026.28 2202 2993 2168.72 2993 2127.67Z" stroke="#70AD47" stroke-width="2.29167" stroke-linecap="square" stroke-miterlimit="8" stroke-dasharray="6.875 2.29167" fill="none" fill-rule="evenodd"/><path d="M2192 1914.17C2192 1871.55 2226.55 1837 2269.17 1837L2757.83 1837C2800.45 1837 2835 1871.55 2835 1914.17L2835 2222.83C2835 2265.45 2800.45 2300 2757.83 2300L2269.17 2300C2226.55 2300 2192 2265.45 2192 2222.83Z" stroke="#70AD47" stroke-width="2.29167" stroke-linecap="square" stroke-miterlimit="8" stroke-dasharray="6.875 2.29167" fill="none" fill-rule="evenodd"/><path d="M0 0 157.071 98.4525" stroke="#ED7D31" stroke-width="1.14583" stroke-miterlimit="8" stroke-dasharray="4.58333 3.4375" fill="none" fill-rule="evenodd" transform="matrix(1 0 0 -1 1241.5 773.953)"/><path d="M0 0 151.411 1.1166" stroke="#A7A6A6" stroke-width="1.14583" stroke-miterlimit="8" stroke-dasharray="4.58333 3.4375" fill="none" fill-rule="evenodd" transform="matrix(1 0 0 -1 2041.5 674.617)"/><path d="M2835.5 673.5 3072.07 773.069" stroke="#00B050" stroke-width="1.14583" stroke-miterlimit="8" stroke-dasharray="4.58333 3.4375" fill="none" fill-rule="evenodd"/><path d="M3484.46 1139.7 3393.5 1004.5" stroke="#00B050" stroke-width="1.14583" stroke-miterlimit="8" stroke-dasharray="4.58333 3.4375" fill="none" fill-rule="evenodd"/><path d="M0 0 168.916 170.632" stroke="#00B050" stroke-width="1.14583" stroke-miterlimit="8" stroke-dasharray="4.58333 3.4375" fill="none" fill-rule="evenodd" transform="matrix(1 0 0 -1 3315.5 1756.13)"/><path d="M0 0 158.61 89.8474" stroke="#00B050" stroke-width="1.14583" stroke-miterlimit="8" stroke-dasharray="4.58333 3.4375" fill="none" fill-rule="evenodd" transform="matrix(1 0 0 -1 2835.5 2069.35)"/><path d="M0 0 95.4611 0.123064" stroke="#A7A6A6" stroke-width="1.14583" stroke-miterlimit="8" stroke-dasharray="4.58333 3.4375" fill="none" fill-rule="evenodd" transform="matrix(1 0 0 -1 2097.5 2069.62)"/><path d="M1227.5 2048.5 1446.22 2068.96" stroke="#ED7D31" stroke-width="1.14583" stroke-miterlimit="8" stroke-dasharray="4.58333 3.4375" fill="none" fill-rule="evenodd"/><path d="M0 0 131.982 92.3589" stroke="#ED7D31" stroke-width="1.14583" stroke-miterlimit="8" stroke-dasharray="4.58333 3.4375" fill="none" fill-rule="evenodd" transform="matrix(1 0 0 -1 791.5 1096.86)"/><path d="M902.477 1817.69 791.5 1735.5" stroke="#ED7D31" stroke-width="1.14583" stroke-miterlimit="8" stroke-dasharray="4.58333 3.4375" fill="none" fill-rule="evenodd"/><text font-family="Arial,Arial_MSFontService,sans-serif" font-weight="700" font-size="46" transform="matrix(1 0 0 1 635.651 523)">Mietvertragsmanagement</text><text font-family="Arial,Arial_MSFontService,sans-serif" font-weight="700" font-size="46" transform="matrix(1 0 0 1 2254.78 419)">Instandhaltungsplanung</text><text font-family="Arial,Arial_MSFontService,sans-serif" font-weight="700" font-size="46" transform="matrix(1 0 0 1 1545.2 424)">Marktanalysen</text><text font-family="Arial,Arial_MSFontService,sans-serif" font-weight="700" font-size="46" transform="matrix(1 0 0 1 3110.93 514)">Technische Inspektionen</text><text font-family="Arial,Arial_MSFontService,sans-serif" font-weight="700" font-size="46" transform="matrix(1 0 0 1 3837.87 1355)">Modernisierungsprojekte</text><text font-family="Arial,Arial_MSFontService,sans-serif" font-weight="700" font-size="46" transform="matrix(1 0 0 1 3039.46 2263)">Energieeffizienzmanagement</text><text font-family="Arial,Arial_MSFontService,sans-serif" font-weight="700" font-size="46" transform="matrix(1 0 0 1 2310.97 2379)">Notfallmanagement</text><text font-family="Arial,Arial_MSFontService,sans-serif" font-weight="700" font-size="46" transform="matrix(1 0 0 1 1545.2 2381)">Vertragsmanagement</text><text font-family="Arial,Arial_MSFontService,sans-serif" font-weight="700" font-size="46" transform="matrix(1 0 0 1 669.872 2350)">Mieterkommunikation</text><text font-family="Arial,Arial_MSFontService,sans-serif" font-weight="700" font-size="46" transform="matrix(1 0 0 1 18.5607 1432)">Finanzmanagement</text></g></svg>