<?xml version="1.0" encoding="utf-8"?>
<svg width="3000" height="1900" xmlns="http://www.w3.org/2000/svg" overflow="hidden">
  <g transform="matrix(1, 0, 0, 1, -702, -405)">
    <path d="M1720.5 1411.5C1720.5 1232.01 1866.01 1086.5 2045.5 1086.5 2224.99 1086.5 2370.5 1232.01 2370.5 1411.5 2370.5 1590.99 2224.99 1736.5 2045.5 1736.5 1866.01 1736.5 1720.5 1590.99 1720.5 1411.5Z" stroke="#A7A6A6" stroke-width="1.14583" stroke-miterlimit="8" fill="none" fill-rule="evenodd"/>
    <text transform="matrix(1, 0, 0, 1, 2048.933594, 1406.909058)" style="fill: rgb(1, 122, 192); font-family: Arial; font-size: 44px; text-anchor: middle; white-space: pre;"><tspan>Digital </tspan><tspan x="0" dy="1.3em">​</tspan><tspan>Solutions</tspan></text>
    <path d="M1420.5 964.5C1420.5 870.611 1496.39 794.5 1590 794.5 1683.61 794.5 1759.5 870.611 1759.5 964.5 1759.5 1058.39 1683.61 1134.5 1590 1134.5 1496.39 1134.5 1420.5 1058.39 1420.5 964.5Z" stroke="#44546A" stroke-width="1.14583" stroke-miterlimit="8" fill="none" fill-rule="evenodd"/>
    <path d="M 1252.47 1374.5 C 1252.47 1280.89 1328.58 1205 1422.47 1205 C 1516.36 1205 1592.47 1280.89 1592.47 1374.5 C 1592.47 1468.11 1516.36 1544 1422.47 1544 C 1328.58 1544 1252.47 1468.11 1252.47 1374.5 Z" stroke="#33CCFF" stroke-width="1.14583" stroke-miterlimit="8" fill="none" fill-rule="evenodd"/>
    <path d="M2315.5 1849.5C2315.5 1755.61 2391.61 1679.5 2485.5 1679.5 2579.39 1679.5 2655.5 1755.61 2655.5 1849.5 2655.5 1943.39 2579.39 2019.5 2485.5 2019.5 2391.61 2019.5 2315.5 1943.39 2315.5 1849.5Z" stroke="#4472C4" stroke-width="1.14583" stroke-miterlimit="8" fill="none" fill-rule="evenodd"/>
    <path d="M2474.5 1393C2474.5 1299.39 2550.39 1223.5 2644 1223.5 2737.61 1223.5 2813.5 1299.39 2813.5 1393 2813.5 1486.61 2737.61 1562.5 2644 1562.5 2550.39 1562.5 2474.5 1486.61 2474.5 1393Z" stroke="#BF9000" stroke-width="1.14583" stroke-miterlimit="8" fill="none" fill-rule="evenodd"/>
    <path d="M2279.5 938.5C2279.5 844.612 2355.39 768.5 2449 768.5 2542.61 768.5 2618.5 844.612 2618.5 938.5 2618.5 1032.39 2542.61 1108.5 2449 1108.5 2355.39 1108.5 2279.5 1032.39 2279.5 938.5Z" stroke="#F4B183" stroke-width="1.14583" stroke-miterlimit="8" fill="none" fill-rule="evenodd"/>
    <path d="M0 0 90.4797 95.1774" stroke="#017AC0" stroke-width="1.14583" stroke-miterlimit="8" fill="none" fill-rule="evenodd" transform="matrix(1 0 0 -1 2238.5 1153.68)"/>
    <path d="M 0 15.566 L 104.021 18.385" stroke="#017AC0" stroke-width="1.14583" stroke-miterlimit="8" fill="none" fill-rule="evenodd" transform="matrix(1 0 0 -1 2370.5 1411.89)"/>
    <path d="M1709.5 1084.5 1815.38 1181.95" stroke="#017AC0" stroke-width="1.14583" stroke-miterlimit="8" fill="none" fill-rule="evenodd"/>
    <path d="M 1592.859 1366.903 L 1725.49 1366.45" stroke="#017AC0" stroke-width="1.14583" stroke-miterlimit="8" fill="none" fill-rule="evenodd"/>
    <path d="M2365.84 1729.91 2275.5 1641.5" stroke="#017AC0" stroke-width="1.14583" stroke-miterlimit="8" fill="none" fill-rule="evenodd"/>
    <path d="M1855.5 1996C1855.5 1893 1939.22 1809.5 2042.5 1809.5 2145.78 1809.5 2229.5 1893 2229.5 1996 2229.5 2099 2145.78 2182.5 2042.5 2182.5 1939.22 2182.5 1855.5 2099 1855.5 1996Z" stroke="#7030A0" stroke-width="1.14583" stroke-miterlimit="8" fill="none" fill-rule="evenodd"/>
    <path d="M0 0 3.0232 72.7913" stroke="#017AC0" stroke-width="1.14583" stroke-miterlimit="8" fill="none" fill-rule="evenodd" transform="matrix(1 0 0 -1 2042.5 1809.29)"/>
    <path d="M1368.5 1774C1368.5 1680.39 1444.61 1604.5 1538.5 1604.5 1632.39 1604.5 1708.5 1680.39 1708.5 1774 1708.5 1867.61 1632.39 1943.5 1538.5 1943.5 1444.61 1943.5 1368.5 1867.61 1368.5 1774Z" stroke="#C00000" stroke-width="1.14583" stroke-miterlimit="8" fill="none" fill-rule="evenodd"/>
    <path d="M0 0 103.823 78.1538" stroke="#017AC0" stroke-width="1.14583" stroke-miterlimit="8" fill="none" fill-rule="evenodd" transform="matrix(1 0 0 -1 1663.5 1653.65)"/>
    <path d="M2009.47 1086.75 1999.5 991.5" stroke="#017AC0" stroke-width="1.14583" stroke-miterlimit="8" fill="none" fill-rule="evenodd"/>
    <path d="M1829.5 821.5C1829.5 727.611 1905.61 651.5 1999.5 651.5 2093.39 651.5 2169.5 727.611 2169.5 821.5 2169.5 915.388 2093.39 991.5 1999.5 991.5 1905.61 991.5 1829.5 915.388 1829.5 821.5Z" stroke="#70AD47" stroke-width="1.14583" stroke-miterlimit="8" fill="none" fill-rule="evenodd"/>
    <text style="font-family: Arial; font-size: 44px; text-anchor: middle; white-space: pre;" transform="matrix(1, 0, 0, 1, 163.514099, -12.909008)"><tspan x="1830.59" y="830.713">Artificial </tspan><tspan x="1830.59" dy="1.3em">​</tspan><tspan>intelligence</tspan></text>
    <text style="font-family: Arial; font-size: 44px; text-anchor: middle; white-space: pre;" transform="matrix(1, 0, 0, 1, 36.575523, -21.515013)"><tspan x="2405.05" y="957.651">Monitoring </tspan><tspan x="2405.04" dy="1.3em">​</tspan><tspan>systems</tspan></text>
    <text style="font-family: Arial; font-size: 44px; text-anchor: middle; white-space: pre;" transform="matrix(1, 0, 0, 1, 177.751724, -62.993561)"><tspan x="2472.54" y="1413.77">Digital </tspan><tspan x="2472.54" dy="1.3em">​</tspan><tspan>buildings </tspan><tspan x="2472.54" dy="1.3em">​</tspan><tspan>twins</tspan></text>
    <text style="font-family: Arial; font-size: 44px; text-anchor: middle; white-space: pre;" transform="matrix(1, 0, 0, 1, 8.606006, -21.515013)"><tspan x="2477.16" y="1865.58">Building </tspan><tspan x="2477.16" dy="1.3em">​</tspan><tspan>apps</tspan></text>
    <text style="font-family: Arial; font-size: 44px; text-anchor: middle; white-space: pre;" transform="matrix(1, 0, 0, 1, 10.757506, -27.969517)"><tspan x="2037.29" y="2014.04">Web </tspan><tspan x="2037.29" dy="1.3em">​</tspan><tspan>development</tspan></text>
    <text style="font-family: Arial; font-size: 44px; text-anchor: middle; white-space: pre;" transform="matrix(1, 0, 0, 1, 174.271606, -23.666515)"><tspan x="1356.62" y="1790.28">Customized </tspan><tspan x="1356.62" dy="1.3em">​</tspan><tspan>software</tspan></text>
    <text style="font-family: Arial; font-size: 44px; text-anchor: middle; white-space: pre;" transform="matrix(1, 0, 0, 1, 173.928787, -6.94933)"><tspan x="1239.57" y="1366.44">Digital </tspan><tspan x="1239.57" dy="1.3em">​</tspan><tspan>services</tspan></text>
    <text style="font-family: Arial; font-size: 44px; text-anchor: middle; white-space: pre;" transform="matrix(1, 0, 0, 1, 144.150589, -25.818016)"><tspan x="1444.91" y="972.712">Operator </tspan><tspan x="1444.91" dy="1.3em">​</tspan><tspan>software</tspan></text>
    <text style="font-family: Arial; font-size: 44px; white-space: pre;" x="1366.72" y="578.27" transform="matrix(1, 0, 0, 1, 216.942947, -8.247998)">Development of customized and <tspan x="1366.719970703125" dy="1.3em">​</tspan>individual artificial intelligence for buildings</text>
    <text style="font-family: Arial; font-size: 44px; white-space: pre;" x="2527.68" y="797.723" transform="matrix(1, 0, 0, 1, 120.484077, 98.969063)">Development of systems <tspan x="2527.679931640625" dy="1.3em">​</tspan>for monitoring, control and <tspan x="2527.679931640625" dy="1.3em">​</tspan>analysis in buildings.</text>
    <text style="font-family: Arial; font-size: 44px; white-space: pre;" x="2094.63" y="1260.3" transform="matrix(1, 0, 0, 1, 739.399719, 22.947041)">Creation of comprehensive, <tspan x="2094.6298828125" dy="1.3em">​</tspan>digitized models that provide <tspan x="2094.6298828125" dy="1.3em">​</tspan>real-time information on the condition, <tspan x="2094.6298828125" dy="1.3em">​</tspan>performance and other relevant <tspan x="2094.6298828125" dy="1.3em">​</tspan>data of a building or its parts</text>
    <text style="font-family: Arial; font-size: 44px; white-space: pre;" x="2699.99" y="1772.357" transform="matrix(1, 0, 0, 1, -24.383913, -19.365589)">Programming of apps for various <tspan x="2699.989990234375" dy="1.3em">​</tspan>use cases inside and outside <tspan x="2699.989990234375" dy="1.3em">​</tspan>the building, for example energy <tspan x="2699.989990234375" dy="1.3em">​</tspan>monitoring apps, building management <tspan x="2699.989990234375" dy="1.3em">​</tspan>apps, security and access control <tspan x="2699.989990234375" dy="1.3em">​</tspan>apps or room reservation apps.</text>
    <text style="font-family: Arial; font-size: 44px; white-space: pre;" x="1516.15" y="2224.17" transform="matrix(1, 0, 0, 1, 189.332123, 16.495306)">Development of websites and <tspan x="1516.1500244140625" dy="1.3em">​</tspan>social media content for buildings.</text>
  </g>
  <text style="font-family: Arial; font-size: 44px; white-space: pre;" x="92.069" y="1507.2" transform="matrix(1, 0, 0, 1, 186.211105, -144.150589)">Programming <tspan x="92.06900024414062" dy="1.3em">​</tspan>individual software.</text>
  <text style="font-family: Arial; font-size: 44px; white-space: pre;" x="-648.031" y="1102.72" transform="matrix(1, 0, 0, 1, 663.565491, -210.987045)">Modeling and programming <tspan x="-648.031005859375" dy="1.3em">​</tspan>implementation of digital <tspan x="-648.031005859375" dy="1.3em">​</tspan>services to enhance the <tspan x="-648.031005859375" dy="1.3em">​</tspan>user experience in buildings.</text>
  <text style="font-family: Arial; font-size: 44px; white-space: pre;" x="-366.739" y="545.479" transform="matrix(1, 0, 0, 1, 463.754089, -51.993351)">Programming of operator <tspan x="-366.739013671875" dy="1.3em">​</tspan>software, tailored to the needs <tspan x="-366.739013671875" dy="1.3em">​</tspan>of the operator of a building.</text>
</svg>