<?xml version="1.0" encoding="UTF-8" standalone="no"?>
<svg
   width="1480"
   height="920"
   overflow="hidden"
   version="1.1"
   id="svg62"
   sodipodi:docname="DigitalSolutions.svg"
   inkscape:version="1.4.2 (f4327f4, 2025-05-13)"
   xmlns:inkscape="http://www.inkscape.org/namespaces/inkscape"
   xmlns:sodipodi="http://sodipodi.sourceforge.net/DTD/sodipodi-0.dtd"
   xmlns="http://www.w3.org/2000/svg"
   xmlns:svg="http://www.w3.org/2000/svg">
  <defs
     id="defs62" />
  <sodipodi:namedview
     id="namedview62"
     pagecolor="#ffffff"
     bordercolor="#000000"
     borderopacity="0.25"
     inkscape:showpageshadow="2"
     inkscape:pageopacity="0.0"
     inkscape:pagecheckerboard="0"
     inkscape:deskcolor="#d1d1d1"
     inkscape:zoom="0.6006686"
     inkscape:cx="1028.0211"
     inkscape:cy="368.75575"
     inkscape:window-width="1920"
     inkscape:window-height="1009"
     inkscape:window-x="-8"
     inkscape:window-y="-8"
     inkscape:window-maximized="1"
     inkscape:current-layer="g56" />
  <g
     transform="matrix(0.51437533,0,0,0.51437533,-364.08204,-271.72818)"
     id="g56"
     style="stroke-width:1.94411">
    <path
       d="m 1720.5,1411.5 c 0,-179.49 145.51,-325 325,-325 179.49,0 325,145.51 325,325 0,179.49 -145.51,325 -325,325 -179.49,0 -325,-145.51 -325,-325 z"
       stroke="#a7a6a6"
       stroke-width="2.22761"
       stroke-miterlimit="8"
       fill="none"
       fill-rule="evenodd"
       id="path1" />
    <text
       transform="translate(2048.9336,1406.9091)"
       style="font-size:44px;font-family:Arial;text-anchor:middle;white-space:pre;fill:#017ac0;stroke-width:1.94411"
       id="text3"><tspan
         id="tspan1"
         style="stroke-width:1.94411">Digital </tspan><tspan
         x="0"
         dy="1.3em"
         id="tspan2"
         style="stroke-width:1.94411">​</tspan><tspan
         id="tspan3"
         style="stroke-width:1.94411">Solutions</tspan></text>
    <path
       d="m 1420.5,964.5 c 0,-93.889 75.89,-170 169.5,-170 93.61,0 169.5,76.111 169.5,170 0,93.89 -75.89,170 -169.5,170 -93.61,0 -169.5,-76.11 -169.5,-170 z"
       stroke="#44546a"
       stroke-width="2.22761"
       stroke-miterlimit="8"
       fill="none"
       fill-rule="evenodd"
       id="path3" />
    <path
       d="m 1252.47,1374.5 c 0,-93.61 76.11,-169.5 170,-169.5 93.89,0 170,75.89 170,169.5 0,93.61 -76.11,169.5 -170,169.5 -93.89,0 -170,-75.89 -170,-169.5 z"
       stroke="#33ccff"
       stroke-width="2.22761"
       stroke-miterlimit="8"
       fill="none"
       fill-rule="evenodd"
       id="path4" />
    <path
       d="m 2315.5,1849.5 c 0,-93.89 76.11,-170 170,-170 93.89,0 170,76.11 170,170 0,93.89 -76.11,170 -170,170 -93.89,0 -170,-76.11 -170,-170 z"
       stroke="#4472c4"
       stroke-width="2.22761"
       stroke-miterlimit="8"
       fill="none"
       fill-rule="evenodd"
       id="path5" />
    <path
       d="m 2474.5,1393 c 0,-93.61 75.89,-169.5 169.5,-169.5 93.61,0 169.5,75.89 169.5,169.5 0,93.61 -75.89,169.5 -169.5,169.5 -93.61,0 -169.5,-75.89 -169.5,-169.5 z"
       stroke="#bf9000"
       stroke-width="2.22761"
       stroke-miterlimit="8"
       fill="none"
       fill-rule="evenodd"
       id="path6" />
    <path
       d="m 2279.5,938.5 c 0,-93.888 75.89,-170 169.5,-170 93.61,0 169.5,76.112 169.5,170 0,93.89 -75.89,170 -169.5,170 -93.61,0 -169.5,-76.11 -169.5,-170 z"
       stroke="#f4b183"
       stroke-width="2.22761"
       stroke-miterlimit="8"
       fill="none"
       fill-rule="evenodd"
       id="path7" />
    <path
       d="M 0,0 90.4797,95.1774"
       stroke="#017ac0"
       stroke-width="2.22761"
       stroke-miterlimit="8"
       fill="none"
       fill-rule="evenodd"
       transform="matrix(1,0,0,-1,2238.5,1153.68)"
       id="path8" />
    <path
       d="m 0,15.566 104.021,2.819"
       stroke="#017ac0"
       stroke-width="2.22761"
       stroke-miterlimit="8"
       fill="none"
       fill-rule="evenodd"
       transform="matrix(1,0,0,-1,2370.5,1411.89)"
       id="path9" />
    <path
       d="m 1709.5,1084.5 105.88,97.45"
       stroke="#017ac0"
       stroke-width="2.22761"
       stroke-miterlimit="8"
       fill="none"
       fill-rule="evenodd"
       id="path10" />
    <path
       d="m 1592.859,1366.903 132.631,-0.453"
       stroke="#017ac0"
       stroke-width="2.22761"
       stroke-miterlimit="8"
       fill="none"
       fill-rule="evenodd"
       id="path11" />
    <path
       d="M 2365.84,1729.91 2275.5,1641.5"
       stroke="#017ac0"
       stroke-width="2.22761"
       stroke-miterlimit="8"
       fill="none"
       fill-rule="evenodd"
       id="path12" />
    <path
       d="m 1855.5,1996 c 0,-103 83.72,-186.5 187,-186.5 103.28,0 187,83.5 187,186.5 0,103 -83.72,186.5 -187,186.5 -103.28,0 -187,-83.5 -187,-186.5 z"
       stroke="#7030a0"
       stroke-width="2.22761"
       stroke-miterlimit="8"
       fill="none"
       fill-rule="evenodd"
       id="path13" />
    <path
       d="M 0,0 3.0232,72.7913"
       stroke="#017ac0"
       stroke-width="2.22761"
       stroke-miterlimit="8"
       fill="none"
       fill-rule="evenodd"
       transform="matrix(1,0,0,-1,2042.5,1809.29)"
       id="path14" />
    <path
       d="m 1368.5,1774 c 0,-93.61 76.11,-169.5 170,-169.5 93.89,0 170,75.89 170,169.5 0,93.61 -76.11,169.5 -170,169.5 -93.89,0 -170,-75.89 -170,-169.5 z"
       stroke="#c00000"
       stroke-width="2.22761"
       stroke-miterlimit="8"
       fill="none"
       fill-rule="evenodd"
       id="path15" />
    <path
       d="M 0,0 103.823,78.1538"
       stroke="#017ac0"
       stroke-width="2.22761"
       stroke-miterlimit="8"
       fill="none"
       fill-rule="evenodd"
       transform="matrix(1,0,0,-1,1663.5,1653.65)"
       id="path16" />
    <path
       d="M 2009.47,1086.75 1999.5,991.5"
       stroke="#017ac0"
       stroke-width="2.22761"
       stroke-miterlimit="8"
       fill="none"
       fill-rule="evenodd"
       id="path17" />
    <path
       d="m 1829.5,821.5 c 0,-93.889 76.11,-170 170,-170 93.89,0 170,76.111 170,170 0,93.888 -76.11,170 -170,170 -93.89,0 -170,-76.112 -170,-170 z"
       stroke="#70ad47"
       stroke-width="2.22761"
       stroke-miterlimit="8"
       fill="none"
       fill-rule="evenodd"
       id="path18" />
    <text
       style="font-size:44px;font-family:Arial;text-anchor:middle;white-space:pre;stroke-width:1.94411"
       transform="translate(163.5141,-12.909008)"
       id="text20"><tspan
         x="1830.59"
         y="830.71301"
         id="tspan18"
         style="stroke-width:1.94411">Artificial </tspan><tspan
         x="1830.59"
         dy="1.3em"
         id="tspan19"
         style="stroke-width:1.94411">​</tspan><tspan
         id="tspan20"
         style="stroke-width:1.94411">intelligence</tspan></text>
    <text
       style="font-size:44px;font-family:Arial;text-anchor:middle;white-space:pre;stroke-width:1.94411"
       transform="translate(36.575523,-21.515013)"
       id="text23"><tspan
         x="2405.05"
         y="957.651"
         id="tspan21"
         style="stroke-width:1.94411">Monitoring </tspan><tspan
         x="2405.04"
         dy="1.3em"
         id="tspan22"
         style="stroke-width:1.94411">​</tspan><tspan
         id="tspan23"
         style="stroke-width:1.94411">systems</tspan></text>
    <text
       style="font-size:44px;font-family:Arial;text-anchor:middle;white-space:pre;stroke-width:1.94411"
       transform="translate(177.75172,-62.993561)"
       id="text28"><tspan
         x="2472.54"
         y="1413.77"
         id="tspan24"
         style="stroke-width:1.94411">Digital </tspan><tspan
         x="2472.54"
         dy="1.3em"
         id="tspan25"
         style="stroke-width:1.94411">​</tspan><tspan
         id="tspan26"
         style="stroke-width:1.94411">buildings </tspan><tspan
         x="2472.54"
         dy="1.3em"
         id="tspan27"
         style="stroke-width:1.94411">​</tspan><tspan
         id="tspan28"
         style="stroke-width:1.94411">twins</tspan></text>
    <text
       style="font-size:44px;font-family:Arial;text-anchor:middle;white-space:pre;stroke-width:1.94411"
       transform="translate(8.606006,-21.515013)"
       id="text31"><tspan
         x="2477.1599"
         y="1865.58"
         id="tspan29"
         style="stroke-width:1.94411">Building </tspan><tspan
         x="2477.1599"
         dy="1.3em"
         id="tspan30"
         style="stroke-width:1.94411">​</tspan><tspan
         id="tspan31"
         style="stroke-width:1.94411">apps</tspan></text>
    <text
       style="font-size:44px;font-family:Arial;text-anchor:middle;white-space:pre;stroke-width:1.94411"
       transform="translate(10.757506,-27.969517)"
       id="text34"><tspan
         x="2037.29"
         y="2014.04"
         id="tspan32"
         style="stroke-width:1.94411">Web </tspan><tspan
         x="2037.29"
         dy="1.3em"
         id="tspan33"
         style="stroke-width:1.94411">​</tspan><tspan
         id="tspan34"
         style="stroke-width:1.94411">development</tspan></text>
    <text
       style="font-size:44px;font-family:Arial;text-anchor:middle;white-space:pre;stroke-width:1.94411"
       transform="translate(174.27161,-23.666515)"
       id="text37"><tspan
         x="1356.62"
         y="1790.28"
         id="tspan35"
         style="stroke-width:1.94411">Customized </tspan><tspan
         x="1356.62"
         dy="1.3em"
         id="tspan36"
         style="stroke-width:1.94411">​</tspan><tspan
         id="tspan37"
         style="stroke-width:1.94411">software</tspan></text>
    <text
       style="font-size:44px;font-family:Arial;text-anchor:middle;white-space:pre;stroke-width:1.94411"
       transform="translate(173.92879,-6.94933)"
       id="text40"><tspan
         x="1239.5699"
         y="1366.4399"
         id="tspan38"
         style="stroke-width:1.94411">Digital </tspan><tspan
         x="1239.5699"
         dy="1.3em"
         id="tspan39"
         style="stroke-width:1.94411">​</tspan><tspan
         id="tspan40"
         style="stroke-width:1.94411">services</tspan></text>
    <text
       style="font-size:44px;font-family:Arial;text-anchor:middle;white-space:pre;stroke-width:1.94411"
       transform="translate(144.15059,-25.818016)"
       id="text43"><tspan
         x="1444.91"
         y="972.71198"
         id="tspan41"
         style="stroke-width:1.94411">Operator </tspan><tspan
         x="1444.91"
         dy="1.3em"
         id="tspan42"
         style="stroke-width:1.94411">​</tspan><tspan
         id="tspan43"
         style="stroke-width:1.94411">software</tspan></text>
    <text
       style="font-size:44px;font-family:Arial;white-space:pre;stroke-width:1.94411"
       x="1366.72"
       y="578.27002"
       transform="translate(216.94295,-8.247998)"
       id="text44">Development of customized and <tspan
   x="1366.72"
   dy="1.3em"
   id="tspan44"
   style="stroke-width:1.94411">​</tspan>individual artificial intelligence for buildings</text>
    <text
       style="font-size:44px;font-family:Arial;white-space:pre;stroke-width:1.94411"
       x="2527.6799"
       y="797.72302"
       transform="translate(120.48408,98.969063)"
       id="text46">Development of systems <tspan
   x="2527.6799"
   dy="1.3em"
   id="tspan45"
   style="stroke-width:1.94411">​</tspan>for monitoring, control and <tspan
   x="2527.6799"
   dy="1.3em"
   id="tspan46"
   style="stroke-width:1.94411">​</tspan>analysis in buildings.</text>
    <text
       style="font-size:44px;font-family:Arial;white-space:pre;stroke-width:1.94411"
       x="2094.6299"
       y="1260.3"
       transform="translate(739.39972,22.947041)"
       id="text50"><tspan
         sodipodi:role="line"
         id="tspan70"
         x="2094.6299"
         y="1260.3">Creation of comprehensive, </tspan><tspan
         sodipodi:role="line"
         x="2094.6299"
         y="1315.3"
         id="tspan72">digitized models that provide </tspan><tspan
         sodipodi:role="line"
         x="2094.6299"
         y="1370.3"
         id="tspan73">real-time information on the condition, </tspan><tspan
         sodipodi:role="line"
         x="2094.6299"
         y="1425.3"
         id="tspan75">performance and other relevant </tspan><tspan
         sodipodi:role="line"
         x="2094.6299"
         y="1480.3"
         id="tspan76">data of a building or its parts</tspan></text>
    <text
       style="font-size:44px;font-family:Arial;white-space:pre;stroke-width:1.94411"
       x="2699.99"
       y="1772.3571"
       transform="translate(-24.383913,-19.365589)"
       id="text55"><tspan
         sodipodi:role="line"
         id="tspan64"
         x="2699.99"
         y="1772.3571">Programming of apps for various use cases </tspan><tspan
         sodipodi:role="line"
         x="2699.99"
         y="1827.3571"
         id="tspan69">inside and outside the building, </tspan><tspan
         sodipodi:role="line"
         x="2699.99"
         y="1882.3571"
         id="tspan65">for example energy monitoring apps, </tspan><tspan
         sodipodi:role="line"
         x="2699.99"
         y="1937.3571"
         id="tspan66">building management apps, </tspan><tspan
         sodipodi:role="line"
         x="2699.99"
         y="1992.3571"
         id="tspan67">security and access control apps or </tspan><tspan
         sodipodi:role="line"
         x="2699.99"
         y="2047.3571"
         id="tspan68">room reservation apps.</tspan></text>
    <text
       style="font-size:44px;font-family:Arial;white-space:pre;stroke-width:1.94411"
       x="1516.15"
       y="2224.1699"
       transform="translate(189.33212,16.495306)"
       id="text56">Development of websites and <tspan
   x="1516.15"
   dy="1.3em"
   id="tspan56"
   style="stroke-width:1.94411">​</tspan>social media content for buildings.</text>
    <text
       style="font-size:44px;font-family:Arial;white-space:pre;stroke-width:1.94411"
       x="92.069"
       y="1507.2"
       transform="translate(888.2111,260.84941)"
       id="text57">Programming <tspan
   x="92.069"
   dy="1.3em"
   id="tspan57"
   style="stroke-width:1.94411">​</tspan>individual software.</text>
    <text
       style="font-size:44px;font-family:Arial;white-space:pre;stroke-width:1.94411"
       x="-648.03101"
       y="1102.72"
       transform="translate(1365.5655,194.01296)"
       id="text60">Modeling and programming <tspan
   x="-648.03101"
   dy="1.3em"
   id="tspan58"
   style="stroke-width:1.94411">​</tspan>implementation of digital <tspan
   x="-648.03101"
   dy="1.3em"
   id="tspan59"
   style="stroke-width:1.94411">​</tspan>services to enhance the <tspan
   x="-648.03101"
   dy="1.3em"
   id="tspan60"
   style="stroke-width:1.94411">​</tspan>user experience in buildings.</text>
    <text
       style="font-size:44px;font-family:Arial;white-space:pre;stroke-width:1.94411"
       x="-366.73901"
       y="545.479"
       transform="translate(1165.7541,353.00665)"
       id="text62">Programming of operator <tspan
   x="-366.73901"
   id="tspan61"
   style="stroke-width:1.94411"
   dy="1.3em">​</tspan>software, tailored to the needs <tspan
   x="-366.73901"
   id="tspan62"
   style="stroke-width:1.94411"
   dy="1.3em">​</tspan>of the operator of a building.</text>
  </g>
</svg>
