<?xml version="1.0" encoding="utf-8"?>
<svg width="4058" height="2064" xmlns="http://www.w3.org/2000/svg" overflow="hidden">
  <g transform="translate(-19 -384)">
    <path d="M19.5001 448.335C19.5001 414.184 47.1846 386.5 81.3351 386.5L893.665 386.5C927.816 386.5 955.5 414.184 955.5 448.335L955.5 695.665C955.5 729.816 927.816 757.5 893.665 757.5L81.3351 757.5C47.1846 757.5 19.5001 729.816 19.5001 695.665Z" stroke="#017AC0" stroke-width="1.14583" stroke-miterlimit="8" fill="none" fill-rule="evenodd"/>
    <path d="M500.5 1054.17C500.5 1044.96 507.962 1037.5 517.167 1037.5L1301.83 1037.5C1311.04 1037.5 1318.5 1044.96 1318.5 1054.17L1318.5 1120.83C1318.5 1130.04 1311.04 1137.5 1301.83 1137.5L517.167 1137.5C507.962 1137.5 500.5 1130.04 500.5 1120.83Z" stroke="#017AC0" stroke-width="1.14583" stroke-miterlimit="8" fill="none" fill-rule="evenodd"/>
    <path d="M636.5 1182.17C636.5 1172.96 643.962 1165.5 653.167 1165.5L1437.83 1165.5C1447.04 1165.5 1454.5 1172.96 1454.5 1182.17L1454.5 1248.83C1454.5 1258.04 1447.04 1265.5 1437.83 1265.5L653.167 1265.5C643.962 1265.5 636.5 1258.04 636.5 1248.83Z" stroke="#017AC0" stroke-width="1.14583" stroke-miterlimit="8" fill="none" fill-rule="evenodd"/>
    <path d="M227.5 812.333C227.5 803.036 235.037 795.5 244.333 795.5L1028.67 795.5C1037.96 795.5 1045.5 803.036 1045.5 812.333L1045.5 879.667C1045.5 888.963 1037.96 896.5 1028.67 896.5L244.333 896.5C235.037 896.5 227.5 888.963 227.5 879.667Z" stroke="#017AC0" stroke-width="1.14583" stroke-miterlimit="8" fill="none" fill-rule="evenodd"/>
    <path d="M344.5 932.333C344.5 923.036 352.036 915.5 361.333 915.5L1145.67 915.5C1154.96 915.5 1162.5 923.036 1162.5 932.333L1162.5 999.667C1162.5 1008.96 1154.96 1016.5 1145.67 1016.5L361.333 1016.5C352.036 1016.5 344.5 1008.96 344.5 999.667Z" stroke="#017AC0" stroke-width="1.14583" stroke-miterlimit="8" fill="none" fill-rule="evenodd"/>
    <path d="M773.5 1310.17C773.5 1300.96 780.962 1293.5 790.167 1293.5L1574.83 1293.5C1584.04 1293.5 1591.5 1300.96 1591.5 1310.17L1591.5 1376.83C1591.5 1386.04 1584.04 1393.5 1574.83 1393.5L790.167 1393.5C780.962 1393.5 773.5 1386.04 773.5 1376.83Z" stroke="#017AC0" stroke-width="1.14583" stroke-miterlimit="8" fill="none" fill-rule="evenodd"/>
    <path d="M1452.5 448.334C1452.5 414.184 1480.18 386.5 1514.33 386.5L2325.67 386.5C2359.82 386.5 2387.5 414.184 2387.5 448.334L2387.5 695.666C2387.5 729.816 2359.82 757.5 2325.67 757.5L1514.33 757.5C1480.18 757.5 1452.5 729.816 1452.5 695.666Z" stroke="#017AC0" stroke-width="1.14583" stroke-miterlimit="8" fill="none" fill-rule="evenodd"/>
    <path d="M1933.5 1054.17C1933.5 1044.96 1940.96 1037.5 1950.17 1037.5L2734.83 1037.5C2744.04 1037.5 2751.5 1044.96 2751.5 1054.17L2751.5 1120.83C2751.5 1130.04 2744.04 1137.5 2734.83 1137.5L1950.17 1137.5C1940.96 1137.5 1933.5 1130.04 1933.5 1120.83Z" stroke="#017AC0" stroke-width="1.14583" stroke-miterlimit="8" fill="none" fill-rule="evenodd"/>
    <path d="M1660.5 812.333C1660.5 803.036 1668.04 795.5 1677.33 795.5L2461.67 795.5C2470.96 795.5 2478.5 803.036 2478.5 812.333L2478.5 879.667C2478.5 888.963 2470.96 896.5 2461.67 896.5L1677.33 896.5C1668.04 896.5 1660.5 888.963 1660.5 879.667Z" stroke="#017AC0" stroke-width="1.14583" stroke-miterlimit="8" fill="none" fill-rule="evenodd"/>
    <path d="M1777.5 932.333C1777.5 923.036 1785.04 915.5 1794.33 915.5L2578.67 915.5C2587.96 915.5 2595.5 923.036 2595.5 932.333L2595.5 999.667C2595.5 1008.96 2587.96 1016.5 2578.67 1016.5L1794.33 1016.5C1785.04 1016.5 1777.5 1008.96 1777.5 999.667Z" stroke="#017AC0" stroke-width="1.14583" stroke-miterlimit="8" fill="none" fill-rule="evenodd"/>
    <path d="M112.5 756.927 163.885 756.927 163.885 846.054 163.312 845.481 204.957 845.481 204.957 846.627 162.739 846.627 162.739 757.5 163.312 758.073 112.5 758.073ZM200.374 832.304 227.874 846.054 200.374 859.804Z" fill="#017AC0"/>
    <path d="M0-0.572917 209.161-0.572917 209.161 158.993 208.015 158.993 208.015 0 208.588 0.572917 0 0.572917ZM222.338 154.41 208.588 181.91 194.838 154.41Z" fill="#017AC0" transform="matrix(1.83697e-16 1 1 -1.83697e-16 162.5 757.5)"/>
    <path d="M162.5 758.073 161.835 758.073 162.408 757.5 162.408 1087.56 161.835 1086.98 477.416 1086.98 477.416 1088.13 161.262 1088.13 161.262 756.927 162.5 756.927ZM472.833 1073.81 500.333 1087.56 472.833 1101.31Z" fill="#017AC0"/>
    <path d="M162.5 758.073 161.746 758.073 162.319 757.5 162.319 1215.56 161.746 1214.99 613.598 1214.99 613.598 1216.14 161.173 1216.14 161.173 756.927 162.5 756.927ZM609.015 1201.81 636.515 1215.56 609.015 1229.31Z" fill="#017AC0"/>
    <path d="M2846.5 446.334C2846.5 412.184 2874.18 384.5 2908.33 384.5L3719.67 384.5C3753.82 384.5 3781.5 412.184 3781.5 446.334L3781.5 693.666C3781.5 727.816 3753.82 755.5 3719.67 755.5L2908.33 755.5C2874.18 755.5 2846.5 727.816 2846.5 693.666Z" stroke="#017AC0" stroke-width="1.14583" stroke-miterlimit="8" fill="none" fill-rule="evenodd"/>
    <path d="M3050.5 812.333C3050.5 803.036 3058.04 795.5 3067.33 795.5L3852.67 795.5C3861.96 795.5 3869.5 803.036 3869.5 812.333L3869.5 879.667C3869.5 888.963 3861.96 896.5 3852.67 896.5L3067.33 896.5C3058.04 896.5 3050.5 888.963 3050.5 879.667Z" stroke="#017AC0" stroke-width="1.14583" stroke-miterlimit="8" fill="none" fill-rule="evenodd"/>
    <path d="M3167.5 932.333C3167.5 923.036 3175.04 915.5 3184.33 915.5L3969.67 915.5C3978.96 915.5 3986.5 923.036 3986.5 932.333L3986.5 999.667C3986.5 1008.96 3978.96 1016.5 3969.67 1016.5L3184.33 1016.5C3175.04 1016.5 3167.5 1008.96 3167.5 999.667Z" stroke="#017AC0" stroke-width="1.14583" stroke-miterlimit="8" fill="none" fill-rule="evenodd"/>
    <path d="M1398.5 1539.5C1398.5 1509.68 1422.68 1485.5 1452.5 1485.5L2279.5 1485.5C2309.32 1485.5 2333.5 1509.68 2333.5 1539.5L2333.5 1755.5C2333.5 1785.32 2309.32 1809.5 2279.5 1809.5L1452.5 1809.5C1422.68 1809.5 1398.5 1785.32 1398.5 1755.5Z" stroke="#017AC0" stroke-width="1.14583" stroke-miterlimit="8" fill="none" fill-rule="evenodd"/>
    <path d="M2843.5 1541C2843.5 1512.56 2866.56 1489.5 2895 1489.5L3727 1489.5C3755.44 1489.5 3778.5 1512.56 3778.5 1541L3778.5 1747C3778.5 1775.44 3755.44 1798.5 3727 1798.5L2895 1798.5C2866.56 1798.5 2843.5 1775.44 2843.5 1747Z" stroke="#017AC0" stroke-width="1.14583" stroke-miterlimit="8" fill="none" fill-rule="evenodd"/>
    <path d="M160.5 756.927 161.693 756.927 161.693 1343.57 161.12 1343 750.698 1343 750.698 1344.14 160.547 1344.14 160.547 757.5 161.12 758.073 160.5 758.073ZM746.115 1329.82 773.615 1343.57 746.115 1357.32Z" fill="#017AC0"/>
    <path d="M1551.5 760.073 1547.31 760.073 1547.88 759.5 1547.88 848.054 1547.31 847.481 1637.07 847.481 1637.07 848.627 1546.73 848.627 1546.73 758.927 1551.5 758.927ZM1632.49 834.304 1659.99 848.054 1632.49 861.804Z" fill="#017AC0"/>
    <path d="M1551.5 760.073 1547.34 760.073 1547.91 759.5 1547.91 965.744 1547.34 965.171 1754.01 965.171 1754.01 966.317 1546.77 966.317 1546.77 758.927 1551.5 758.927ZM1749.43 951.994 1776.93 965.744 1749.43 979.494Z" fill="#017AC0"/>
    <path d="M1551.5 756.073 1547.1 756.073 1547.67 755.5 1547.67 1087.71 1547.1 1087.13 1909.94 1087.13 1909.94 1088.28 1546.53 1088.28 1546.53 754.927 1551.5 754.927ZM1905.35 1073.96 1932.85 1087.71 1905.35 1101.46Z" fill="#017AC0"/>
    <path d="M2928.5 756.927 2990.06 756.927 2990.06 843.71 2989.49 843.138 3027.57 843.138 3027.57 844.283 2988.92 844.283 2988.92 757.5 2989.49 758.073 2928.5 758.073ZM3022.98 829.96 3050.48 843.71 3022.98 857.46Z" fill="#017AC0"/>
    <path d="M0-0.572917 205.765-0.572917 205.765 155.017 204.619 155.017 204.619 0 205.192 0.572917 0 0.572917ZM218.942 150.433 205.192 177.933 191.442 150.433Z" fill="#017AC0" transform="matrix(1.83697e-16 1 1 -1.83697e-16 2989.5 760.5)"/>
    <path d="M205.5 1855.17C205.5 1845.96 212.962 1838.5 222.167 1838.5L1006.83 1838.5C1016.04 1838.5 1023.5 1845.96 1023.5 1855.17L1023.5 1921.83C1023.5 1931.04 1016.04 1938.5 1006.83 1938.5L222.167 1938.5C212.962 1938.5 205.5 1931.04 205.5 1921.83Z" stroke="#017AC0" stroke-width="1.14583" stroke-miterlimit="8" fill="none" fill-rule="evenodd"/>
    <path d="M322.5 1975.17C322.5 1965.96 329.962 1958.5 339.167 1958.5L1123.83 1958.5C1133.04 1958.5 1140.5 1965.96 1140.5 1975.17L1140.5 2041.83C1140.5 2051.04 1133.04 2058.5 1123.83 2058.5L339.167 2058.5C329.962 2058.5 322.5 2051.04 322.5 2041.83Z" stroke="#017AC0" stroke-width="1.14583" stroke-miterlimit="8" fill="none" fill-rule="evenodd"/>
    <path d="M83.5 1798.93 145.064 1798.93 145.064 1885.71 144.491 1885.14 182.565 1885.14 182.565 1886.28 143.918 1886.28 143.918 1799.5 144.491 1800.07 83.5 1800.07ZM177.982 1871.96 205.482 1885.71 177.982 1899.46Z" fill="#017AC0"/>
    <path d="M0-0.572917 205.765-0.572917 205.765 155.017 204.619 155.017 204.619 0 205.192 0.572917 0 0.572917ZM218.942 150.433 205.192 177.933 191.442 150.433Z" fill="#017AC0" transform="matrix(1.83697e-16 1 1 -1.83697e-16 144.5 1803.5)"/>
    <path d="M1849.5 2107.33C1849.5 2098.04 1857.04 2090.5 1866.33 2090.5L2650.67 2090.5C2659.96 2090.5 2667.5 2098.04 2667.5 2107.33L2667.5 2174.67C2667.5 2183.96 2659.96 2191.5 2650.67 2191.5L1866.33 2191.5C1857.04 2191.5 1849.5 2183.96 1849.5 2174.67Z" stroke="#017AC0" stroke-width="1.14583" stroke-miterlimit="8" fill="none" fill-rule="evenodd"/>
    <path d="M1985.5 2235.33C1985.5 2226.04 1993.04 2218.5 2002.33 2218.5L2787.67 2218.5C2796.96 2218.5 2804.5 2226.04 2804.5 2235.33L2804.5 2302.67C2804.5 2311.96 2796.96 2319.5 2787.67 2319.5L2002.33 2319.5C1993.04 2319.5 1985.5 2311.96 1985.5 2302.67Z" stroke="#017AC0" stroke-width="1.14583" stroke-miterlimit="8" fill="none" fill-rule="evenodd"/>
    <path d="M1576.5 1866.17C1576.5 1856.96 1583.96 1849.5 1593.17 1849.5L2377.83 1849.5C2387.04 1849.5 2394.5 1856.96 2394.5 1866.17L2394.5 1932.83C2394.5 1942.04 2387.04 1949.5 2377.83 1949.5L1593.17 1949.5C1583.96 1949.5 1576.5 1942.04 1576.5 1932.83Z" stroke="#017AC0" stroke-width="1.14583" stroke-miterlimit="8" fill="none" fill-rule="evenodd"/>
    <path d="M1693.5 1986.17C1693.5 1976.96 1700.96 1969.5 1710.17 1969.5L2494.83 1969.5C2504.04 1969.5 2511.5 1976.96 2511.5 1986.17L2511.5 2052.83C2511.5 2062.04 2504.04 2069.5 2494.83 2069.5L1710.17 2069.5C1700.96 2069.5 1693.5 2062.04 1693.5 2052.83Z" stroke="#017AC0" stroke-width="1.14583" stroke-miterlimit="8" fill="none" fill-rule="evenodd"/>
    <path d="M2122.5 2363.33C2122.5 2354.04 2130.04 2346.5 2139.33 2346.5L2923.67 2346.5C2932.96 2346.5 2940.5 2354.04 2940.5 2363.33L2940.5 2430.67C2940.5 2439.96 2932.96 2447.5 2923.67 2447.5L2139.33 2447.5C2130.04 2447.5 2122.5 2439.96 2122.5 2430.67Z" stroke="#017AC0" stroke-width="1.14583" stroke-miterlimit="8" fill="none" fill-rule="evenodd"/>
    <path d="M1459.5 1809.93 1510.88 1809.93 1510.88 1899.05 1510.31 1898.48 1551.96 1898.48 1551.96 1899.63 1509.74 1899.63 1509.74 1810.5 1510.31 1811.07 1459.5 1811.07ZM1547.37 1885.3 1574.87 1899.05 1547.37 1912.8Z" fill="#017AC0"/>
    <path d="M0-0.572917 209.161-0.572917 209.161 158.993 208.015 158.993 208.015 0 208.588 0.572917 0 0.572917ZM222.338 154.41 208.588 181.91 194.838 154.41Z" fill="#017AC0" transform="matrix(1.83697e-16 1 1 -1.83697e-16 1511.5 1810.5)"/>
    <path d="M1511.5 1811.07 1510.83 1811.07 1511.41 1810.5 1511.41 2140.56 1510.83 2139.98 1826.42 2139.98 1826.42 2141.13 1510.26 2141.13 1510.26 1809.93 1511.5 1809.93ZM1821.83 2126.81 1849.33 2140.56 1821.83 2154.31Z" fill="#017AC0"/>
    <path d="M1511.5 1811.07 1510.75 1811.07 1511.32 1810.5 1511.32 2268.56 1510.75 2267.99 1962.6 2267.99 1962.6 2269.14 1510.17 2269.14 1510.17 1809.93 1511.5 1809.93ZM1958.01 2254.81 1985.51 2268.56 1958.01 2282.31Z" fill="#017AC0"/>
    <path d="M1509.5 1809.93 1510.69 1809.93 1510.69 2396.57 1510.12 2396 2099.7 2396 2099.7 2397.14 1509.55 2397.14 1509.55 1810.5 1510.12 1811.07 1509.5 1811.07ZM2095.11 2382.82 2122.61 2396.57 2095.11 2410.32Z" fill="#017AC0"/>
    <path d="M3037.5 1852.33C3037.5 1843.04 3045.04 1835.5 3054.33 1835.5L3838.67 1835.5C3847.96 1835.5 3855.5 1843.04 3855.5 1852.33L3855.5 1919.67C3855.5 1928.96 3847.96 1936.5 3838.67 1936.5L3054.33 1936.5C3045.04 1936.5 3037.5 1928.96 3037.5 1919.67Z" stroke="#017AC0" stroke-width="1.14583" stroke-miterlimit="8" fill="none" fill-rule="evenodd"/>
    <path d="M3153.5 1972.33C3153.5 1963.04 3161.04 1955.5 3170.33 1955.5L3955.67 1955.5C3964.96 1955.5 3972.5 1963.04 3972.5 1972.33L3972.5 2039.67C3972.5 2048.96 3964.96 2056.5 3955.67 2056.5L3170.33 2056.5C3161.04 2056.5 3153.5 2048.96 3153.5 2039.67Z" stroke="#017AC0" stroke-width="1.14583" stroke-miterlimit="8" fill="none" fill-rule="evenodd"/>
    <path d="M2915.5 1796.93 2977.06 1796.93 2977.06 1883.71 2976.49 1883.14 3014.57 1883.14 3014.57 1884.28 2975.92 1884.28 2975.92 1797.5 2976.49 1798.07 2915.5 1798.07ZM3009.98 1869.96 3037.48 1883.71 3009.98 1897.46Z" fill="#017AC0"/>
    <path d="M0-0.572917 205.765-0.572917 205.765 155.017 204.619 155.017 204.619 0 205.192 0.572917 0 0.572917ZM218.942 150.433 205.192 177.933 191.442 150.433Z" fill="#017AC0" transform="matrix(1.83697e-16 1 1 -1.83697e-16 2976.5 1800.5)"/>
    <path d="M3258.5 2101.17C3258.5 2091.96 3265.96 2084.5 3275.17 2084.5L4059.83 2084.5C4069.04 2084.5 4076.5 2091.96 4076.5 2101.17L4076.5 2167.83C4076.5 2177.04 4069.04 2184.5 4059.83 2184.5L3275.17 2184.5C3265.96 2184.5 3258.5 2177.04 3258.5 2167.83Z" stroke="#017AC0" stroke-width="1.14583" stroke-miterlimit="8" fill="none" fill-rule="evenodd"/>
    <path d="M0-0.572917 339.469-0.572917 339.469 259.052 338.323 259.052 338.323 0 338.896 0.572917 0 0.572917ZM352.646 254.468 338.896 281.968 325.146 254.468Z" fill="#017AC0" transform="matrix(1.83697e-16 1 1 -1.83697e-16 2976.5 1795.5)"/>
    <path d="M20.5001 1539.5C20.5001 1510.78 43.7818 1487.5 72.5012 1487.5L904.499 1487.5C933.219 1487.5 956.5 1510.78 956.5 1539.5L956.5 1747.5C956.5 1776.22 933.219 1799.5 904.499 1799.5L72.5012 1799.5C43.7818 1799.5 20.5001 1776.22 20.5001 1747.5Z" stroke="#017AC0" stroke-width="1.14583" stroke-miterlimit="8" fill="none" fill-rule="evenodd"/>
    <text style="font-family: Arial; font-size: 44px; text-anchor: middle; white-space: pre;" transform="matrix(1, 0, 0, 1, -817.278748, 23.058022)"><tspan x="1295.93" y="490.421">Planning services for object planning </tspan><tspan x="1295.93" dy="1em">​</tspan><tspan>for buildings, outdoor facilities and </tspan><tspan x="1295.93" dy="1em">​</tspan><tspan>spatial extensions according </tspan><tspan x="1295.93" dy="1em">​</tspan><tspan>to HOAI (LPH1 - LPH9)</tspan></text>
  </g>
  <text style="font-family: Arial; font-size: 44px; text-anchor: middle; white-space: pre;" x="605.073" y="473.409">Concept development</text>
  <text style="font-family: Arial; font-size: 44px; text-anchor: middle; white-space: pre;" transform="matrix(1, 0, 0, 1, -156.28215, -15.372014)"><tspan x="904.456" y="586.534">Close coordination with structural </tspan><tspan x="904.456" dy="1em">​</tspan><tspan>and TGA specialist planning.</tspan></text>
  <text style="font-family: Arial; font-size: 44px; text-anchor: middle; white-space: pre;" x="894.022" y="718.465">Obtaining planning permission</text>
  <text style="font-family: Arial; font-size: 44px; text-anchor: middle; white-space: pre;" x="1015.63" y="843.556">Transfer to implementation planning</text>
  <text style="font-family: Arial; font-size: 44px; text-anchor: middle; white-space: pre;" x="1171.59" y="971.3">Object monitoring</text>
  <text style="font-family: Arial; font-size: 44px; text-anchor: middle; white-space: pre;" x="2309.408" y="460.231" transform="matrix(1, 0, 0, 1, -253.638229, -7.686007)">Close coordination with project planning <tspan x="2309.407958984375" dy="1em">​</tspan>and TGA specialist planning</text>
  <text style="font-family: Arial; font-size: 44px; text-anchor: middle; white-space: pre;" x="2148.808" y="593.329">Erstellung der Abnahmestatistiken</text>
  <text style="font-family: Arial; font-size: 44px; text-anchor: middle; white-space: pre;" x="2284.912" y="713.112">Object monitoring</text>
  <text style="font-family: Arial; font-size: 44px; text-anchor: middle; white-space: pre;" transform="matrix(1, 0, 0, 1, -56.364052, -38.430035)"><tspan x="3344.31" y="188.239">Planning services for </tspan><tspan x="3344.31" dy="1em">​</tspan><tspan>technical building services in </tspan><tspan x="3344.31" dy="1em">​</tspan><tspan>accordance with HOAI (LPH1 - LPH9)</tspan></text>
  <text style="font-family: Arial; font-size: 44px; text-anchor: middle; white-space: pre;" x="3428.14" y="475.925">Planning of all trades</text>
  <text style="font-family: Arial; font-size: 44px; text-anchor: middle; white-space: pre;" x="3541.17" y="595.661">Object monitoring</text>
  <text style="font-family: Arial; font-size: 44px; text-anchor: middle; white-space: pre;" x="472.364" y="1276.94">Preparation of GEG - proof</text>
  <text style="font-family: Arial; font-size: 44px; text-anchor: middle; white-space: pre;" x="604.036" y="1521.12">Planning of all trades</text>
  <text style="font-family: Arial; font-size: 44px; text-anchor: middle; white-space: pre;" transform="matrix(1, 0, 0, 1, -212.646194, -23.058022)"><tspan x="926.351" y="1639.03">Coordination with necessary specialist </tspan><tspan x="926.351" dy="1em">​</tspan><tspan>disciplines (e.g. TGA)</tspan></text>
  <text style="font-family: Arial; font-size: 44px; text-anchor: middle; white-space: pre;" transform="matrix(1, 0, 0, 1, 20.496019, 5.124005)"><tspan x="1840.16" y="1257.9">Support and monitoring of </tspan><tspan x="1840.16" dy="1em">​</tspan><tspan>certification processes</tspan></text>
  <text style="font-family: Arial; font-size: 44px; text-anchor: middle; white-space: pre;" x="1977.49" y="1529.63">DGNB certification</text>
  <text style="font-family: Arial; font-size: 44px; text-anchor: middle; white-space: pre;" x="2084.3" y="1646.94">LEED certification</text>
  <text style="font-family: Arial; font-size: 44px; text-anchor: middle; white-space: pre;" x="2229.2" y="1769.34">BREEM certification</text>
  <text style="font-family: Arial; font-size: 44px; text-anchor: middle; white-space: pre;" x="2358.35" y="1897.13">WiredScored certification</text>
  <text style="font-family: Arial; font-size: 44px; text-anchor: middle; white-space: pre;" x="2482.04" y="2023.38">ESG certification</text>
  <text style="font-family: Arial; font-size: 44px; text-anchor: middle; white-space: pre;" x="3297.7" y="1270.94">Project management according to AHO</text>
  <text style="font-family: Arial; font-size: 44px; text-anchor: middle; white-space: pre;" transform="matrix(1, 0, 0, 1, -302.316284, -17.934017)"><tspan x="3727.77" y="1513.85">Superordinate control of object planning </tspan><tspan x="3727.77" dy="1em">​</tspan><tspan>and its specialist planners</tspan></text>
  <text style="font-family: Arial; font-size: 44px; text-anchor: middle; white-space: pre;" transform="matrix(1, 0, 0, 1, -122.976112, -7.686007)"><tspan x="3662.56" y="1623.43">Neutral control instrument </tspan><tspan x="3662.56" dy="1em">​</tspan><tspan>for the building owner</tspan></text>
  <text style="font-family: Arial; font-size: 44px; text-anchor: middle; white-space: pre;" x="3632.61" y="1769.15">Monitoring deadlines, costs, quality</text>
  <text style="font-family: Arial; font-size: 44px; white-space: pre; text-anchor: middle;" x="1404.27" y="180.772" transform="matrix(1, 0, 0, 1, 494.466461, 0)">Planning services for structural design <tspan x="1404.27001953125" dy="1em">​</tspan>according to HOAI (LPH1 - LPH9)</text>
</svg>