<?xml version="1.0" encoding="utf-8"?>
<svg width="1300" height="629" xmlns="http://www.w3.org/2000/svg" overflow="hidden">
  <g transform="translate(5 -99)">
    <path d="M387.5 342.5 576.5 342.5 638.5 404.5 576.5 466.5 387.5 466.5Z" stroke="#ED7D31" stroke-width="0.666667" stroke-miterlimit="8" fill="none" fill-rule="evenodd"/>
    <text font-family="Arial,Arial_MSFontService,sans-serif" font-weight="400" font-size="16" transform="translate(454.501 401)" style="white-space: pre;">Commercial</text>
    <text font-family="Arial,Arial_MSFontService,sans-serif" font-weight="400" font-size="16" transform="translate(418.081 420)" style="white-space: pre;">Property Management</text>
    <path d="M591.5 342.5 841.5 342.5C841.321 363.385 841.143 384.271 840.964 405.156 841.143 425.604 841.321 446.052 841.5 466.5L591.5 466.5 657.98 404.5 591.5 342.5Z" stroke="#70AD47" stroke-width="0.666667" stroke-miterlimit="8" fill="none" fill-rule="evenodd"/>
    <text font-family="Arial,Arial_MSFontService,sans-serif" font-weight="400" font-size="16" transform="translate(695.919 401)" style="white-space: pre;">Technical</text>
    <text font-family="Arial,Arial_MSFontService,sans-serif" font-weight="400" font-size="16" transform="translate(663.846 420)" style="white-space: pre;">Property Management</text>
    <path d="M0 0 19.365 0.000104987" stroke="#017AC0" stroke-width="0.666667" stroke-linecap="square" stroke-miterlimit="8" stroke-dasharray="2 0.666667" fill="none" fill-rule="evenodd" transform="matrix(-1 0 0 1 657.865 404.5)"/>
    <path d="M176.5 180.834C176.5 168.499 186.499 158.5 198.834 158.5L339.166 158.5C351.501 158.5 361.5 168.499 361.5 180.834L361.5 270.166C361.5 282.501 351.501 292.5 339.166 292.5L198.834 292.5C186.499 292.5 176.5 282.501 176.5 270.166Z" stroke="#ED7D31" stroke-width="0.666667" stroke-linecap="square" stroke-miterlimit="8" stroke-dasharray="2 0.666667" fill="none" fill-rule="evenodd"/>
    <path d="M189.5 180C189.5 175.306 193.306 171.5 198 171.5L332 171.5C336.694 171.5 340.5 175.306 340.5 180L340.5 214C340.5 218.694 336.694 222.5 332 222.5L198 222.5C193.306 222.5 189.5 218.694 189.5 214Z" stroke="#A6A6A6" stroke-width="0.333333" stroke-miterlimit="8" fill="none" fill-rule="evenodd"/>
    <text font-family="Arial,Arial_MSFontService,sans-serif" font-weight="400" font-size="11" transform="translate(207.288 187)" style="white-space: pre;">Preparation, negotiation</text>
    <text font-family="Arial,Arial_MSFontService,sans-serif" font-weight="400" font-size="11" transform="translate(214.542 200)" style="white-space: pre;">and administration of</text>
    <text font-family="Arial,Arial_MSFontService,sans-serif" font-weight="400" font-size="11" transform="translate(219.622 213)" style="white-space: pre;">rental agreements.</text>
    <path d="M189.5 234.5C189.5 229.53 193.53 225.5 198.5 225.5L331.5 225.5C336.471 225.5 340.5 229.53 340.5 234.5L340.5 270.5C340.5 275.47 336.471 279.5 331.5 279.5L198.5 279.5C193.53 279.5 189.5 275.47 189.5 270.5Z" stroke="#A6A6A6" stroke-width="0.333333" stroke-miterlimit="8" fill="none" fill-rule="evenodd"/>
    <text font-family="Arial,Arial_MSFontService,sans-serif" font-weight="400" font-size="11" transform="translate(222.621 237)" style="white-space: pre;">Monitoring of rent</text>
    <text font-family="Arial,Arial_MSFontService,sans-serif" font-weight="400" font-size="11" transform="translate(230.621 250)" style="white-space: pre;">payments and</text>
    <text font-family="Arial,Arial_MSFontService,sans-serif" font-weight="400" font-size="11" transform="translate(211.288 263)" style="white-space: pre;">implementation of rent</text>
    <text font-family="Arial,Arial_MSFontService,sans-serif" font-weight="400" font-size="11" transform="translate(239.955 276)" style="white-space: pre;">increases.</text>
    <path d="M148.5 341C148.5 336.306 152.306 332.5 157 332.5L291 332.5C295.694 332.5 299.5 336.306 299.5 341L299.5 375C299.5 379.694 295.694 383.5 291 383.5L157 383.5C152.306 383.5 148.5 379.694 148.5 375Z" stroke="#A6A6A6" stroke-width="0.333333" stroke-miterlimit="8" fill="none" fill-rule="evenodd"/>
    <text font-family="Arial,Arial_MSFontService,sans-serif" font-weight="400" font-size="11" transform="translate(164.971 355)" style="white-space: pre;">Budgeting and control of</text>
    <text font-family="Arial,Arial_MSFontService,sans-serif" font-weight="400" font-size="11" transform="translate(185.385 368)" style="white-space: pre;">operating costs.</text>
    <path d="M148.5 395.834C148.5 391.231 152.231 387.5 156.834 387.5L291.166 387.5C295.769 387.5 299.5 391.231 299.5 395.834L299.5 429.166C299.5 433.769 295.769 437.5 291.166 437.5L156.834 437.5C152.231 437.5 148.5 433.769 148.5 429.166Z" stroke="#A6A6A6" stroke-width="0.333333" stroke-miterlimit="8" fill="none" fill-rule="evenodd"/>
    <text font-family="Arial,Arial_MSFontService,sans-serif" font-weight="400" font-size="11" transform="translate(169.388 403)" style="white-space: pre;">Monitoring of incoming</text>
    <text font-family="Arial,Arial_MSFontService,sans-serif" font-weight="400" font-size="11" transform="translate(171.388 416)" style="white-space: pre;">payments and invoice</text>
    <text font-family="Arial,Arial_MSFontService,sans-serif" font-weight="400" font-size="11" transform="translate(195.888 429)" style="white-space: pre;">processing.</text>
    <path d="M149.5 449.834C149.5 445.231 153.231 441.5 157.834 441.5L292.166 441.5C296.769 441.5 300.5 445.231 300.5 449.834L300.5 483.166C300.5 487.769 296.769 491.5 292.166 491.5L157.834 491.5C153.231 491.5 149.5 487.769 149.5 483.166Z" stroke="#A6A6A6" stroke-width="0.333333" stroke-miterlimit="8" fill="none" fill-rule="evenodd"/>
    <text font-family="Arial,Arial_MSFontService,sans-serif" font-weight="400" font-size="11" transform="translate(169.585 463)" style="white-space: pre;">Preparation of financial</text>
    <text font-family="Arial,Arial_MSFontService,sans-serif" font-weight="400" font-size="11" transform="translate(179.838 476)" style="white-space: pre;">reports for owners.</text>
    <path d="M182.5 552.834C182.5 548.231 186.231 544.5 190.834 544.5L325.166 544.5C329.769 544.5 333.5 548.231 333.5 552.834L333.5 586.167C333.5 590.769 329.769 594.5 325.166 594.5L190.834 594.5C186.231 594.5 182.5 590.769 182.5 586.167Z" stroke="#A6A6A6" stroke-width="0.333333" stroke-miterlimit="8" fill="none" fill-rule="evenodd"/>
    <text font-family="Arial,Arial_MSFontService,sans-serif" font-weight="400" font-size="11" transform="translate(214.658 566)" style="white-space: pre;">Contact for tenant</text>
    <text font-family="Arial,Arial_MSFontService,sans-serif" font-weight="400" font-size="11" transform="translate(234.158 579)" style="white-space: pre;">concerns.</text>
    <path d="M182.5 608.333C182.5 603.455 186.455 599.5 191.333 599.5L324.667 599.5C329.545 599.5 333.5 603.455 333.5 608.333L333.5 643.667C333.5 648.545 329.545 652.5 324.667 652.5L191.333 652.5C186.455 652.5 182.5 648.545 182.5 643.667Z" stroke="#A6A6A6" stroke-width="0.333333" stroke-miterlimit="8" fill="none" fill-rule="evenodd"/>
    <text font-family="Arial,Arial_MSFontService,sans-serif" font-weight="400" font-size="11" transform="translate(204.44 610)" style="white-space: pre;">Organization of tenant</text>
    <text font-family="Arial,Arial_MSFontService,sans-serif" font-weight="400" font-size="11" transform="translate(225.107 623)" style="white-space: pre;">meetings and</text>
    <text font-family="Arial,Arial_MSFontService,sans-serif" font-weight="400" font-size="11" transform="translate(215.36 636)" style="white-space: pre;">communication of</text>
    <text font-family="Arial,Arial_MSFontService,sans-serif" font-weight="400" font-size="11" transform="translate(229.36 649)" style="white-space: pre;">information.</text>
    <path d="M435.5 560C435.5 555.306 439.306 551.5 444 551.5L578 551.5C582.694 551.5 586.5 555.306 586.5 560L586.5 594C586.5 598.694 582.694 602.5 578 602.5L444 602.5C439.306 602.5 435.5 598.694 435.5 594Z" stroke="#A6A6A6" stroke-width="0.333333" stroke-miterlimit="8" fill="none" fill-rule="evenodd"/>
    <text font-family="Arial,Arial_MSFontService,sans-serif" font-weight="400" font-size="11" transform="translate(446.798 567)" style="white-space: pre;">Conclusion and monitoring</text>
    <text font-family="Arial,Arial_MSFontService,sans-serif" font-weight="400" font-size="11" transform="translate(476.878 580)" style="white-space: pre;">of service and</text>
    <text font-family="Arial,Arial_MSFontService,sans-serif" font-weight="400" font-size="11" transform="translate(454.798 593)" style="white-space: pre;">maintenance contracts.</text>
    <path d="M435.5 615C435.5 610.306 439.306 606.5 444 606.5L578 606.5C582.694 606.5 586.5 610.306 586.5 615L586.5 649C586.5 653.694 582.694 657.5 578 657.5L444 657.5C439.306 657.5 435.5 653.694 435.5 649Z" stroke="#A6A6A6" stroke-width="0.333333" stroke-miterlimit="8" fill="none" fill-rule="evenodd"/>
    <text font-family="Arial,Arial_MSFontService,sans-serif" font-weight="400" font-size="11" transform="translate(455.467 629)" style="white-space: pre;">Coordination of service</text>
    <text font-family="Arial,Arial_MSFontService,sans-serif" font-weight="400" font-size="11" transform="translate(453.381 642)" style="white-space: pre;">providers and suppliers.</text>
    <path d="M423.5 150C423.5 145.306 427.306 141.5 432 141.5L566 141.5C570.694 141.5 574.5 145.306 574.5 150L574.5 184C574.5 188.694 570.694 192.5 566 192.5L432 192.5C427.306 192.5 423.5 188.694 423.5 184Z" stroke="#A6A6A6" stroke-width="0.333333" stroke-miterlimit="8" fill="none" fill-rule="evenodd"/>
    <text font-family="Arial,Arial_MSFontService,sans-serif" font-weight="400" font-size="11" transform="translate(450.643 157)" style="white-space: pre;">Monitoring local real</text>
    <text font-family="Arial,Arial_MSFontService,sans-serif" font-weight="400" font-size="11" transform="translate(452.897 170)" style="white-space: pre;">estate markets and</text>
    <text font-family="Arial,Arial_MSFontService,sans-serif" font-weight="400" font-size="11" transform="translate(451.23 183)" style="white-space: pre;">competitor analysis.</text>
    <path d="M423.5 210C423.5 205.306 427.306 201.5 432 201.5L566 201.5C570.694 201.5 574.5 205.306 574.5 210L574.5 244C574.5 248.694 570.694 252.5 566 252.5L432 252.5C427.306 252.5 423.5 248.694 423.5 244Z" stroke="#A6A6A6" stroke-width="0.333333" stroke-miterlimit="8" fill="none" fill-rule="evenodd"/>
    <text font-family="Arial,Arial_MSFontService,sans-serif" font-weight="400" font-size="11" transform="translate(446.143 217)" style="white-space: pre;">Recommendations for</text>
    <text font-family="Arial,Arial_MSFontService,sans-serif" font-weight="400" font-size="11" transform="translate(457.397 230)" style="white-space: pre;">rental pricing and</text>
    <text font-family="Arial,Arial_MSFontService,sans-serif" font-weight="400" font-size="11" transform="translate(448.81 243)" style="white-space: pre;">marketing strategies.</text>
    <path d="M407.5 151.834C407.5 139.499 417.499 129.5 429.834 129.5L572.166 129.5C584.501 129.5 594.5 139.499 594.5 151.834L594.5 241.166C594.5 253.501 584.501 263.5 572.166 263.5L429.834 263.5C417.499 263.5 407.5 253.501 407.5 241.166Z" stroke="#ED7D31" stroke-width="0.666667" stroke-linecap="square" stroke-miterlimit="8" stroke-dasharray="2 0.666667" fill="none" fill-rule="evenodd"/>
    <path d="M138.5 350.334C138.5 333.305 152.305 319.5 169.334 319.5L292.666 319.5C309.695 319.5 323.5 333.305 323.5 350.334L323.5 474.666C323.5 491.695 309.695 505.5 292.666 505.5L169.334 505.5C152.305 505.5 138.5 491.695 138.5 474.666Z" stroke="#ED7D31" stroke-width="0.666667" stroke-linecap="square" stroke-miterlimit="8" stroke-dasharray="2 0.666667" fill="none" fill-rule="evenodd"/>
    <path d="M168.5 551.834C168.5 539.499 178.499 529.5 190.834 529.5L335.166 529.5C347.501 529.5 357.5 539.499 357.5 551.834L357.5 641.166C357.5 653.501 347.501 663.5 335.166 663.5L190.834 663.5C178.499 663.5 168.5 653.501 168.5 641.166Z" stroke="#ED7D31" stroke-width="0.666667" stroke-linecap="square" stroke-miterlimit="8" stroke-dasharray="2 0.666667" fill="none" fill-rule="evenodd"/>
    <path d="M421.5 557.834C421.5 545.499 431.499 535.5 443.834 535.5L588.166 535.5C600.501 535.5 610.5 545.499 610.5 557.834L610.5 647.166C610.5 659.501 600.501 669.5 588.166 669.5L443.834 669.5C431.499 669.5 421.5 659.501 421.5 647.166Z" stroke="#ED7D31" stroke-width="0.666667" stroke-linecap="square" stroke-miterlimit="8" stroke-dasharray="2 0.666667" fill="none" fill-rule="evenodd"/>
    <path d="M654.5 151C654.5 146.306 658.306 142.5 663 142.5L798 142.5C802.694 142.5 806.5 146.306 806.5 151L806.5 185C806.5 189.694 802.694 193.5 798 193.5L663 193.5C658.306 193.5 654.5 189.694 654.5 185Z" stroke="#A6A6A6" stroke-width="0.333333" stroke-miterlimit="8" fill="none" fill-rule="evenodd"/>
    <text font-family="Arial,Arial_MSFontService,sans-serif" font-weight="400" font-size="11" transform="translate(692.638 158)" style="white-space: pre;">Developing and</text>
    <text font-family="Arial,Arial_MSFontService,sans-serif" font-weight="400" font-size="11" transform="translate(698.138 171)" style="white-space: pre;">implementing</text>
    <text font-family="Arial,Arial_MSFontService,sans-serif" font-weight="400" font-size="11" transform="translate(684.884 184)" style="white-space: pre;">maintenance plans</text>
    <path d="M656.5 206C656.5 201.306 660.306 197.5 665 197.5L799 197.5C803.694 197.5 807.5 201.306 807.5 206L807.5 240C807.5 244.694 803.694 248.5 799 248.5L665 248.5C660.306 248.5 656.5 244.694 656.5 240Z" stroke="#A6A6A6" stroke-width="0.333333" stroke-miterlimit="8" fill="none" fill-rule="evenodd"/>
    <text font-family="Arial,Arial_MSFontService,sans-serif" font-weight="400" font-size="11" transform="translate(694.817 214)" style="white-space: pre;">Coordination of</text>
    <text font-family="Arial,Arial_MSFontService,sans-serif" font-weight="400" font-size="11" transform="translate(674.817 227)" style="white-space: pre;">maintenance and repair</text>
    <text font-family="Arial,Arial_MSFontService,sans-serif" font-weight="400" font-size="11" transform="translate(719.983 240)" style="white-space: pre;">work</text>
    <path d="M906.5 183C906.5 178.306 910.306 174.5 915 174.5L1060 174.5C1064.69 174.5 1068.5 178.306 1068.5 183L1068.5 217C1068.5 221.694 1064.69 225.5 1060 225.5L915 225.5C910.306 225.5 906.5 221.694 906.5 217Z" stroke="#A6A6A6" stroke-width="0.333333" stroke-miterlimit="8" fill="none" fill-rule="evenodd"/>
    <text font-family="Arial,Arial_MSFontService,sans-serif" font-weight="400" font-size="11" transform="translate(932.375 190)" style="white-space: pre;">Coordination of regular</text>
    <text font-family="Arial,Arial_MSFontService,sans-serif" font-weight="400" font-size="11" transform="translate(934.129 203)" style="white-space: pre;">inspections of building</text>
    <text font-family="Arial,Arial_MSFontService,sans-serif" font-weight="400" font-size="11" transform="translate(965.875 216)" style="white-space: pre;">systems.</text>
    <path d="M906.5 238C906.5 233.306 910.306 229.5 915 229.5L1060 229.5C1064.69 229.5 1068.5 233.306 1068.5 238L1068.5 272C1068.5 276.694 1064.69 280.5 1060 280.5L915 280.5C910.306 280.5 906.5 276.694 906.5 272Z" stroke="#A6A6A6" stroke-width="0.333333" stroke-miterlimit="8" fill="none" fill-rule="evenodd"/>
    <text font-family="Arial,Arial_MSFontService,sans-serif" font-weight="400" font-size="11" transform="translate(928.125 252)" style="white-space: pre;">Identification of technical</text>
    <text font-family="Arial,Arial_MSFontService,sans-serif" font-weight="400" font-size="11" transform="translate(934.125 265)" style="white-space: pre;">problems and defects.</text>
    <path d="M932.5 352C932.5 347.306 936.306 343.5 941 343.5L1087 343.5C1091.69 343.5 1095.5 347.306 1095.5 352L1095.5 386C1095.5 390.694 1091.69 394.5 1087 394.5L941 394.5C936.306 394.5 932.5 390.694 932.5 386Z" stroke="#A6A6A6" stroke-width="0.333333" stroke-miterlimit="8" fill="none" fill-rule="evenodd"/>
    <text font-family="Arial,Arial_MSFontService,sans-serif" font-weight="400" font-size="11" transform="translate(982.002 353)" style="white-space: pre;">Planning and</text>
    <text font-family="Arial,Arial_MSFontService,sans-serif" font-weight="400" font-size="11" transform="translate(971.088 366)" style="white-space: pre;">implementation of</text>
    <text font-family="Arial,Arial_MSFontService,sans-serif" font-weight="400" font-size="11" transform="translate(969.255 379)" style="white-space: pre;">modernization and</text>
    <text font-family="Arial,Arial_MSFontService,sans-serif" font-weight="400" font-size="11" transform="translate(961.002 392)" style="white-space: pre;">conversion measures.</text>
    <path d="M932.5 408C932.5 403.306 936.306 399.5 941 399.5L1087 399.5C1091.69 399.5 1095.5 403.306 1095.5 408L1095.5 442C1095.5 446.694 1091.69 450.5 1087 450.5L941 450.5C936.306 450.5 932.5 446.694 932.5 442Z" stroke="#A6A6A6" stroke-width="0.333333" stroke-miterlimit="8" fill="none" fill-rule="evenodd"/>
    <text font-family="Arial,Arial_MSFontService,sans-serif" font-weight="400" font-size="11" transform="translate(968.002 415)" style="white-space: pre;">Introduction of new</text>
    <text font-family="Arial,Arial_MSFontService,sans-serif" font-weight="400" font-size="11" transform="translate(955.502 428)" style="white-space: pre;">technologies to increase</text>
    <text font-family="Arial,Arial_MSFontService,sans-serif" font-weight="400" font-size="11" transform="translate(989.588 441)" style="white-space: pre;">efficiency.</text>
    <path d="M881.5 529.834C881.5 525.231 885.231 521.5 889.834 521.5L1035.17 521.5C1039.77 521.5 1043.5 525.231 1043.5 529.834L1043.5 563.167C1043.5 567.769 1039.77 571.5 1035.17 571.5L889.834 571.5C885.231 571.5 881.5 567.769 881.5 563.167Z" stroke="#A6A6A6" stroke-width="0.333333" stroke-miterlimit="8" fill="none" fill-rule="evenodd"/>
    <text font-family="Arial,Arial_MSFontService,sans-serif" font-weight="400" font-size="11" transform="translate(893.028 537)" style="white-space: pre;">Monitoring and improving the</text>
    <text font-family="Arial,Arial_MSFontService,sans-serif" font-weight="400" font-size="11" transform="translate(915.941 550)" style="white-space: pre;">energy efficiency of</text>
    <text font-family="Arial,Arial_MSFontService,sans-serif" font-weight="400" font-size="11" transform="translate(939.528 563)" style="white-space: pre;">buildings.</text>
    <path d="M881.5 584C881.5 579.306 885.306 575.5 890 575.5L1035 575.5C1039.69 575.5 1043.5 579.306 1043.5 584L1043.5 618C1043.5 622.694 1039.69 626.5 1035 626.5L890 626.5C885.306 626.5 881.5 622.694 881.5 618Z" stroke="#A6A6A6" stroke-width="0.333333" stroke-miterlimit="8" fill="none" fill-rule="evenodd"/>
    <text font-family="Arial,Arial_MSFontService,sans-serif" font-weight="400" font-size="11" transform="translate(919.531 592)" style="white-space: pre;">Implementation of</text>
    <text font-family="Arial,Arial_MSFontService,sans-serif" font-weight="400" font-size="11" transform="translate(906.111 605)" style="white-space: pre;">sustainable practices to</text>
    <text font-family="Arial,Arial_MSFontService,sans-serif" font-weight="400" font-size="11" transform="translate(913.945 618)" style="white-space: pre;">conserve resources.</text>
    <path d="M647.5 558C647.5 553.306 651.306 549.5 656 549.5L802 549.5C806.694 549.5 810.5 553.306 810.5 558L810.5 592C810.5 596.694 806.694 600.5 802 600.5L656 600.5C651.306 600.5 647.5 596.694 647.5 592Z" stroke="#A6A6A6" stroke-width="0.333333" stroke-miterlimit="8" fill="none" fill-rule="evenodd"/>
    <text font-family="Arial,Arial_MSFontService,sans-serif" font-weight="400" font-size="11" transform="translate(662.974 572)" style="white-space: pre;">Development of emergency</text>
    <text font-family="Arial,Arial_MSFontService,sans-serif" font-weight="400" font-size="11" transform="translate(675.394 585)" style="white-space: pre;">plans and procedures.</text>
    <path d="M648.5 613C648.5 608.306 652.306 604.5 657 604.5L803 604.5C807.694 604.5 811.5 608.306 811.5 613L811.5 647C811.5 651.694 807.694 655.5 803 655.5L657 655.5C652.306 655.5 648.5 651.694 648.5 647Z" stroke="#A6A6A6" stroke-width="0.333333" stroke-miterlimit="8" fill="none" fill-rule="evenodd"/>
    <text font-family="Arial,Arial_MSFontService,sans-serif" font-weight="400" font-size="11" transform="translate(663.483 620)" style="white-space: pre;">Handling emergencies such</text>
    <text font-family="Arial,Arial_MSFontService,sans-serif" font-weight="400" font-size="11" transform="translate(676.316 633)" style="white-space: pre;">as technical failures or</text>
    <text font-family="Arial,Arial_MSFontService,sans-serif" font-weight="400" font-size="11" transform="translate(688.816 646)" style="white-space: pre;">natural disasters.</text>
    <path d="M638.5 151.834C638.5 139.499 648.499 129.5 660.834 129.5L803.166 129.5C815.501 129.5 825.5 139.499 825.5 151.834L825.5 241.166C825.5 253.501 815.501 263.5 803.166 263.5L660.834 263.5C648.499 263.5 638.5 253.501 638.5 241.166Z" stroke="#70AD47" stroke-width="0.666667" stroke-linecap="square" stroke-miterlimit="8" stroke-dasharray="2 0.666667" fill="none" fill-rule="evenodd"/>
    <path d="M894.5 180.834C894.5 168.499 904.499 158.5 916.834 158.5L1058.17 158.5C1070.5 158.5 1080.5 168.499 1080.5 180.834L1080.5 270.166C1080.5 282.501 1070.5 292.5 1058.17 292.5L916.834 292.5C904.499 292.5 894.5 282.501 894.5 270.166Z" stroke="#70AD47" stroke-width="0.666667" stroke-linecap="square" stroke-miterlimit="8" stroke-dasharray="2 0.666667" fill="none" fill-rule="evenodd"/>
    <path d="M920.5 353.167C920.5 341.201 930.201 331.5 942.167 331.5L1085.83 331.5C1097.8 331.5 1107.5 341.201 1107.5 353.167L1107.5 439.833C1107.5 451.799 1097.8 461.5 1085.83 461.5L942.167 461.5C930.201 461.5 920.5 451.799 920.5 439.833Z" stroke="#70AD47" stroke-width="0.666667" stroke-linecap="square" stroke-miterlimit="8" stroke-dasharray="2 0.666667" fill="none" fill-rule="evenodd"/>
    <path d="M871.5 533.001C871.5 521.126 881.126 511.5 893.001 511.5L1037 511.5C1048.87 511.5 1058.5 521.126 1058.5 533.001L1058.5 619C1058.5 630.874 1048.87 640.5 1037 640.5L893.001 640.5C881.126 640.5 871.5 630.874 871.5 619Z" stroke="#70AD47" stroke-width="0.666667" stroke-linecap="square" stroke-miterlimit="8" stroke-dasharray="2 0.666667" fill="none" fill-rule="evenodd"/>
    <path d="M638.5 557.834C638.5 545.499 648.499 535.5 660.834 535.5L803.166 535.5C815.501 535.5 825.5 545.499 825.5 557.834L825.5 647.166C825.5 659.501 815.501 669.5 803.166 669.5L660.834 669.5C648.499 669.5 638.5 659.501 638.5 647.166Z" stroke="#70AD47" stroke-width="0.666667" stroke-linecap="square" stroke-miterlimit="8" stroke-dasharray="2 0.666667" fill="none" fill-rule="evenodd"/>
    <path d="M0 0 45.6934 28.6407" stroke="#ED7D31" stroke-width="0.333333" stroke-miterlimit="8" stroke-dasharray="1.33333 1" fill="none" fill-rule="evenodd" transform="matrix(1 0 0 -1 361.5 225.141)"/>
    <path d="M0 0 44.0469 0.324829" stroke="#A7A6A6" stroke-width="0.333333" stroke-miterlimit="8" stroke-dasharray="1.33333 1" fill="none" fill-rule="evenodd" transform="matrix(1 0 0 -1 594.5 196.825)"/>
    <path d="M825.5 196.5 894.321 225.466" stroke="#00B050" stroke-width="0.333333" stroke-miterlimit="8" stroke-dasharray="1.33333 1" fill="none" fill-rule="evenodd"/>
    <path d="M1013.96 331.832 987.5 292.5" stroke="#00B050" stroke-width="0.333333" stroke-miterlimit="8" stroke-dasharray="1.33333 1" fill="none" fill-rule="evenodd"/>
    <path d="M0 0 49.1393 49.6385" stroke="#00B050" stroke-width="0.333333" stroke-miterlimit="8" stroke-dasharray="1.33333 1" fill="none" fill-rule="evenodd" transform="matrix(1 0 0 -1 964.5 511.139)"/>
    <path d="M0 0 46.1411 26.1374" stroke="#00B050" stroke-width="0.333333" stroke-miterlimit="8" stroke-dasharray="1.33333 1" fill="none" fill-rule="evenodd" transform="matrix(1 0 0 -1 825.5 602.637)"/>
    <path d="M0 0 27.7705 0.0358005" stroke="#A7A6A6" stroke-width="0.333333" stroke-miterlimit="8" stroke-dasharray="1.33333 1" fill="none" fill-rule="evenodd" transform="matrix(1 0 0 -1 610.5 602.536)"/>
    <path d="M357.5 596.5 421.127 602.453" stroke="#ED7D31" stroke-width="0.333333" stroke-miterlimit="8" stroke-dasharray="1.33333 1" fill="none" fill-rule="evenodd"/>
    <path d="M0 0 38.3946 26.868" stroke="#ED7D31" stroke-width="0.333333" stroke-miterlimit="8" stroke-dasharray="1.33333 1" fill="none" fill-rule="evenodd" transform="matrix(1 0 0 -1 230.5 319.368)"/>
    <path d="M262.784 529.409 230.5 505.5" stroke="#ED7D31" stroke-width="0.333333" stroke-miterlimit="8" stroke-dasharray="1.33333 1" fill="none" fill-rule="evenodd"/>
    <text font-family="Arial,Arial_MSFontService,sans-serif" font-weight="700" font-size="13" transform="translate(184.917 152)" style="white-space: pre;">Rental contract management</text>
    <text font-family="Arial,Arial_MSFontService,sans-serif" font-weight="700" font-size="13" transform="translate(655.936 122)" style="white-space: pre;">Maintenance planning</text>
    <text font-family="Arial,Arial_MSFontService,sans-serif" font-weight="700" font-size="13" transform="translate(449.513 123)" style="white-space: pre;">Market analyses</text>
    <text font-family="Arial,Arial_MSFontService,sans-serif" font-weight="700" font-size="13" style="white-space: pre; font-size: 13px;" x="917.3" y="150">Technical inspections</text>
    <text font-family="Arial,Arial_MSFontService,sans-serif" font-weight="700" font-size="13" transform="matrix(1, 0, 0, 1, 1158.480713, 394.700165)" style="white-space: pre; text-anchor: middle;">Modernization <tspan x="0" dy="1em">​</tspan>projects</text>
    <text font-family="Arial,Arial_MSFontService,sans-serif" font-weight="700" font-size="13" transform="translate(884.207 658)" style="white-space: pre;">Energy efficiency management</text>
    <text font-family="Arial,Arial_MSFontService,sans-serif" font-weight="700" font-size="13" style="white-space: pre; font-size: 13px;" x="657.879" y="690.6">Emergency management</text>
    <text font-family="Arial,Arial_MSFontService,sans-serif" font-weight="700" font-size="13" transform="translate(449.513 693)" style="white-space: pre;">Contract management</text>
    <text font-family="Arial,Arial_MSFontService,sans-serif" font-weight="700" font-size="13" transform="translate(194.872 684)" style="white-space: pre;">Tenant communication</text>
    <text font-family="Arial,Arial_MSFontService,sans-serif" font-weight="700" font-size="13" transform="matrix(1, 0, 0, 1, 92.221756, 411.39856)" style="white-space: pre; text-anchor: middle;">Financial <tspan x="0" dy="1em">​</tspan>management</text>
  </g>
</svg>