<?xml version="1.0" encoding="UTF-8" standalone="no"?>
<svg
   width="1800"
   height="920"
   overflow="hidden"
   version="1.1"
   id="svg91"
   sodipodi:docname="PropManag.svg"
   inkscape:version="1.4.2 (f4327f4, 2025-05-13)"
   xmlns:inkscape="http://www.inkscape.org/namespaces/inkscape"
   xmlns:sodipodi="http://sodipodi.sourceforge.net/DTD/sodipodi-0.dtd"
   xmlns="http://www.w3.org/2000/svg"
   xmlns:svg="http://www.w3.org/2000/svg">
  <defs
     id="defs91" />
  <sodipodi:namedview
     id="namedview91"
     pagecolor="#ffffff"
     bordercolor="#000000"
     borderopacity="0.25"
     inkscape:showpageshadow="2"
     inkscape:pageopacity="0.0"
     inkscape:pagecheckerboard="0"
     inkscape:deskcolor="#d1d1d1"
     inkscape:zoom="0.90721013"
     inkscape:cx="1088.502"
     inkscape:cy="321.31475"
     inkscape:window-width="1920"
     inkscape:window-height="1009"
     inkscape:window-x="-8"
     inkscape:window-y="-8"
     inkscape:window-maximized="1"
     inkscape:current-layer="g91" />
  <g
     transform="matrix(1.5607808,0,0,1.5607808,-76.358577,-170.89137)"
     id="g91"
     style="stroke-width:0.640705">
    <path
       d="m 387.5,342.5 h 189 l 62,62 -62,62 h -189 z"
       stroke="#ed7d31"
       stroke-width="0.427137"
       stroke-miterlimit="8"
       fill="none"
       fill-rule="evenodd"
       id="path1" />
    <text
       font-family="Arial, Arial_MSFontService, sans-serif"
       font-weight="400"
       font-size="16px"
       transform="translate(454.501,401)"
       style="white-space:pre;stroke-width:0.640705"
       id="text1">Commercial</text>
    <text
       font-family="Arial, Arial_MSFontService, sans-serif"
       font-weight="400"
       font-size="16px"
       transform="translate(418.081,420)"
       style="white-space:pre;stroke-width:0.640705"
       id="text2">Property Management</text>
    <path
       d="m 591.5,342.5 h 250 c -0.179,20.885 -0.357,41.771 -0.536,62.656 0.179,20.448 0.357,40.896 0.536,61.344 h -250 l 66.48,-62 z"
       stroke="#70ad47"
       stroke-width="0.427137"
       stroke-miterlimit="8"
       fill="none"
       fill-rule="evenodd"
       id="path2" />
    <text
       font-family="Arial, Arial_MSFontService, sans-serif"
       font-weight="400"
       font-size="16px"
       transform="translate(695.919,401)"
       style="white-space:pre;stroke-width:0.640705"
       id="text3">Technical</text>
    <text
       font-family="Arial, Arial_MSFontService, sans-serif"
       font-weight="400"
       font-size="16px"
       transform="translate(663.846,420)"
       style="white-space:pre;stroke-width:0.640705"
       id="text4">Property Management</text>
    <path
       d="M 0,0 19.365,1.04987e-4"
       stroke="#017ac0"
       stroke-width="0.427137"
       stroke-linecap="square"
       stroke-miterlimit="8"
       stroke-dasharray="2, 0.666667"
       fill="none"
       fill-rule="evenodd"
       transform="matrix(-1,0,0,1,657.865,404.5)"
       id="path4" />
    <path
       d="m 176.5,180.834 c 0,-12.335 9.999,-22.334 22.334,-22.334 h 140.332 c 12.335,0 22.334,9.999 22.334,22.334 v 89.332 c 0,12.335 -9.999,22.334 -22.334,22.334 H 198.834 c -12.335,0 -22.334,-9.999 -22.334,-22.334 z"
       stroke="#ed7d31"
       stroke-width="0.427137"
       stroke-linecap="square"
       stroke-miterlimit="8"
       stroke-dasharray="2, 0.666667"
       fill="none"
       fill-rule="evenodd"
       id="path5" />
    <path
       d="m 189.5,180 c 0,-4.694 3.806,-8.5 8.5,-8.5 h 134 c 4.694,0 8.5,3.806 8.5,8.5 v 34 c 0,4.694 -3.806,8.5 -8.5,8.5 H 198 c -4.694,0 -8.5,-3.806 -8.5,-8.5 z"
       stroke="#a6a6a6"
       stroke-width="0.213568"
       stroke-miterlimit="8"
       fill="none"
       fill-rule="evenodd"
       id="path6" />
    <text
       font-family="Arial, Arial_MSFontService, sans-serif"
       font-weight="400"
       font-size="11px"
       transform="translate(207.288,187)"
       style="white-space:pre;stroke-width:0.640705"
       id="text6">Preparation, negotiation</text>
    <text
       font-family="Arial, Arial_MSFontService, sans-serif"
       font-weight="400"
       font-size="11px"
       transform="translate(214.542,200)"
       style="white-space:pre;stroke-width:0.640705"
       id="text7">and administration of</text>
    <text
       font-family="Arial, Arial_MSFontService, sans-serif"
       font-weight="400"
       font-size="11px"
       transform="translate(219.622,213)"
       style="white-space:pre;stroke-width:0.640705"
       id="text8">rental agreements.</text>
    <path
       d="m 189.5,234.5 c 0,-4.97 4.03,-9 9,-9 h 133 c 4.971,0 9,4.03 9,9 v 36 c 0,4.97 -4.029,9 -9,9 h -133 c -4.97,0 -9,-4.03 -9,-9 z"
       stroke="#a6a6a6"
       stroke-width="0.213568"
       stroke-miterlimit="8"
       fill="none"
       fill-rule="evenodd"
       id="path8" />
    <text
       font-family="Arial, Arial_MSFontService, sans-serif"
       font-weight="400"
       font-size="11px"
       transform="translate(222.621,237)"
       style="white-space:pre;stroke-width:0.640705"
       id="text9">Monitoring of rent</text>
    <text
       font-family="Arial, Arial_MSFontService, sans-serif"
       font-weight="400"
       font-size="11px"
       transform="translate(230.621,250)"
       style="white-space:pre;stroke-width:0.640705"
       id="text10">payments and</text>
    <text
       font-family="Arial, Arial_MSFontService, sans-serif"
       font-weight="400"
       font-size="11px"
       transform="translate(211.288,263)"
       style="white-space:pre;stroke-width:0.640705"
       id="text11">implementation of rent</text>
    <text
       font-family="Arial, Arial_MSFontService, sans-serif"
       font-weight="400"
       font-size="11px"
       transform="translate(239.955,276)"
       style="white-space:pre;stroke-width:0.640705"
       id="text12">increases.</text>
    <path
       d="m 148.5,341 c 0,-4.694 3.806,-8.5 8.5,-8.5 h 134 c 4.694,0 8.5,3.806 8.5,8.5 v 34 c 0,4.694 -3.806,8.5 -8.5,8.5 H 157 c -4.694,0 -8.5,-3.806 -8.5,-8.5 z"
       stroke="#a6a6a6"
       stroke-width="0.213568"
       stroke-miterlimit="8"
       fill="none"
       fill-rule="evenodd"
       id="path12" />
    <text
       font-family="Arial, Arial_MSFontService, sans-serif"
       font-weight="400"
       font-size="11px"
       transform="translate(164.971,355)"
       style="white-space:pre;stroke-width:0.640705"
       id="text13">Budgeting and control of</text>
    <text
       font-family="Arial, Arial_MSFontService, sans-serif"
       font-weight="400"
       font-size="11px"
       transform="translate(185.385,368)"
       style="white-space:pre;stroke-width:0.640705"
       id="text14">operating costs.</text>
    <path
       d="m 148.5,395.834 c 0,-4.603 3.731,-8.334 8.334,-8.334 h 134.332 c 4.603,0 8.334,3.731 8.334,8.334 v 33.332 c 0,4.603 -3.731,8.334 -8.334,8.334 H 156.834 c -4.603,0 -8.334,-3.731 -8.334,-8.334 z"
       stroke="#a6a6a6"
       stroke-width="0.213568"
       stroke-miterlimit="8"
       fill="none"
       fill-rule="evenodd"
       id="path14" />
    <text
       font-family="Arial, Arial_MSFontService, sans-serif"
       font-weight="400"
       font-size="11px"
       transform="translate(169.388,403)"
       style="white-space:pre;stroke-width:0.640705"
       id="text15">Monitoring of incoming</text>
    <text
       font-family="Arial, Arial_MSFontService, sans-serif"
       font-weight="400"
       font-size="11px"
       transform="translate(171.388,416)"
       style="white-space:pre;stroke-width:0.640705"
       id="text16">payments and invoice</text>
    <text
       font-family="Arial, Arial_MSFontService, sans-serif"
       font-weight="400"
       font-size="11px"
       transform="translate(195.888,429)"
       style="white-space:pre;stroke-width:0.640705"
       id="text17">processing.</text>
    <path
       d="m 149.5,449.834 c 0,-4.603 3.731,-8.334 8.334,-8.334 h 134.332 c 4.603,0 8.334,3.731 8.334,8.334 v 33.332 c 0,4.603 -3.731,8.334 -8.334,8.334 H 157.834 c -4.603,0 -8.334,-3.731 -8.334,-8.334 z"
       stroke="#a6a6a6"
       stroke-width="0.213568"
       stroke-miterlimit="8"
       fill="none"
       fill-rule="evenodd"
       id="path17" />
    <text
       font-family="Arial, Arial_MSFontService, sans-serif"
       font-weight="400"
       font-size="11px"
       transform="translate(169.585,463)"
       style="white-space:pre;stroke-width:0.640705"
       id="text18">Preparation of financial</text>
    <text
       font-family="Arial, Arial_MSFontService, sans-serif"
       font-weight="400"
       font-size="11px"
       transform="translate(179.838,476)"
       style="white-space:pre;stroke-width:0.640705"
       id="text19">reports for owners.</text>
    <path
       d="m 182.5,552.834 c 0,-4.603 3.731,-8.334 8.334,-8.334 h 134.332 c 4.603,0 8.334,3.731 8.334,8.334 v 33.333 c 0,4.602 -3.731,8.333 -8.334,8.333 H 190.834 c -4.603,0 -8.334,-3.731 -8.334,-8.333 z"
       stroke="#a6a6a6"
       stroke-width="0.213568"
       stroke-miterlimit="8"
       fill="none"
       fill-rule="evenodd"
       id="path19" />
    <text
       font-family="Arial, Arial_MSFontService, sans-serif"
       font-weight="400"
       font-size="11px"
       transform="translate(214.658,566)"
       style="white-space:pre;stroke-width:0.640705"
       id="text20">Contact for tenant</text>
    <text
       font-family="Arial, Arial_MSFontService, sans-serif"
       font-weight="400"
       font-size="11px"
       transform="translate(234.158,579)"
       style="white-space:pre;stroke-width:0.640705"
       id="text21">concerns.</text>
    <path
       d="m 182.5,608.333 c 0,-4.878 3.955,-8.833 8.833,-8.833 h 133.334 c 4.878,0 8.833,3.955 8.833,8.833 v 35.334 c 0,4.878 -3.955,8.833 -8.833,8.833 H 191.333 c -4.878,0 -8.833,-3.955 -8.833,-8.833 z"
       stroke="#a6a6a6"
       stroke-width="0.213568"
       stroke-miterlimit="8"
       fill="none"
       fill-rule="evenodd"
       id="path21" />
    <text
       font-family="Arial, Arial_MSFontService, sans-serif"
       font-weight="400"
       font-size="11px"
       transform="translate(204.44,610)"
       style="white-space:pre;stroke-width:0.640705"
       id="text22">Organization of tenant</text>
    <text
       font-family="Arial, Arial_MSFontService, sans-serif"
       font-weight="400"
       font-size="11px"
       transform="translate(225.107,623)"
       style="white-space:pre;stroke-width:0.640705"
       id="text23">meetings and</text>
    <text
       font-family="Arial, Arial_MSFontService, sans-serif"
       font-weight="400"
       font-size="11px"
       transform="translate(215.36,636)"
       style="white-space:pre;stroke-width:0.640705"
       id="text24">communication of</text>
    <text
       font-family="Arial, Arial_MSFontService, sans-serif"
       font-weight="400"
       font-size="11px"
       transform="translate(229.36,649)"
       style="white-space:pre;stroke-width:0.640705"
       id="text25">information.</text>
    <path
       d="m 435.5,560 c 0,-4.694 3.806,-8.5 8.5,-8.5 h 134 c 4.694,0 8.5,3.806 8.5,8.5 v 34 c 0,4.694 -3.806,8.5 -8.5,8.5 H 444 c -4.694,0 -8.5,-3.806 -8.5,-8.5 z"
       stroke="#a6a6a6"
       stroke-width="0.213568"
       stroke-miterlimit="8"
       fill="none"
       fill-rule="evenodd"
       id="path25" />
    <text
       font-family="Arial, Arial_MSFontService, sans-serif"
       font-weight="400"
       font-size="11px"
       transform="translate(446.798,567)"
       style="white-space:pre;stroke-width:0.640705"
       id="text26">Conclusion and monitoring</text>
    <text
       font-family="Arial, Arial_MSFontService, sans-serif"
       font-weight="400"
       font-size="11px"
       transform="translate(476.878,580)"
       style="white-space:pre;stroke-width:0.640705"
       id="text27">of service and</text>
    <text
       font-family="Arial, Arial_MSFontService, sans-serif"
       font-weight="400"
       font-size="11px"
       transform="translate(454.798,593)"
       style="white-space:pre;stroke-width:0.640705"
       id="text28">maintenance contracts.</text>
    <path
       d="m 435.5,615 c 0,-4.694 3.806,-8.5 8.5,-8.5 h 134 c 4.694,0 8.5,3.806 8.5,8.5 v 34 c 0,4.694 -3.806,8.5 -8.5,8.5 H 444 c -4.694,0 -8.5,-3.806 -8.5,-8.5 z"
       stroke="#a6a6a6"
       stroke-width="0.213568"
       stroke-miterlimit="8"
       fill="none"
       fill-rule="evenodd"
       id="path28" />
    <text
       font-family="Arial, Arial_MSFontService, sans-serif"
       font-weight="400"
       font-size="11px"
       transform="translate(455.467,629)"
       style="white-space:pre;stroke-width:0.640705"
       id="text29">Coordination of service</text>
    <text
       font-family="Arial, Arial_MSFontService, sans-serif"
       font-weight="400"
       font-size="11px"
       transform="translate(453.381,642)"
       style="white-space:pre;stroke-width:0.640705"
       id="text30">providers and suppliers.</text>
    <path
       d="m 423.5,150 c 0,-4.694 3.806,-8.5 8.5,-8.5 h 134 c 4.694,0 8.5,3.806 8.5,8.5 v 34 c 0,4.694 -3.806,8.5 -8.5,8.5 H 432 c -4.694,0 -8.5,-3.806 -8.5,-8.5 z"
       stroke="#a6a6a6"
       stroke-width="0.213568"
       stroke-miterlimit="8"
       fill="none"
       fill-rule="evenodd"
       id="path30" />
    <text
       font-family="Arial, Arial_MSFontService, sans-serif"
       font-weight="400"
       font-size="11px"
       style="text-align:center;text-anchor:middle;white-space:pre;stroke-width:0.640705"
       id="text31"
       x="499.29382"
       y="155.58752"><tspan
         sodipodi:role="line"
         x="499.29382"
         y="155.58752"
         id="tspan94"
         style="text-align:center;text-anchor:middle">Monitoring local real </tspan><tspan
         sodipodi:role="line"
         x="499.29382"
         y="169.33752"
         id="tspan96"
         style="text-align:center;text-anchor:middle">estate markets and </tspan><tspan
         sodipodi:role="line"
         x="499.29382"
         y="183.08752"
         id="tspan95"
         style="text-align:center;text-anchor:middle">competitor analysis</tspan></text>
    <path
       d="m 423.5,210 c 0,-4.694 3.806,-8.5 8.5,-8.5 h 134 c 4.694,0 8.5,3.806 8.5,8.5 v 34 c 0,4.694 -3.806,8.5 -8.5,8.5 H 432 c -4.694,0 -8.5,-3.806 -8.5,-8.5 z"
       stroke="#a6a6a6"
       stroke-width="0.213568"
       stroke-miterlimit="8"
       fill="none"
       fill-rule="evenodd"
       id="path33" />
    <text
       font-family="Arial, Arial_MSFontService, sans-serif"
       font-weight="400"
       font-size="11px"
       transform="translate(446.143,217)"
       style="white-space:pre;stroke-width:0.640705"
       id="text34">Recommendations for</text>
    <text
       font-family="Arial, Arial_MSFontService, sans-serif"
       font-weight="400"
       font-size="11px"
       transform="translate(457.397,230)"
       style="white-space:pre;stroke-width:0.640705"
       id="text35">rental pricing and</text>
    <text
       font-family="Arial, Arial_MSFontService, sans-serif"
       font-weight="400"
       font-size="11px"
       transform="translate(448.81,243)"
       style="white-space:pre;stroke-width:0.640705"
       id="text36">marketing strategies.</text>
    <path
       d="m 407.5,151.834 c 0,-12.335 9.999,-22.334 22.334,-22.334 h 142.332 c 12.335,0 22.334,9.999 22.334,22.334 v 89.332 c 0,12.335 -9.999,22.334 -22.334,22.334 H 429.834 c -12.335,0 -22.334,-9.999 -22.334,-22.334 z"
       stroke="#ed7d31"
       stroke-width="0.427137"
       stroke-linecap="square"
       stroke-miterlimit="8"
       stroke-dasharray="2, 0.666667"
       fill="none"
       fill-rule="evenodd"
       id="path36" />
    <path
       d="m 138.5,350.334 c 0,-17.029 13.805,-30.834 30.834,-30.834 h 123.332 c 17.029,0 30.834,13.805 30.834,30.834 v 124.332 c 0,17.029 -13.805,30.834 -30.834,30.834 H 169.334 c -17.029,0 -30.834,-13.805 -30.834,-30.834 z"
       stroke="#ed7d31"
       stroke-width="0.427137"
       stroke-linecap="square"
       stroke-miterlimit="8"
       stroke-dasharray="2, 0.666667"
       fill="none"
       fill-rule="evenodd"
       id="path37" />
    <path
       d="m 168.5,551.834 c 0,-12.335 9.999,-22.334 22.334,-22.334 h 144.332 c 12.335,0 22.334,9.999 22.334,22.334 v 89.332 c 0,12.335 -9.999,22.334 -22.334,22.334 H 190.834 c -12.335,0 -22.334,-9.999 -22.334,-22.334 z"
       stroke="#ed7d31"
       stroke-width="0.427137"
       stroke-linecap="square"
       stroke-miterlimit="8"
       stroke-dasharray="2, 0.666667"
       fill="none"
       fill-rule="evenodd"
       id="path38" />
    <path
       d="m 421.5,557.834 c 0,-12.335 9.999,-22.334 22.334,-22.334 h 144.332 c 12.335,0 22.334,9.999 22.334,22.334 v 89.332 c 0,12.335 -9.999,22.334 -22.334,22.334 H 443.834 c -12.335,0 -22.334,-9.999 -22.334,-22.334 z"
       stroke="#ed7d31"
       stroke-width="0.427137"
       stroke-linecap="square"
       stroke-miterlimit="8"
       stroke-dasharray="2, 0.666667"
       fill="none"
       fill-rule="evenodd"
       id="path39" />
    <path
       d="m 654.5,151 c 0,-4.694 3.806,-8.5 8.5,-8.5 h 135 c 4.694,0 8.5,3.806 8.5,8.5 v 34 c 0,4.694 -3.806,8.5 -8.5,8.5 H 663 c -4.694,0 -8.5,-3.806 -8.5,-8.5 z"
       stroke="#a6a6a6"
       stroke-width="0.213568"
       stroke-miterlimit="8"
       fill="none"
       fill-rule="evenodd"
       id="path40" />
    <text
       font-family="Arial, Arial_MSFontService, sans-serif"
       font-weight="400"
       font-size="11px"
       transform="translate(692.638,158)"
       style="white-space:pre;stroke-width:0.640705"
       id="text40">Developing and</text>
    <text
       font-family="Arial, Arial_MSFontService, sans-serif"
       font-weight="400"
       font-size="11px"
       transform="translate(698.138,171)"
       style="white-space:pre;stroke-width:0.640705"
       id="text41">implementing</text>
    <text
       font-family="Arial, Arial_MSFontService, sans-serif"
       font-weight="400"
       font-size="11px"
       transform="translate(684.884,184)"
       style="white-space:pre;stroke-width:0.640705"
       id="text42">maintenance plans</text>
    <path
       d="m 656.5,206 c 0,-4.694 3.806,-8.5 8.5,-8.5 h 134 c 4.694,0 8.5,3.806 8.5,8.5 v 34 c 0,4.694 -3.806,8.5 -8.5,8.5 H 665 c -4.694,0 -8.5,-3.806 -8.5,-8.5 z"
       stroke="#a6a6a6"
       stroke-width="0.213568"
       stroke-miterlimit="8"
       fill="none"
       fill-rule="evenodd"
       id="path42" />
    <text
       font-family="Arial, Arial_MSFontService, sans-serif"
       font-weight="400"
       font-size="11px"
       transform="translate(694.817,214)"
       style="white-space:pre;stroke-width:0.640705"
       id="text43">Coordination of</text>
    <text
       font-family="Arial, Arial_MSFontService, sans-serif"
       font-weight="400"
       font-size="11px"
       transform="translate(674.817,227)"
       style="white-space:pre;stroke-width:0.640705"
       id="text44">maintenance and repair</text>
    <text
       font-family="Arial, Arial_MSFontService, sans-serif"
       font-weight="400"
       font-size="11px"
       transform="translate(719.983,240)"
       style="white-space:pre;stroke-width:0.640705"
       id="text45">work</text>
    <path
       d="m 906.5,183 c 0,-4.694 3.806,-8.5 8.5,-8.5 h 145 c 4.69,0 8.5,3.806 8.5,8.5 v 34 c 0,4.694 -3.81,8.5 -8.5,8.5 H 915 c -4.694,0 -8.5,-3.806 -8.5,-8.5 z"
       stroke="#a6a6a6"
       stroke-width="0.213568"
       stroke-miterlimit="8"
       fill="none"
       fill-rule="evenodd"
       id="path45" />
    <text
       font-family="Arial, Arial_MSFontService, sans-serif"
       font-weight="400"
       font-size="11px"
       transform="translate(932.375,190)"
       style="white-space:pre;stroke-width:0.640705"
       id="text46">Coordination of regular</text>
    <text
       font-family="Arial, Arial_MSFontService, sans-serif"
       font-weight="400"
       font-size="11px"
       transform="translate(934.129,203)"
       style="white-space:pre;stroke-width:0.640705"
       id="text47">inspections of building</text>
    <text
       font-family="Arial, Arial_MSFontService, sans-serif"
       font-weight="400"
       font-size="11px"
       transform="translate(965.875,216)"
       style="white-space:pre;stroke-width:0.640705"
       id="text48">systems.</text>
    <path
       d="m 906.5,238 c 0,-4.694 3.806,-8.5 8.5,-8.5 h 145 c 4.69,0 8.5,3.806 8.5,8.5 v 34 c 0,4.694 -3.81,8.5 -8.5,8.5 H 915 c -4.694,0 -8.5,-3.806 -8.5,-8.5 z"
       stroke="#a6a6a6"
       stroke-width="0.213568"
       stroke-miterlimit="8"
       fill="none"
       fill-rule="evenodd"
       id="path48" />
    <text
       font-family="Arial, Arial_MSFontService, sans-serif"
       font-weight="400"
       font-size="11px"
       transform="translate(928.125,252)"
       style="white-space:pre;stroke-width:0.640705"
       id="text49">Identification of technical</text>
    <text
       font-family="Arial, Arial_MSFontService, sans-serif"
       font-weight="400"
       font-size="11px"
       transform="translate(934.125,265)"
       style="white-space:pre;stroke-width:0.640705"
       id="text50">problems and defects.</text>
    <path
       d="m 932.5,352 c 0,-4.694 3.806,-8.5 8.5,-8.5 h 146 c 4.69,0 8.5,3.806 8.5,8.5 v 34 c 0,4.694 -3.81,8.5 -8.5,8.5 H 941 c -4.694,0 -8.5,-3.806 -8.5,-8.5 z"
       stroke="#a6a6a6"
       stroke-width="0.213568"
       stroke-miterlimit="8"
       fill="none"
       fill-rule="evenodd"
       id="path50" />
    <text
       font-family="Arial, Arial_MSFontService, sans-serif"
       font-weight="400"
       font-size="11px"
       transform="translate(982.002,353)"
       style="white-space:pre;stroke-width:0.640705"
       id="text51">Planning and</text>
    <text
       font-family="Arial, Arial_MSFontService, sans-serif"
       font-weight="400"
       font-size="11px"
       transform="translate(971.088,366)"
       style="white-space:pre;stroke-width:0.640705"
       id="text52">implementation of</text>
    <text
       font-family="Arial, Arial_MSFontService, sans-serif"
       font-weight="400"
       font-size="11px"
       transform="translate(969.255,379)"
       style="white-space:pre;stroke-width:0.640705"
       id="text53">modernization and</text>
    <text
       font-family="Arial, Arial_MSFontService, sans-serif"
       font-weight="400"
       font-size="11px"
       transform="translate(961.002,392)"
       style="white-space:pre;stroke-width:0.640705"
       id="text54">conversion measures.</text>
    <path
       d="m 932.5,408 c 0,-4.694 3.806,-8.5 8.5,-8.5 h 146 c 4.69,0 8.5,3.806 8.5,8.5 v 34 c 0,4.694 -3.81,8.5 -8.5,8.5 H 941 c -4.694,0 -8.5,-3.806 -8.5,-8.5 z"
       stroke="#a6a6a6"
       stroke-width="0.213568"
       stroke-miterlimit="8"
       fill="none"
       fill-rule="evenodd"
       id="path54" />
    <text
       font-family="Arial, Arial_MSFontService, sans-serif"
       font-weight="400"
       font-size="11px"
       transform="translate(968.002,415)"
       style="white-space:pre;stroke-width:0.640705"
       id="text55">Introduction of new</text>
    <text
       font-family="Arial, Arial_MSFontService, sans-serif"
       font-weight="400"
       font-size="11px"
       transform="translate(955.502,428)"
       style="white-space:pre;stroke-width:0.640705"
       id="text56">technologies to increase</text>
    <text
       font-family="Arial, Arial_MSFontService, sans-serif"
       font-weight="400"
       font-size="11px"
       transform="translate(989.588,441)"
       style="white-space:pre;stroke-width:0.640705"
       id="text57">efficiency.</text>
    <path
       d="m 881.5,529.834 c 0,-4.603 3.731,-8.334 8.334,-8.334 h 145.336 c 4.6,0 8.33,3.731 8.33,8.334 v 33.333 c 0,4.602 -3.73,8.333 -8.33,8.333 H 889.834 c -4.603,0 -8.334,-3.731 -8.334,-8.333 z"
       stroke="#a6a6a6"
       stroke-width="0.213568"
       stroke-miterlimit="8"
       fill="none"
       fill-rule="evenodd"
       id="path57" />
    <text
       font-family="Arial, Arial_MSFontService, sans-serif"
       font-weight="400"
       font-size="11px"
       transform="translate(893.028,537)"
       style="white-space:pre;stroke-width:0.640705"
       id="text58">Monitoring and improving the</text>
    <text
       font-family="Arial, Arial_MSFontService, sans-serif"
       font-weight="400"
       font-size="11px"
       transform="translate(915.941,550)"
       style="white-space:pre;stroke-width:0.640705"
       id="text59">energy efficiency of</text>
    <text
       font-family="Arial, Arial_MSFontService, sans-serif"
       font-weight="400"
       font-size="11px"
       transform="translate(939.528,563)"
       style="white-space:pre;stroke-width:0.640705"
       id="text60">buildings.</text>
    <path
       d="m 881.5,584 c 0,-4.694 3.806,-8.5 8.5,-8.5 h 145 c 4.69,0 8.5,3.806 8.5,8.5 v 34 c 0,4.694 -3.81,8.5 -8.5,8.5 H 890 c -4.694,0 -8.5,-3.806 -8.5,-8.5 z"
       stroke="#a6a6a6"
       stroke-width="0.213568"
       stroke-miterlimit="8"
       fill="none"
       fill-rule="evenodd"
       id="path60" />
    <text
       font-family="Arial, Arial_MSFontService, sans-serif"
       font-weight="400"
       font-size="11px"
       transform="translate(919.531,592)"
       style="white-space:pre;stroke-width:0.640705"
       id="text61">Implementation of</text>
    <text
       font-family="Arial, Arial_MSFontService, sans-serif"
       font-weight="400"
       font-size="11px"
       transform="translate(906.111,605)"
       style="white-space:pre;stroke-width:0.640705"
       id="text62">sustainable practices to</text>
    <text
       font-family="Arial, Arial_MSFontService, sans-serif"
       font-weight="400"
       font-size="11px"
       transform="translate(913.945,618)"
       style="white-space:pre;stroke-width:0.640705"
       id="text63">conserve resources.</text>
    <path
       d="m 647.5,558 c 0,-4.694 3.806,-8.5 8.5,-8.5 h 146 c 4.694,0 8.5,3.806 8.5,8.5 v 34 c 0,4.694 -3.806,8.5 -8.5,8.5 H 656 c -4.694,0 -8.5,-3.806 -8.5,-8.5 z"
       stroke="#a6a6a6"
       stroke-width="0.213568"
       stroke-miterlimit="8"
       fill="none"
       fill-rule="evenodd"
       id="path63" />
    <text
       font-family="Arial, Arial_MSFontService, sans-serif"
       font-weight="400"
       font-size="11px"
       transform="translate(662.974,572)"
       style="white-space:pre;stroke-width:0.640705"
       id="text64">Development of emergency</text>
    <text
       font-family="Arial, Arial_MSFontService, sans-serif"
       font-weight="400"
       font-size="11px"
       transform="translate(675.394,585)"
       style="white-space:pre;stroke-width:0.640705"
       id="text65">plans and procedures.</text>
    <path
       d="m 648.5,613 c 0,-4.694 3.806,-8.5 8.5,-8.5 h 146 c 4.694,0 8.5,3.806 8.5,8.5 v 34 c 0,4.694 -3.806,8.5 -8.5,8.5 H 657 c -4.694,0 -8.5,-3.806 -8.5,-8.5 z"
       stroke="#a6a6a6"
       stroke-width="0.213568"
       stroke-miterlimit="8"
       fill="none"
       fill-rule="evenodd"
       id="path65" />
    <text
       font-family="Arial, Arial_MSFontService, sans-serif"
       font-weight="400"
       font-size="11px"
       transform="translate(663.483,620)"
       style="white-space:pre;stroke-width:0.640705"
       id="text66">Handling emergencies such</text>
    <text
       font-family="Arial, Arial_MSFontService, sans-serif"
       font-weight="400"
       font-size="11px"
       transform="translate(676.316,633)"
       style="white-space:pre;stroke-width:0.640705"
       id="text67">as technical failures or</text>
    <text
       font-family="Arial, Arial_MSFontService, sans-serif"
       font-weight="400"
       font-size="11px"
       transform="translate(688.816,646)"
       style="white-space:pre;stroke-width:0.640705"
       id="text68">natural disasters.</text>
    <path
       d="m 638.5,151.834 c 0,-12.335 9.999,-22.334 22.334,-22.334 h 142.332 c 12.335,0 22.334,9.999 22.334,22.334 v 89.332 c 0,12.335 -9.999,22.334 -22.334,22.334 H 660.834 c -12.335,0 -22.334,-9.999 -22.334,-22.334 z"
       stroke="#70ad47"
       stroke-width="0.427137"
       stroke-linecap="square"
       stroke-miterlimit="8"
       stroke-dasharray="2, 0.666667"
       fill="none"
       fill-rule="evenodd"
       id="path68" />
    <path
       d="m 894.5,180.834 c 0,-12.335 9.999,-22.334 22.334,-22.334 h 141.336 c 12.33,0 22.33,9.999 22.33,22.334 v 89.332 c 0,12.335 -10,22.334 -22.33,22.334 H 916.834 c -12.335,0 -22.334,-9.999 -22.334,-22.334 z"
       stroke="#70ad47"
       stroke-width="0.427137"
       stroke-linecap="square"
       stroke-miterlimit="8"
       stroke-dasharray="2, 0.666667"
       fill="none"
       fill-rule="evenodd"
       id="path69" />
    <path
       d="m 920.5,353.167 c 0,-11.966 9.701,-21.667 21.667,-21.667 h 143.663 c 11.97,0 21.67,9.701 21.67,21.667 v 86.666 c 0,11.966 -9.7,21.667 -21.67,21.667 H 942.167 c -11.966,0 -21.667,-9.701 -21.667,-21.667 z"
       stroke="#70ad47"
       stroke-width="0.427137"
       stroke-linecap="square"
       stroke-miterlimit="8"
       stroke-dasharray="2, 0.666667"
       fill="none"
       fill-rule="evenodd"
       id="path70" />
    <path
       d="m 871.5,533.001 c 0,-11.875 9.626,-21.501 21.501,-21.501 H 1037 c 11.87,0 21.5,9.626 21.5,21.501 V 619 c 0,11.874 -9.63,21.5 -21.5,21.5 H 893.001 C 881.126,640.5 871.5,630.874 871.5,619 Z"
       stroke="#70ad47"
       stroke-width="0.427137"
       stroke-linecap="square"
       stroke-miterlimit="8"
       stroke-dasharray="2, 0.666667"
       fill="none"
       fill-rule="evenodd"
       id="path71" />
    <path
       d="m 638.5,557.834 c 0,-12.335 9.999,-22.334 22.334,-22.334 h 142.332 c 12.335,0 22.334,9.999 22.334,22.334 v 89.332 c 0,12.335 -9.999,22.334 -22.334,22.334 H 660.834 c -12.335,0 -22.334,-9.999 -22.334,-22.334 z"
       stroke="#70ad47"
       stroke-width="0.427137"
       stroke-linecap="square"
       stroke-miterlimit="8"
       stroke-dasharray="2, 0.666667"
       fill="none"
       fill-rule="evenodd"
       id="path72" />
    <path
       d="M 0,0 45.6934,28.6407"
       stroke="#ed7d31"
       stroke-width="1"
       stroke-miterlimit="8"
       stroke-dasharray="1.33333, 1"
       fill="none"
       fill-rule="evenodd"
       transform="matrix(1,0,0,-1,361.5,225.141)"
       id="path73" />
    <path
       d="M 0,0 44.0469,0.324829"
       stroke="#a7a6a6"
       stroke-width="1"
       stroke-miterlimit="8"
       stroke-dasharray="1.33333, 1"
       fill="none"
       fill-rule="evenodd"
       transform="matrix(1,0,0,-1,594.5,196.825)"
       id="path74" />
    <path
       d="m 825.5,196.5 68.821,28.966"
       stroke="#00b050"
       stroke-width="1"
       stroke-miterlimit="8"
       stroke-dasharray="1.33333, 1"
       fill="none"
       fill-rule="evenodd"
       id="path75" />
    <path
       d="M 1013.96,331.832 987.5,292.5"
       stroke="#00b050"
       stroke-width="1"
       stroke-miterlimit="8"
       stroke-dasharray="1.33333, 1"
       fill="none"
       fill-rule="evenodd"
       id="path76" />
    <path
       d="M 0,0 49.1393,49.6385"
       stroke="#00b050"
       stroke-width="1"
       stroke-miterlimit="8"
       stroke-dasharray="1.33333, 1"
       fill="none"
       fill-rule="evenodd"
       transform="matrix(1,0,0,-1,964.5,511.139)"
       id="path77" />
    <path
       d="M 0,0 46.1411,26.1374"
       stroke="#00b050"
       stroke-width="1"
       stroke-miterlimit="8"
       stroke-dasharray="1.33333, 1"
       fill="none"
       fill-rule="evenodd"
       transform="matrix(1,0,0,-1,825.5,602.637)"
       id="path78" />
    <path
       d="M 0,0 27.7705,0.0358005"
       stroke="#a7a6a6"
       stroke-width="1"
       stroke-miterlimit="8"
       stroke-dasharray="1.33333, 1"
       fill="none"
       fill-rule="evenodd"
       transform="matrix(1,0,0,-1,610.5,602.536)"
       id="path79" />
    <path
       d="m 357.5,596.5 63.627,5.953"
       stroke="#ed7d31"
       stroke-width="1"
       stroke-miterlimit="8"
       stroke-dasharray="1.33333, 1"
       fill="none"
       fill-rule="evenodd"
       id="path80" />
    <path
       d="M 0,0 38.3946,26.868"
       stroke="#ed7d31"
       stroke-width="1"
       stroke-miterlimit="8"
       stroke-dasharray="1.33333, 1"
       fill="none"
       fill-rule="evenodd"
       transform="matrix(1,0,0,-1,230.5,319.368)"
       id="path81" />
    <path
       d="M 262.784,529.409 230.5,505.5"
       stroke="#ed7d31"
       stroke-width="1"
       stroke-miterlimit="8"
       stroke-dasharray="1.33333, 1"
       fill="none"
       fill-rule="evenodd"
       id="path82" />
    <text
       font-family="Arial, Arial_MSFontService, sans-serif"
       font-weight="700"
       font-size="13px"
       transform="translate(184.917,152)"
       style="white-space:pre;stroke-width:0.640705"
       id="text82">Rental contract management</text>
    <text
       font-family="Arial, Arial_MSFontService, sans-serif"
       font-weight="700"
       font-size="13px"
       transform="translate(655.936,122)"
       style="white-space:pre;stroke-width:0.640705"
       id="text83">Maintenance planning</text>
    <text
       font-family="Arial, Arial_MSFontService, sans-serif"
       font-weight="700"
       font-size="13px"
       transform="translate(449.513,123)"
       style="white-space:pre;stroke-width:0.640705"
       id="text84">Market analyses</text>
    <text
       font-family="Arial, Arial_MSFontService, sans-serif"
       font-weight="700"
       font-size="13"
       style="font-size:13px;white-space:pre;stroke-width:0.640705"
       x="917.29999"
       y="150"
       id="text85">Technical inspections</text>
    <text
       font-family="Arial, Arial_MSFontService, sans-serif"
       font-weight="700"
       font-size="13px"
       transform="translate(1158.4807,394.70017)"
       style="text-anchor:middle;white-space:pre;stroke-width:0.640705"
       id="text86">Modernization <tspan
   x="0"
   dy="1em"
   id="tspan85"
   style="stroke-width:0.640705">​</tspan>projects</text>
    <text
       font-family="Arial, Arial_MSFontService, sans-serif"
       font-weight="700"
       font-size="13px"
       transform="translate(884.207,658)"
       style="white-space:pre;stroke-width:0.640705"
       id="text87">Energy efficiency management</text>
    <text
       font-family="Arial, Arial_MSFontService, sans-serif"
       font-weight="700"
       font-size="13"
       style="font-size:13px;white-space:pre;stroke-width:0.640705"
       x="657.87903"
       y="690.59998"
       id="text88">Emergency management</text>
    <text
       font-family="Arial, Arial_MSFontService, sans-serif"
       font-weight="700"
       font-size="13px"
       transform="translate(449.513,693)"
       style="white-space:pre;stroke-width:0.640705"
       id="text89">Contract management</text>
    <text
       font-family="Arial, Arial_MSFontService, sans-serif"
       font-weight="700"
       font-size="13px"
       transform="translate(194.872,684)"
       style="white-space:pre;stroke-width:0.640705"
       id="text90">Tenant communication</text>
    <text
       font-family="Arial, Arial_MSFontService, sans-serif"
       font-weight="700"
       font-size="13px"
       transform="translate(92.221756,411.39856)"
       style="text-anchor:middle;white-space:pre;stroke-width:0.640705"
       id="text91">Financial <tspan
   x="0"
   dy="1em"
   id="tspan90"
   style="stroke-width:0.640705">​</tspan>management</text>
  </g>
</svg>
