<?xml version="1.0" encoding="UTF-8" standalone="no"?>
<svg
   viewBox="0 0 434 125"
   version="1.1"
   id="svg3"
   width="434"
   height="125"
   xml:space="preserve"
   xmlns="http://www.w3.org/2000/svg"
   xmlns:svg="http://www.w3.org/2000/svg"><defs
     id="defs3" /><polygon
     style="fill:#017ac0"
     points="0,62.5 36.5,0 73,62.5 36.5,125 "
     id="polygon1"
     transform="translate(215)" /><polygon
     style="fill:#017ac0"
     points="73,62.5 109.5,0 146,62.5 109.5,125 "
     id="polygon2"
     transform="translate(215)" /><polygon
     style="fill:#017ac0"
     points="182.5,125 146,62.5 182.5,0 219,62.5 "
     id="polygon3"
     transform="translate(215)" /><path
     d="m 14.500865,43.818553 v 22.119956 q 0,0.842665 0.945693,1.053331 3.677696,0.526666 6.935085,0.526666 8.721394,0 12.714321,-3.159994 4.098005,-3.265326 4.098005,-9.901313 0,-5.898655 -4.728467,-8.637316 -4.62339,-2.843995 -15.446325,-2.843995 h -3.677696 q -0.840616,0 -0.840616,0.842665 z m 0,-30.75727 v 18.011963 q 0,0.947998 0.840616,0.947998 h 3.047234 q 9.772165,0 14.080323,-2.633328 4.413236,-2.738661 4.413236,-8.005317 0,-5.05599 -3.57262,-7.478651 -3.572619,-2.422662 -11.663551,-2.422662 -3.677696,0 -6.304622,0.421332 -0.840616,0.210667 -0.840616,1.158665 z M 5.8845473,78.157151 Q 3.3626984,77.946485 1.6814658,76.050489 2.3313741e-4,74.049159 2.3313741e-4,71.415831 V 7.5839602 q 0,-2.633328 1.68123266259,-4.5293242 Q 3.3626984,1.0533068 5.9896243,0.84264052 13.765326,-2.4443793e-5 21.015641,-2.4443793e-5 q 29.421571,0 29.421571,19.275961443793 0,6.42532 -4.308159,11.16531 -4.308159,4.739991 -11.34832,6.109321 -0.105077,0 -0.105077,0.105333 0,0.210666 0.105077,0.210666 8.616317,1.263998 13.449861,6.425321 4.93862,5.055989 4.93862,12.534642 0,11.586643 -7.565546,17.379964 -7.565547,5.793322 -23.537257,5.793322 -7.985854,0 -16.1818637,-0.842665 z M 102.97269,14.114614 93.725907,47.189213 q -0.105077,0.315999 0.105078,0.631999 0.210154,0.315999 0.525385,0.315999 h 17.44279 q 0.31523,0 0.52538,-0.315999 0.21016,-0.316 0.10508,-0.631999 l -9.24678,-33.074599 q 0,-0.105333 -0.10508,-0.105333 -0.10507,0 -0.10507,0.105333 z M 75.757734,77.946485 q -2.206618,0 -3.467542,-1.790663 -1.260925,-1.790663 -0.525385,-3.897326 L 93.515753,6.7412953 q 0.945694,-2.5279949 3.047234,-4.1079918 2.206618,-1.5799967 4.833543,-1.5799967 h 3.78277 q 2.73201,0 4.83355,1.5799967 2.20662,1.5799969 3.04724,4.1079918 l 21.75094,65.5172007 q 0.73554,2.106663 -0.52538,3.897326 -1.26093,1.790663 -3.46755,1.790663 h -3.78277 q -2.52185,0 -4.72847,-1.579997 -2.10154,-1.68533 -2.83708,-4.213325 l -3.36247,-11.902642 q -0.10507,-0.842665 -1.15584,-0.842665 H 91.204059 q -0.945694,0 -1.155848,0.842665 l -3.362465,11.902642 q -0.630462,2.527995 -2.83708,4.213325 -2.101541,1.579997 -4.728467,1.579997 z m 87.526086,0 q -2.41677,0 -4.20308,-1.790663 -1.78631,-1.790663 -1.78631,-4.213325 V 7.0572946 q 0,-2.4226617 1.78631,-4.2133248 1.78631,-1.790663 4.20308,-1.790663 h 35.7262 q 2.41676,0 4.20308,1.790663 1.7863,1.7906631 1.7863,4.2133248 0,2.4226618 -1.7863,4.2133254 -1.78632,1.68533 -4.20308,1.68533 h -26.05911 q -0.9457,0 -0.9457,0.947998 V 30.86258 q 0,0.947998 0.9457,0.947998 h 24.27279 q 2.41678,0 3.99293,1.68533 1.68123,1.68533 1.68123,4.002658 0,2.317329 -1.68123,4.002659 -1.57615,1.579996 -3.99293,1.579996 h -24.27279 q -0.9457,0 -0.9457,0.947999 v 21.066624 q 0,0.947998 0.9457,0.947998 h 26.05911 q 2.41676,0 4.20308,1.790663 1.7863,1.68533 1.7863,4.107992 0,2.422662 -1.7863,4.213325 -1.78632,1.790663 -4.20308,1.790663 z"
     id="text1"
     style="font-size:105.205px;font-family:'Rounded Mplus 1c Bold';-inkscape-font-specification:'Rounded Mplus 1c Bold, ';letter-spacing:12.0955px;fill:#a7a6a6;stroke-width:0.999995"
     aria-label="BAE" /><path
     d="m 17.469699,125.00005 q -7.8128047,0 -12.6654786,-4.80001 Q 7.3160565e-5,115.35203 7.3160565e-5,107.00001 q 0,-8.448013 4.804147239435,-13.200022 4.8041472,-4.80001 13.2963266,-4.80001 3.493925,0 6.357003,0.480001 1.164642,0.192001 1.941069,1.152003 0.776428,0.912001 0.776428,2.112003 v 0.192001 q 0,1.008002 -0.824955,1.632003 -0.824953,0.624001 -1.844015,0.384001 -2.863078,-0.624001 -5.677629,-0.624001 -5.871736,0 -8.92892,3.216006 -3.0086579,3.168005 -3.0086579,9.456015 0,6.09601 2.9601312,9.40802 3.0086577,3.26401 8.1039647,3.26401 2.086651,0 4.124774,-0.576 0.388213,-0.096 0.388213,-0.528 v -9.50402 q 0,-0.43201 -0.388213,-0.43201 h -6.065843 q -1.067588,0 -1.844016,-0.72 -0.727901,-0.768 -0.727901,-1.824 0,-1.104 0.727901,-1.824 0.776428,-0.76801 1.844016,-0.76801 h 10.190615 q 1.116115,0 1.94107,0.81601 0.824955,0.816 0.824955,1.92 v 13.96803 q 0,1.248 -0.727901,2.256 -0.727902,1.00801 -1.892544,1.34401 -4.124772,1.2 -8.880393,1.2 z M 54.234444,94.95199 v 10.41602 q 0,0.384 0.436741,0.384 h 2.426337 q 8.637759,0 8.637759,-6.096009 0,-5.424013 -8.006911,-5.424013 -1.455803,0 -3.057185,0.240001 -0.436741,0.096 -0.436741,0.480001 z m -3.930665,29.56806 q -1.116115,0 -1.94107,-0.816 -0.824955,-0.81601 -0.824955,-1.92001 V 92.455985 q 0,-1.152002 0.776428,-2.064004 0.776427,-0.912002 1.941069,-1.008002 4.124773,-0.384001 7.958386,-0.384001 7.13343,0 10.675882,2.640005 3.542452,2.592005 3.542452,7.344015 0,3.408002 -1.892543,6.000012 -1.844015,2.592 -4.998254,3.648 -0.04852,0 -0.04852,0.048 0,0.096 0.04852,0.096 2.329284,1.44 3.979194,5.66401 l 2.911603,7.53601 q 0.339687,0.912 -0.242633,1.72801 -0.533795,0.816 -1.50433,0.816 H 69.18068 q -1.261696,0 -2.280757,-0.672 -1.019062,-0.72 -1.455802,-1.87201 l -2.717497,-7.39201 q -0.873482,-2.304 -1.989597,-3.024 -1.116115,-0.72001 -3.833612,-0.72001 h -2.23223 q -0.436741,0 -0.436741,0.432 v 10.51202 q 0,1.104 -0.824955,1.92001 -0.776428,0.816 -1.892542,0.816 z m 61.853101,-17.52004 q 0,-12.480021 -9.22009,-12.480021 -9.220073,0 -9.220073,12.480021 0,12.48003 9.220073,12.48003 9.22009,0 9.22009,-12.48003 z m 2.57191,13.24803 q -4.31888,4.75201 -11.792,4.75201 -7.473111,0 -11.840517,-4.75201 -4.31888,-4.75201 -4.31888,-13.24803 0,-8.496013 4.31888,-13.248022 4.367406,-4.75201 11.840517,-4.75201 7.47312,0 11.792,4.75201 4.36741,4.752009 4.36741,13.248022 0,8.49602 -4.36741,13.24803 z m 46.71269,-8.20802 q 0,12.96003 -13.10222,12.96003 -13.10222,0 -13.10222,-12.96003 V 92.215985 q 0,-1.104002 0.82496,-1.920004 0.82495,-0.816002 1.94107,-0.816002 h 1.35875 q 1.11611,0 1.94107,0.816002 0.82496,0.816002 0.82496,1.920004 v 20.208045 q 0,3.74401 1.50432,5.424 1.55286,1.63201 4.80415,1.63201 3.25129,0 4.75562,-1.63201 1.55286,-1.67999 1.55286,-5.424 V 92.215985 q 0,-1.104002 0.82495,-1.920004 0.82495,-0.816002 1.94107,-0.816002 h 1.16464 q 1.11612,0 1.94107,0.816002 0.82495,0.816002 0.82495,1.920004 z m 25.02126,-17.08803 v 11.56802 q 0,0.336 0.38822,0.43201 1.84401,0.23999 3.59098,0.23999 3.93066,0 5.96879,-1.68 2.08664,-1.728 2.08664,-4.89601 0,-6.384012 -8.05543,-6.384012 -1.74697,0 -3.59098,0.240001 -0.38822,0.096 -0.38822,0.480001 z m -3.97919,29.56806 q -1.11612,0 -1.94106,-0.816 -0.77644,-0.81601 -0.77644,-1.92001 V 92.455985 q 0,-1.152002 0.77644,-2.064004 0.77642,-0.912002 1.94106,-1.008002 4.12477,-0.384001 7.95839,-0.384001 7.27901,0 10.91851,2.880006 3.63951,2.832005 3.63951,8.256026 0,6 -3.54245,9.07201 -3.49393,3.07201 -10.38473,3.07201 -1.60138,0 -4.22182,-0.192 -0.38822,0 -0.38822,0.384 v 9.31201 q 0,1.104 -0.82495,1.92001 -0.82496,0.816 -1.94107,0.816 z"
     id="text2"
     style="font-size:48.2627px;line-height:0;font-family:'Rounded Mplus 1c Bold';-inkscape-font-specification:'Rounded Mplus 1c Bold, ';letter-spacing:11.082px;fill:#a7a6a6"
     aria-label="GROUP&#10;" /></svg>
